*
G04 Job   : E:\2017\MAKAHIYA\PCB\PCB\PCB.pcb*
G04 User  : WIN10:root*
G04 Layer : EtchLayerTop.gdo*
G04 Date  : Thu Jan 05 07:04:39 2017*
G04 Mentor Graphics Example Gerber Output Definition*
%ICAS*%
%MOIN*%
%FSLAX24Y24*%
%OFA0.0000B0.0000*%
G90*
G74*
%AMVB_RECTANGLE*
21,1,$1,$2,0,0,$3*
%
%ADD10C,0.00500*%
%ADD12C,0.00591*%
%ADD14C,0.00591*%
%ADD15C,0.01575*%
%ADD13C,0.01969*%
%ADD17C,0.02362*%
%ADD16C,0.03150*%
%ADD11C,0.03937*%
%ADD20C,0.05906*%
%ADD42O,0.10969X0.03000*%
%ADD43O,0.03000X0.10969*%
%ADD34O,0.19685X0.11811*%
%ADD33O,0.11811X0.19685*%
%ADD21VB_RECTANGLE,0.05906X0.05906X0.00000*%
%ADD35VB_RECTANGLE,0.10236X0.10236X90.00000*%
%ADD70VB_RECTANGLE,0.01181X0.06299X0.00000*%
%ADD18VB_RECTANGLE,0.01181X0.07874X0.00000*%
%ADD36VB_RECTANGLE,0.02362X0.00984X180.00000*%
%ADD37VB_RECTANGLE,0.02362X0.00984X270.00000*%
%ADD32VB_RECTANGLE,0.03150X0.12205X180.00000*%
%ADD72VB_RECTANGLE,0.03543X0.03150X0.00000*%
%ADD31VB_RECTANGLE,0.03543X0.03150X90.00000*%
%ADD38VB_RECTANGLE,0.03937X0.02362X0.00000*%
%ADD19VB_RECTANGLE,0.03937X0.02362X270.00000*%
%ADD27VB_RECTANGLE,0.03937X0.06299X180.00000*%
%ADD41VB_RECTANGLE,0.03937X0.06299X270.00000*%
%ADD30VB_RECTANGLE,0.03937X0.07087X90.00000*%
%ADD45VB_RECTANGLE,0.04134X0.03937X270.00000*%
%ADD73VB_RECTANGLE,0.04528X0.12598X180.00000*%
%ADD39VB_RECTANGLE,0.04724X0.06299X0.00000*%
%ADD24VB_RECTANGLE,0.05906X0.12205X0.00000*%
%ADD29VB_RECTANGLE,0.05906X0.12205X90.00000*%
%ADD26VB_RECTANGLE,0.05906X0.14961X180.00000*%
%ADD23VB_RECTANGLE,0.05906X0.18898X90.00000*%
%ADD71VB_RECTANGLE,0.06299X0.01181X0.00000*%
%ADD40VB_RECTANGLE,0.06299X0.13780X90.00000*%
%ADD22VB_RECTANGLE,0.07874X0.11811X0.00000*%
%ADD25VB_RECTANGLE,0.07874X0.11811X90.00000*%
%ADD44VB_RECTANGLE,0.08661X0.04134X0.00000*%
%ADD28VB_RECTANGLE,0.08661X0.06693X90.00000*%
G01*
G36*
X157Y24892D02*
G02X187Y24921I30D01*
G01X416*
Y18391*
G03X475Y18332I59*
G01X1237*
G02X1267Y18302J30*
X1257Y18281I30*
G03X1233Y18224I54J57*
G01Y17810*
G03X1257Y17753I78*
G02X1267Y17732I20J21*
X1237Y17702I30*
G01X475*
G03X416Y17643J59*
G01Y17230*
G03X430Y17191I59*
G01Y16395*
G03X489Y16336I59*
G01X1251*
G02X1281Y16306J30*
X1272Y16285I30*
G03X1247Y16227I54J58*
G01Y15814*
G03X1272Y15757I79*
G02X1281Y15735I21J22*
X1251Y15706I30*
G01X489*
G03X430Y15647J59*
G01Y15233*
G03X489Y15174I59*
G01X1192*
Y10514*
G03X1212Y10462I79*
G01Y9375*
G03X1271Y9316I59*
G01X2452*
G03X2511Y9375J59*
G01Y10162*
G03X2452Y10221I59*
G01X1271*
G03X1212Y10162J59*
G01Y10462*
G03X1271Y10435I59J52*
G01X2452*
G03X2531Y10514J79*
G01Y10770*
G02X2560Y10799I29*
G01X2594*
G03X2670Y10831J108*
G01X2741Y10902*
G02X2762Y10911I21J21*
X2792Y10881J30*
G01Y10728*
G03X2871Y10649I79*
G01X3264*
G03X3343Y10728J79*
G01Y11358*
G03X3264Y11436I79*
G01X3205*
G02X3176Y11466J30*
G01Y11486*
G02X3186Y11509I29*
G03X3248Y11643I115J134*
X3071Y11821I177*
X2894Y11643J178*
X2940Y11525I177*
X2950Y11514I131J118*
G02X2959Y11493I20J21*
G01Y11466*
G02X2930Y11436I29*
G01X2871*
G03X2792Y11358J78*
G01Y11180*
G02X2762Y11151I30*
G01X2729*
G03X2652Y11119J108*
G01X2581Y11048*
G02X2560Y11039I21J21*
X2531Y11069J30*
G01Y11301*
G03X2452Y11380I79*
G01X1271*
G03X1192Y11301J79*
G01Y15174*
X1355*
G03X1414Y15233J59*
G01Y15647*
G03X1399Y15686I59*
G02X1392Y15706I22J20*
X1421Y15735I29*
G01X1719*
G03X1743Y15739J79*
G01Y13371*
G03X1802Y13312I59*
G01X2460*
G02X2490Y13283J29*
G01Y12624*
G03X2549Y12565I59*
G01X2849*
G03X2908Y12624J59*
G01Y13671*
G03X2849Y13730I59*
G01X1802*
G03X1743Y13671J59*
G01Y15739*
G03X1745I24J75*
G01Y14009*
G03X1954Y13800I209*
G01X2751*
G03X2960Y14009J209*
X2751Y14219I209*
G01X1954*
G03X1745Y14009J210*
G01Y14521*
G03X1954Y14312I209*
G01X2751*
G03X2960Y14521J209*
X2751Y14730I209*
G01X1954*
G03X1745Y14521J209*
G01Y15021*
G03X1954Y14812I209*
G01X2751*
G03X2960Y15021J209*
X2751Y15230I209*
G01X1954*
G03X1745Y15021J209*
G01Y15521*
G03X1954Y15312I209*
G01X2751*
G03X2960Y15521J209*
X2751Y15730I209*
G01X1954*
G03X1745Y15521J209*
G01Y15739*
G03X1797Y15801I26J75*
G02X1826Y15826I29J4*
X1841Y15822J29*
G03X1954Y15793I113J199*
G01X2751*
G03X2979Y16021J228*
X2751Y16250I228*
G01X1954*
G03X1841Y16220J229*
G02X1826Y16216I15J26*
X1797Y16241J30*
G03X1719Y16306I78J14*
G01X1421*
G02X1392Y16336J30*
X1399Y16355I29*
G03X1414Y16395I44J40*
G01Y16808*
G03X1355Y16867I59*
G01X489*
G03X430Y16808J59*
G01Y17191*
G03X475Y17171I45J39*
G01X1341*
G03X1400Y17230J59*
G01Y17643*
G03X1385Y17682I59*
G02X1377Y17702I22J20*
X1407Y17732I30*
G01X1705*
G03X1745Y17742J78*
G01Y16521*
G03X1954Y16312I209*
G01X2751*
G03X2960Y16521J209*
X2751Y16730I209*
G01X1954*
G03X1745Y16521J209*
G01Y17021*
G03X1954Y16812I209*
G01X2751*
G03X2960Y17021J209*
X2751Y17230I209*
G01X1954*
G03X1745Y17021J209*
G01Y17521*
G03X1954Y17312I209*
G01X2751*
G03X2960Y17521J209*
X2751Y17730I209*
G01X1954*
G03X1745Y17521J209*
G01Y17742*
G03X1784Y17806I40J68*
G02X1813Y17834I29J1*
X1829Y17829J29*
G03X1954Y17793I125J192*
G01X2751*
G03X2979Y18021J228*
X2751Y18250I228*
G01X1954*
G03X1829Y18213J229*
G02X1813Y18208I16J25*
X1783Y18234J30*
G03X1705Y18302I78J10*
G01X1407*
G02X1377Y18332J30*
X1385Y18352I30*
G03X1400Y18391I44J39*
G01Y18804*
G03X1341Y18863I59*
G01X475*
G03X416Y18804J59*
G01Y24921*
X709*
Y24016*
G03X984Y23740I275*
X1260Y24016J276*
X984Y24291I276*
X709Y24016J275*
G01Y24921*
X1743*
Y20371*
G03X1745Y20356I59*
G01Y18521*
G03X1954Y18312I209*
G01X2751*
G03X2960Y18521J209*
X2751Y18730I209*
G01X1954*
G03X1745Y18521J209*
G01Y19021*
G03X1954Y18812I209*
G01X2751*
G03X2960Y19021J209*
X2751Y19230I209*
G01X1954*
G03X1745Y19021J209*
G01Y19521*
G03X1954Y19312I209*
G01X2751*
G03X2960Y19521J209*
X2751Y19730I209*
G01X1954*
G03X1745Y19521J209*
G01Y20021*
G03X1954Y19812I209*
G01X2751*
G03X2960Y20021J209*
X2751Y20230I209*
G01X1954*
G03X1745Y20021J209*
G01Y20356*
G03X1802Y20312I57J15*
G01X2849*
G03X2908Y20371J59*
G01Y21418*
G03X2849Y21477I59*
G01X2549*
G03X2490Y21418J59*
G01Y20760*
G02X2460Y20730I30*
G01X1802*
G03X1743Y20671J59*
G01Y24921*
X2983*
Y22001*
G03X2990Y21973I59*
G01Y12774*
G03X3199Y12565I209*
X3408Y12774J209*
G01Y13570*
G03X3199Y13780I209*
X2990Y13570J210*
G01Y20472*
G03X3199Y20263I209*
X3408Y20472J209*
G01Y21269*
G03X3199Y21478I209*
X2990Y21269J209*
G01Y21973*
G03X3042Y21942I52J28*
G01X3278*
G03X3337Y22001J59*
G01Y22395*
G03X3278Y22454I59*
G01X3042*
G03X2983Y22395J59*
G01Y24921*
X5632*
G02X5662Y24892J29*
X5654Y24872I30*
G03X5640Y24833I45J39*
G01Y23613*
G03X5699Y23554I59*
G01X6014*
G03X6068Y23591J59*
G02X6096Y23609I28J12*
X6124Y23589J30*
G03X6199Y23534I75J24*
G01X6514*
G03X6589Y23589J79*
G02X6617Y23609I28J10*
X6644Y23591J30*
G03X6699Y23554I55J22*
G01X7014*
G03X7073Y23613J59*
G01Y24833*
G03X7058Y24872I59*
G02X7051Y24892I22J20*
X7080Y24921I29*
G01X7132*
G02X7162Y24892J29*
X7154Y24872I30*
G03X7140Y24833I45J39*
G01Y23613*
G03X7199Y23554I59*
G01X7293*
G02X7322Y23524J30*
X7313Y23503I29*
G01X7245Y23435*
G03X7199Y23337I111J112*
G02X7178Y23311I29J2*
G03X7131Y23276I21J76*
G02X7106Y23262I25J15*
X7081Y23276J29*
G03X7014Y23314I67J41*
G01X6699*
G03X6631Y23276J79*
G02X6606Y23262I25J15*
X6581Y23276J29*
G03X6514Y23314I67J41*
G01X6199*
G03X6131Y23276J79*
G02X6106Y23262I25J15*
X6081Y23276J29*
G03X6014Y23314I67J41*
G01X5699*
G03X5620Y23235J79*
G01Y22014*
G03X5699Y21936I79*
G01X6014*
G03X6081Y21974J78*
G02X6106Y21988I25J16*
X6131Y21974J30*
G03X6199Y21936I68J40*
G01X6514*
G03X6581Y21974J78*
G02X6606Y21988I25J16*
X6631Y21974J30*
G03X6699Y21936I68J40*
G01X7014*
G03X7081Y21974J78*
G02X7106Y21988I25J16*
X7131Y21974J30*
G03X7199Y21936I68J40*
G01X7514*
G03X7581Y21974J78*
G02X7606Y21988I25J16*
X7631Y21974J30*
G03X7699Y21936I68J40*
G01X8014*
G03X8092Y22014J78*
G01Y22438*
G02X8122Y22467I30*
G01X8392*
G02X8413Y22459J29*
G01X8766Y22105*
G03X8843Y22074I77J77*
G01X9362*
G02X9384Y22064J30*
G03X9516Y22005I132J118*
X9693Y22182J177*
X9516Y22359I177*
X9384Y22300J177*
G02X9362Y22290I22J20*
G01X8900*
G02X8879Y22299J30*
G01X8566Y22612*
G02X8558Y22631I21J21*
G03X8400Y22782I158J6*
G01X8122*
G02X8092Y22812J30*
G01Y23235*
G03X8087Y23265I78*
G02X8084Y23276I27J11*
X8114Y23305I30*
G01X8413*
G02X8435Y23296J29*
G03X8567Y23237I132J118*
X8744Y23414J177*
X8567Y23591I177*
X8435Y23532J177*
G02X8413Y23522I22J20*
G01X8103*
G02X8073Y23552J30*
X8079Y23568I30*
G03X8092Y23613I65J45*
G01Y24036*
G02X8122Y24066I30*
G01X8139*
G03X8169Y24068J157*
G02X8175Y24069I6J28*
G01X8298*
G02X8311Y24066J29*
G03X8386Y24049I75J161*
X8563Y24227J178*
X8386Y24404I177*
X8311Y24387J177*
G02X8298Y24384I13J27*
G01X8143*
G03X8125Y24383J157*
G02X8122I3J29*
X8092Y24412J29*
G01Y24833*
G03X8080Y24876I78*
G02X8075Y24892I25J16*
X8105Y24921I30*
G01X10802*
G02X10831Y24892J29*
X10822Y24871I29*
G01X10787Y24835*
G03X10741Y24740I111J111*
G02X10712Y24714I29J3*
G01X10603*
G03X10524Y24635J79*
G01Y23415*
G03X10531Y23382I79*
G02X10534Y23369I26J13*
X10505Y23340I29*
G01X10320*
G02X10299Y23348J29*
G01X10200Y23447*
G02X10192Y23468I21J21*
X10214Y23496I29*
G03X10272Y23572I21J76*
G01Y24635*
G03X10193Y24714I79*
G01X9603*
G03X9524Y24635J79*
G01Y23622*
G02X9494Y23593I30*
X9486Y23594J29*
G03X9345Y23615I141J475*
X8850Y23119J496*
X9345Y22624I495*
X9840Y23119J495*
X9824Y23244I495*
G02X9823Y23251I29J7*
X9853Y23281I30*
X9874Y23272J30*
G01X10109Y23037*
G03X10234Y22985I125J125*
G01X11859*
G03X11984Y23037J177*
G01X12792Y23844*
G02X12813Y23853I21J20*
G01X13375*
G02X13404Y23824J29*
G01Y23638*
G02X13375Y23608I29*
X13366Y23610J30*
G03X13225Y23630I141J475*
X12730Y23135J495*
X13225Y22640I495*
X13720Y23121J495*
G02X13750Y23150I30J1*
X13771Y23141J30*
G01X13947Y22964*
G03X13954Y22958I167J167*
G02X13964Y22936I20J22*
X13947Y22910I30*
G03X13904Y22840I36J70*
G01Y22416*
G02X13875Y22387I29*
G01X13615*
G03X13504Y22341J158*
G01X12842Y21679*
G03X12796Y21567I111J112*
G01Y21004*
G02X12766Y20974I30*
G01X12658*
G03X12579Y20896J78*
G01Y19400*
G03X12658Y19321I79*
G01X13099*
G02X13128Y19291J30*
X13115Y19267I29*
G03X13079Y19201I43J66*
G01Y18884*
G02X13050Y18855I29*
G01X11965*
G02X11936Y18884J29*
G01Y19190*
G03X11899Y19256I79*
G02X11885Y19281I15J25*
X11914Y19311I29*
G01X11960*
G03X12038Y19390J79*
G01Y20886*
G03X11960Y20964I78*
G01X11851*
G02X11822Y20994J30*
G01Y21249*
G03X11776Y21360I158*
G01X11661Y21475*
G02X11653Y21495I21J20*
X11682Y21525I29*
G01X11693*
G03X11772Y21604J79*
G01Y22824*
G03X11693Y22903I79*
G01X11103*
G03X11024Y22824J79*
G01Y21604*
G03X11103Y21525I79*
G01X11212*
G02X11241Y21499J30*
G03X11287Y21404I157J16*
G01X11498Y21192*
G02X11507Y21171I21J21*
G01Y20994*
G02X11477Y20964I30*
G01X11369*
G03X11290Y20886J78*
G01Y20064*
G02X11261Y20035I29*
X11235Y20050J29*
G03X11080Y20142I155J85*
X10902Y19965J177*
X10961Y19833I178*
G02X10971Y19811I19J22*
G01Y19386*
G03X11003Y19310I109*
G01X11222Y19090*
G02X11231Y19069I21J21*
X11201Y19040I30*
G01X10777*
G03X10700Y19008J108*
G01X10427Y18735*
G02X10406Y18726I21J21*
G01X10288*
G02X10259Y18756J30*
X10268Y18777I29*
G03X10293Y18835I54J58*
G01Y19189*
G03X10236Y19265I79*
G02X10214Y19293I8J28*
G01Y19767*
G03X10168Y19878I157*
G01X9797Y20249*
G03X9703Y20294I111J111*
G02X9676Y20324I3J30*
G01Y20886*
G03X9669Y20918I78*
G02X9666Y20931I27J13*
X9696Y20960I30*
G01X10001*
G03X10112Y21006J158*
G01X10509Y21404*
G03X10555Y21499I111J111*
G02X10584Y21525I29J4*
G01X10693*
G03X10772Y21604J79*
G01Y22824*
G03X10693Y22903I79*
G01X10103*
G03X10024Y22824J79*
G01Y21922*
G02X9994Y21893I30*
X9972Y21903J29*
G03X9841Y21962I131J119*
X9709Y21903J178*
G02X9687Y21893I22J19*
G01X9634*
G03X9557Y21861J109*
G01X9535Y21838*
G02X9514Y21830I21J21*
G01X4413*
G03X4336Y21798J108*
G01X4122Y21584*
G03X4090Y21507I77J77*
G01Y21487*
G02X4077Y21462I29*
G03X3977Y21326I122J193*
G02X3949Y21304I28J8*
X3920Y21326J30*
G03X3821Y21462I221J57*
G02X3807Y21487I15J25*
G01Y21532*
G02X3818Y21556I29*
G03X3888Y21697I107J141*
X3829Y21829I177*
G02X3819Y21851I20J22*
G01Y21895*
G02X3843Y21924I30*
G03X3908Y22001I14J77*
G01Y22395*
G03X3829Y22473I79*
G01X3593*
G03X3514Y22395J78*
G01Y22001*
G03X3579Y21924I79*
G02X3603Y21895I6J29*
G01Y21851*
G02X3593Y21829I30*
G03X3534Y21697I118J132*
X3582Y21575I177*
G02X3590Y21555I21J20*
G01Y21487*
G02X3577Y21462I29*
G03X3470Y21269I122J193*
G01Y20472*
G03X3699Y20243I229*
X3920Y20415J229*
G02X3949Y20437I29J8*
X3977Y20415J30*
G03X4199Y20243I222J57*
X4420Y20415J229*
G02X4449Y20437I29J8*
X4477Y20415J30*
G03X4699Y20243I222J57*
X4920Y20415J229*
G02X4949Y20437I29J8*
X4977Y20415J30*
G03X5199Y20243I222J57*
X5420Y20415J229*
G02X5449Y20437I29J8*
X5477Y20415J30*
G03X5699Y20243I222J57*
X5920Y20415J229*
G02X5949Y20437I29J8*
X5977Y20415J30*
G03X6199Y20243I222J57*
X6420Y20415J229*
G02X6449Y20437I29J8*
X6477Y20415J30*
G03X6699Y20243I222J57*
X6920Y20415J229*
G02X6949Y20437I29J8*
X6977Y20415J30*
G03X7199Y20243I222J57*
X7427Y20472J229*
G01Y21269*
G03X7199Y21498I228*
X6977Y21326J229*
G02X6949Y21304I28J8*
X6920Y21326J30*
G03X6699Y21498I221J57*
X6477Y21326J229*
G02X6449Y21304I28J8*
X6420Y21326J30*
G03X6199Y21498I221J57*
X5977Y21326J229*
G02X5949Y21304I28J8*
X5920Y21326J30*
G03X5699Y21498I221J57*
X5477Y21326J229*
G02X5449Y21304I28J8*
X5420Y21326J30*
G03X5199Y21498I221J57*
X4977Y21326J229*
G02X4949Y21304I28J8*
X4920Y21326J30*
G03X4699Y21498I221J57*
X4477Y21326J229*
G02X4449Y21304I28J8*
X4420Y21326J30*
G03X4340Y21449I221J57*
G02X4328Y21472I18J23*
X4337Y21493I30*
G01X4449Y21605*
G02X4470Y21613I21J21*
G01X7490*
Y20371*
G03X7549Y20312I59*
G01X8595*
G03X8654Y20371J59*
G01Y20671*
G03X8595Y20730I59*
G01X7937*
G02X7908Y20760J30*
G01Y21418*
G03X7849Y21477I59*
G01X7549*
G03X7490Y21418J59*
G01Y21613*
X9571*
G03X9648Y21645J109*
G01X9668Y21665*
G02X9689Y21674I21J21*
X9710Y21664J30*
G03X9841Y21607I131J120*
X9972Y21666J177*
G02X9994Y21676I22J20*
X10024Y21646J30*
G01Y21604*
G03X10103Y21525I79*
G01X10114*
G02X10143Y21495J30*
X10135Y21475I29*
G01X9944Y21284*
G02X9923Y21275I21J21*
G01X9399*
G02X9386Y21278J30*
G03X9311Y21295I75J160*
X9134Y21118J177*
X9169Y21012I177*
G02X9175Y20994I24J18*
X9145Y20964I30*
G01X9007*
G03X8928Y20886J78*
G01Y19390*
G03X9007Y19311I79*
G01X9598*
G03X9676Y19390J79*
G01Y19853*
G02X9706Y19883I30*
X9727Y19874J30*
G01X9891Y19711*
G02X9899Y19690I21J21*
G01Y19293*
G02X9878Y19265I29*
G03X9820Y19189I21J76*
G01Y18835*
G03X9845Y18777I79*
G02X9854Y18756I20J21*
X9825Y18726I29*
G01X9503*
G03X9427Y18695J108*
G01X8721Y17989*
G02X8700Y17980I21J21*
X8671Y18010J30*
G01Y18011*
G03Y18021I229J10*
X8500Y18243I229*
G02X8478Y18271I7J28*
X8500Y18300I29*
G03X8671Y18521I58J221*
X8500Y18743I229*
G02X8478Y18771I7J28*
X8500Y18800I29*
G03X8671Y19021I58J221*
X8500Y19243I229*
G02X8478Y19271I7J28*
X8500Y19300I29*
G03X8671Y19521I58J221*
X8500Y19743I229*
G02X8478Y19771I7J28*
X8500Y19800I29*
G03X8671Y20021I58J221*
X8442Y20250I229*
G01X7645*
G03X7417Y20021J229*
X7588Y19800I228*
G02X7610Y19771I7J29*
X7588Y19743I29*
G03X7417Y19521I57J222*
X7588Y19300I228*
G02X7610Y19271I7J29*
X7588Y19243I29*
G03X7417Y19021I57J222*
X7588Y18800I228*
G02X7610Y18771I7J29*
X7588Y18743I29*
G03X7417Y18521I57J222*
X7588Y18300I228*
G02X7610Y18271I7J29*
X7588Y18243I29*
G03X7417Y18021I57J222*
X7588Y17800I228*
G02X7610Y17771I7J29*
X7588Y17743I29*
G03X7452Y17643I57J222*
G02X7427Y17630I25J16*
G01X7372*
G03X7343Y17626J109*
G02X7335Y17625I8J28*
G01X7280*
G02X7258Y17634J29*
G03X7126Y17693I132J118*
X6949Y17516J177*
X7126Y17339I177*
X7258Y17398J177*
G02X7280Y17408I22J20*
G01X7367*
G03X7396Y17412J108*
G02X7404Y17413I8J29*
G01X7427*
G02X7452Y17399J30*
G03X7588Y17300I193J122*
G02X7610Y17271I7J29*
X7588Y17243I29*
G03X7417Y17021I57J222*
X7588Y16800I228*
G02X7610Y16771I7J29*
X7588Y16743I29*
G03X7417Y16521I57J222*
X7588Y16300I228*
G02X7610Y16271I7J29*
X7588Y16243I29*
G03X7417Y16021I57J222*
X7588Y15800I228*
G02X7610Y15771I7J29*
X7588Y15743I29*
G03X7417Y15521I57J222*
X7588Y15300I228*
G02X7610Y15271I7J29*
X7588Y15243I29*
G03X7417Y15021I57J222*
X7588Y14800I228*
G02X7610Y14771I7J29*
X7588Y14743I29*
G03X7417Y14521I57J222*
X7588Y14300I228*
G02X7610Y14271I7J29*
X7588Y14243I29*
G03X7417Y14021I57J222*
X7645Y13793I228*
G01X8442*
G03X8671Y14021J228*
X8500Y14243I229*
G02X8478Y14271I7J28*
X8500Y14300I29*
G03X8671Y14521I58J221*
X8500Y14743I229*
G02X8478Y14771I7J28*
X8500Y14800I29*
G03X8671Y15021I58J221*
X8500Y15243I229*
G02X8478Y15271I7J28*
X8500Y15300I29*
G03X8671Y15521I58J221*
X8500Y15743I229*
G02X8478Y15771I7J28*
X8500Y15800I29*
G03X8622Y15879I58J221*
G02X8645Y15890I23J18*
X8665Y15882J29*
G03X8785Y15835I120J130*
X8963Y16012J177*
X8864Y16171I178*
G02X8848Y16197I14J26*
X8851Y16211I30*
G03X8872Y16293I157J82*
X8871Y16312I178*
G02Y16315I29J3*
X8900Y16344I29*
G01X9099*
G02X9128Y16315J29*
G01Y15901*
G03X9160Y15825I109*
G01X9201Y15784*
G02X9210Y15763I21J21*
G01Y15762*
G03X9209Y15752I176J10*
X9220Y15692I177*
X9268Y15620I166J60*
G02X9278Y15598I19J22*
G01Y14193*
G02X9269Y14172I29*
G01X9262Y14165*
G03X9231Y14088I77J77*
G01Y13805*
G03X9339Y13697I108*
G02X9369Y13668J29*
Y13664I30*
G03X9368Y13658I58J6*
G01Y13559*
G03X9369Y13553I59*
G02Y13550I30J3*
X9339Y13520I30*
X9337J30*
G03X9330Y13521I7J108*
G01X9269*
G02X9247Y13530J29*
G03X9115Y13589I132J118*
X8938Y13412J177*
X9115Y13235I177*
X9247Y13294J177*
G02X9269Y13304I22J20*
G01X9319*
G02X9321J30*
G03X9330I9J108*
G01X9365*
G02X9382Y13298J30*
G03X9427Y13284I45J65*
G01X9664*
G03X9714Y13302J79*
G02X9733Y13309I19J23*
X9762Y13279J30*
G01Y13195*
G03X9821Y13136I59*
G01X9905*
G02X9935Y13107J29*
X9928Y13088I30*
G03X9910Y13038I61J50*
G01Y12802*
G03X9924Y12756I79*
G02X9929Y12739I24J17*
G01Y12731*
G02Y12727I29*
G03X9928Y12712I107J15*
G01Y12586*
G02X9918Y12564I29*
G03X9859Y12432I118J132*
X9869Y12373I177*
G02X9871Y12363I28J10*
X9841Y12333I30*
G01X9803*
G02X9782Y12342J30*
G01X9658Y12467*
G02X9649Y12487I21J20*
G01Y12489*
G03Y12499I177J10*
X9472Y12676I177*
X9397Y12659J177*
G02X9384Y12656I13J27*
G01X9266*
G03X9154Y12610J157*
G01X9149Y12605*
G02X9128Y12596I21J20*
G01X7937*
G02X7908Y12625J29*
G01Y13283*
G02X7937Y13312I29*
G01X8595*
G03X8654Y13371J59*
G01Y13671*
G03X8595Y13730I59*
G01X7549*
G03X7490Y13671J59*
G01Y12625*
G02X7460Y12596I30*
G01X7410*
G02X7381Y12625J29*
X7386Y12642I29*
G03X7427Y12774I187J132*
G01Y13570*
G03X7199Y13799I228*
X6977Y13628J229*
G02X6949Y13606I28J7*
X6920Y13628J29*
G03X6699Y13799I221J58*
X6477Y13628J229*
G02X6449Y13606I28J7*
X6420Y13628J29*
G03X6199Y13799I221J58*
X5977Y13628J229*
G02X5949Y13606I28J7*
X5920Y13628J29*
G03X5699Y13799I221J58*
X5477Y13628J229*
G02X5449Y13606I28J7*
X5420Y13628J29*
G03X5199Y13799I221J58*
X4977Y13628J229*
G02X4949Y13606I28J7*
X4920Y13628J29*
G03X4699Y13799I221J58*
X4477Y13628J229*
G02X4449Y13606I28J7*
X4420Y13628J29*
G03X4199Y13799I221J58*
X3977Y13628J229*
G02X3949Y13606I28J7*
X3920Y13628J29*
G03X3699Y13799I221J58*
X3470Y13570J229*
G01Y12774*
G03X3577Y12580I229*
G02X3590Y12555I16J25*
G01Y12535*
G03X3622Y12458I109*
G01X3785Y12295*
G03X3862Y12264I77J77*
G01X3874*
G02X3904Y12234J30*
G01Y12233*
G03Y12226I177J7*
X4029Y12056I177*
G02X4050Y12028I8J28*
X4040Y12005I29*
G03X3975Y11868I112J137*
X4145Y11691I177*
G02X4173Y11662I1J29*
G01Y11409*
G02X4144Y11379I29*
X4120Y11392J30*
G03X4071Y11417I49J34*
G01X3678*
G03X3619Y11358J59*
G01Y10728*
G03X3678Y10669I59*
G01X4071*
G03X4120Y10694J59*
G02X4144Y10706I24J17*
X4173Y10677J29*
G01Y10619*
G02X4165Y10598I29*
G01X3958Y10392*
G02X3937Y10383I21J20*
G01X3486*
G02X3464Y10393J29*
G03X3332Y10452I132J118*
X3196Y10388J177*
G02X3181Y10379I23J19*
G03X3134Y10351I30J104*
G01X3009Y10227*
G03X2979Y10165I77J77*
G02X2950Y10140I29J5*
G01X2889*
G03X2810Y10061J79*
G01Y9432*
G03X2889Y9353I79*
G01X2948*
G02X2978Y9323J30*
G01Y9035*
G02X2969Y9014I30*
G01X2687Y8732*
G02X2666Y8724I21J21*
G01X2560*
G02X2531Y8753J29*
G01Y9009*
G03X2452Y9088I79*
G01X1271*
G03X1192Y9009J79*
G01Y8222*
G03X1212Y8170I79*
G01Y7111*
G03X1271Y7052I59*
G01X2452*
G03X2511Y7111J59*
G01Y7898*
G03X2452Y7957I59*
G01X1271*
G03X1212Y7898J59*
G01Y8170*
G03X1271Y8143I59J52*
G01X2452*
G03X2531Y8222J79*
G01Y8478*
G02X2560Y8507I29*
G01X2723*
G03X2800Y8539J109*
G01X3162Y8902*
G03X3194Y8978I76J76*
G01Y9323*
G02X3224Y9353I30*
G01X3283*
G03X3361Y9432J79*
G01Y10061*
G03Y10072I78*
G02X3360Y10076I29J4*
X3382Y10105I30*
G03X3464Y10157I50J170*
G02X3486Y10166I22J20*
G01X3650*
G02X3679Y10137J29*
X3665Y10112I29*
G03X3637Y10061I31J51*
G01Y9432*
G03X3696Y9372I59*
G01X4090*
G03X4149Y9432J60*
G01Y10061*
G03X4090Y10120I59*
G01X4053*
G02X4023Y10150J30*
X4040Y10177I30*
G03X4071Y10198I46J98*
G01X4358Y10485*
G03X4390Y10562I77J77*
G01Y10662*
G02X4419Y10691I29*
X4441Y10682J29*
G01Y9684*
G03X4500Y9625I59*
G01X5130*
G03X5189Y9684J59*
G01Y10078*
G03X5130Y10137I59*
G01X4500*
G03X4441Y10078J59*
G01Y10682*
G02X4443Y10679I22J20*
G03X4492Y10654I49J34*
G01X5122*
G03X5181Y10713J59*
G01Y11106*
G03X5122Y11165I59*
G01X4492*
G03X4443Y11140J59*
G02X4419Y11128I24J18*
X4390Y11158J30*
G01Y11439*
G02X4419Y11469I29*
X4439Y11461J30*
G03X4492Y11441I53J59*
G01X5095*
G02X5124Y11417J29*
G03X5299Y11269I175J30*
X5476Y11447J178*
X5469Y11497I177*
G02X5467Y11505I28J8*
X5477Y11527I30*
G01Y9392*
G03X5536Y9333I59*
G01X6717*
G03X6776Y9392J59*
G01Y10179*
G03X6717Y10238I59*
G01X5536*
G03X5477Y10179J59*
G01Y10466*
G03X5536Y10407I59*
G01X6717*
G03X6776Y10466J59*
G01Y11254*
G03X6717Y11313I59*
G01X5536*
G03X5477Y11254J59*
G01Y11527*
G02X5497Y11535I20J22*
X5508Y11533J30*
G03X5536Y11527I28J73*
G01X5990*
G02X6020Y11502J29*
G03X6050Y11441I107J16*
G01X6082Y11409*
G03X6159Y11377I77J77*
G01X6924*
Y10132*
G03X6983Y10073I59*
G01X8164*
G03X8223Y10132J59*
G01Y10920*
G03X8164Y10979I59*
G01X6983*
G03X6924Y10920J59*
G01Y11377*
X9768*
G02X9798Y11348J29*
Y11345I30*
G03X9797Y11338I58J7*
G01Y11240*
G03X9801Y11220I59*
G02X9802Y11210I28J10*
X9796Y11191I29*
G03X9778Y11141I60J50*
G01Y11043*
G03X9780Y11022I78*
G02X9781Y11015I28J7*
X9774Y10995I29*
G01X9765Y10986*
G02X9743Y10976I22J19*
X9739J29*
G03X9727Y10977I12J78*
G01X8546*
G03X8467Y10898J79*
G01Y10111*
G03X8546Y10032I79*
G01X8731*
G02X8761Y10003J29*
X8752Y9982I30*
G01X8680Y9910*
G03X8650Y9849I77J77*
G02X8620Y9823I30J4*
G01X8560*
G03X8481Y9745J78*
G01Y9115*
G03X8486Y9087I79*
G02X8488Y9076I27J11*
X8459Y9047I29*
G01X8226*
G02X8197Y9076J29*
X8200Y9089I29*
G03X8206Y9115I53J26*
G01Y9745*
G03X8147Y9804I59*
G01X7753*
G03X7694Y9745J59*
G01Y9115*
G03X7700Y9089I59*
G02X7703Y9076I27J13*
X7673Y9047I30*
G01X7057*
G03X6980Y9015J109*
G01X6847Y8881*
G02X6826Y8873I21J21*
X6796Y8902J29*
G01Y9077*
G03X6717Y9155I79*
G01X5536*
G03X5458Y9077J78*
G01Y9059*
G02X5428Y9029I30*
X5407Y9038J30*
G01X5295Y9150*
G03X5234Y9181I77J76*
G02X5209Y9210I4J29*
G01Y9271*
G03X5130Y9349I79*
G01X4500*
G03X4421Y9271J78*
G01Y8877*
G03X4500Y8798I79*
G01X4660*
G02X4689Y8769J29*
X4682Y8749I29*
G03X4637Y8632I133J117*
X4815Y8454I178*
X4992Y8632J178*
X4947Y8749I177*
G02X4940Y8769I22J20*
X4969Y8798I29*
G01X5130*
G03X5208Y8865J79*
G02X5237Y8890I29J5*
X5258Y8881J30*
G01X5331Y8808*
G02X5339Y8787I21J21*
G01Y8683*
G03X5432Y8576I109*
G02X5458Y8547I4J29*
G01Y8289*
G03X5536Y8211I78*
G01X6691*
G02X6720Y8181J30*
G01Y7811*
G02X6717Y7799I29*
G03X6701Y7723I161J76*
X6878Y7546I177*
X7055Y7723J177*
X7038Y7799I177*
G02X7035Y7811I27J12*
G01Y8389*
G02X7044Y8410I30*
G01X7116Y8482*
G02X7127Y8489I21J21*
G03X7244Y8656I60J167*
X7193Y8780I177*
G02X7185Y8800I21J20*
X7214Y8830I29*
G01X7709*
G02X7738Y8800J30*
X7718Y8772I29*
G03X7663Y8697I24J75*
G01Y8067*
G03X7730Y7990I79*
G02X7755Y7960I5J30*
X7746Y7940I30*
G01X7713Y7906*
G03X7681Y7830I77J76*
G01Y7796*
G02X7652Y7766I29*
G01X7199*
G03X7120Y7687J79*
G01Y6900*
G03X7199Y6821I79*
G01X8380*
G03X8459Y6900J79*
G01Y7687*
G03X8380Y7766I79*
G01X7950*
G02X7921Y7796J30*
X7930Y7817I29*
G01X8015Y7902*
G03X8046Y7963I76J77*
G02X8075Y7989I29J4*
G01X8136*
G03X8214Y8067J78*
G01Y8246*
G02X8240Y8275I30*
G03X8301Y8306I16J107*
G01X8440Y8445*
G02X8460Y8453I20J21*
X8490Y8424J29*
G01Y8067*
G03X8549Y8008I59*
G01X8943*
G03X9002Y8067J59*
G01Y8658*
G02X9031Y8688I29*
G01X9313*
G02X9335Y8678J30*
G03X9467Y8619I132J118*
X9644Y8796J177*
Y8806I177*
G01Y8807*
G02X9652Y8828I29*
G01X10918Y10094*
G02X10938Y10102I20J21*
X10968Y10073J29*
X10967Y10065I30*
G03X10961Y10020I171J45*
X11138Y9843I177*
X11315Y10020J177*
Y10030I177*
G01Y10031*
G02X11324Y10052I30*
G01X11408Y10136*
G02X11428Y10145I20J21*
X11458Y10115J30*
Y10112I30*
G03X11457Y10092I176J20*
X11584Y9922I177*
G02X11605Y9893I8J29*
X11596Y9872I29*
G01X9936Y8212*
G03X9904Y8135I76J77*
G01Y7771*
G02X9874Y7741I30*
G01X8718*
G03X8659Y7682J59*
G01Y6895*
G03X8718Y6836I59*
G01X8910*
G02X8940Y6806J30*
X8939Y6803I30*
G03Y6795I59J8*
G01Y6441*
G03X8998Y6382I59*
G01X9313*
G03X9372Y6441J59*
G01Y6795*
G03Y6803I59*
G02X9371Y6806I29J3*
X9401Y6836I30*
G01X9638*
G02X9668Y6806J30*
Y6803I30*
G03X9667Y6795I78J8*
G01Y6441*
G03X9746Y6362I79*
G01X9931*
G02X9960Y6333J29*
X9952Y6312I29*
G01X9948Y6308*
G02X9927Y6300I21J21*
G01X8915*
G03X8838Y6268J108*
G01X8481Y5911*
G03X8450Y5834I77J77*
G01Y5159*
G02X8441Y5138I30*
G01X7859Y4557*
G02X7839Y4548I20J21*
G01X6381*
G02X6359Y4558J30*
G03X6227Y4617I132J118*
X6050Y4440J177*
X6081Y4340I177*
G02X6086Y4324I24J16*
X6073Y4299I29*
G03X5992Y4151I96J148*
X6067Y4006I177*
G02X6079Y3982I17J24*
X6062Y3955I29*
G03X5958Y3794I73J161*
X6135Y3617I177*
X6165Y3619J177*
G02X6170Y3620I5J29*
X6196Y3603J30*
G01X6203Y3589*
G02X6206Y3576I27J13*
X6196Y3554I30*
G03X6139Y3424I121J130*
X6317Y3247I178*
X6449Y3306J177*
G02X6471Y3316I22J20*
G01X6611*
G03X6629Y3317J108*
G02X6634Y3318I5J29*
X6664Y3288J30*
X6655Y3267I30*
G01X6615Y3227*
G02X6594Y3218I21J21*
G01X6592*
G03X6582Y3219I10J177*
X6405Y3041J178*
X6582Y2864I177*
X6711Y2920J177*
G02X6732Y2929I21J21*
X6761Y2905J30*
G03X6936Y2759I175J31*
X7068Y2818J177*
G02X7090Y2828I22J19*
G01X8404*
G03X8424Y2830J108*
G02X8430I6J29*
X8459Y2801J29*
X8451Y2780I29*
G01X7889Y2218*
G02X7868Y2210I21J21*
G01X7826*
G02X7805Y2218J29*
G01X7431Y2593*
G02X7424Y2604I21J21*
G03X7257Y2721I167J60*
X7080Y2544J177*
X7197Y2377I177*
G02X7208Y2370I10J28*
G01X7637Y1941*
G03X7748Y1895I111J111*
G01X7758*
G02X7788Y1865J30*
G01Y1024*
G02X7758Y994I30*
G01X7749*
G03X7670Y916J78*
G01Y286*
G03X7749Y207I79*
G01X8142*
G03X8221Y286J79*
G01Y916*
G03X8142Y994I79*
G01X8132*
G02X8103Y1024J30*
G01Y1975*
G02X8112Y1996I29*
G01X8477Y2361*
Y286*
G03X8556Y207I79*
G01X8949*
G03X9028Y286J79*
G01Y454*
G02X9058Y484I30*
X9075Y478J30*
G03X9179Y445I104J144*
X9356Y622J177*
X9179Y799I177*
X9075Y765J177*
G02X9058Y760I17J24*
X9028Y789J29*
G01Y916*
G03X8949Y994I79*
G01X8556*
G03X8477Y916J78*
G01Y2361*
X8691Y2575*
G02X8712Y2584I21J20*
X8742Y2555J29*
G01Y2524*
Y2523*
G03X8820Y2445I78J1*
G01X8830*
G02X8860Y2415J30*
G01Y2389*
G03X8906Y2278I157*
G01X9013Y2171*
G03X9125Y2124I112J111*
G01X10091*
G02X10121Y2095J29*
X10112Y2074I30*
G01X10007Y1969*
G03X9938Y1802I167J167*
G01Y1694*
G02X9908Y1665I30*
G01X9879*
G03X9800Y1586J79*
G01Y995*
G03X9879Y917I79*
G01X10469*
G03X10548Y995J78*
G01Y1586*
G03X10514Y1651I79*
G02X10501Y1675I16J24*
X10530Y1705I29*
G01X10800*
Y1291*
G03X11174Y917I374*
X11548Y1291J374*
X11174Y1665I374*
X10800Y1291J374*
G01Y1705*
X10825*
G03X11061Y1936J236*
G02X11090Y1965I29*
G01X11761*
Y1291*
G03X12174Y877I413*
X12587Y1291J414*
X12174Y1704I413*
X11761Y1291J413*
G01Y1965*
X14079*
G02X14108Y1936J29*
X14105Y1921I29*
G03X14074Y1806I206J115*
G01Y1686*
G02X14045Y1657I29*
G01X14015*
G03X13937Y1578J79*
G01Y987*
G03X14015Y909I78*
G01X14606*
G03X14685Y987J78*
G01Y1578*
G03X14606Y1657I79*
G01X14576*
G02X14547Y1686J29*
G01Y1727*
G02X14576Y1757I29*
G01X14937*
Y1283*
G03X15311Y909I374*
X15685Y1283J374*
X15311Y1657I374*
X14937Y1283J374*
G01Y1757*
X15897*
Y1283*
G03X16311Y869I414*
X16724Y1283J414*
X16311Y1696I413*
X15897Y1283J413*
G01Y1757*
X18091*
Y1023*
G03X18169Y944I78*
G01X18760*
G03X18839Y1023J79*
G01Y1614*
G03X18760Y1692I79*
G01X18169*
G03X18091Y1614J78*
G01Y1757*
X18821*
G03X18897Y1788J108*
G01X19091Y1982*
Y1318*
G03X19465Y944I374*
X19839Y1318J374*
X19748Y1563I374*
G02X19740Y1582I22J19*
G01Y1685*
G02X19749Y1706I30*
G01X20051Y2008*
Y1318*
G03X20465Y905I414*
X20878Y1318J413*
X20465Y1732I413*
X20051Y1318J414*
G01Y2008*
X21021Y2978*
G02X21042Y2987I21J21*
G01X22222*
Y1005*
G03X22300Y926I78*
G01X22891*
G03X22970Y1005J79*
G01Y1595*
G03X22891Y1674I79*
G01X22300*
G03X22222Y1595J79*
G01Y2987*
X22655*
G03X22850Y3068J275*
G01X23222Y3439*
Y1300*
G03X23596Y926I374*
X23970Y1300J374*
X23596Y1674I374*
X23222Y1300J374*
G01Y3439*
X23573Y3791*
G02X23594Y3799I21J21*
X23604Y3798J29*
G03X23823Y3761I219J632*
X24182Y3865J669*
G01Y1300*
G03X24596Y887I414*
X25009Y1300J413*
X24596Y1713I413*
X24182Y1300J413*
G01Y3865*
G03X24492Y4430I359J565*
G01Y5217*
G03X23823Y5887I669*
X23154Y5217J670*
G01Y4430*
G03X23190Y4211I669*
G02X23192Y4201I27J10*
X23183Y4180I29*
G01X22550Y3547*
G02X22529Y3538I21J21*
G01X20916*
G03X20721Y3457J276*
G01X19270Y2006*
G03X19189Y1811I195J195*
G01Y1582*
G02X19182Y1563I29*
G03X19091Y1318I283J245*
G01Y1982*
X20307Y3198*
G03X20339Y3275I76J77*
G01Y11103*
G03X20307Y11179I108*
G01X20287Y11199*
G02X20279Y11220I21J21*
X20308Y11250I29*
G01X20628*
G03X20687Y11309J59*
G01Y11624*
G03X20628Y11683I59*
G01X20289*
G02X20259Y11712J29*
G01Y11949*
G02X20289Y11978I30*
G01X20628*
G03X20694Y12013J79*
G01Y9308*
G03X20871Y9130I177*
X21038Y9248J178*
G02X21045Y9259I28J10*
G01X21350Y9564*
G03X21370Y9588I111J111*
G01Y7995*
G03X21547Y7818I177*
X21622Y7835J177*
G02X21635Y7838I13J27*
G01X21721*
G02X21741Y7829J30*
G01X21818Y7753*
G03X21929Y7707I111J111*
G01X21954*
G02X21983Y7677J30*
G01Y7668*
G03X22062Y7589I79*
G01X22298*
G03X22377Y7668J79*
G01Y8061*
G03X22298Y8140I79*
G01X22062*
G03X21988Y8088J79*
G02X21960Y8068I28J10*
X21939Y8077J30*
G01X21909Y8107*
G03X21798Y8153I111J112*
G01X21635*
G02X21622Y8156J29*
G03X21547Y8172I75J161*
X21370Y7995J177*
G01Y9588*
G03X21396Y9675I131J87*
G01Y11575*
G02X21423Y11604I30*
G03X21495Y11683I7J79*
G01Y11998*
G03X21416Y12077I79*
G01X21061*
G03X20983Y11998J79*
G01Y11683*
G03X21054Y11604I78*
G02X21081Y11575I2J29*
G01Y9753*
G02X21073Y9732I29*
G01X20822Y9481*
G02X20811Y9474I21J21*
G03X20694Y9308I60J166*
G01Y12013*
G03X20707Y12057I66J44*
G01Y12372*
G03X20628Y12451I79*
G01X20589*
G02X20560Y12480J29*
G01Y12957*
G03X20528Y13033I109*
G01X20052Y13509*
G03X20043Y13517I76J77*
G02X20032Y13540I18J23*
X20061Y13570I29*
G01X20067*
G03X20146Y13649J79*
G01Y13964*
G03X20067Y14042I79*
G01X19799*
G02X19779Y14051J30*
G01X19759Y14070*
G02X19750Y14091I21J21*
X19780Y14121I30*
G01X20362*
G02X20382Y14112J30*
G01X20776Y13719*
G02X20785Y13698I21J21*
X20755Y13668I30*
G01X20500*
G03X20422Y13590J78*
G01Y13275*
G03X20500Y13196I78*
G01X20855*
G03X20903Y13213J79*
G02X20921Y13219I18J24*
X20942Y13210J30*
G01X22344Y11808*
G02X22353Y11787I20J21*
G01Y11408*
G02X22350Y11395I29*
G03X22333Y11320I161J75*
X22341Y11270I178*
G02X22342Y11261I29J9*
X22312Y11232I30*
X22291Y11240J29*
G01X22277Y11255*
G03X22165Y11301I112J111*
G01X22009*
G02X21996Y11304J30*
G03X21921Y11321I75J160*
X21743Y11144J177*
X21921Y10967I178*
X21996Y10984J177*
G02X22009Y10986I13J27*
G01X22088*
G02X22109Y10978J29*
G01X22174Y10912*
G02X22183Y10892I21J20*
X22153Y10862I30*
G01X21827*
G03X21748Y10783J79*
G01Y9193*
G03X21827Y9114I79*
G01X22250*
G02X22280Y9084J30*
G01Y8912*
G03X22299Y8837I157*
G02X22301Y8831I26J14*
G03X22472Y8700I171J46*
X22650Y8877J177*
X22603Y8997I178*
G02X22595Y9017I21J20*
G01Y9084*
G02X22624Y9114I29*
G01X23047*
G03X23098Y9132J79*
G02X23116Y9139I18J23*
X23146Y9109J30*
G01Y8523*
G02X23137Y8502I30*
G01X22784Y8149*
G02X22763Y8140I21J20*
G01X22613*
G03X22535Y8061J79*
G01Y7668*
G03X22613Y7589I78*
G01X22850*
G03X22928Y7668J79*
G01Y7975*
G02X22937Y7995I30*
G01X23331Y8389*
G03X23362Y8466I77J77*
G01Y9636*
G02X23371Y9657I30*
G01X23509Y9794*
G02X23530Y9803I21J21*
X23559Y9773J30*
G01Y9693*
G03X23638Y9614I79*
G01X24858*
G03X24937Y9693J79*
G01Y10283*
G03X24858Y10362I79*
G01X23638*
G03X23559Y10283J79*
G01Y10124*
G02X23534Y10095I29*
G03X23473Y10065I15J107*
G01X23178Y9769*
X23177Y9768*
G02X23156Y9759I21J21*
X23126Y9787J30*
G03X23047Y9862I79J4*
G01X21827*
G03X21748Y9783J79*
G01Y10193*
G03X21827Y10114I79*
G01X23047*
G03X23126Y10193J79*
G01Y10783*
G03X23047Y10862I79*
G01X22623*
G02X22594Y10888J30*
G03X22549Y10983I157J16*
G01X22431Y11101*
G02X22423Y11121I21J20*
X22452Y11151I29*
X22460Y11150J30*
G03X22511Y11142I51J170*
X22688Y11320J178*
X22671Y11395I177*
G02X22668Y11408I27J13*
G01Y11865*
G03X22622Y11976I157*
G01X21842Y12756*
G02X21833Y12777I21J21*
X21863Y12806I30*
G01X22203*
G02X22225Y12797J29*
G03X22357Y12738I132J118*
X22534Y12915J177*
X22481Y13041I177*
G02X22472Y13062I21J21*
X22502Y13092I30*
G01X23050*
G03X23128Y13170J78*
G01Y13279*
G02X23158Y13308I30*
G01X23180*
G02X23193Y13305J29*
G03X23269Y13288I76J160*
X23446Y13465J177*
X23269Y13643I177*
X23193Y13626J178*
G02X23181Y13623I12J27*
G01X23158*
G02X23128Y13653J30*
G01Y13761*
G03X23050Y13840I78*
G01X21829*
G03X21750Y13761J79*
G01Y13170*
G03X21829Y13092I79*
G01X22212*
G02X22242Y13062J30*
X22233Y13041I30*
G03X22225Y13033I124J126*
G02X22203Y13023I22J19*
G01X21790*
G02X21769Y13032J29*
G01X20669Y14132*
G02X20660Y14153I20J21*
X20685Y14182I29*
G03X20838Y14358I24J176*
X20821Y14433I177*
G02X20818Y14446I27J13*
G01Y14761*
G02X20845Y14790I30*
G03X20917Y14869I7J79*
G01Y15184*
G03X20838Y15263I79*
G01X20484*
G03X20405Y15184J79*
G01Y14869*
G03X20476Y14790I79*
G02X20503Y14761I2J29*
G01Y14446*
G02X20500Y14433I29*
G03X20483Y14362I161J75*
G02X20454Y14333I29*
X20446Y14334J29*
G03X20419Y14337I27J105*
G01X19808*
G02X19787Y14346J30*
G01X19747Y14385*
G02X19739Y14406I21J21*
X19768Y14436I29*
G01X20051*
G03X20110Y14495J59*
G01Y14810*
G03X20051Y14869I59*
G01X19696*
G03X19637Y14810J59*
G01Y14567*
G02X19608Y14537I29*
X19587Y14546J30*
G01X18734Y15399*
G02X18725Y15420I21J21*
X18755Y15450I30*
G01X18820*
G02X18841Y15441J30*
G01X18958Y15324*
G03X19034Y15292I76J76*
G01X19588*
G02X19618Y15262J30*
G01Y15243*
G03X19696Y15164I78*
G01X20051*
G03X20130Y15243J79*
G01Y15558*
G03X20051Y15637I79*
G01X19696*
G03X19618Y15558J79*
G01Y15538*
G02X19588Y15509I30*
G01X19091*
G02X19070Y15517J29*
G01X18953Y15634*
G03X18877Y15666I76J76*
G01X18839*
G02X18809Y15696J30*
X18818Y15716I30*
G01X19615Y16514*
Y15978*
G03X19675Y15919I60*
G01X20029*
G03X20088Y15978J59*
G01Y16293*
G03X20029Y16352I59*
G01X19675*
G03X19615Y16293J59*
G01Y16514*
X19740Y16639*
G02X19761Y16647I21J21*
G01X20029*
G03X20108Y16726J79*
G01Y17041*
G03X20107Y17051I79*
G02Y17055I29J4*
X20136Y17084I29*
G01X20383*
Y16352*
G03X20455Y16274I79*
G02X20482Y16244I3J30*
G01Y16202*
G02X20476Y16184I30*
G03X20439Y16076I140J108*
X20616Y15899I177*
X20793Y16065J177*
G02X20794Y16069I30J2*
G03X20797Y16099I155J30*
G01Y16244*
G02X20823Y16274I29*
G03X20895Y16352I7J78*
G01Y16667*
G03X20816Y16746I79*
G01X20462*
G03X20383Y16667J79*
G01Y17084*
X21205*
G02X21234Y17055J29*
X21216Y17027I29*
G03X21071Y16809I92J218*
X21141Y16642I237*
G01X21418Y16365*
Y14563*
G03X21535Y14397I177*
G02X21546Y14390I10J28*
G01X21582Y14354*
G03X21693Y14308I111J112*
G01X21721*
G02X21750Y14279J29*
G01Y14170*
G03X21829Y14092I79*
G01X23050*
G03X23128Y14170J78*
G01Y14761*
G03X23050Y14840I78*
G01X21829*
G03X21750Y14761J79*
G01Y14728*
G02X21721Y14698I29*
X21703Y14704J30*
G03X21595Y14741I108J141*
X21418Y14563J178*
G01Y16365*
X21793Y15990*
G03X21960Y15921I167J167*
G01X22975*
G02X23005Y15891J30*
X22996Y15870I30*
G03X22850Y15519I349J351*
X23345Y15023I495*
X23670Y15145J496*
G02X23689Y15152I19J22*
X23719Y15123J29*
G01Y14670*
G03X23798Y14592I79*
G01X24861*
G03X24896Y14600J78*
G02X24910Y14603I14J26*
X24939Y14574J29*
G01Y14357*
G02X24910Y14328I29*
X24896Y14331J29*
G03X24861Y14340I35J70*
G01X23640*
G03X23561Y14261J79*
G01Y13670*
G03X23640Y13592I79*
G01X24063*
G02X24093Y13562J30*
G01Y13466*
G03X24112Y13391I157*
G02X24115Y13384I26J14*
G03X24286Y13254I171J47*
X24463Y13431J177*
X24423Y13543I177*
G02X24416Y13562I22J19*
X24445Y13592I29*
G01X24861*
G03X24896Y13600J78*
G02X24910Y13603I14J26*
X24939Y13574J29*
G01Y13435*
G02X24931Y13414I29*
G01X24374Y12857*
G03X24293Y12662I195J195*
G01Y11414*
G02X24283Y11392I29*
G03X24270Y11380I182J207*
G01X24261Y11371*
G02X24240Y11362I21J21*
G01X23846*
G02X23816Y11392J30*
X23817Y11400I30*
G03X23838Y11541I474J141*
X23343Y12036I495*
X22847Y11541J495*
X23343Y11046I496*
X23668Y11168J495*
G02X23687Y11175I19J23*
X23717Y11145J30*
G01Y10693*
G03X23795Y10614I78*
G01X24858*
G03X24922Y10646J79*
G02X24946Y10658I24J18*
X24966Y10649J30*
G01X25081Y10535*
G02X25089Y10514I21J21*
G01Y8200*
G02X25081Y8179I29*
G01X23899Y6998*
G02X23878Y6989I21J21*
G01X23664*
G02X23638Y7006J30*
G03X23035Y7383I603J293*
G01X22248*
G03X21579Y6713J670*
X22248Y6044I669*
G01X23035*
G03X23638Y6421J669*
G02X23664Y6438I26J13*
G01X24005*
G03X24200Y6519J275*
G01X25560Y7879*
G03X25640Y8074I195J195*
G01Y10641*
G03X25560Y10836I275*
G01X25212Y11183*
G03X25018Y11264I194J195*
G01X24966*
G02X24937Y11290J29*
G03X24870Y11361I79J7*
G02X24844Y11390I4J29*
G01Y12536*
G02X24853Y12557I30*
G01X25410Y13114*
G03X25491Y13308I195J194*
G01Y14743*
G03X25410Y14938I276*
G01X24595Y15752*
G03X24474Y15823I195J194*
G02X24461Y15831I8J28*
G01X23968Y16324*
G03X23801Y16393I167J167*
G01X22070*
G02X22049Y16402J30*
G01X21475Y16977*
G03X21399Y17027I167J168*
G02X21381Y17055I12J28*
X21411Y17084I30*
G01X21522*
G02X21543Y17075J29*
G01X22068Y16550*
G03X22145Y16518I77J76*
G01X23072*
G03X23148Y16550J108*
G01X23290Y16691*
G03X23321Y16768I77J77*
G01Y17005*
G02X23351Y17034I30*
G01X23469*
G03X23548Y17113J79*
G01Y17185*
G02X23577Y17214I29*
X23598Y17206J29*
G01X23686Y17117*
G03X23747Y17087I77J77*
G02X23773Y17058I4J29*
G01Y16997*
G03X23851Y16918I78*
G01X24088*
G03X24166Y16997J79*
G01Y17391*
G03X24088Y17470I78*
G01X23875*
G02X23846Y17498J29*
G03X23668Y17670I178J5*
X23590Y17652J177*
G02X23577Y17649I13J26*
X23548Y17678J29*
G01Y17900*
G03X23469Y17979I79*
G01X23351*
G03X23322Y17974J79*
G02X23312Y17972I10J27*
X23301Y17974J29*
G03X23272Y17979I29J74*
G01X23154*
G03X23125Y17974J79*
G02X23115Y17972I10J27*
X23104Y17974J29*
G03X23075Y17979I29J74*
G01X22957*
G03X22929Y17974J79*
G02X22918Y17972I11J27*
X22907Y17974J29*
G03X22878Y17979I29J74*
G01X22760*
G03X22732Y17974J79*
G02X22721Y17972I11J27*
X22710Y17974J29*
G03X22682Y17979I28J74*
G01X22563*
G03X22485Y17900J79*
G01Y17675*
G02X22455Y17645I30*
X22434Y17654J30*
G01X22371Y17717*
G03X22295Y17749I76J77*
G01X21984*
G02X21954Y17778J29*
X21967Y17802I30*
G03X22001Y17867I44J65*
G01Y18261*
G03X21937Y18339I78*
G02X21913Y18368I5J29*
G01Y18504*
G02Y18509I29*
G03X21914Y18512I107J17*
G02X21938Y18537I29J4*
G03X22003Y18614I14J77*
G01Y18675*
G02X22029Y18704I30*
G03X22090Y18735I16J107*
G01X22113Y18758*
G02X22134Y18767I21J21*
X22145Y18764J30*
G01X22158Y18759*
G02X22176Y18732I12J27*
Y18729I30*
G03X22174Y18709I176J20*
X22352Y18532I178*
X22484Y18591J177*
G02X22506Y18601I22J19*
G01X22575*
G03X22652Y18633J108*
G01X22896Y18877*
G03X22928Y18953I77J76*
G02X22957Y18983I29*
G01X23075*
G03X23085Y18984J59*
G02X23090I5J29*
X23108Y18978J29*
G03X23154Y18963I46J64*
G01X23272*
G03X23301Y18969J79*
G02X23312Y18971I11J28*
X23322Y18969J30*
G03X23351Y18963I29J73*
G01X23469*
G03X23548Y19042J79*
G01Y19251*
G02X23577Y19281I29*
X23604Y19263J30*
G03X23766Y19159I162J73*
X23822Y19169J177*
G01Y18809*
G03X24000Y18631I178*
X24132Y18690J178*
G02X24154Y18700I22J19*
G01X24223*
G02X24226J29*
G03X24240Y18699I14J108*
G01X24253*
G02X24282Y18670J29*
G01Y18611*
G03X24347Y18533I79*
G02X24372Y18508I5J29*
G03Y18504I107J14*
G02X24373Y18499I29J5*
G01Y18377*
G02X24348Y18348I30*
G03X24284Y18270I15J78*
G01Y17876*
G03X24344Y17800I79*
G01Y16997*
G03X24403Y16938I59*
G01X24639*
G03X24698Y16997J59*
G01Y17391*
G03X24639Y17450I59*
G01X24403*
G03X24344Y17391J59*
G01Y17800*
G03X24363Y17798I19J76*
G01X24599*
G03X24678Y17876J78*
G01Y18270*
G03X24613Y18348I79*
G02X24589Y18377I6J29*
G01Y18505*
G02X24613Y18534I30*
G03X24676Y18611I16J77*
G01Y19004*
G03X24597Y19083I79*
G01X24361*
G03X24282Y19004J79*
G01Y18946*
G02X24253Y18916I29*
X24250J30*
G03X24239Y18917I11J107*
G01X24154*
G02X24132Y18927J29*
G03X24000Y18986I132J118*
X23822Y18809J177*
G01Y19169*
G03X23943Y19336I56J167*
X23766Y19514I177*
X23755Y19513J178*
G01X23753*
G02X23734Y19520J30*
G03X23666Y19544I68J84*
G01X23577*
G02X23548Y19574J30*
G01Y19684*
G02X23577Y19714I29*
X23583Y19713J30*
G03X23604Y19711I21J107*
G01X23838*
G02X23860Y19701J29*
G03X23992Y19642I132J119*
X24170Y19820J178*
X23992Y19997I178*
X23860Y19938J177*
G02X23838Y19928I22J19*
G01X23661*
G02X23640Y19936J29*
G01X23582Y19995*
G03X23506Y20026I76J77*
G01X23213*
G03X23105Y19918J108*
G02X23075Y19888I30*
G01X22957*
G03X22947J59*
G02X22942Y19887I5J29*
X22925Y19893J30*
G03X22878Y19908I47J64*
G01X22760*
G03X22732Y19903J79*
G02X22721Y19901I11J27*
X22710Y19903J29*
G03X22682Y19908I28J74*
G01X22563*
G03X22485Y19829J79*
G01Y19574*
G02X22455Y19544I30*
G01X22402*
G02X22384Y19550J30*
G03X22275Y19588I109J140*
X22098Y19410J178*
X22175Y19264I177*
G02X22188Y19240I17J24*
X22162Y19211I30*
G03X22018Y19086I26J175*
G02X21990Y19065I28J8*
X21972Y19071J29*
G03X21924Y19087I48J63*
G01X21688*
G03X21609Y19008J79*
G01Y18614*
G03X21673Y18537I79*
G02X21696Y18508I6J29*
G01Y18368*
G02X21672Y18339I29*
G03X21608Y18261I14J78*
G01Y17867*
G03X21642Y17802I78*
G02X21655Y17778I17J24*
X21625Y17749I30*
G01X19888*
G02X19867Y17757J29*
G01X19784Y17840*
G03X19707Y17872I77J76*
G01X19238*
G02X19209Y17901J29*
X19211Y17913I29*
G03X19216Y17936I54J23*
G01Y18291*
G03X19157Y18350I59*
G01X18842*
G03X18783Y18291J59*
G01Y17936*
G03X18788Y17913I59*
G02X18790Y17901I27J12*
X18761Y17872I29*
G01X18511*
G02X18482Y17901J29*
X18483Y17911I29*
G03X18488Y17936I74J25*
G01Y18291*
G03X18409Y18370I79*
G01X18389*
G02X18360Y18398J29*
G03X18328Y18471I109J4*
G01X18185Y18614*
G03X18108Y18646I77J76*
G01X17040*
G02X17011Y18676J30*
X17015Y18691I29*
G03X17026Y18732I67J41*
G01Y19086*
G03X16969Y19162I78*
G02X16948Y19190I8J28*
G01Y19216*
G03X16918Y19307I158*
G02X16913Y19324I25J17*
X16943Y19354I30*
G01X16957*
G03X17036Y19432J78*
G01Y20928*
G03X16957Y21007I79*
G01X16367*
G03X16288Y20928J79*
G01Y19432*
G03X16367Y19354I79*
G01X16476*
G02X16506Y19327J30*
G03X16551Y19232I156J17*
G01X16589Y19194*
G02X16598Y19173I21J21*
X16586Y19149I30*
G03X16554Y19086I47J63*
G01Y18732*
G03X16633Y18653I79*
G01X16850*
G02X16879Y18624J29*
X16871Y18603I29*
G01X16714Y18446*
G03X16682Y18372I76J77*
G02X16652Y18344I30J1*
X16631Y18353J29*
G03X16574Y18378I57J54*
G01X16259*
G03X16180Y18299J79*
G01Y17944*
G03X16225Y17873I79*
G02X16242Y17847I13J26*
X16233Y17826I30*
G01X16009Y17602*
G02X15988Y17594I21J21*
X15959Y17623J29*
G01Y21049*
G02X15968Y21070I29*
G01X16063Y21165*
G02X16084Y21173I21J21*
G01X16085*
G03X16095I10J177*
X16272Y21350J177*
X16095Y21527I177*
X15918Y21350J177*
Y21340I177*
G01Y21339*
G02X15910Y21318I29*
G01X15774Y21182*
G03X15742Y21106I77J76*
G01Y20931*
G02X15713Y20902I29*
X15685Y20922J29*
G03X15611Y20974I74J26*
G01X15020*
G03X14941Y20896J78*
G01Y19400*
G03X14960Y19349I79*
G02X14967Y19330I23J19*
X14937Y19300I30*
G01X14806*
G03X14727Y19222J78*
G01Y18867*
G03X14806Y18789I79*
G01X15121*
G03X15199Y18861J78*
G02X15226Y18888I30J2*
G03X15321Y18933I17J157*
G01X15427Y19039*
G03X15473Y19150I112J111*
G01Y19291*
G02X15502Y19321I29*
G01X15611*
G03X15685Y19374J79*
G02X15713Y19393I28J10*
X15742Y19364J29*
G01Y17575*
G02X15713Y17545I29*
X15692Y17554J30*
G01X15275Y17970*
G02X15267Y17991I21J21*
X15296Y18021I29*
G01X15495*
G03X15554Y18080J59*
G01Y18434*
G03X15495Y18493I59*
G01X15180*
G03X15121Y18434J59*
G01Y18196*
G02X15091Y18167I30*
X15070Y18175J29*
G01X14912Y18334*
G03X14851Y18364I77J77*
G02X14826Y18394I4J30*
G01Y18434*
G03X14747Y18513I79*
G01X14432*
G03X14353Y18434J79*
G01Y18409*
G02X14324Y18379I29*
X14296Y18397J30*
G03X14273Y18433I100J41*
G01X13882Y18823*
G03X13806Y18855I76J76*
G01X13688*
G02X13658Y18884J29*
X13668Y18906I30*
G03X13674Y18912I105J118*
G01X13952Y19190*
G02X13962Y19196I20J21*
G03X14080Y19363I60J167*
X13902Y19540I178*
X13736Y19423J177*
G02X13729Y19412I28J10*
G01X13572Y19255*
G02X13551Y19246I21J21*
X13530Y19255J30*
G03X13473Y19279I57J54*
G01X13308*
G02X13278Y19309J30*
X13292Y19334I30*
G03X13327Y19400I44J66*
G01Y20896*
G03X13248Y20974I79*
G01X13140*
G02X13111Y21004J30*
G01Y21490*
G02X13119Y21511I29*
G01X13672Y22063*
G02X13693Y22072I21J21*
G01X13875*
G02X13904Y22042J30*
G01Y21619*
G03X13983Y21540I79*
G01X14574*
G03X14652Y21619J79*
G01Y22840*
G03X14650Y22859I78*
G02X14649Y22866I29J7*
X14679Y22895I30*
G01X14878*
G02X14908Y22866J29*
X14907Y22859I30*
G03X14904Y22840I76J19*
G01Y21619*
G03X14983Y21540I79*
G01X15092*
G02X15122Y21514J29*
G03X15167Y21419I156J17*
G01X15174Y21412*
G02X15183Y21391I21J21*
G01Y21303*
G02X15180Y21290I30*
G03X15163Y21215I160J75*
X15340Y21038I177*
X15517Y21215J177*
X15500Y21290I177*
G02X15498Y21303I27J13*
G01Y21469*
G03X15494Y21504I158*
G02X15493Y21511I28J7*
X15522Y21540I29*
G01X15574*
G03X15652Y21619J79*
G01Y22840*
G03X15650Y22859I78*
G02X15649Y22866I29J7*
X15679Y22895I30*
G01X15720*
G03X15887Y22964J236*
G01X16781Y23858*
G02X16802Y23867I21J21*
G01X17325*
G02X17354Y23837J30*
G01Y23668*
G02X17325Y23639I29*
X17316Y23640J29*
G03X17175Y23661I141J475*
X16680Y23165J496*
X17175Y22670I495*
X17655Y23042J495*
G02X17683Y23065I28J7*
X17704Y23056J30*
G01X17765Y22995*
G03X17845Y22943I167J167*
G02X17864Y22915I10J28*
X17861Y22903I29*
G03X17854Y22870I72J33*
G01Y21650*
G03X17933Y21571I79*
G01X17944*
G02X17974Y21541J30*
X17965Y21520I30*
G01X17852Y21407*
G02X17831Y21399I21J21*
G01X17707*
G03X17596Y21353J158*
G01X17512Y21269*
G02X17501Y21262I21J21*
G03X17384Y21095I60J167*
X17561Y20918I177*
X17728Y21035J177*
G02X17735Y21046I28J10*
G01X17764Y21075*
G02X17785Y21084I21J21*
G01X17909*
G03X18020Y21130J157*
G01X18340Y21450*
G03X18385Y21544I112J111*
G02X18389Y21557I29J3*
G01Y18724*
G03X18468Y18645I79*
G01X18783*
G03X18861Y18717J79*
G02X18891Y18744I30J3*
G01X18965*
G03X19076Y18790J157*
G01X19169Y18882*
G02X19180Y18889I21J20*
G03X19297Y19056I60J167*
X19120Y19233I177*
X18953Y19116J177*
G02X18946Y19105I28J10*
G01X18911Y19070*
G02X18890Y19061I21J21*
X18861Y19087J30*
G03X18783Y19157I78J9*
G01X18468*
G03X18389Y19078J79*
G01Y21557*
G02X18414Y21571I25J16*
G01X18523*
G03X18602Y21650J79*
G01Y22870*
G03X18600Y22889I79*
G02X18599Y22897I28J8*
X18628Y22926I29*
G01X18828*
G02X18857Y22897J29*
Y22889I29*
G03X18854Y22870I76J19*
G01Y21650*
G03X18933Y21571I79*
G01X18944*
G02X18974Y21541J30*
X18965Y21520I30*
G01X18913Y21468*
G03X18867Y21357I111J111*
G01Y21037*
G02X18837Y21007I30*
G01X18729*
G03X18650Y20928J79*
G01Y19432*
G03X18729Y19354I79*
G01X19320*
G03X19398Y19432J78*
G01Y20928*
G03X19320Y21007I78*
G01X19211*
G02X19182Y21037J30*
G01Y21280*
G02X19190Y21301I29*
G01X19340Y21450*
G03X19385Y21544I112J111*
G02X19414Y21571I29J3*
G01X19523*
G03X19602Y21650J79*
G01Y22870*
G03X19600Y22889I79*
G02X19599Y22897I28J8*
X19628Y22926I29*
G01X19661*
Y18109*
G03X19838Y17932I177*
X20015Y18109J177*
Y18119I177*
G01Y18120*
G02X20023Y18141I29*
G01X20167Y18284*
G02X20188Y18293I21J20*
G01X20628*
G02X20650Y18283J29*
G03X20782Y18224I132J118*
X20959Y18401J177*
X20782Y18579I177*
X20650Y18519J178*
G02X20628Y18510I22J20*
G01X20130*
G03X20054Y18478J109*
G01X19870Y18294*
G02X19849Y18286I21J21*
G01X19848*
G03X19838I10J177*
X19661Y18109J177*
G01Y22926*
X19994*
G02X19999J29*
G03X20037Y22923I38J233*
G01X20372*
G03X20608Y23159J236*
X20372Y23395I236*
G01X20077*
G02X20072J30*
G03X20034Y23399I38J233*
G01X19127*
G02X19097Y23428J29*
X19099Y23437I30*
G03X19102Y23461I76J24*
G01Y23885*
G02X19129Y23914I30*
G03X19223Y23959I17J157*
G01X19414Y24150*
G03X19460Y24262I111J112*
G01Y24333*
G02X19469Y24354I30*
G01X19498Y24383*
G02X19509Y24390I21J21*
G03X19626Y24557I60J167*
X19449Y24734I177*
X19282Y24617J177*
G02X19275Y24606I28J10*
G01X19191Y24522*
G03X19159Y24474I112J112*
G02X19132Y24456I27J12*
X19102Y24486J30*
G01Y24681*
G03X19023Y24760I79*
G01X18433*
G03X18354Y24681J79*
G01Y23461*
G03X18358Y23437I79*
G02X18359Y23428I28J9*
X18330Y23399I29*
G01X18042*
G02X18021Y23407J29*
G01X18011Y23417*
G02X18003Y23438I21J21*
G01Y23510*
G02X18030Y23540I29*
G03X18102Y23618I7J78*
G01Y24681*
G03X18023Y24760I79*
G01X17433*
G03X17354Y24681J79*
G01Y24369*
G02X17325Y24339I29*
G01X16692*
G03X16525Y24270J236*
G01X15631Y23376*
G02X15610Y23368I21J21*
G01X15177*
G02X15147Y23397J29*
X15149Y23406I30*
G03X15152Y23430I75J24*
G01Y24614*
G02X15182Y24644I30*
X15194Y24641J30*
G03X15266Y24626I72J162*
X15443Y24803J177*
X15426Y24879I177*
G02X15423Y24892I27J13*
X15453Y24921I30*
G01X21053*
Y19371*
G03X21119Y19294I79*
G02X21143Y19269I5J29*
G03X21146Y19254I107J14*
G02X21147Y19246I29J8*
G01Y19115*
G02X21123Y19086I30*
G03X21058Y19008I14J78*
G01Y18614*
G03X21076Y18564I79*
G01Y17867*
G03X21135Y17808I59*
G01X21372*
G03X21431Y17867J59*
G01Y18261*
G03X21372Y18320I59*
G01X21135*
G03X21076Y18261J59*
G01Y18564*
G03X21137Y18536I61J50*
G01X21373*
G03X21452Y18614J78*
G01Y19008*
G03X21388Y19086I79*
G02X21363Y19115I5J29*
G01Y19266*
G02X21386Y19295I30*
G03X21447Y19371I18J76*
G01Y19765*
G03X21404Y19835I79*
G02X21389Y19861I14J26*
X21397Y19882I29*
G01X21624Y20109*
Y19371*
G03X21683Y19312I59*
G01X21920*
G03X21979Y19371J59*
G01Y19765*
G03X21920Y19824I59*
G01X21683*
G03X21624Y19765J59*
G01Y20109*
X21627Y20112*
G03X21657Y20173I77J76*
G02X21687Y20198I30J4*
G01X21885*
G03X21964Y20277J79*
G01Y21143*
G03X21885Y21222I79*
G01X21216*
G03X21137Y21143J79*
G01Y20277*
G03X21216Y20198I79*
G01X21336*
G02X21365Y20169J29*
X21357Y20148I29*
G01X21174Y19965*
G03X21142Y19888I76J77*
G01Y19871*
G02X21118Y19842I30*
G03X21053Y19765I14J77*
G01Y24921*
X21157*
Y23761*
G03X21216Y23702I59*
G01X21705*
Y22226*
G03X22160Y21770I455*
X22616Y22226J456*
X22160Y22682I456*
X21705Y22226J456*
G01Y23702*
X21885*
G03X21944Y23761J59*
G01Y24627*
G03X21885Y24686I59*
G01X21216*
G03X21157Y24627J59*
G01Y24921*
X22795*
Y23228*
G03X23071Y22953I276*
X23346Y23228J275*
X23071Y23504I275*
X22795Y23228J276*
G01Y24921*
X23673*
Y22226*
G03X24129Y21770I456*
X24303Y21804J456*
G01Y19341*
G03X24362Y19282I59*
G01X24598*
G03X24657Y19341J59*
G01Y19735*
G03X24598Y19794I59*
G01X24362*
G03X24303Y19735J59*
G01Y21804*
G03X24326Y21814I174J422*
G01Y20277*
G03X24405Y20198I79*
G01X24603*
G02X24632Y20173J29*
G03X24663Y20112I107J15*
G01X24912Y19862*
G02X24921Y19841I21J21*
X24897Y19812I30*
G03X24834Y19735I16J77*
G01Y19341*
G03X24898Y19264I79*
G02X24922Y19235I6J29*
G01Y19111*
G02X24898Y19082I30*
G03X24833Y19004I14J78*
G01Y18611*
G03X24855Y18556I79*
G01Y17876*
G03X24914Y17817I59*
G01X25150*
G03X25209Y17876J59*
G01Y18270*
G03X25150Y18329I59*
G01X24914*
G03X24855Y18270J59*
G01Y18556*
G03X24912Y18532I57J55*
G01X25148*
G03X25227Y18611J79*
G01Y19004*
G03X25163Y19082I79*
G02X25138Y19111I5J29*
G01Y19235*
G02X25163Y19264I30*
G03X25228Y19341I14J77*
G01Y19735*
G03X25164Y19812I79*
G02X25139Y19841I5J29*
G01Y19896*
G03X25108Y19973I108*
G01X24933Y20148*
G02X24924Y20169I21J21*
X24954Y20198I30*
G01X25074*
G03X25153Y20277J79*
G01Y21143*
G03X25074Y21222I79*
G01X24405*
G03X24326Y21143J79*
G01Y21814*
G03X24585Y22226I197J412*
X24129Y22682I456*
X23673Y22226J456*
G01Y24921*
X24346*
Y23761*
G03X24405Y23702I59*
G01X25074*
G03X25133Y23761J59*
G01Y24627*
G03X25074Y24686I59*
G01X24405*
G03X24346Y24627J59*
G01Y24921*
X25719*
G02X25748Y24892J29*
G01Y148*
G02X25719Y118I29*
G01X187*
G02X157Y148J30*
G01Y5329*
G02X187Y5358I30*
X210Y5347J29*
G03X271Y5318I61J50*
G01X621*
Y2326*
G03X700Y2247I79*
G01X3128*
G03X3207Y2326J79*
G01Y3576*
G03X3162Y3647I79*
G02X3145Y3674I12J27*
X3174Y3704I29*
G01X3800*
G03X3878Y3782J78*
G01Y5033*
G03X3800Y5112I78*
G01X724*
G03X645Y5033J79*
G01Y3782*
G03X693Y3710I79*
G02X711Y3683I11J27*
X687Y3654I29*
G03X621Y3576I13J78*
G01Y5318*
X4843*
Y1181*
G03X5118Y906I275*
X5394Y1181J275*
X5118Y1457I276*
X4843Y1181J276*
G01Y5318*
X5828*
G03X5906Y5397J79*
G01Y6647*
G03X5828Y6726I78*
G01X271*
G03X210Y6696J79*
G02X187Y6685I23J19*
X157Y6715J30*
G01Y24892*
X1802Y20371D02*
X2849D01*
Y21418*
X2549*
Y20671*
X1802*
Y20371*
X2849Y12624D02*
Y13671D01*
X1802*
Y13371*
X2549*
Y12624*
X2849*
X7549Y21418D02*
Y20371D01*
X8595*
Y20671*
X7849*
Y21418*
X7549*
X8595Y13671D02*
X7549D01*
Y12624*
X7849*
Y13371*
X8595*
Y13671*
X9603Y23572D02*
X10193D01*
Y24635*
X9603*
Y23572*
X10391Y11988D02*
G03X10380Y12011I29D01*
G02X10358Y12056I37J45*
G01Y12186*
G03X10329Y12215I29*
X10308Y12207J29*
G01X10250Y12149*
G02X10173Y12117I77J76*
G01X9746*
G02X9669Y12149J108*
G01X9505Y12313*
G03X9484Y12322I21J20*
G01X9482*
G02X9472I10J177*
X9397Y12339J177*
G03X9384Y12341I13J27*
G01X9343*
G03X9322Y12333J29*
G01X9316Y12327*
G02X9205Y12281I111J111*
G01X7996*
G03X7966Y12251J30*
G01Y11885*
G02X7907Y11826I59*
G01X7671*
G02X7612Y11885J59*
G01Y12251*
G03X7583Y12281I29*
G01X7464*
G03X7435Y12251J30*
G01Y11885*
G02X7356Y11806I79*
G01X7120*
G02X7041Y11885J79*
G01Y12278*
G02X7070Y12339I79*
G03X7081Y12362I19J23*
G01Y12367*
G02X7086Y12408I157*
G03X7087Y12416I28J8*
X7080Y12435I29*
G02X7041Y12538I119J103*
G01Y12596*
G03X7033Y12616I29*
G02X6977Y12716I166J158*
G03X6949Y12738I28J7*
X6920Y12716J29*
G02X6699Y12545I221J58*
X6477Y12716J229*
G03X6449Y12738I28J7*
X6420Y12716J29*
G02X6199Y12545I221J58*
X5977Y12716J229*
G03X5949Y12738I28J7*
X5920Y12716J29*
G02X5699Y12545I221J58*
X5477Y12716J229*
G03X5449Y12738I28J7*
X5420Y12716J29*
G02X5199Y12545I221J58*
X4977Y12716J229*
G03X4949Y12738I28J7*
X4920Y12716J29*
G02X4699Y12545I221J58*
X4477Y12716J229*
G03X4449Y12738I28J7*
X4420Y12716J29*
G02X4199Y12545I221J58*
X3977Y12716J229*
G03X3949Y12738I28J7*
X3920Y12716J29*
G02X3840Y12594I221J58*
G03X3828Y12570I18J24*
X3837Y12550I30*
G01X3898Y12489*
G03X3919Y12480I21J21*
G01X3935*
G02X4011Y12449J108*
G01X4048Y12411*
G03X4069Y12403I21J21*
G01X4071*
G02X4081I10J177*
X4258Y12226J177*
X4193Y12089I177*
G03X4182Y12066I19J23*
X4203Y12038I30*
G02X4329Y11868I51J170*
Y11858I177*
G01Y11857*
G03X4338Y11836I30*
G01X4358Y11816*
G02X4362Y11812I77J77*
G03X4383Y11802I21J20*
X4413Y11832J30*
G01Y11914*
G02X4492Y11992I79*
G01X5122*
G02X5200Y11914J78*
G01Y11854*
G03X5230Y11825I30*
G01X5254*
G03X5275Y11834J29*
G01X5371Y11930*
G02X5432Y11961I77J76*
G03X5458Y11990I4J29*
G01Y12394*
G02X5536Y12472I78*
G01X6717*
G02X6796Y12394J78*
G01Y11623*
G03X6826Y11594I30*
G01X9768*
G03X9798Y11623J29*
Y11627I30*
G02X9797Y11633I58J6*
G01Y11732*
G02X9856Y11791I59*
G01X10093*
G02X10139Y11769J59*
G03X10161Y11758I22J18*
X10191Y11787J29*
G01Y11899*
G02X10250Y11958I59*
G01X10362*
G03X10391Y11988J30*
G01X10498Y10393D02*
G03X10469Y10423I29D01*
G01X10417*
G02X10358Y10482J59*
G01Y10718*
G02X10380Y10764I59*
G03X10391Y10787I18J23*
X10362Y10816I29*
G01X10250*
G02X10191Y10875J59*
G01Y10959*
G03X10161Y10989I30*
X10143Y10982J30*
G02X10107Y10965I50J61*
G03X10083Y10936I5J29*
G01Y10190*
G02X10051Y10114I109*
G01X9405Y9468*
G03X9397Y9447I21J21*
G01Y9445*
G02Y9436I177J9*
X9376Y9351I177*
G03X9372Y9337I26J14*
X9381Y9316I30*
G01X9386Y9311*
G03X9407Y9302I21J21*
X9428Y9311J30*
G01X10489Y10372*
G03X10498Y10393I20J21*
G01X10821Y3766D02*
X11884D01*
Y4356*
X10821*
Y3766*
X11251Y18510D02*
G03X11243Y18531I29D01*
G01X11234Y18539*
G03X11214Y18548I20J20*
G01X11212*
G02X11202I10J177*
X11025Y18725J177*
X11035Y18784I177*
G03X11037Y18794I28J10*
X11007Y18823I30*
G01X10834*
G03X10813Y18815J29*
G01X10539Y18541*
G02X10503Y18517I76J77*
G03X10484Y18490I11J27*
X10514Y18460I30*
G01X10588*
G02X10647Y18401J59*
G01Y18047*
G02X10626Y18002I59*
G03X10615Y17979I19J23*
X10645Y17949I30*
G01X11084*
G03X11114Y17979J30*
X11107Y17998I30*
G02X11089Y18048I61J50*
G01Y18402*
G02X11168Y18481I79*
G01X11222*
G03X11251Y18510J29*
G01X11349Y12880D02*
G03X11340Y12901I30D01*
G01X11339Y12902*
X11044Y13197*
G02X11013Y13260I76J77*
G03X10989Y13285I29J4*
G02X10952Y13302I13J78*
G03X10933Y13309I19J23*
X10904Y13279J30*
G01Y13195*
G02X10845Y13136I59*
G01X10733*
G03X10704Y13107J29*
X10715Y13084I29*
G02X10737Y13038I38J46*
G01Y12826*
G03X10766Y12796I29*
X10787Y12805J30*
G01X10801Y12819*
G02X10878Y12851I77J77*
G01X11319*
G03X11349Y12880J29*
G01X11603Y15991D02*
G03X11594Y16012I29D01*
G01X11555Y16051*
G03X11534Y16060I21J20*
X11504Y16031J29*
G01Y15699*
G02X11445Y15640I59*
G01X10815*
G02X10756Y15699J59*
G01Y16093*
G02X10815Y16152I59*
G01X11445*
G02X11477Y16143J59*
G03X11492Y16139I15J25*
X11522Y16168J29*
G01Y16360*
G03X11492Y16389I30*
G01X10872*
G02X10793Y16468J79*
G01Y17649*
G02X10804Y17688I79*
G03X10808Y17703I26J15*
X10778Y17733I30*
G01X10654*
G03X10625Y17703J30*
X10641Y17677I29*
G02X10675Y17624I25J53*
G01Y16443*
G02X10616Y16383I59*
G01X9828*
G02X9769Y16443J60*
G01Y17624*
G02X9803Y17677I59*
G03X9819Y17703I13J26*
X9790Y17733I29*
G01X9773*
G02X9696Y17765J108*
G01X9606Y17855*
G02X9574Y17931I77J76*
G01Y17939*
G03X9545Y17968I29*
G01X9525*
G02X9446Y18047J79*
G01Y18337*
G03X9417Y18366I29*
X9396Y18358J29*
G01X8824Y17786*
G03X8816Y17765I21J21*
G01Y17712*
G03X8845Y17683I29*
G01X9630*
G02X9709Y17604J79*
G01Y16423*
G02X9630Y16344I79*
G01X9375*
G03X9345Y16315J29*
G01Y15959*
G03X9354Y15938I30*
G01Y15937*
G03X9375Y15929I21J21*
G01X9377*
G02X9386I9J177*
X9396J177*
G01X9398*
G03X9419Y15937J29*
G01X9454Y15973*
G02X9531Y16004I77J77*
G01X9572*
G03X9601Y16034J30*
G01Y16093*
G02X9680Y16172I79*
G01X10310*
G02X10388Y16093J79*
G01Y15699*
G02X10310Y15621I78*
G01X9680*
G02X9604Y15677J78*
G03X9576Y15699I28J8*
X9549Y15681J30*
G02X9505Y15620I163J71*
G03X9495Y15598I19J22*
G01Y14140*
G03X9524Y14111I29*
G01X9664*
G02X9710Y14089J59*
G03X9733Y14078I23J18*
X9762Y14107J29*
G01Y14219*
G02X9783Y14264I59*
G03X9793Y14286I19J22*
X9770Y14315I29*
G02X9632Y14488I39J173*
X9809Y14665I177*
X9886Y14648J177*
G03X9899Y14645I13J26*
X9924Y14657J29*
G02X9989Y14691I65J44*
G01X10087*
G02X10137Y14673J78*
G03X10156Y14667I19J23*
X10166Y14668J29*
G02X10185Y14672I19J55*
G01X10284*
G02X10290Y14671J59*
G03X10294I4J30*
X10323Y14701J30*
G01Y14794*
G02Y14802I108*
G03X10324Y14804I29J2*
X10294Y14833I30*
G01X9680*
G02X9621Y14892J59*
G01Y15286*
G02X9680Y15345I59*
G01X10310*
G02X10369Y15286J59*
G01Y14955*
G03X10398Y14926I29*
X10419Y14935J29*
G01X10650Y15166*
G02X10711Y15196I77J77*
G03X10737Y15225I4J29*
G01Y15286*
G02X10815Y15365I78*
G01X11445*
G02X11524Y15286J79*
G01Y15262*
G03X11554Y15233I30*
X11576Y15243J29*
G02X11593Y15261I135J114*
G03X11603Y15283I19J22*
G01Y15991*
X11866Y18441D02*
G03X11836Y18471I30D01*
G01X11584*
G03X11554Y18441J30*
X11556Y18430I30*
G02X11562Y18402I73J28*
G01Y18215*
G03X11591Y18186I29*
G01X11634*
G02X11711Y18154J109*
G01X11789Y18076*
G03X11810Y18068I21J21*
G01X11827*
G03X11857Y18097J29*
G01Y18402*
G02X11863Y18428I59*
G03X11866Y18441I27J13*
G01X11954Y14955D02*
G03X11930Y14985I30D01*
G02X11886Y15009I14J77*
G03X11864Y15019I22J20*
X11842Y15009J30*
G02X11711Y14952I131J120*
X11620Y14977J177*
G03X11605Y14981I15J26*
G01X11554*
G03X11524Y14951J30*
G01Y14892*
G02X11445Y14814I79*
G01X10815*
G02X10738Y14880J78*
G03X10708Y14905I30J4*
X10688Y14897J29*
G01X10548Y14757*
G03X10540Y14737I21J20*
G01Y14701*
G03X10569Y14671I29*
X10573J30*
G02X10579Y14672I6J58*
G01X10677*
G02X10737Y14613J59*
G01Y14376*
G02X10715Y14330I60*
G03X10704Y14307I18J23*
X10733Y14278I29*
G01X10845*
G02X10904Y14219J59*
G01Y14107*
G03X10933Y14078I29*
X10956Y14089J29*
G02X11002Y14111I46J37*
G01X11239*
G02X11298Y14052J59*
G01Y14000*
G03X11327Y13971I29*
X11348Y13979J29*
G01X11364Y13996*
G03X11373Y14017I20J21*
G01Y14074*
G03X11363Y14096I29*
G02X11304Y14228I118J132*
X11481Y14406I177*
X11613Y14347J178*
G03X11635Y14337I22J19*
G01X11755*
X11756*
G02X11760I4J108*
G01X11812*
G03X11841Y14366J29*
G01Y14425*
G02X11906Y14503I79*
G03X11930Y14532I6J29*
G01Y14777*
G02X11949Y14838I108*
G03X11954Y14854I25J16*
G01Y14955*
X12709Y18443D02*
G03X12680Y18472I29D01*
X12675J29*
G02X12657Y18471I18J107*
G01X12311*
G03X12281Y18441J30*
X12284Y18428I30*
G02X12290Y18402I53J26*
G01Y18097*
G03X12319Y18068I29*
G01X12676*
G03X12705Y18097J29*
G01Y18413*
G02X12708Y18435I79*
G03X12709Y18443I28J8*
G01X12922Y14972D02*
G03X12913Y14993I30D01*
G01X12839Y15067*
G03X12818Y15075I21J21*
X12789Y15051J29*
G02X12731Y15003I58J11*
G01X12495*
G02X12436Y15062J59*
G01Y15456*
G02X12495Y15515I59*
G01X12719*
G03X12748Y15544J29*
G01Y16341*
G03X12719Y16370I29*
X12708Y16368J29*
G02X12685Y16363I23J54*
G01X11898*
G02X11838Y16422J59*
G01Y17604*
G02X11898Y17663I60*
G01X12593*
G03X12623Y17692J29*
X12614Y17713I30*
G01X12603Y17724*
G03X12582Y17733I21J21*
G01X11753*
G03X11724Y17703J30*
X11728Y17688I29*
G02X11738Y17649I69J39*
G01Y16187*
G03X11747Y16166I30*
G01X11788Y16125*
G02X11820Y16048I77J77*
G01Y15508*
G03X11849Y15478I29*
X11875Y15494J30*
G02X11944Y15534I69J38*
G01X12180*
G02X12259Y15456J78*
G01Y15062*
G02X12194Y14985I79*
G03X12170Y14955I6J30*
G01Y14801*
G02X12152Y14740I108*
G03X12146Y14723I24J17*
G01Y14532*
G03X12171Y14503I30*
G02X12235Y14425I15J78*
G01Y14032*
G02X12171Y13954I79*
G03X12146Y13925I5J29*
G01Y13752*
G03X12176Y13722I30*
X12197Y13732J30*
G02X12200Y13734I79J75*
G01X12330Y13864*
G02X12407Y13896I77J76*
G01X12532*
G03X12553Y13905J30*
G01X12570Y13922*
G03X12579Y13943I21J21*
X12549Y13973I30*
G01X12471*
G02X12412Y14032J59*
G01Y14425*
G02X12471Y14484I59*
G01X12707*
G02X12766Y14425J59*
G01Y14190*
G03X12796Y14160I30*
X12817Y14169J30*
G01X12843Y14196*
G03X12852Y14216I20J20*
G01Y14623*
G03X12842Y14645I29*
G02X12783Y14777I118J132*
X12902Y14944I177*
G03X12922Y14972I10J28*
G01X13214Y14057D02*
G03X13208Y14074I29D01*
G02X13193Y14121I64J47*
G01Y14239*
G02X13199Y14268I79*
G03X13201Y14278I28J10*
X13199Y14289I30*
G02X13193Y14318I73J29*
G01Y14436*
G02X13199Y14464I79*
G03X13201Y14475I28J11*
X13199Y14486I30*
G02X13193Y14514I73J28*
G01Y14633*
G02X13199Y14661I79*
G03X13201Y14672I28J11*
X13199Y14683I30*
G02X13193Y14711I73J28*
G01Y14718*
G03X13164Y14748I29*
G01X13158*
G03X13130Y14727J30*
G02X13079Y14645I170J50*
G03X13069Y14623I19J22*
G01Y14159*
G02X13037Y14083I109*
G01X12665Y13711*
G02X12589Y13680I76J77*
G01X12464*
G03X12443Y13671J30*
G01X12425Y13653*
G03X12417Y13632I21J21*
X12446Y13603I29*
G01X12670*
G02X12729Y13544J59*
G01Y13223*
G03X12758Y13193I29*
X12779Y13202J30*
G01X12817Y13240*
G03X12826Y13260I21J20*
G01Y13340*
G02X12857Y13416I108*
G01X13107Y13666*
G02X13168Y13696I76J77*
G03X13193Y13726I4J30*
G01Y13727*
Y13845*
G02X13208Y13892I79*
G03X13214Y13909I23J17*
Y13914I29*
G02X13213Y13924I58J10*
G01Y14042*
G02X13214Y14052I59*
G03Y14057I29J5*
G01X13419Y7158D02*
G02X13449Y7187I30D01*
G01X13853*
G03X13931Y7266J79*
G01Y7856*
G03X13887Y7927I78*
G02X13870Y7954I13J27*
X13900Y7983I30*
G01X14866*
G03X14942Y8015J109*
G01X15676Y8749*
G03X15708Y8826I76J77*
G01Y8968*
G02X15717Y8989I30*
G01X15722Y8995*
Y5640*
G03X15781Y5581I59*
G01X16254*
G03X16313Y5640J59*
G01Y6270*
G03X16254Y6329I59*
G01X15781*
G03X15722Y6270J59*
G01Y8995*
X16136Y9408*
G03X16167Y9485I77J77*
G01Y9667*
G02X16197Y9696I30*
X16224Y9677J29*
G03X16390Y9564I166J64*
X16522Y9623J177*
G02X16544Y9633I22J20*
G01X16999*
G03X17075Y9665J108*
G01X17295Y9885*
G03X17326Y9946I76J76*
G02X17355Y9971I29J4*
G01X18164*
G03X18243Y10050J79*
G01Y10641*
G03X18164Y10719I79*
G01X17534*
G02X17505Y10749J30*
X17514Y10771I29*
G03X17526Y10783I120J130*
G02X17548Y10793I22J20*
G01X18369*
G02X18390Y10784J30*
G01X18918Y10255*
G02X18927Y10234I20J21*
X18898Y10205I29*
G01X18758*
G03X18679Y10126J79*
G01Y9732*
G03X18758Y9654I79*
G01X18951*
G02X18980Y9624J30*
G01Y9623*
G03Y9620I108J3*
G01Y9507*
G02X18950Y9478I30*
G01X18891*
G03X18813Y9399J79*
G01Y9163*
G03X18891Y9084I78*
G01X19285*
G03X19364Y9163J79*
G01Y9399*
G03X19285Y9478I79*
G01X19226*
G02X19197Y9507J29*
G01Y9566*
G02X19202Y9583I29*
G03X19219Y9628I90J61*
G02X19248Y9654I29J4*
G01X19466*
G03X19509Y9666J78*
G02X19526Y9671I17J24*
X19555Y9642J29*
G01Y9146*
G02X19546Y9125I29*
G01X19348Y8927*
G02X19327Y8918I21J21*
X19316Y8920J30*
G03X19285Y8927I31J72*
G01X18891*
G03X18831Y8898J79*
G02X18808Y8887I23J19*
G01X18684*
G03X18572Y8841J157*
G01X18254Y8523*
G02X18233Y8514I21J21*
G01X17720*
G02X17691Y8544J30*
G01Y8672*
G03X17612Y8751I79*
G01X16234*
G03X16155Y8672J79*
G01Y8042*
G03X16234Y7963I79*
G01X16736*
G02X16765Y7934J29*
G01Y6378*
G02X16736Y6349I29*
G01X16687*
G03X16608Y6270J79*
G01Y5640*
G03X16687Y5562I79*
G01X16735*
G02X16765Y5532J30*
G01Y5319*
G02X16762Y5306I30*
G03X16745Y5231I160J75*
X16762Y5155I177*
G02X16765Y5143I27J12*
G01Y3317*
G02X16756Y3296I30*
G01X15908Y2448*
G02X15887Y2439I21J21*
G01X15654*
G02X15624Y2469J30*
X15633Y2490I30*
G01X15868Y2725*
G03X15913Y2820I111J111*
G02X15943Y2846I30J3*
G01X15983*
G03X16062Y2925J79*
G01Y4185*
G03X15983Y4264I79*
G01X15530*
G03X15452Y4185J79*
G01Y2925*
G03X15496Y2854I78*
G02X15513Y2827I13J27*
X15504Y2807I30*
G01X15411Y2714*
G02X15391Y2705I20J21*
G01X15333*
G02X15320Y2708J30*
G03X15245Y2725I75J160*
G01X15244*
X15243*
X14708*
G02X14687Y2733J29*
G01X14605Y2816*
G02X14596Y2836I21J20*
X14626Y2866I30*
G01X14920*
G03X14979Y2925J59*
G01Y4185*
G03X14920Y4244I59*
G01X14467*
G03X14408Y4185J59*
G01Y3083*
G02X14379Y3054I29*
X14358Y3062J29*
G01X13428Y3992*
G02X13419Y4013I21J21*
G01Y4158*
G02X13449Y4187I30*
G01X13853*
G03X13931Y4266J79*
G01Y4856*
G03X13853Y4935I78*
G01X13449*
G02X13419Y4965J30*
G01Y5158*
G02X13449Y5187I30*
G01X13853*
G03X13931Y5266J79*
G01Y5856*
G03X13853Y5935I78*
G01X13449*
G02X13419Y5965J30*
G01Y6158*
G02X13449Y6187I30*
G01X13853*
G03X13931Y6266J79*
G01Y6856*
G03X13853Y6935I78*
G01X13449*
G02X13419Y6965J30*
G01Y7158*
X13483Y23588D02*
X14074D01*
Y24651*
X13483*
Y23588*
X13506Y18482D02*
G03X13476Y18512I30D01*
G01X13182*
G03X13153Y18482J30*
X13160Y18463I29*
G02X13178Y18413I61J50*
G01Y18059*
G02X13119Y17983I79*
G03X13097Y17954I8J29*
X13106Y17933I30*
G01X13163Y17876*
G03X13184Y17867I21J21*
X13213Y17890J30*
G02X13386Y18028I173J39*
X13436Y18021J177*
G03X13444Y18020I8J28*
X13473Y18049J29*
Y18052I29*
G02Y18059I59J7*
G01Y18413*
G02X13495Y18459I59*
G03X13506Y18482I19J23*
G01X13533Y12808D02*
G03X13504Y12838I29D01*
X13499Y12837J30*
G02X13483Y12836I16J107*
G01X13463*
G03X13441Y12826J30*
G02X13309Y12767I132J118*
X13132Y12944J177*
X13191Y13076I177*
G03X13200Y13098I20J22*
X13198Y13108I29*
G02X13193Y13137I74J29*
G01Y13255*
G02X13208Y13301I79*
G03X13214Y13319I23J18*
Y13324I29*
G02X13213Y13333I58J9*
G01Y13394*
G03X13183Y13424I30*
X13162Y13415J30*
G01X13051Y13304*
G03X13042Y13283I21J21*
G01Y13203*
G02X13010Y13127I108*
G01X12849Y12965*
G02X12772Y12934I77J77*
G01X12589*
G03X12559Y12904J30*
X12562Y12891I30*
G02X12579Y12815I160J76*
X12549Y12716I177*
G03X12543Y12699I24J17*
X12573Y12670I30*
G01X12700*
G02X12759Y12611J59*
G01Y12223*
G03X12789Y12194I30*
X12809Y12202J29*
G01X13240Y12632*
G02X13316Y12664I76J76*
G01X13389*
G03X13410Y12673J30*
G01X13525Y12787*
G03X13533Y12808I21J21*
G01X14438Y2469D02*
G03X14429Y2490I30D01*
G01X13117Y3802*
G02X13065Y3927I125J125*
G01Y4158*
G03X13036Y4187I29*
G01X12632*
G02X12553Y4266J79*
G01Y4644*
G03X12524Y4674I29*
X12503Y4665J30*
G01X12302Y4465*
G02X12226Y4433I76J76*
G01X11982*
G03X11952Y4403J30*
X11955Y4391I30*
G02X11963Y4356I71J35*
G01Y3908*
G03X11992Y3878I29*
X12012Y3886J30*
G02X12337Y4007I325J374*
X12832Y3512J495*
X12337Y3017I495*
X11842Y3512J495*
X11861Y3649I495*
G03X11862Y3658I28J9*
X11833Y3687I29*
G01X11272*
G03X11252Y3679J29*
G02X11146Y3638I106J116*
G01X11077*
G03X11047Y3608J30*
X11048Y3601I30*
G02X11053Y3560I172J41*
X10876Y3383I177*
X10699Y3560J177*
X10716Y3636I177*
G03X10718Y3648I27J12*
G01Y3795*
G02X10739Y3873I158*
G03X10742Y3887I26J14*
G01Y4356*
G02X10745Y4378I79*
X10750Y4391I76J22*
G03X10753Y4403I27J12*
X10723Y4433I30*
G01X10561*
G03X10540Y4424J30*
G01X9547Y3431*
G02X9471Y3399I76J77*
G01X9032*
G03X9011Y3391J29*
G01X8904Y3283*
G03X8895Y3262I20J21*
X8924Y3232I29*
G01X9214*
G02X9293Y3154J78*
G01Y2524*
Y2523*
G02X9282Y2484I79J1*
G03X9278Y2469I25J15*
X9307Y2439I29*
G01X9534*
G03X9564Y2469J30*
X9560Y2484I30*
G02X9549Y2523I67J40*
G01Y2524*
Y3154*
G02X9627Y3232I78*
G01X10021*
G02X10100Y3154J78*
G01Y2995*
G03X10129Y2965I29*
X10146Y2970J30*
G02X10247Y3002I101J145*
X10424Y2825J177*
X10247Y2647I177*
X10146Y2679J178*
G03X10129Y2684I17J25*
X10100Y2654J30*
G01Y2524*
Y2523*
G02X10089Y2484I79J1*
G03X10085Y2469I26J15*
X10115Y2439I30*
G01X14408*
G03X14438Y2469J30*
G01X14696Y24892D02*
G03X14666Y24921I30D01*
G01X11617*
G03X11588Y24892J29*
X11591Y24879I29*
G02X11608Y24803I160J76*
X11431Y24626I177*
X11355Y24643J177*
G03X11343Y24646I12J27*
G01X11302*
G03X11272Y24616J30*
G01Y23415*
G02X11265Y23382I79*
G03X11262Y23369I26J13*
X11291Y23340I29*
G01X11774*
G03X11794Y23348J29*
G01X12602Y24155*
G02X12727Y24207I125J125*
G01X13375*
G03X13404Y24237J30*
G01Y24651*
G02X13483Y24729I79*
G01X14074*
G02X14152Y24651J78*
G01Y23588*
G02X14113Y23519I78*
G03X14098Y23494I15J25*
X14107Y23473I30*
G01X14204Y23376*
G03X14225Y23368I21J21*
G01X14380*
G03X14410Y23397J29*
X14408Y23406I30*
G02X14404Y23430I75J24*
G01Y24651*
G02X14483Y24729I79*
G01X14592*
G03X14622Y24756J30*
G02X14667Y24851I156J17*
G01X14687Y24871*
G03X14696Y24892I21J21*
G01X14955Y11833D02*
G03X14925Y11863I30D01*
X14910Y11858J30*
G02X14816Y11831I94J151*
X14639Y12009J178*
X14651Y12073I177*
G03X14653Y12083I27J10*
X14624Y12113I29*
G01X14611*
G03X14581Y12083J30*
G01Y12071*
G02X14549Y11995I108*
G01X14541Y11986*
G03X14532Y11965I21J21*
G01Y11964*
G02X14533Y11954I177J10*
X14355Y11777I178*
X14178Y11954J177*
X14219Y12067I177*
G03X14226Y12085I23J18*
X14202Y12114I30*
G02X14138Y12192I15J78*
G01Y12676*
G03X14109Y12705I29*
X14088Y12696J29*
G01X13634Y12243*
G02X13558Y12211I76J77*
G01X13471*
G03X13450Y12203J29*
G01X13215Y11967*
G03X13206Y11947I21J20*
G01Y11436*
G02X13175Y11360I108*
G01X12585Y10770*
G03X12576Y10749I21J21*
X12606Y10719I30*
G01X13457*
G03X13487Y10745J30*
G02X13517Y10806I107J16*
G01X13870Y11159*
G02X13947Y11190I77J77*
G01X14317*
G03X14339Y11200J30*
G02X14471Y11259I132J118*
X14481J177*
G01X14482*
G03X14503Y11267J29*
G01X14946Y11711*
G03X14955Y11732I21J21*
G01Y11833*
X16137Y2232D02*
X17033Y3128D01*
G03X17080Y3240I111J112*
G01Y3328*
G02X17109Y3357I29*
X17138Y3332J29*
G03X17216Y3264I78J10*
G01X17807*
G03X17886Y3342J78*
G01Y3933*
G03X17807Y4012I79*
G01X17216*
G03X17138Y3943J79*
G02X17109Y3918I29J4*
X17080Y3947J29*
G01Y5143*
G02X17082Y5155I29*
G03X17099Y5231I160J76*
X17082Y5306I177*
G02X17080Y5319I27J13*
G01Y5532*
G02X17109Y5562I29*
G01X17159*
G03X17238Y5640J78*
G01Y6270*
G03X17159Y6349I79*
G01X17110*
G02X17080Y6378J29*
G01Y7934*
G02X17110Y7963I30*
G01X17514*
Y5640*
G03X17592Y5562I78*
G01X18065*
G03X18128Y5593J78*
G02X18151Y5605I23J18*
X18172Y5596J30*
G01X18225Y5543*
G02X18234Y5522I20J21*
G01Y4191*
G03X18236Y4159I276*
G02Y4156I29J3*
G01Y3902*
G02X18229Y3882I29*
G03X18138Y3638I283J244*
X18512Y3264I374*
X18886Y3638J374*
X18794Y3882I374*
G02X18787Y3902I23J20*
G01Y4189*
G03X18785Y4220I275*
G02Y4223I30J3*
G01Y5648*
G03X18705Y5843I275*
G01X18397Y6150*
G03X18203Y6231I194J195*
G01X18173*
G02X18143Y6260J29*
G01Y6270*
G03X18065Y6349I78*
G01X17592*
G03X17514Y6270J79*
G01Y7963*
X17612*
G03X17691Y8042J79*
G01Y8170*
G02X17720Y8199I29*
G01X18311*
G03X18422Y8245J158*
G01X18740Y8564*
G02X18761Y8572I21J21*
G01X18808*
G02X18831Y8562J29*
G03X18891Y8533I60J50*
G01X19285*
G03X19346Y8562J79*
G02X19369Y8572I23J19*
G01X19374*
G03X19485Y8618J158*
G01X19814Y8947*
G02X19835Y8956I21J21*
X19864Y8926J30*
G01Y3941*
G02X19835Y3911I29*
X19813Y3920J30*
G03X19512Y4051I301J282*
X19098Y3638J413*
X19512Y3224I414*
X19539Y3225J414*
G01X19541*
G02X19571Y3196J29*
X19562Y3175I30*
G01X18578Y2191*
G02X18557Y2182I21J20*
G01X16158*
G02X16129Y2211J29*
X16137Y2232I29*
G01X17433Y23618D02*
X18023D01*
Y24681*
X17433*
Y23618*
X17531Y15656D02*
G03X17529Y15667I29D01*
G02X17524Y15696I74J29*
G01Y15814*
G03X17494Y15843I30*
G01X17380*
G03X17359Y15835J29*
G01X17168Y15643*
G03X17159Y15622I20J21*
G01Y15620*
G02Y15610I177J10*
X16982Y15433I177*
X16805Y15610J177*
X16982Y15788I177*
X16992Y15787J178*
G01X16994*
G03X17014Y15796J30*
G01X17181Y15962*
G03X17189Y15983I21J21*
X17160Y16013I29*
G01X17131*
G03X17109Y16003J30*
G02X16977Y15944I132J118*
X16800Y16121J177*
X16819Y16200I177*
G03X16822Y16213I27J13*
X16792Y16242I30*
G01X16525*
G02X16448Y16274J108*
G01X16365Y16357*
G02X16360Y16362I76J77*
G01X16359Y16363*
G02X16334Y16418I82J71*
G03X16305Y16444I29J4*
G01X16304*
X16303*
X16185*
G02X16157Y16449J78*
G03X16146Y16451I11J28*
X16135Y16449J30*
G02X16107Y16444I28J73*
G01X15988*
G02X15960Y16449J78*
G03X15949Y16451I11J28*
X15938Y16449J30*
G02X15910Y16444I28J73*
G01X15792*
G02X15763Y16449J78*
G03X15752Y16451I11J28*
X15742Y16449J30*
G02X15713Y16444I29J73*
G01X15595*
G02X15566Y16449J78*
G03X15555Y16451I11J28*
X15545Y16449J30*
G02X15516Y16444I29J73*
G01X15398*
G02X15369Y16449J78*
G03X15359Y16451I10J28*
X15348Y16449J30*
G02X15319Y16444I29J73*
G01X15201*
G03X15172Y16414J30*
G01Y16344*
G03X15180Y16323I29*
G01X15300Y16204*
G02X15332Y16127I77J77*
G01Y16117*
G03X15361Y16088I29*
G01X15362*
G02X15369I7J177*
X15547Y15911J177*
X15369Y15734I178*
X15192Y15911J177*
X15193Y15921I177*
G01Y15922*
G03X15184Y15943I30*
G01X15147Y15980*
G02X15115Y16057I76J77*
G01Y16070*
G03X15106Y16091I30*
G01X15023Y16174*
G03X15002Y16183I21J21*
X14981Y16173J30*
G02X14870Y16116I132J119*
G03X14844Y16087I4J29*
X14853Y16066I30*
G01X15282Y15637*
G03X15303Y15628I21J21*
G01X15640*
X15641*
G02X15647Y15629I6J108*
G01X15742*
G03X15764Y15638J29*
G02X15896Y15697I132J118*
X16073Y15520J177*
X15896Y15343I177*
X15764Y15402J177*
G03X15742Y15412I22J19*
G01X15655*
X15653*
G02X15647I6J108*
G01X15246*
G02X15169Y15444J108*
G01X14573Y16040*
G03X14552Y16048I21J21*
X14522Y16019J29*
G01Y15670*
G02X14491Y15594I108*
G01X14181Y15284*
G02X14105Y15253I76J77*
G01X14010*
G03X13981Y15223J30*
G01Y15105*
G02X13975Y15076I79*
G03X13973Y15066I28J10*
X13975Y15055I30*
G02X13981Y15026I73J29*
G01Y14908*
G03X14010Y14879I29*
G01X14375*
G03X14396Y14887J29*
G01X14559Y15050*
G02X14636Y15082I77J76*
G01X15008*
G02X15085Y15050J108*
G01X15162Y14974*
G02X15193Y14897I77J77*
G01Y13225*
G03X15203Y13203I30*
G02X15252Y13130I118J132*
X15262Y13071I167J59*
X15215Y12950I177*
G03X15207Y12930I21J20*
X15236Y12900I29*
G01X15319*
G02X15348Y12895J78*
G03X15359Y12893I11J27*
X15369Y12895J29*
G02X15398Y12900I29J73*
G01X15516*
G02X15545Y12895J78*
G03X15555Y12893I10J27*
X15566Y12895J29*
G02X15595Y12900I29J73*
G01X15713*
G02X15742Y12895J78*
G03X15752Y12893I10J27*
X15763Y12895J29*
G02X15792Y12900I29J73*
G01X15910*
G02X15938Y12895J78*
G03X15949Y12893I11J27*
X15960Y12895J29*
G02X15988Y12900I28J73*
G01X16107*
G02X16135Y12895J78*
G03X16146Y12893I11J27*
X16157Y12895J29*
G02X16185Y12900I28J73*
G01X16303*
G02X16350Y12885J78*
G03X16367Y12879I17J24*
X16372Y12880J30*
G02X16382Y12881I10J58*
G01X16500*
G03X16530Y12910J29*
G01Y13346*
G02X16533Y13371I108*
G03X16534Y13378I29J7*
G01Y13402*
G03X16524Y13424I30*
G02X16465Y13557I118J133*
X16642Y13734I177*
X16774Y13675J177*
G03X16796Y13665I22J19*
G01X17109*
G03X17128Y13672J29*
G02X17198Y13698I70J83*
G01X17494*
G03X17524Y13727J29*
G01Y13845*
G02X17529Y13874I79*
G03X17531Y13885I27J11*
X17529Y13895I29*
G02X17524Y13924I74J29*
G01Y14042*
G02X17529Y14071I79*
G03X17531Y14081I27J10*
X17529Y14092I29*
G02X17524Y14121I74J29*
G01Y14239*
G02X17529Y14268I79*
G03X17531Y14278I27J10*
X17529Y14289I29*
G02X17524Y14318I74J29*
G01Y14436*
G03X17494Y14465I30*
G01X17451*
G03X17432Y14458J29*
G02X17316Y14415I116J134*
X17139Y14592J177*
X17316Y14769I177*
X17461Y14694J177*
G03X17485Y14682I24J17*
G01X17494*
G03X17524Y14711J29*
G01Y14829*
G02X17529Y14858I79*
G03X17531Y14869I27J11*
X17529Y14880I29*
G02X17524Y14908I74J28*
G01Y15026*
G02X17529Y15055I79*
G03X17531Y15066I27J11*
X17529Y15076I29*
G02X17524Y15105I74J29*
G01Y15223*
G02X17529Y15252I79*
G03X17531Y15263I27J11*
X17529Y15273I29*
G02X17524Y15302I74J29*
G01Y15420*
G02X17529Y15449I79*
G03X17531Y15459I27J10*
X17529Y15470I29*
G02X17524Y15499I74J29*
G01Y15617*
G02X17529Y15645I79*
G03X17531Y15656I27J11*
G01X17545Y13319D02*
G03X17544Y13324I30D01*
G02Y13333I59J9*
G01Y13451*
G03X17514Y13481I30*
G01X17254*
G03X17235Y13474J30*
G02X17165Y13448I70J83*
G01X16796*
G03X16774Y13438J29*
G02X16760Y13424I132J119*
G03X16750Y13402I20J22*
G01Y13350*
G02X16747Y13325I108*
G03X16746Y13318I29J7*
G01Y13183*
G03X16776Y13154I30*
X16797Y13162J29*
G01X16800Y13166*
G02X16877Y13198I77J77*
G01X17379*
G02X17455Y13166J109*
G01X17474Y13147*
G03X17494Y13139I20J21*
X17524Y13168J29*
G01Y13255*
G02X17539Y13301I79*
G03X17545Y13319I24J18*
G01X18087Y18393D02*
G03X18079Y18414I29D01*
G01X18072Y18421*
G03X18051Y18430I21J21*
G01X17016*
G03X16995Y18421J30*
G01X16982Y18408*
G03X16974Y18387I21J21*
X17003Y18358I29*
G01X17004*
G02X17007I3J59*
G01X17322*
G02X17381Y18299J59*
G01Y17944*
G02X17373Y17916I59*
G03X17370Y17901I26J15*
X17399Y17872I29*
G01X17991*
G03X18021Y17901J29*
X18019Y17911I30*
G02X18015Y17936I75J25*
G01Y18291*
G02X18068Y18365I79*
G03X18087Y18393I10J28*
G01X19555Y10926D02*
G03X19526Y10956I29D01*
X19506Y10948J30*
G02X19466Y10933I40J44*
G01X18758*
G02X18699Y10992J59*
G01Y11386*
G02X18758Y11445I59*
G01X18948*
G03X18978Y11474J29*
X18969Y11495I30*
G01X18105Y12359*
G02X18081Y12390I111J112*
G03X18055Y12405I26J15*
X18026Y12375J30*
G01Y12056*
G02X17994Y11979I108*
G01X17454Y11439*
G03X17445Y11418I21J21*
X17475Y11389I30*
G01X17568*
G03X17590Y11399J29*
G02X17722Y11458I132J118*
X17900Y11281J177*
X17722Y11103I178*
X17590Y11162J178*
G03X17568Y11172I22J19*
G01X17417*
G03X17396Y11164J29*
G01X17360Y11128*
G03X17352Y11107I21J21*
X17381Y11078I29*
G01X17383*
G02X17394I11J177*
X17526Y11019J177*
G03X17548Y11009I22J20*
G01X18426*
G02X18502Y10977J108*
G01X19189Y10291*
G02X19219Y10230I77J76*
G03X19248Y10205I29J4*
G01X19466*
G02X19509Y10192J79*
G03X19526Y10187I17J25*
X19555Y10217J30*
G01Y10926*
X19721Y13301D02*
G03X19700Y13329I30D01*
G02X19658Y13355I35J103*
G01X18948Y14065*
G03X18927Y14074I21J20*
X18898Y14048J29*
G02X18722Y13892I176J21*
X18685Y13896J177*
G03X18679Y13897I6J29*
X18650Y13867J30*
X18658Y13846I29*
G01X19603Y12901*
G03X19624Y12893I21J21*
X19654Y12922J29*
G01Y13215*
G02X19698Y13273I59*
G03X19721Y13301I7J28*
G01X19864Y12087D02*
G03X19856Y12108I29D01*
G01X18362Y13602*
G03X18341Y13611I21J21*
X18311Y13581J30*
G01Y13530*
G02X18296Y13484I78*
G03X18290Y13466I24J18*
X18291Y13461I30*
G02X18292Y13451I58J10*
G01Y13333*
G02X18291Y13324I59*
G03X18290Y13319I29J5*
X18296Y13301I30*
G02X18311Y13255I63J46*
G01Y13137*
G02X18303Y13101I78*
G03X18300Y13088I26J13*
X18313Y13063I29*
G02X18393Y12915I97J148*
X18377Y12840I177*
G03X18374Y12827I26J13*
G01Y12548*
G03X18382Y12527I29*
G01X19138Y11772*
G03X19159Y11763I21J21*
G01X19523*
G02X19634Y11717J157*
G01X19814Y11537*
G03X19835Y11529I21J21*
X19864Y11558J29*
G01Y12087*
X20343Y12900D02*
G03X20334Y12920I30D01*
G01X20177Y13078*
G03X20156Y13087I21J21*
X20126Y13057J30*
G01Y12901*
G02X20067Y12841I59*
G01X19735*
G03X19705Y12812J29*
X19714Y12791I30*
G01X20145Y12360*
G03X20166Y12351I21J20*
X20196Y12378J29*
G02X20274Y12451I78J6*
G01X20313*
G03X20343Y12480J29*
G01Y12900*
X23795Y10693D02*
X24858D01*
Y11283*
X23795*
Y10693*
X23798Y14670D02*
X24861D01*
Y15261*
X23798*
Y14670*
G37*
G54D10*
X0Y0D02*
X25866D01*
Y25039*
X0*
Y0*
G54D11*
X984Y24016D03*
X5118Y1181D03*
X18512Y3638D02*
Y4189D01*
X18510Y4191*
Y5648*
X18203Y5955*
X17828*
X19465Y1318D02*
Y1811D01*
X20916Y3262*
X22655*
X23823Y4430*
Y4824*
X23071Y23228D03*
X24268Y10988D02*
X24465Y11185D01*
X24569*
Y12662*
X25215Y13308*
Y14743*
X24400Y15558*
X24268Y10988D02*
X25018D01*
X25365Y10641*
Y8074*
X24005Y6713*
X22642*
G54D12*
X504Y17436D02*
X386D01*
X504Y18598D02*
X386D01*
X508Y5642D02*
Y6367D01*
X652*
X824Y5854*
X830Y5837*
X835Y5820*
X840Y5805*
X845Y5791*
X848Y5778*
X853Y5767*
X855Y5756*
X859Y5747*
X862Y5757*
X866Y5769*
X870Y5781*
X875Y5795*
X880Y5810*
X885Y5827*
X891Y5844*
X897Y5863*
X1072Y6367*
X1200*
Y5642*
X1108*
Y6249*
X897Y5642*
X810*
X600Y6260*
Y5642*
X508*
X519Y15440D02*
X400D01*
X519Y16601D02*
X400D01*
X906Y4028D02*
Y4753D01*
X1227*
X1251*
X1273Y4752*
X1294Y4750*
X1313Y4748*
X1331Y4745*
X1347Y4742*
X1362Y4738*
X1375Y4733*
X1387Y4728*
X1399Y4722*
X1410Y4715*
X1421Y4706*
X1430Y4697*
X1439Y4687*
X1448Y4677*
X1455Y4665*
X1462Y4652*
X1469Y4639*
X1474Y4626*
X1478Y4612*
X1482Y4599*
X1484Y4584*
X1485Y4570*
X1486Y4555*
X1485Y4536*
X1483Y4518*
X1479Y4501*
X1473Y4484*
X1466Y4468*
X1457Y4453*
X1448Y4439*
X1436Y4425*
X1423Y4412*
X1407Y4401*
X1391Y4390*
X1372Y4382*
X1352Y4374*
X1330Y4367*
X1307Y4362*
X1282Y4358*
X1299Y4349*
X1315Y4339*
X1329Y4331*
X1339Y4322*
X1360Y4301*
X1380Y4278*
X1400Y4253*
X1419Y4225*
X1545Y4028*
X1424*
X1329Y4179*
X1318Y4195*
X1309Y4210*
X1299Y4223*
X1290Y4237*
X1282Y4249*
X1274Y4259*
X1266Y4269*
X1259Y4278*
X1246Y4295*
X1234Y4308*
X1221Y4319*
X1210Y4327*
X1200Y4334*
X1189Y4339*
X1178Y4343*
X1167Y4346*
X1157Y4348*
X1145Y4349*
X1131Y4350*
X1113*
X1002*
Y4028*
X906*
X908Y17259D02*
Y17141D01*
Y17613D02*
Y17732D01*
Y18421D02*
Y18302D01*
Y18775D02*
Y18893D01*
X922Y15263D02*
Y15145D01*
Y15617D02*
Y15735D01*
Y16424D02*
Y16306D01*
Y16779D02*
Y16897D01*
X1002Y4433D02*
X1208D01*
X1224*
X1239Y4434*
X1253Y4435*
X1267Y4436*
X1279Y4438*
X1291Y4441*
X1302Y4443*
X1311Y4446*
X1329Y4454*
X1343Y4464*
X1357Y4476*
X1367Y4490*
X1376Y4505*
X1382Y4521*
X1385Y4538*
X1387Y4555*
X1386Y4567*
X1384Y4580*
X1382Y4591*
X1377Y4602*
X1372Y4612*
X1365Y4622*
X1358Y4631*
X1349Y4640*
X1339Y4648*
X1328Y4655*
X1315Y4660*
X1301Y4665*
X1286Y4668*
X1269Y4671*
X1251Y4672*
X1231Y4673*
X1002*
Y4433*
X1276Y5642D02*
X1553Y6367D01*
X1658*
X1953Y5642*
X1844*
X1760Y5862*
X1456*
X1377Y5642*
X1276*
X1298Y2657D02*
Y2571D01*
X818*
Y2587*
X820Y2603*
X824Y2618*
X829Y2633*
X839Y2658*
X852Y2682*
X868Y2706*
X887Y2730*
X898Y2742*
X909Y2754*
X922Y2767*
X936Y2781*
X951Y2795*
X967Y2809*
X985Y2824*
X1004Y2839*
X1032Y2863*
X1057Y2885*
X1081Y2907*
X1103Y2927*
X1121Y2945*
X1137Y2963*
X1152Y2978*
X1164Y2993*
X1174Y3007*
X1182Y3021*
X1189Y3035*
X1195Y3048*
X1200Y3061*
X1203Y3075*
X1205Y3087*
X1206Y3100*
X1205Y3113*
X1203Y3126*
X1201Y3138*
X1196Y3149*
X1191Y3160*
X1184Y3170*
X1176Y3180*
X1167Y3189*
X1158Y3198*
X1147Y3205*
X1136Y3211*
X1124Y3216*
X1111Y3221*
X1098Y3223*
X1084Y3225*
X1069Y3226*
X1053Y3225*
X1038Y3223*
X1024Y3220*
X1011Y3216*
X998Y3211*
X987Y3204*
X976Y3196*
X965Y3187*
X957Y3177*
X948Y3166*
X942Y3154*
X936Y3141*
X932Y3127*
X929Y3112*
X927Y3097*
X926Y3080*
X835Y3090*
X838Y3114*
X843Y3138*
X849Y3160*
X858Y3180*
X867Y3199*
X878Y3216*
X891Y3231*
X906Y3245*
X922Y3258*
X939Y3269*
X957Y3278*
X977Y3286*
X999Y3291*
X1021Y3296*
X1045Y3299*
X1071*
X1096*
X1120Y3296*
X1143Y3291*
X1164Y3284*
X1184Y3277*
X1203Y3267*
X1220Y3255*
X1236Y3241*
X1250Y3226*
X1263Y3211*
X1273Y3194*
X1282Y3177*
X1288Y3158*
X1293Y3139*
X1296Y3119*
X1297Y3098*
X1296Y3076*
X1293Y3055*
X1287Y3034*
X1279Y3012*
X1274Y3002*
X1269Y2991*
X1262Y2980*
X1255Y2969*
X1247Y2958*
X1239Y2947*
X1230Y2936*
X1220Y2924*
X1208Y2912*
X1196Y2899*
X1181Y2884*
X1164Y2869*
X1147Y2852*
X1127Y2835*
X1106Y2816*
X1082Y2797*
X1063Y2781*
X1046Y2766*
X1030Y2752*
X1016Y2740*
X1005Y2730*
X994Y2720*
X986Y2712*
X979Y2705*
X969Y2693*
X959Y2681*
X950Y2669*
X942Y2657*
X1298*
X1301Y7504D02*
X1182D01*
X1301Y9769D02*
X1182D01*
X1311Y17436D02*
X1430D01*
X1311Y18598D02*
X1430D01*
X1326Y15440D02*
X1444D01*
X1326Y16601D02*
X1444D01*
X1393Y2929D02*
Y2961D01*
X1394Y2990*
X1396Y3019*
X1399Y3045*
X1403Y3070*
X1407Y3094*
X1413Y3116*
X1419Y3136*
X1426Y3155*
X1434Y3173*
X1443Y3190*
X1452Y3206*
X1462Y3220*
X1473Y3233*
X1485Y3245*
X1498Y3257*
X1512Y3267*
X1526Y3275*
X1541Y3283*
X1557Y3289*
X1574Y3294*
X1592Y3296*
X1610Y3299*
X1629*
X1643*
X1658Y3298*
X1671Y3296*
X1684Y3294*
X1697Y3290*
X1709Y3286*
X1721Y3282*
X1732Y3276*
X1753Y3262*
X1772Y3247*
X1789Y3229*
X1805Y3208*
X1819Y3184*
X1831Y3159*
X1840Y3131*
X1850Y3100*
X1853Y3084*
X1857Y3066*
X1860Y3046*
X1862Y3026*
X1864Y3004*
X1865Y2980*
X1866Y2956*
Y2929*
X1865Y2898*
Y2868*
X1862Y2840*
X1860Y2814*
X1856Y2789*
X1851Y2766*
X1846Y2744*
X1840Y2723*
X1833Y2704*
X1825Y2686*
X1816Y2669*
X1807Y2654*
X1797Y2639*
X1786Y2625*
X1774Y2613*
X1761Y2602*
X1748Y2592*
X1733Y2584*
X1719Y2576*
X1702Y2570*
X1685Y2565*
X1668Y2562*
X1649Y2560*
X1629Y2559*
X1604Y2561*
X1580Y2564*
X1557Y2570*
X1536Y2578*
X1516Y2589*
X1497Y2601*
X1480Y2617*
X1464Y2634*
X1456Y2646*
X1448Y2659*
X1440Y2672*
X1433Y2686*
X1427Y2702*
X1421Y2718*
X1415Y2735*
X1410Y2754*
X1406Y2772*
X1403Y2792*
X1400Y2812*
X1397Y2834*
X1395Y2856*
X1394Y2880*
X1393Y2904*
Y2929*
X1483Y5940D02*
X1731D01*
X1654Y6141*
X1646Y6163*
X1639Y6184*
X1631Y6205*
X1624Y6224*
X1618Y6243*
X1612Y6260*
X1607Y6276*
X1603Y6291*
X1595Y6257*
X1585Y6222*
X1575Y6187*
X1563Y6153*
X1483Y5940*
X1484Y2929D02*
Y2907D01*
X1485Y2886*
Y2866*
X1487Y2847*
X1488Y2829*
X1490Y2812*
X1492Y2795*
X1495Y2780*
X1497Y2766*
X1500Y2752*
X1504Y2739*
X1507Y2728*
X1512Y2717*
X1516Y2708*
X1521Y2699*
X1526Y2691*
X1536Y2678*
X1548Y2666*
X1560Y2655*
X1573Y2647*
X1586Y2641*
X1600Y2636*
X1614Y2633*
X1629Y2632*
X1644Y2633*
X1659Y2636*
X1673Y2641*
X1686Y2647*
X1699Y2656*
X1711Y2666*
X1722Y2678*
X1733Y2691*
X1738Y2699*
X1743Y2708*
X1747Y2718*
X1751Y2729*
X1755Y2740*
X1758Y2753*
X1761Y2766*
X1764Y2781*
X1767Y2795*
X1769Y2812*
X1770Y2829*
X1772Y2847*
X1773Y2866*
X1774Y2886*
X1775Y2907*
Y2929*
Y2951*
X1774Y2972*
X1773Y2992*
X1772Y3011*
X1770Y3029*
X1769Y3046*
X1767Y3063*
X1764Y3078*
X1761Y3092*
X1758Y3106*
X1755Y3118*
X1751Y3130*
X1747Y3141*
X1743Y3150*
X1738Y3159*
X1733Y3167*
X1722Y3180*
X1711Y3192*
X1699Y3202*
X1686Y3211*
X1673Y3217*
X1658Y3222*
X1643Y3225*
X1629Y3226*
X1613Y3225*
X1599Y3222*
X1585Y3219*
X1573Y3213*
X1561Y3205*
X1550Y3197*
X1539Y3186*
X1530Y3174*
X1524Y3165*
X1519Y3155*
X1514Y3145*
X1510Y3133*
X1506Y3121*
X1502Y3108*
X1499Y3094*
X1495Y3080*
X1493Y3063*
X1490Y3047*
X1488Y3029*
X1487Y3011*
X1485Y2992*
Y2972*
X1484Y2951*
Y2929*
X1607Y4381D02*
X1608Y4404D01*
Y4425*
X1611Y4446*
X1613Y4467*
X1616Y4487*
X1620Y4506*
X1625Y4524*
X1631Y4542*
X1637Y4560*
X1645Y4576*
X1653Y4592*
X1662Y4608*
X1671Y4623*
X1681Y4637*
X1692Y4650*
X1704Y4664*
X1716Y4676*
X1729Y4688*
X1742Y4699*
X1756Y4709*
X1770Y4718*
X1785Y4726*
X1800Y4733*
X1815Y4740*
X1831Y4746*
X1847Y4752*
X1864Y4756*
X1881Y4760*
X1899Y4762*
X1917Y4764*
X1935Y4765*
X1954Y4766*
X1979Y4765*
X2003Y4763*
X2027Y4759*
X2050Y4754*
X2072Y4747*
X2094Y4739*
X2115Y4729*
X2136Y4718*
X2155Y4706*
X2173Y4691*
X2191Y4677*
X2207Y4660*
X2221Y4643*
X2235Y4625*
X2248Y4605*
X2258Y4584*
X2268Y4563*
X2277Y4540*
X2284Y4516*
X2290Y4492*
X2295Y4468*
X2298Y4443*
X2300Y4417*
X2301Y4390*
X2300Y4363*
X2298Y4336*
X2294Y4310*
X2289Y4285*
X2283Y4261*
X2276Y4237*
X2267Y4215*
X2256Y4193*
X2245Y4171*
X2232Y4151*
X2218Y4133*
X2202Y4116*
X2186Y4100*
X2168Y4086*
X2150Y4073*
X2130Y4061*
X2109Y4050*
X2088Y4041*
X2067Y4034*
X2045Y4027*
X2023Y4023*
X2000Y4019*
X1978Y4017*
X1954Y4016*
X1929Y4017*
X1904Y4019*
X1880Y4023*
X1857Y4028*
X1834Y4035*
X1813Y4044*
X1791Y4054*
X1771Y4066*
X1752Y4079*
X1733Y4093*
X1716Y4108*
X1700Y4124*
X1685Y4142*
X1671Y4160*
X1659Y4180*
X1649Y4200*
X1639Y4222*
X1630Y4244*
X1623Y4266*
X1618Y4288*
X1613Y4311*
X1610Y4334*
X1608Y4358*
X1607Y4381*
X1706Y4380D02*
X1708Y4348D01*
X1710Y4318*
X1716Y4290*
X1724Y4263*
X1734Y4238*
X1746Y4215*
X1760Y4193*
X1776Y4173*
X1795Y4156*
X1814Y4141*
X1834Y4127*
X1856Y4117*
X1878Y4109*
X1903Y4103*
X1927Y4100*
X1954Y4098*
X1980Y4100*
X2005Y4103*
X2029Y4109*
X2052Y4117*
X2074Y4128*
X2095Y4141*
X2114Y4156*
X2131Y4174*
X2148Y4194*
X2163Y4216*
X2174Y4240*
X2184Y4266*
X2192Y4294*
X2197Y4324*
X2200Y4356*
X2202Y4390*
X2201Y4412*
X2199Y4433*
X2197Y4453*
X2194Y4473*
X2190Y4492*
X2185Y4510*
X2179Y4528*
X2172Y4544*
X2164Y4560*
X2155Y4575*
X2146Y4589*
X2135Y4603*
X2124Y4615*
X2112Y4626*
X2098Y4637*
X2084Y4647*
X2070Y4655*
X2054Y4662*
X2039Y4669*
X2023Y4674*
X2007Y4678*
X1990Y4681*
X1973Y4682*
X1955Y4683*
X1930Y4682*
X1906Y4679*
X1883Y4673*
X1860Y4665*
X1839Y4655*
X1818Y4643*
X1798Y4629*
X1780Y4613*
X1771Y4604*
X1762Y4594*
X1754Y4584*
X1747Y4572*
X1741Y4560*
X1735Y4548*
X1730Y4534*
X1725Y4520*
X1720Y4505*
X1717Y4489*
X1713Y4473*
X1711Y4456*
X1709Y4438*
X1708Y4419*
X1706Y4400*
Y4380*
X1802Y13521D02*
X1713D01*
X1802Y20521D02*
X1713D01*
X1862Y7140D02*
Y7022D01*
Y7869D02*
Y7987D01*
Y9404D02*
Y9286D01*
Y10133D02*
Y10251D01*
X1954Y14009D02*
X1715D01*
X1954Y14521D02*
X1715D01*
X1954Y15021D02*
X1715D01*
X1954Y15521D02*
X1715D01*
X1954Y16521D02*
X1715D01*
X1954Y17021D02*
X1715D01*
X1954Y17521D02*
X1715D01*
X1954Y18521D02*
X1715D01*
X1954Y19021D02*
X1715D01*
X1954Y19521D02*
X1715D01*
X1954Y20021D02*
X1715D01*
X2026Y5642D02*
Y6367D01*
X2122*
Y6008*
X2483Y6367*
X2612*
X2308Y6073*
X2626Y5642*
X2499*
X2241Y6008*
X2122Y5893*
Y5642*
X2026*
X2292Y2571D02*
X2203D01*
Y3138*
X2186Y3124*
X2166Y3108*
X2143Y3092*
X2118Y3077*
X2093Y3063*
X2069Y3051*
X2046Y3040*
X2025Y3031*
Y3117*
X2061Y3136*
X2095Y3156*
X2126Y3178*
X2155Y3202*
X2169Y3215*
X2181Y3227*
X2193Y3239*
X2203Y3252*
X2213Y3264*
X2221Y3276*
X2228Y3287*
X2234Y3299*
X2292*
Y2571*
X2352Y14009D02*
Y14248D01*
Y14009D02*
Y13771D01*
Y14521D02*
Y14760D01*
Y14521D02*
Y14283D01*
Y15021D02*
Y15260D01*
Y15021D02*
Y14783D01*
Y15521D02*
Y15283D01*
Y15521D02*
Y15760D01*
Y16521D02*
Y16760D01*
Y16521D02*
Y16283D01*
Y17021D02*
Y16783D01*
Y17021D02*
Y17260D01*
Y17521D02*
Y17760D01*
Y17521D02*
Y17283D01*
Y18521D02*
Y18283D01*
Y18521D02*
Y18760D01*
Y19021D02*
Y18783D01*
Y19021D02*
Y19260D01*
Y19521D02*
Y19283D01*
Y19521D02*
Y19760D01*
Y20021D02*
Y19783D01*
Y20021D02*
Y20260D01*
X2392Y4261D02*
X2483Y4269D01*
X2487Y4243*
X2494Y4220*
X2502Y4198*
X2513Y4180*
X2519Y4171*
X2526Y4163*
X2534Y4156*
X2542Y4148*
X2552Y4142*
X2562Y4135*
X2574Y4129*
X2586Y4123*
X2611Y4114*
X2638Y4108*
X2666Y4103*
X2697Y4102*
X2723Y4103*
X2748Y4106*
X2771Y4111*
X2793Y4118*
X2813Y4127*
X2830Y4137*
X2844Y4149*
X2856Y4163*
X2865Y4178*
X2871Y4193*
X2875Y4209*
X2876Y4225*
X2875Y4241*
X2871Y4257*
X2865Y4271*
X2856Y4285*
X2851Y4291*
X2844Y4297*
X2837Y4302*
X2829Y4308*
X2821Y4313*
X2812Y4318*
X2802Y4323*
X2790Y4327*
X2782Y4331*
X2771Y4334*
X2759Y4338*
X2744Y4342*
X2727Y4346*
X2707Y4351*
X2686Y4357*
X2661Y4363*
X2637Y4369*
X2615Y4375*
X2595Y4380*
X2576Y4386*
X2560Y4392*
X2545Y4397*
X2533Y4403*
X2522Y4408*
X2509Y4415*
X2498Y4423*
X2486Y4431*
X2477Y4439*
X2467Y4447*
X2459Y4456*
X2451Y4466*
X2445Y4476*
X2439Y4486*
X2433Y4497*
X2429Y4507*
X2426Y4519*
X2423Y4530*
X2421Y4542*
X2420Y4554*
X2419Y4566*
X2420Y4580*
X2421Y4593*
X2423Y4606*
X2427Y4619*
X2431Y4632*
X2437Y4644*
X2443Y4657*
X2450Y4669*
X2459Y4680*
X2467Y4691*
X2478Y4701*
X2489Y4711*
X2501Y4719*
X2513Y4728*
X2527Y4735*
X2541Y4741*
X2557Y4747*
X2572Y4752*
X2588Y4756*
X2604Y4760*
X2621Y4762*
X2638Y4764*
X2656Y4765*
X2674Y4766*
X2694Y4765*
X2713Y4764*
X2732Y4762*
X2750Y4760*
X2767Y4756*
X2784Y4751*
X2800Y4746*
X2816Y4740*
X2831Y4733*
X2845Y4726*
X2859Y4717*
X2871Y4708*
X2882Y4698*
X2893Y4687*
X2902Y4676*
X2911Y4663*
X2919Y4650*
X2925Y4637*
X2931Y4623*
X2936Y4609*
X2940Y4595*
X2944Y4580*
X2945Y4565*
X2946Y4549*
X2854Y4542*
X2852Y4559*
X2849Y4575*
X2844Y4589*
X2838Y4602*
X2831Y4615*
X2823Y4626*
X2815Y4637*
X2804Y4646*
X2793Y4655*
X2780Y4662*
X2766Y4667*
X2751Y4672*
X2734Y4677*
X2717Y4679*
X2698Y4681*
X2678Y4682*
X2657Y4681*
X2637Y4679*
X2619Y4677*
X2603Y4674*
X2588Y4669*
X2574Y4664*
X2562Y4657*
X2551Y4650*
X2542Y4641*
X2534Y4633*
X2527Y4623*
X2521Y4614*
X2517Y4604*
X2514Y4594*
X2512Y4584*
X2511Y4572*
X2512Y4563*
X2513Y4554*
X2516Y4546*
X2518Y4537*
X2523Y4529*
X2527Y4521*
X2533Y4515*
X2540Y4508*
X2548Y4502*
X2559Y4496*
X2573Y4489*
X2589Y4482*
X2609Y4476*
X2631Y4470*
X2657Y4463*
X2684Y4456*
X2712Y4450*
X2738Y4443*
X2761Y4438*
X2783Y4431*
X2802Y4426*
X2818Y4421*
X2832Y4415*
X2844Y4410*
X2860Y4403*
X2874Y4395*
X2888Y4386*
X2900Y4377*
X2911Y4368*
X2921Y4358*
X2930Y4347*
X2938Y4336*
X2945Y4325*
X2951Y4313*
X2956Y4301*
X2961Y4288*
X2964Y4275*
X2966Y4261*
X2968Y4248*
Y4233*
Y4219*
X2966Y4205*
X2963Y4190*
X2960Y4177*
X2956Y4164*
X2950Y4150*
X2943Y4137*
X2935Y4124*
X2927Y4112*
X2917Y4100*
X2907Y4089*
X2895Y4079*
X2883Y4069*
X2869Y4060*
X2855Y4052*
X2840Y4044*
X2824Y4038*
X2808Y4032*
X2792Y4027*
X2774Y4023*
X2756Y4020*
X2739Y4018*
X2720Y4017*
X2700Y4016*
X2676Y4017*
X2654Y4018*
X2632Y4020*
X2610Y4023*
X2591Y4027*
X2571Y4032*
X2553Y4038*
X2536Y4044*
X2520Y4052*
X2505Y4061*
X2491Y4070*
X2477Y4081*
X2464Y4092*
X2452Y4104*
X2442Y4117*
X2432Y4131*
X2423Y4146*
X2416Y4161*
X2409Y4176*
X2403Y4193*
X2399Y4209*
X2396Y4226*
X2394Y4244*
X2392Y4261*
X2423Y7504D02*
X2541D01*
X2423Y9769D02*
X2541D01*
X2526Y3201D02*
Y3287D01*
X2995*
Y3218*
X2978Y3199*
X2960Y3178*
X2943Y3155*
X2926Y3132*
X2909Y3107*
X2892Y3080*
X2874Y3052*
X2857Y3022*
X2841Y2991*
X2826Y2961*
X2811Y2929*
X2797Y2898*
X2785Y2866*
X2773Y2835*
X2762Y2803*
X2753Y2771*
X2740Y2724*
X2731Y2676*
X2723Y2625*
X2719Y2571*
X2627*
X2628Y2593*
X2630Y2616*
X2633Y2641*
X2636Y2666*
X2641Y2692*
X2646Y2720*
X2653Y2749*
X2660Y2778*
X2669Y2808*
X2679Y2838*
X2689Y2868*
X2700Y2897*
X2712Y2926*
X2725Y2955*
X2738Y2983*
X2753Y3012*
X2768Y3039*
X2784Y3066*
X2799Y3091*
X2815Y3116*
X2831Y3138*
X2847Y3160*
X2864Y3182*
X2881Y3201*
X2526*
X2626Y5642D02*
X2904Y6367D01*
X3008*
X3304Y5642*
X3195*
X3111Y5862*
X2807*
X2728Y5642*
X2626*
X2699Y12624D02*
Y12536D01*
Y21418D02*
Y21507D01*
X2751Y14009D02*
X2989D01*
X2751Y14521D02*
X2989D01*
X2751Y15021D02*
X2989D01*
X2751Y15521D02*
X2989D01*
X2751Y16521D02*
X2989D01*
X2751Y17021D02*
X2989D01*
X2751Y17521D02*
X2989D01*
X2751Y18521D02*
X2989D01*
X2751Y19021D02*
X2989D01*
X2751Y19521D02*
X2989D01*
X2751Y20021D02*
X2989D01*
X2819Y13642D02*
X2911Y13734D01*
X2819Y13642D02*
X2911Y13734D01*
X2819Y20401D02*
X2911Y20309D01*
X2819Y20401D02*
X2911Y20309D01*
X2834Y5940D02*
X3081D01*
X3005Y6141*
X2997Y6163*
X2989Y6184*
X2981Y6205*
X2975Y6224*
X2969Y6243*
X2963Y6260*
X2958Y6276*
X2954Y6291*
X2945Y6257*
X2936Y6222*
X2926Y6187*
X2914Y6153*
X2834Y5940*
X3071Y22198D02*
X2953D01*
X3102Y4028D02*
Y4753D01*
X3625*
Y4667*
X3197*
Y4446*
X3598*
Y4361*
X3197*
Y4114*
X3642*
Y4028*
X3102*
X3160Y22031D02*
Y21912D01*
Y22365D02*
Y22483D01*
X3199Y12774D02*
Y12535D01*
Y13172D02*
X2960D01*
X3199D02*
X3437D01*
X3199Y13570D02*
Y13809D01*
Y20472D02*
Y20233D01*
Y20870D02*
X2960D01*
X3199D02*
X3437D01*
X3199Y21269D02*
Y21507D01*
X3248Y22198D02*
X3366D01*
X3384Y5642D02*
Y6367D01*
X3480*
Y6070*
X3857*
Y6367*
X3952*
Y5642*
X3857*
Y5984*
X3480*
Y5642*
X3384*
X3707Y10757D02*
X3615Y10665D01*
X3707Y11328D02*
X3615Y11420D01*
X3726Y9746D02*
X3608D01*
X3893Y9461D02*
Y9343D01*
X4042Y10757D02*
X4134Y10665D01*
X4042Y11328D02*
X4134Y11420D01*
X4057Y10032D02*
Y10150D01*
X4060Y9746D02*
X4178D01*
X4128Y5642D02*
Y6367D01*
X4224*
Y5642*
X4128*
X4521Y10742D02*
X4429Y10650D01*
X4521Y11077D02*
X4429Y11169D01*
X4529Y9881D02*
X4411D01*
X4597Y5642D02*
Y5949D01*
X4318Y6367*
X4435*
X4577Y6148*
X4597Y6118*
X4616Y6087*
X4634Y6057*
X4651Y6027*
X4669Y6056*
X4687Y6087*
X4708Y6119*
X4730Y6154*
X4871Y6367*
X4982*
X4693Y5949*
Y5642*
X4597*
X4815Y9714D02*
Y9595D01*
Y10048D02*
Y10166D01*
X4990Y5642D02*
X5268Y6367D01*
X5372*
X5667Y5642*
X5558*
X5474Y5862*
X5170*
X5091Y5642*
X4990*
X5092Y10742D02*
X5184Y10650D01*
X5092Y11077D02*
X5184Y11169D01*
X5100Y9881D02*
X5218D01*
X5197Y5940D02*
X5445D01*
X5368Y6141*
X5360Y6163*
X5353Y6184*
X5345Y6205*
X5338Y6224*
X5332Y6243*
X5326Y6260*
X5321Y6276*
X5317Y6291*
X5309Y6257*
X5299Y6222*
X5290Y6187*
X5277Y6153*
X5197Y5940*
X5566Y9786D02*
X5448D01*
X5566Y10860D02*
X5448D01*
X5728Y23642D02*
X5636Y23550D01*
X5728Y24804D02*
X5613Y24856D01*
X5984Y23642D02*
X6076Y23550D01*
X6127Y9422D02*
Y9303D01*
Y10150D02*
Y10268D01*
Y10496D02*
Y10378D01*
Y11224D02*
Y11342D01*
X6688Y9786D02*
X6806D01*
X6688Y10860D02*
X6806D01*
X6728Y23642D02*
X6636Y23550D01*
X6984Y23642D02*
X7076Y23550D01*
X6984Y24804D02*
X7099Y24856D01*
X7012Y10526D02*
X6894D01*
X7228Y24223D02*
X7110D01*
X7260Y23642D02*
Y23524D01*
X7549Y13283D02*
X7460D01*
X7573Y10162D02*
Y10044D01*
Y10890D02*
Y11008D01*
X7578Y13642D02*
X7486Y13734D01*
X7578Y20401D02*
X7486Y20309D01*
X7578Y20401D02*
X7486Y20309D01*
X7699Y21418D02*
Y21507D01*
X7701Y11914D02*
X7608Y11822D01*
X7701Y12249D02*
X7583Y12250D01*
X7782Y9144D02*
X7665Y9107D01*
X7782Y9715D02*
X7690Y9807D01*
X7849Y13283D02*
X7937D01*
X7878Y11914D02*
X7970Y11822D01*
X7878Y12249D02*
X7996Y12250D01*
X7937Y13671D02*
Y13760D01*
X8117Y9144D02*
X8235Y9107D01*
X8117Y9715D02*
X8209Y9807D01*
X8134Y10526D02*
X8252D01*
X8579Y8382D02*
X8460D01*
X8595Y20521D02*
X8684D01*
X8746Y8097D02*
Y7979D01*
X8748Y7288D02*
X8630D01*
X8829Y6924D02*
Y6806D01*
X8913Y8382D02*
X9031D01*
X9028Y6471D02*
X8935Y6378D01*
X9028Y6766D02*
X8910Y6786D01*
X9284Y6471D02*
X9376Y6378D01*
X9284Y6766D02*
X9402Y6786D01*
X9309Y7653D02*
Y7771D01*
X9457Y13589D02*
X9339Y13569D01*
X9457Y13628D02*
X9339Y13648D01*
X9520Y6924D02*
Y6806D01*
X9546Y14022D02*
Y14140D01*
X9709Y15089D02*
X9591D01*
X9851Y14148D02*
X9733D01*
X9858Y16472D02*
X9766Y16380D01*
X9858Y17594D02*
X9766Y17686D01*
X9886Y11269D02*
X9768Y11246D01*
X9886Y11308D02*
X9768Y11328D01*
X9886Y11663D02*
X9768Y11643D01*
X9886Y11702D02*
X9794Y11794D01*
X9995Y14922D02*
Y14804D01*
Y15256D02*
Y15375D01*
X10063Y11702D02*
X10155Y11794D01*
X10215Y14583D02*
X10192Y14701D01*
X10254Y14583D02*
X10274Y14701D01*
X10280Y10932D02*
X10161D01*
X10280Y11828D02*
X10161D01*
X10280Y15089D02*
X10398D01*
X10321Y10905D02*
Y10787D01*
Y11869D02*
Y11988D01*
X10431Y12920D02*
X10628D01*
X10431D02*
X10628D01*
X10447Y10600D02*
X10329D01*
X10447Y12175D02*
X10329D01*
X10467Y10511D02*
Y10393D01*
X10536Y18372D02*
Y18490D01*
X10559Y18224D02*
X10677D01*
X10586Y16472D02*
X10678Y16380D01*
X10586Y17594D02*
X10678Y17686D01*
X10609Y14583D02*
X10589Y14701D01*
X10648Y12831D02*
X10766Y12828D01*
X10648Y13008D02*
X10740Y13100D01*
X10648Y14406D02*
X10740Y14314D01*
X10648Y14583D02*
X10740Y14675D01*
X10774Y13225D02*
Y13107D01*
Y14189D02*
Y14307D01*
X10815Y14148D02*
X10933D01*
X10845Y15896D02*
X10727D01*
X11120Y14022D02*
Y14140D01*
X11130Y15729D02*
Y15611D01*
Y16064D02*
Y16182D01*
X11209Y14002D02*
X11327D01*
X11416Y15896D02*
X11534D01*
X11927Y17013D02*
X11809D01*
X11945Y18225D02*
X11827D01*
X12201D02*
X12319D01*
X12291Y16452D02*
Y16334D01*
Y17574D02*
Y17692D01*
X12501Y14229D02*
X12383D01*
X12525Y15091D02*
X12433Y14999D01*
X12525Y15426D02*
X12433Y15518D01*
X12525Y14061D02*
Y13943D01*
X12552Y13514D02*
Y13632D01*
X12582Y12581D02*
Y12699D01*
X12589Y14396D02*
Y14514D01*
X12640Y13347D02*
X12758D01*
X12670Y12414D02*
X12789D01*
X12678Y14229D02*
X12796D01*
X12702Y15091D02*
X12794Y14999D01*
X12702Y15426D02*
X12710Y15544D01*
X13301Y13392D02*
X13183D01*
X13301Y13983D02*
X13183D01*
X13561Y18088D02*
X13443Y18069D01*
X13561Y18384D02*
X13469Y18476D01*
X14497Y3555D02*
X14379D01*
X14694Y2954D02*
Y2836D01*
Y4155D02*
Y4273D01*
X14891Y3555D02*
X15009D01*
X15209Y18257D02*
X15091D01*
X15337Y18109D02*
Y17991D01*
Y18405D02*
Y18523D01*
X15465Y18257D02*
X15583D01*
X15811Y5955D02*
X15693D01*
X16017Y5670D02*
Y5552D01*
Y6241D02*
Y6359D01*
X16224Y5955D02*
X16342D01*
X16441Y12792D02*
Y12910D01*
X17036Y18269D02*
X17020Y18387D01*
X17292Y17974D02*
X17410Y17934D01*
X17292Y18269D02*
X17384Y18361D01*
X17632Y13392D02*
X17514D01*
X18203D02*
X18321D01*
X18787Y11189D02*
X18669D01*
X18868Y11356D02*
Y11474D01*
X18871Y17966D02*
X18753Y17932D01*
X18871Y18261D02*
X18779Y18353D01*
X19112Y11022D02*
Y10904D01*
X19127Y17966D02*
X19245Y17932D01*
X19127Y18261D02*
X19219Y18353D01*
X19704Y16135D02*
X19586D01*
X19726Y14652D02*
X19608D01*
X19742Y13058D02*
X19624D01*
X19852Y16008D02*
Y15889D01*
Y16263D02*
Y16382D01*
X19874Y14524D02*
Y14406D01*
Y14780D02*
Y14898D01*
X19890Y12930D02*
Y12812D01*
X19999Y16135D02*
X20117D01*
X20021Y14652D02*
X20139D01*
X20038Y12994D02*
X20156D01*
X20451Y11338D02*
Y11220D01*
Y11594D02*
Y11712D01*
X20599Y11466D02*
X20717D01*
X21165Y18064D02*
X21047D01*
X21245Y24194D02*
X21127D01*
X21253Y17897D02*
Y17779D01*
Y18232D02*
Y18350D01*
X21342Y18064D02*
X21460D01*
X21550Y23791D02*
Y23673D01*
Y24598D02*
Y24716D01*
X21713Y19568D02*
X21595D01*
X21801Y19401D02*
Y19283D01*
Y19736D02*
Y19854D01*
X21855Y24194D02*
X21973D01*
X21890Y19568D02*
X22008D01*
X23016Y19072D02*
Y18953D01*
Y19800D02*
Y19918D01*
X24391Y19538D02*
X24273D01*
X24432Y17194D02*
X24314D01*
X24434Y24194D02*
X24316D01*
X24480Y19371D02*
Y19253D01*
Y19705D02*
Y19824D01*
X24521Y17027D02*
Y16909D01*
Y17361D02*
Y17479D01*
X24569Y19538D02*
X24687D01*
X24609Y17194D02*
X24727D01*
X24739Y23791D02*
Y23673D01*
Y24598D02*
Y24716D01*
X24943Y18073D02*
X24825D01*
X25032Y17906D02*
Y17788D01*
Y18241D02*
Y18359D01*
X25044Y24194D02*
X25162D01*
X25121Y18073D02*
X25239D01*
G54D13*
X9898Y24045D02*
X9940Y24003D01*
Y23457*
X10234Y23162*
X11859*
X12727Y24030*
X13778*
Y24060*
X12174Y1291D02*
X11861Y977D01*
X12174Y1291D02*
X12487Y1604D01*
X12174Y1291D02*
X12487Y977D01*
X12174Y1291D02*
X11861Y1604D01*
X13242Y4561D02*
Y3927D01*
X14622Y2548*
X15245*
X13242Y4561D02*
Y5561D01*
Y6561*
Y7561*
X13778Y24060D02*
X13818Y24020D01*
X16311Y1283D02*
X16624Y969D01*
X16311Y1283D02*
X15997Y969D01*
X16311Y1283D02*
X15991Y1589D01*
X16311Y1283D02*
X16631Y1589D01*
X17728Y24103D02*
Y24090D01*
X19512Y3638D02*
X19100Y3802D01*
X19512Y3638D02*
X19674Y4050D01*
X19512Y3638D02*
X19346Y3227D01*
X20465Y1318D02*
X20152Y1631D01*
X20465Y1318D02*
X20778Y1005D01*
X20465Y1318D02*
X20152Y1005D01*
X20465Y1318D02*
X20778Y1631D01*
X24270Y14966D02*
Y15032D01*
X24400Y15162*
Y15558*
X24596Y1300D02*
X24909Y1613D01*
X24596Y1300D02*
X24909Y987D01*
X24596Y1300D02*
X24282Y1613D01*
X24596Y1300D02*
X24282Y987D01*
G54D14*
X1508Y18017D02*
X1513Y18021D01*
X1523Y16021D02*
X1862Y10907*
X2594D01*
X2729Y11043*
X3067*
Y11640*
X3071Y11643*
X3086Y9746D02*
Y8978D01*
X2723Y8616*
X1862*
X3332Y10275D02*
X3211D01*
X3086Y10150*
Y9746*
X3332Y10275D02*
X3994D01*
X4281Y10562*
Y11739*
X4152Y11868*
X3699Y20870D02*
Y21684D01*
X3711Y21697*
Y22198*
X4081Y12226D02*
X3935Y12372D01*
X3862*
X3699Y12535*
Y13172*
X4199Y20870D02*
Y21507D01*
X4413Y21722*
X9571*
X9634Y21784*
X9841*
X4815Y9074D02*
Y8632D01*
X5299Y11717D02*
X5311D01*
X5448Y11854*
X6127*
X5299Y11717D02*
X4807D01*
X5299D02*
Y11447D01*
X6127Y8683D02*
X5448D01*
Y8844*
X5218Y9074*
X4815*
X6127Y8683D02*
X6806D01*
X6860Y8737*
Y8742*
X7057Y8938*
X9209*
X10663Y10393*
Y10600*
X6127Y11854D02*
Y11518D01*
X6159Y11486*
X9974*
X6127Y12000D02*
Y11854D01*
X6135Y3794D02*
X8287D01*
X10514Y6022*
Y7627*
X11792Y8905*
X14599*
X14758Y9063*
Y9162*
X15565Y9970*
Y10738*
X16393Y11566*
X16495*
X17032Y12103*
Y12507*
X6169Y4151D02*
X8341D01*
X10358Y6167*
Y7830*
X11669Y9141*
X14424*
X14640Y9357*
Y9717*
X15157Y10234*
Y10726*
X16048Y11617*
Y12507*
X6227Y4440D02*
X7896D01*
X8558Y5102*
Y5834*
X8915Y6192*
X9984*
X10191Y6399*
Y7987*
X11592Y9388*
X14321*
X14426Y9493*
Y9742*
X14995Y10310*
Y10824*
X15851Y11680*
Y12507*
X6582Y3041D02*
X6797Y3257D01*
X8449*
X9014Y3821*
X9107*
X10890Y5604*
X12232*
X12294Y5666*
Y8078*
X12602Y8386*
X14793*
X15128Y8721*
Y8949*
X15876Y9697*
Y10638*
X16359Y11121*
X16983*
X17918Y12056*
Y13196*
X6936Y2936D02*
X8404D01*
X8975Y3508*
X9471*
X10504Y4541*
X12226*
X12448Y4764*
Y7913*
X12627Y8092*
X14866*
X15600Y8826*
Y9026*
X16059Y9485*
Y10618*
X16383Y10942*
X17021*
X17360Y11281*
X17722*
X7437Y9430D02*
X7950D01*
X7790Y7294D02*
Y7830D01*
X7939Y7979*
Y8382*
X8044Y16521D02*
X8681D01*
X8694Y16508*
Y16293*
X8044Y17021D02*
X8666D01*
X8707Y17063*
Y17822*
X9503Y18618*
X10463*
X10777Y18932*
X11304*
X11489Y18747*
X13806*
X14196Y18356*
Y18191*
X14456Y17930*
X14865*
X15457Y17338*
Y16837*
X8044Y17521D02*
X7372D01*
X7367Y17516*
X7126*
X8567Y23414D02*
X7446D01*
X8753Y601D02*
X9158D01*
X9179Y622*
X8757Y9430D02*
X9214D01*
X9220Y9436*
X8785Y16012D02*
X8776Y16021D01*
X8044*
X9136Y10505D02*
Y10022D01*
X8946*
X8757Y9833*
Y9430*
X9220Y9436D02*
X9974Y10190D01*
Y11092*
X9237Y17014D02*
Y15901D01*
X9386Y15752*
X9531Y15896*
X9995*
X9467Y8796D02*
X11057Y10386D01*
Y10600*
X9467Y8796D02*
X8522D01*
X8460Y8734*
Y8619*
X8224Y8382*
X7939*
X9472Y12499D02*
X9746Y12225D01*
X10173*
X10410Y12462*
X10582*
X10663Y12381*
Y12175*
X9516Y22182D02*
X8843D01*
X8400Y22625*
X9546Y13412D02*
X9330D01*
X9115*
X9546Y13609D02*
X10235D01*
X9546Y13805D02*
X9339D01*
Y14088*
X9386Y14136*
Y15752*
X9641Y14009D02*
X9634Y14002D01*
X9546*
X9683Y18224D02*
Y17931D01*
X9773Y17841*
X12639*
X12857Y17624*
Y15202*
X13092Y14967*
X13587*
X9809Y14488D02*
X9815Y14494D01*
X10038*
X9904Y6618D02*
X10012D01*
Y8135*
X12284Y10407*
Y10623*
X13098Y11436*
Y12004*
X13414Y12320*
X13558*
X14158Y12920*
Y12933*
X14321Y13096*
Y13146*
X14445Y13270*
Y13271*
X14566Y13393*
X14627Y13453*
Y14226*
X14279Y14574*
X13587*
X10038Y12920D02*
Y12713D01*
X10036Y12712*
Y12432*
X10235Y12920D02*
Y12668D01*
X10276Y12626*
X10762*
X10878Y12742*
X11672*
X11733Y12682*
X11756*
X10235Y13609D02*
X10333Y13707D01*
X10235Y14158D02*
Y14494D01*
X10247Y2825D02*
X10233Y2839D01*
X9824*
X10333Y13707D02*
X10628Y14002D01*
X10333Y13707D02*
Y13904D01*
Y14009D02*
X9641D01*
X10333D02*
Y14059D01*
X10235Y14158*
X10333Y14009D02*
Y13904D01*
X10381Y11289D02*
X9974D01*
X10431Y12920D02*
X10628D01*
X10431Y14494D02*
Y14794D01*
X10727Y15089*
X11130*
X10467Y12175D02*
X10479Y12162D01*
Y11387D02*
X10762D01*
X10479D02*
X10381Y11289D01*
X10479Y12162D02*
Y11387D01*
X10628Y12920D02*
Y13412D01*
X10333Y13707*
X10628Y14002D02*
X10924D01*
X10628Y14200D02*
X10333Y13904D01*
X10628Y14494D02*
Y14200D01*
X10762Y11387D02*
X10468Y11093D01*
Y10878*
X10467Y10877*
Y10600*
X10825Y1941D02*
X10957Y2074D01*
X18614*
X19972Y3432*
Y12144*
X18331Y13786*
X17918*
X10860Y10600D02*
Y11289D01*
X10762Y11387*
X10860Y11486D02*
X10762Y11387D01*
X10860Y12175D02*
Y12381D01*
X11015Y12536*
X11521*
X10921Y14006D02*
X10924Y14002D01*
X11120*
X11080Y19965D02*
Y19386D01*
X11453Y19012*
X11699*
X11120Y13412D02*
Y13274D01*
X11416Y12979*
X12099*
X12276Y13156*
Y13657*
X12407Y13788*
X12589*
X12960Y14159*
Y14777*
X11120Y13609D02*
X11341D01*
X11602Y13870*
X11822*
X11130Y15089D02*
X11672D01*
X11711Y15129*
X11306Y12329D02*
Y12286D01*
X11195Y12175*
X11057*
X11325Y18225D02*
Y18077D01*
X11634*
X11752Y17959*
X12719*
X12991Y17688*
Y15357*
X13183Y15164*
X13587*
X11481Y14228D02*
X11760D01*
Y14229*
X12038*
X11481Y14228D02*
Y13960D01*
X11327Y13805*
X11120*
X11539Y11928D02*
X11549Y11918D01*
Y11682*
Y11289D02*
X11756D01*
Y12682*
X11549Y11486D02*
X10860D01*
X11711Y15129D02*
Y16048D01*
X11630Y16129*
Y17058*
X11266*
X11994Y11545D02*
Y11329D01*
X11756Y11092*
X11549*
X11994Y11545D02*
X12256Y11807D01*
Y12669*
X12402Y12815*
X12001Y13347D02*
Y13632D01*
X12038Y13670*
Y14229*
Y11929D02*
X12031Y11936D01*
Y12414*
X12062Y15259D02*
Y14801D01*
X12038Y14777*
Y14229*
X12291Y17013D02*
Y16304D01*
X12352Y16243*
X12582Y12414D02*
X12882D01*
X13309Y12944D02*
X13483D01*
X13587Y13048*
Y13196*
X13386Y17851D02*
X13626Y17610D01*
Y16650*
X13990Y16286*
Y15951*
X13587*
X13481Y12094D02*
X13312Y11925D01*
Y11164*
X13220Y11071*
X13219*
X13066Y10919*
X13518Y10345D02*
X13594D01*
Y10729*
X13947Y11082*
X14471*
X13587Y13392D02*
X13183D01*
X13052Y13261*
Y12584*
X12882Y12414*
X13587Y13589D02*
X13183D01*
X12934Y13340*
Y13203*
X12772Y13042*
X12333*
X12152Y12861*
X12147*
X12052Y12765*
X11840*
X11756Y12682*
X13587Y14180D02*
X14144D01*
X14342Y13982*
Y13503*
X14209Y13369*
Y13368*
X14085Y13244*
Y13194*
X13447Y12556*
X13316*
X12706Y11945*
Y11724*
X11459Y10477*
Y10341*
X11138Y10020*
X13587Y14377D02*
X14114D01*
X14460Y14031*
Y13454*
X14327Y13320*
Y13319*
X14203Y13195*
Y13145*
X13495Y12438*
X13365*
X12830Y11902*
Y11429*
X11877Y10477*
Y10335*
X11634Y10092*
X13587Y15361D02*
X14105D01*
X14414Y15670*
Y16029*
X13805Y16638*
Y17780*
X13587Y15558D02*
X13183D01*
X13111Y15630*
Y17775*
X12941Y17945*
Y18236*
X13587Y15755D02*
X13995D01*
X13996Y15756*
X14208*
X13587Y16148D02*
Y16522D01*
X13390Y16719*
Y17418*
X13689Y18236D02*
X13401D01*
X13136Y18502*
X12747*
X12470Y18225*
X12073*
X14024Y17149D02*
Y16942D01*
X14128Y16837*
X14276*
X14102Y13589D02*
X13587D01*
X14136Y13896D02*
X14117D01*
X14007Y13786*
X13587*
X14311Y1806D02*
X14369Y1865D01*
X18821*
X20231Y3275*
Y11103*
X20151Y11183*
Y12201*
X18369Y13983*
X17918*
X14355Y11954D02*
X14473Y12071D01*
Y12507*
X14652Y13186D02*
X14506Y13040D01*
X14440*
X14276Y12875*
Y12507*
X14670D02*
Y12910D01*
X14739Y12979*
X14740*
X14858Y13098*
Y13099*
X14866Y13107*
Y14703*
X14670Y16837D02*
Y17541D01*
X14007Y18204*
Y18379*
X13765Y18620*
X12698*
X12657Y18579*
X11348*
X11202Y18725*
X14816Y12009D02*
X14866Y12059D01*
Y12507*
X14840Y17663D02*
X15260Y17243D01*
Y16837*
X14866D02*
Y16309D01*
X14849Y16292*
X15063Y12507D02*
Y11674D01*
X14471Y11082*
X15063Y16837D02*
Y16287D01*
X15223Y16127*
Y16057*
X15369Y15911*
X15085Y13071D02*
Y14897D01*
X15008Y14974*
X14636*
X14432Y14770*
X13587*
X15165Y9944D02*
X15362Y10141D01*
Y10732*
X16244Y11615*
Y12507*
X15260D02*
Y12080D01*
X15203Y12023*
Y11561*
X15167Y11524*
Y11257*
X14998Y11088*
X14997*
X14995Y11086*
X14991*
X14788Y10883*
X15432Y11554D02*
X15654Y11776D01*
Y12507*
X15457D02*
Y11985D01*
X15447Y11975*
X15654Y16837D02*
Y17439D01*
X14835Y18257*
X14589*
X15896Y15520D02*
X15647D01*
X15246*
X14473Y16293*
Y16837*
X16048D02*
Y17487D01*
X16416Y17856*
Y18122*
X16095Y21350D02*
X15851Y21106D01*
Y16837*
X16390Y9741D02*
X16999D01*
X17219Y9961*
Y10345*
X16441Y12507D02*
Y13251D01*
X16326Y13367*
X16305*
X16296Y13358*
X16069*
X16441Y16837D02*
Y16434D01*
X16525Y16350*
X18471*
X19313Y17192*
X21579*
X22145Y16626*
X23072*
X23213Y16768*
Y17507*
X16638Y12507D02*
Y13346D01*
X16642Y13350*
Y13557*
X16638Y16837D02*
Y17511D01*
X16891Y17764*
X19672*
X19707*
X19831Y17640*
X22295*
X22428Y17507*
X22623*
X16642Y13557D02*
X17165D01*
X17198Y13589*
X17918*
X16835Y12507D02*
Y13047D01*
X16877Y13089*
X17379*
X17420Y13047*
Y11810*
X16921Y11311*
X16339*
X15728Y10699*
Y9870*
X14906Y9049*
Y8837*
X14695Y8627*
X11836*
X10690Y7480*
Y5928*
X9698Y4936*
Y4766*
X8487Y3555*
X6743*
X6611Y3424*
X6317*
X16982Y15610D02*
X17323Y15951D01*
X17918*
X17008Y17556D02*
X16835Y17384D01*
Y16837*
X17032D02*
Y17270D01*
X17111Y17350*
X18849*
X18981Y17482*
X21912*
X22455Y16939*
X22750*
X22819Y17009*
Y17507*
X17164Y18122D02*
X17448D01*
X17461Y18109*
X17705*
X17229Y12507D02*
Y11930D01*
X17147Y11848*
X17229Y16837D02*
X18662D01*
X19166Y17341*
X21772*
X22321Y16792*
X22944*
X23016Y16864*
Y17507*
X17766Y24052D02*
X17728Y24090D01*
X17918Y14180D02*
X18358D01*
X18468Y14069*
X18722*
X17918Y14377D02*
X18454D01*
X18464Y14366*
X17918Y14574D02*
X17335D01*
X17316Y14592*
X17918Y14770D02*
X18388D01*
X18500Y14659*
X17918Y14967D02*
X18484D01*
X18769Y14682*
Y14397*
X19735Y13432*
X19976*
X20451Y12957*
Y12214*
X17918Y15164D02*
X18512D01*
X19870Y13806*
X19890*
X17918Y15361D02*
X18619D01*
X19751Y14229*
X20419*
X21733Y12915*
X22357*
X17918Y15755D02*
X18703D01*
X19832Y16884*
X19852*
X17918Y16148D02*
X17363D01*
X17335Y16121*
X16977*
X18251Y18114D02*
Y18394D01*
X18108Y18538*
X16959*
X16790Y18369*
Y17945*
X16244Y17400*
Y16837*
X19088Y9281D02*
Y9620D01*
X19112Y9644*
Y9929*
Y10215*
X18426Y10901*
X17394*
X19112Y11189D02*
X18669D01*
X18179Y11680*
Y12106*
X19497Y12084D02*
X19351Y12230D01*
Y12363*
X18321Y13392*
X17918*
X19838Y18109D02*
X20130Y18401D01*
X20782*
X19874Y14652D02*
X19608D01*
X19430Y14830*
Y15057*
X19874Y15400D02*
X19034D01*
X18877Y15558*
X17918*
X21250Y19568D02*
Y19283D01*
X21255Y19278*
Y18811*
X21550Y20710D02*
Y20188D01*
X21250Y19888*
Y19568*
X21806Y18811D02*
Y18526D01*
X21805Y18524*
Y18064*
X22188Y19036D02*
X22042Y18889D01*
Y18840*
X22013Y18811*
X21806*
X22352Y18709D02*
X22575D01*
X22819Y18953*
Y19436*
X22623D02*
X22300D01*
X22275Y19410*
X23668Y17493D02*
X23655Y17507D01*
X23410*
X23766Y19336D02*
X23666Y19436D01*
X23410*
X23970Y17194D02*
X23763D01*
X23668Y17288*
Y17493*
X23992Y19820D02*
X23604D01*
X23506Y19918*
X23213*
Y19436*
X24000Y18809D02*
X24239D01*
X24240Y18808*
X24479*
X24248Y9988D02*
X23549D01*
X23254Y9693*
Y8466*
X22731Y7943*
Y7864*
X24479Y18808D02*
Y18522D01*
X24481Y18520*
Y18073*
X25031Y19538D02*
Y19253D01*
X25030Y19252*
Y18808*
X25031Y19538D02*
Y19896D01*
X24739Y20188*
Y20710*
G54D15*
X1513Y18021D02*
X2352D01*
X1523Y16021D02*
X2352D01*
X7067Y8656D02*
X6878Y8467D01*
Y7723*
X7299Y12438D02*
Y12427D01*
X7238Y12367*
Y12081*
X7299Y12438D02*
X9205D01*
X9266Y12499*
X9472*
X7299Y12438D02*
X7199Y12538D01*
Y13172*
X7446Y23414D02*
X7356Y23323D01*
Y22625*
X7856Y24223D02*
X8139D01*
X8143Y24227*
X8386*
X7945Y2052D02*
X7748D01*
X7257Y2544*
X7945Y2052D02*
X8732Y2839D01*
X9017*
X7945Y2052D02*
Y601D01*
X8400Y22625D02*
X7856D01*
X9017Y2839D02*
Y2389D01*
X9125Y2282*
X15964*
X16922Y3240*
Y5231*
X9311Y21118D02*
X10001D01*
X10398Y21515*
Y22214*
X9530Y5831D02*
X9220D01*
X9060Y5671*
X10057Y19012D02*
Y19767D01*
X9686Y20138*
X9302*
X11398Y22214D02*
Y21515D01*
X11664Y21249*
Y20138*
X11412Y4061D02*
X11146Y3795D01*
X10876*
Y3560*
X11431Y24803D02*
X10977D01*
X10898Y24724*
Y24025*
X11431Y5061D02*
X12204D01*
X12222Y5043*
X11431Y6061D02*
Y6550D01*
X11442Y6561*
X11431Y7061D02*
Y7533D01*
X11449Y7551*
X12953Y20148D02*
Y21567D01*
X13615Y22229*
X14278*
X13315Y19024D02*
X13563D01*
X13902Y19363*
X14778Y24040D02*
Y24739D01*
X14842Y24803*
X15266*
X14963Y19045D02*
X15209D01*
X15315Y19150*
Y20148*
X15245Y2548D02*
X15468D01*
X15757Y2836*
Y3555*
X15340Y21215D02*
Y21469D01*
X15278Y21531*
Y22229*
X16790Y18909D02*
Y19216D01*
X16662Y19344*
Y20180*
X16922Y5231D02*
Y5551D01*
X16923Y5552*
Y5955*
Y6663*
Y8357*
X17561Y21095D02*
X17707Y21241D01*
X17909*
X18228Y21561*
Y22260*
X18216Y12471D02*
Y12915D01*
X18728Y24071D02*
X19112D01*
X19303Y24262*
Y24410*
X19449Y24557*
X19088Y8730D02*
X19374D01*
X19713Y9069*
Y11416*
X19523Y11606*
X19081*
X18216Y12471*
X19088Y8730D02*
X18684D01*
X18311Y8357*
X16923*
X19120Y19056D02*
X18965Y18901D01*
X18625*
X19228Y22260D02*
Y21561D01*
X19024Y21357*
Y20180*
X20639Y16509D02*
Y16099D01*
X20616Y16076*
X20661Y14358D02*
Y14780D01*
Y15026*
X20677Y13432D02*
X20943D01*
X22511Y11865*
Y11320*
X20871Y9308D02*
X21239Y9675D01*
Y11840*
X21547Y7995D02*
X21798D01*
X21929Y7864*
X22180*
X22437Y10488D02*
Y10872D01*
X22165Y11144*
X21921*
X22439Y13466D02*
X23268D01*
X23269Y13465*
X22439Y14466D02*
X21693D01*
X21595Y14563*
X22472Y8877D02*
X22437Y8912D01*
Y9488*
X24250Y13966D02*
Y13466D01*
X24286Y13431*
G54D16*
X10174Y1291D02*
Y1802D01*
X10313Y1941*
X10825*
X13818Y24020D02*
Y23427D01*
X14114Y23131*
X15720*
X16692Y24103*
X17728*
X14311Y1283D02*
Y1806D01*
X20372Y23159D02*
X20037D01*
X20034Y23162*
X17932*
X17766Y23328*
Y24052*
X24400Y15558D02*
X23801Y16157D01*
X21960*
X21308Y16809*
G54D17*
X345Y2815D03*
Y3544D03*
Y5091D03*
X355Y4303D03*
X416Y404D03*
X419Y9764D03*
X429Y11039D03*
X431Y7429D03*
X446Y8535D03*
X774Y12612D03*
X801Y13247D03*
Y13756D03*
Y14230D03*
X814Y19799D03*
Y20259D03*
X817Y14756D03*
X825Y19276D03*
Y20866D03*
Y21420D03*
X889Y17010D03*
X1046Y6798D03*
X1169Y1864D03*
X1199Y1096D03*
X1230Y404D03*
X1515Y21096D03*
Y21692D03*
X1518Y20519D03*
X1524Y20027D03*
X1528Y19018D03*
Y19534D03*
X1537Y18520D03*
X1560Y17528D03*
X1563Y12360D03*
X1570Y12917D03*
Y15040D03*
Y15523D03*
X1572Y16520D03*
X1573Y14504D03*
X1574Y17031D03*
X1579Y13521D03*
Y14017D03*
X2163Y21702D03*
X2177Y12356D03*
X2453Y408D03*
X2691Y12360D03*
X2707Y21681D03*
X3059Y8028D03*
X3071Y11643D03*
X3175Y14011D03*
X3184Y14527D03*
Y15040D03*
X3195Y15563D03*
Y16535D03*
X3205Y17016D03*
Y17539D03*
Y18533D03*
Y19048D03*
X3209Y20008D03*
X3247Y19495D03*
X3332Y10275D03*
X3711Y21697D03*
X3784Y8734D03*
X4081Y12226D03*
X4152Y11868D03*
X4274Y4062D03*
X4648Y19476D03*
X4663Y18527D03*
X4666Y16532D03*
Y17538D03*
X4675Y15569D03*
X4685Y14509D03*
X4735Y4846D03*
X4815Y8632D03*
X4991Y24541D03*
X5176Y7523D03*
X5299Y11447D03*
X6026Y7529D03*
X6103Y5108D03*
X6135Y3794D03*
X6169Y4151D03*
X6227Y4440D03*
X6317Y3424D03*
X6582Y3041D03*
X6720Y14484D03*
X6735Y16542D03*
X6750Y15550D03*
X6878Y7723D03*
X6936Y2936D03*
X6939Y19651D03*
X6998Y18366D03*
X7067Y8656D03*
X7126Y17516D03*
X7209Y5046D03*
X7257Y2544D03*
X7437Y9430D03*
X7486Y6214D03*
X7543Y1567D03*
X8303Y21312D03*
X8386Y24227D03*
X8397Y12888D03*
X8567Y23414D03*
X8694Y16293D03*
X8785Y16012D03*
X8799Y13540D03*
X9025Y14755D03*
Y23886D03*
Y24469D03*
X9038Y18924D03*
X9040Y18457D03*
X9060Y5671D03*
X9115Y13412D03*
X9158Y8345D03*
X9179Y622D03*
X9220Y9436D03*
X9269Y1495D03*
X9311Y21118D03*
X9386Y15752D03*
X9467Y8796D03*
X9472Y12499D03*
X9516Y22182D03*
X9608Y11735D03*
X9809Y14488D03*
X9841Y21784D03*
X10036Y12432D03*
X10145Y469D03*
X10247Y2825D03*
X10841Y18214D03*
X10876Y3560D03*
X10885Y20524D03*
X10895Y21234D03*
X11007Y14583D03*
X11080Y19965D03*
X11138Y10020D03*
X11196Y2882D03*
X11202Y18725D03*
X11306Y12329D03*
X11431Y24803D03*
X11442Y6561D03*
X11448Y14577D03*
X11449Y7551D03*
X11481Y14228D03*
X11521Y12536D03*
X11539Y11928D03*
X11634Y10092D03*
X11701Y18296D03*
X11711Y15129D03*
X11822Y13870D03*
X11994Y11545D03*
X12038Y11929D03*
X12066Y21912D03*
X12222Y5043D03*
X12325Y15799D03*
X12344Y2678D03*
X12352Y16243D03*
X12402Y12815D03*
X12415Y14668D03*
X12455Y24411D03*
X12835Y22237D03*
X12882Y12414D03*
X12907Y24586D03*
X12960Y14777D03*
X12997Y13787D03*
X13066Y10919D03*
X13141Y1316D03*
X13309Y12944D03*
X13317Y2726D03*
X13386Y17851D03*
X13390Y17418D03*
X13481Y12094D03*
X13805Y17780D03*
X13902Y19363D03*
X14024Y17149D03*
X14102Y13589D03*
X14136Y13896D03*
X14208Y15756D03*
X14242Y20398D03*
X14331Y15106D03*
X14345Y18678D03*
X14355Y11954D03*
X14471Y11082D03*
X14652Y13186D03*
X14788Y10883D03*
X14795Y15434D03*
X14816Y12009D03*
X14840Y17663D03*
X14849Y16292D03*
X14866Y14703D03*
X15085Y13071D03*
X15165Y9944D03*
X15197Y4377D03*
X15245Y2548D03*
X15266Y24803D03*
X15340Y21215D03*
X15369Y15911D03*
X15432Y11554D03*
X15447Y11975D03*
X15572Y18686D03*
X15625Y14588D03*
X15781Y7898D03*
X15793Y16165D03*
X15859Y7085D03*
X15896Y15520D03*
X15915Y9022D03*
X16054Y13992D03*
X16069Y13358D03*
X16095Y21350D03*
X16209Y14530D03*
X16236Y18671D03*
X16305Y16165D03*
X16346Y24649D03*
X16390Y9741D03*
X16642Y13557D03*
X16849Y9141D03*
X16922Y5231D03*
X16959Y24659D03*
X16969Y21594D03*
X16977Y16121D03*
X16982Y15610D03*
X16991Y14558D03*
X17008Y17556D03*
X17065Y1306D03*
X17147Y11848D03*
X17156Y13956D03*
X17306Y13343D03*
X17316Y14592D03*
X17358Y22275D03*
X17394Y10901D03*
X17561Y21095D03*
X17705Y18109D03*
X17707Y1345D03*
X17712Y18905D03*
X17722Y11281D03*
X17881Y19590D03*
X17921Y9695D03*
X17927Y7907D03*
X17931Y9137D03*
X17947Y6948D03*
X18153Y20485D03*
X18179Y12106D03*
X18216Y12915D03*
X18464Y14366D03*
X18500Y14659D03*
X18722Y14069D03*
X19072Y8032D03*
X19120Y19056D03*
X19332Y6312D03*
X19430Y15057D03*
X19449Y24557D03*
X19495Y18518D03*
X19497Y12084D03*
Y13258D03*
X19747Y11809D03*
X19838Y18109D03*
X20093Y12568D03*
X20372Y23159D03*
X20437Y5284D03*
X20461Y6023D03*
X20540Y23757D03*
X20554Y24589D03*
X20616Y16076D03*
X20661Y14358D03*
X20782Y18401D03*
X20871Y9308D03*
X20899Y10622D03*
X21278Y23293D03*
X21308Y16809D03*
X21356Y1374D03*
Y2279D03*
X21357Y21709D03*
Y22588D03*
X21547Y7995D03*
X21595Y14563D03*
X21767Y20031D03*
X21921Y11144D03*
X22188Y19036D03*
X22275Y19410D03*
X22352Y18709D03*
X22357Y12915D03*
X22361Y24172D03*
X22432Y20258D03*
X22472Y8877D03*
X22511Y11320D03*
X22608Y5396D03*
X23027Y20235D03*
X23129Y24125D03*
X23269Y13465D03*
X23663Y18734D03*
X23668Y17493D03*
X23701Y18037D03*
X23766Y19336D03*
X23803Y20258D03*
X23929Y24109D03*
X23992Y19820D03*
X24000Y18809D03*
X24286Y13431D03*
X24495Y20035D03*
X24776Y23278D03*
X24792Y22572D03*
X24823Y21756D03*
X24854Y3661D03*
X24903Y4517D03*
X25165Y17186D03*
X25453Y18055D03*
Y18776D03*
X25467Y19524D03*
G54D18*
X22623Y17507D03*
Y19436D03*
X22819Y17507D03*
Y19436D03*
X23016Y17507D03*
Y19436D03*
X23213Y17507D03*
Y19436D03*
X23410Y17507D03*
Y19436D03*
G54D19*
X3160Y22198D03*
X3711D03*
X7238Y12081D03*
X7789D03*
X12001Y13347D03*
X12031Y12414D03*
X12038Y14229D03*
X12062Y15259D03*
X12552Y13347D03*
X12582Y12414D03*
X12589Y14229D03*
X12613Y15259D03*
X21250Y19568D03*
X21253Y18064D03*
X21255Y18811D03*
X21801Y19568D03*
X21805Y18064D03*
X21806Y18811D03*
X22180Y7864D03*
X22731D03*
X23970Y17194D03*
X24479Y18808D03*
X24480Y19538D03*
X24481Y18073D03*
X24521Y17194D03*
X25030Y18808D03*
X25031Y19538D03*
X25032Y18073D03*
G54D20*
X11174Y1291D03*
X12174D03*
X15311Y1283D03*
X16311D03*
X18512Y3638D03*
X19465Y1318D03*
X19512Y3638D03*
X20465Y1318D03*
X23596Y1300D03*
X24596D03*
G54D21*
X10174Y1291D03*
X14311Y1283D03*
X17512Y3638D03*
X18465Y1318D03*
X22596Y1300D03*
G54D22*
X9237Y17014D03*
X10222Y17033D03*
X11266Y17058D03*
X12291Y17013D03*
G54D23*
X13518Y10345D03*
X17219D03*
G54D24*
X10398Y22214D03*
X10898Y24025D03*
X11398Y22214D03*
X14278Y22229D03*
X14778Y24040D03*
X15278Y22229D03*
X18228Y22260D03*
X18728Y24071D03*
X19228Y22260D03*
G54D25*
X1862Y7504D03*
Y8616D03*
Y9769D03*
Y10907D03*
X6127Y8683D03*
Y9786D03*
Y10860D03*
Y12000D03*
X7573Y10526D03*
X7790Y7294D03*
X9136Y10505D03*
X9309Y7288D03*
G54D26*
X9302Y20138D03*
X11664D03*
X12953Y20148D03*
X15315D03*
X16662Y20180D03*
X19024D03*
G54D27*
X3067Y11043D03*
X3086Y9746D03*
X3874Y11043D03*
X3893Y9746D03*
X7939Y8382D03*
X7945Y601D03*
X7950Y9430D03*
X8746Y8382D03*
X8753Y601D03*
X8757Y9430D03*
X9017Y2839D03*
X9824D03*
G54D28*
X21550Y20710D03*
Y24194D03*
X24739Y20710D03*
Y24194D03*
G54D29*
X11431Y5061D03*
Y6061D03*
Y7061D03*
X13242Y4561D03*
Y5561D03*
Y6561D03*
Y7561D03*
X22437Y9488D03*
Y10488D03*
X22439Y13466D03*
Y14466D03*
X24248Y9988D03*
X24250Y13966D03*
G54D30*
X19112Y9929D03*
Y11189D03*
G54D31*
X9156Y6618D03*
X9530Y5831D03*
X9683Y18224D03*
X9904Y6618D03*
X10057Y19012D03*
X10431Y18224D03*
X11325Y18225D03*
X11699Y19012D03*
X12073Y18225D03*
X12941Y18236D03*
X13315Y19024D03*
X13689Y18236D03*
X14589Y18257D03*
X14963Y19045D03*
X15337Y18257D03*
X16416Y18122D03*
X16790Y18909D03*
X17164Y18122D03*
X18251Y18114D03*
X18625Y18901D03*
X18999Y18114D03*
G54D32*
X5856Y22625D03*
Y24223D03*
X6356Y22625D03*
Y24223D03*
X6856Y22625D03*
Y24223D03*
X7356Y22625D03*
Y24223D03*
X7856Y22625D03*
Y24223D03*
G54D33*
X21421Y4824D03*
X23823D03*
G54D34*
X22642Y6713D03*
G54D35*
X10333Y13707D03*
X10762Y11387D03*
G54D36*
X9546Y13412D03*
Y13609D03*
Y13805D03*
Y14002D03*
X9974Y11092D03*
Y11289D03*
Y11486D03*
Y11682D03*
X11120Y13412D03*
Y13609D03*
Y13805D03*
Y14002D03*
X11549Y11092D03*
Y11289D03*
Y11486D03*
Y11682D03*
G54D37*
X10038Y12920D03*
Y14494D03*
X10235Y12920D03*
Y14494D03*
X10431Y12920D03*
Y14494D03*
X10467Y10600D03*
Y12175D03*
X10628Y12920D03*
Y14494D03*
X10663Y10600D03*
Y12175D03*
X10860Y10600D03*
Y12175D03*
X11057Y10600D03*
Y12175D03*
G54D38*
X19088Y8730D03*
Y9281D03*
G54D39*
X16017Y5955D03*
X16923D03*
X17828D03*
G54D40*
X16923Y8357D03*
G54D41*
X4807Y10910D03*
Y11717D03*
X4815Y9074D03*
Y9881D03*
X9995Y15089D03*
Y15896D03*
X11130Y15089D03*
Y15896D03*
G54D42*
X2352Y14009D03*
Y14521D03*
Y15021D03*
Y15521D03*
Y16021D03*
Y16521D03*
Y17021D03*
Y17521D03*
Y18021D03*
Y18521D03*
Y19021D03*
Y19521D03*
Y20021D03*
X8044Y14021D03*
Y14521D03*
Y15021D03*
Y15521D03*
Y16021D03*
Y16521D03*
Y17021D03*
Y17521D03*
Y18021D03*
Y18521D03*
Y19021D03*
Y19521D03*
Y20021D03*
G54D43*
X3199Y13172D03*
Y20870D03*
X3699Y13172D03*
Y20870D03*
X4199Y13172D03*
Y20870D03*
X4699Y13172D03*
Y20870D03*
X5199Y13172D03*
Y20870D03*
X5699Y13172D03*
Y20870D03*
X6199Y13172D03*
Y20870D03*
X6699Y13172D03*
Y20870D03*
X7199Y13172D03*
Y20870D03*
G54D44*
X908Y17436D03*
Y18598D03*
X922Y15440D03*
Y16601D03*
G54D45*
X1508Y18017D03*
X1523Y16021D03*
G54D70*
X14276Y12507D03*
Y16837D03*
X14473Y12507D03*
Y16837D03*
X14670Y12507D03*
Y16837D03*
X14866Y12507D03*
Y16837D03*
X15063Y12507D03*
Y16837D03*
X15260Y12507D03*
Y16837D03*
X15457Y12507D03*
Y16837D03*
X15654Y12507D03*
Y16837D03*
X15851Y12507D03*
Y16837D03*
X16048Y12507D03*
Y16837D03*
X16244Y12507D03*
Y16837D03*
X16441Y12507D03*
Y16837D03*
X16638Y12507D03*
Y16837D03*
X16835Y12507D03*
Y16837D03*
X17032Y12507D03*
Y16837D03*
X17229Y12507D03*
Y16837D03*
G54D71*
X13587Y13196D03*
Y13392D03*
Y13589D03*
Y13786D03*
Y13983D03*
Y14180D03*
Y14377D03*
Y14574D03*
Y14770D03*
Y14967D03*
Y15164D03*
Y15361D03*
Y15558D03*
Y15755D03*
Y15951D03*
Y16148D03*
X17918Y13196D03*
Y13392D03*
Y13589D03*
Y13786D03*
Y13983D03*
Y14180D03*
Y14377D03*
Y14574D03*
Y14770D03*
Y14967D03*
Y15164D03*
Y15361D03*
Y15558D03*
Y15755D03*
Y15951D03*
Y16148D03*
G54D72*
X19852Y16135D03*
Y16884D03*
X19874Y14652D03*
Y15400D03*
X19890Y13058D03*
Y13806D03*
X20451Y11466D03*
Y12214D03*
X20639Y16509D03*
X20661Y15026D03*
X20677Y13432D03*
X21239Y11840D03*
G54D73*
X14694Y3555D03*
X15757D03*
M02*
