; Version : LOCAL
; Job     : E:\2017\MAKAHIYA\PCB\PCB\PCB.pcb
; User    : WIN10:root
; Date    : Sat Dec 03 20:17:08 2016
; Format  : 3.3 / Absolute / MM / Leading
; Contents: Thru / Drill / Plated
M48
METRIC,TZ
FMAT,2
ICI,OFF
T05C0.3000
T04C1.0000
%
M71
G90
G93X0Y0
T05
X23315Y1579
X3125Y1026
X1056
X2969Y4735
X3047Y2783
X19158Y3981
X23544Y3798
X38722Y6471
X26027Y7175
X18433Y6461
X17617Y7458
X15584Y9637
X16044Y8697
X16719Y7725
X27625Y9043
X56301Y8868
X57607Y10705
X38601Y11117
X15817Y11278
X15670Y10542
X12026Y12310
X10855Y10318
X15501Y12973
X18312Y12817
X23013Y14404
X31197Y12909
X42982Y13286
X51911Y13421
X57423Y13706
X51972Y15299
X49765Y17056
X45584Y17648
X31100Y15397
X19015Y15784
X2656Y17268
X1095Y18869
X17469Y19617
X30677Y19141
X40084Y20062
X42767Y18150
X45535Y20083
X54729Y20308
X57080Y22548
X48443Y20401
X24045Y22341
X23262Y21196
X17950Y21986
X12229Y21924
X7771Y20391
X1134Y21680
X18889Y23951
X23418Y23966
X29107Y25236
X30169Y25185
X35542Y25014
X40022Y23579
X42706Y23980
X45519Y24626
X45544Y23208
X53013Y23641
X53083Y26979
X49886Y26717
X44301Y27634
X40819Y26091
X38524Y27801
X37285Y27746
X33187Y27733
X8462Y26098
X9099Y29243
X13459Y29074
X17512Y30314
X24405Y29807
X29310Y30298
X30576Y30299
X31180Y29324
X36463Y30363
X39236Y30416
X39240Y29305
X40275Y28320
X42341Y30348
X42518Y29190
X43508Y30247
X43854Y28275
X44136Y29075
X48467Y29478
X55678Y28306
X57177Y28752
X62405Y29509
X56787Y32803
X49522Y30693
X46269Y32804
X46174Y30749
X37634Y30502
X34241Y30719
X33805Y32878
X32720Y31531
X29264Y31884
X28739Y31348
X27426Y31750
X25351Y31743
X21329Y32736
X10365Y31054
X6836Y31393
X5529Y31385
X3987Y32810
X3971Y31393
X1965Y32035
X2036Y33647
Y34939
X4010Y34345
X22922Y34410
X24480Y33478
X28703Y33060
X29705Y33491
X31304Y35258
X32739Y35012
X37022Y33052
X37760Y35489
X38316Y33199
X39220Y33646
X39405Y35238
X40999Y35282
X42270Y34434
X49522Y33675
X59052Y33890
X62217Y33672
X54852Y36991
X52478Y36469
X47554Y35736
X46989Y37234
X46900Y36489
X44227Y36952
X33214Y36898
X31533Y37257
X29770Y36727
X29662Y37688
X25915Y36799
X22922Y37478
X8089Y36900
X8064Y35588
X4010Y35604
X3995Y36839
X2074Y37480
X2036Y36144
X3987Y38201
Y39429
X8089Y38201
X8115Y39529
X23841Y40010
X36087Y40020
X38364Y39217
X39038Y40413
X43134Y39650
X49353Y38245
X53549Y42939
X52366Y40834
X47394Y40978
X43123Y40947
X37757Y41131
X31374Y41258
X22315Y40671
X22084Y41385
X8115Y41999
X3993Y41961
X2257Y43205
X3963Y44521
X3998Y43258
X8142Y43221
Y44549
X17859Y43239
X18100Y44491
X33618Y45224
X34010Y44241
X35065Y45161
X35620Y43558
X37695Y44863
X39150Y44145
X43188Y44318
X60072Y43318
X63919Y43653
X64650Y45860
Y47690
X60959Y47774
X60199Y45813
X60105Y47584
X56773Y47522
X28453Y47561
X22962Y46881
X8142Y47073
X3904Y47041
X2068Y50290
X2095Y48962
X3882Y48306
Y49617
X8142Y48383
X8248Y49516
X29039Y48740
X33837Y49334
X46644Y48882
X56357Y48350
X56579Y49303
X60364Y49115
X60941Y50342
X64685Y49591
X62218Y50889
X60459Y51456
X58488Y51397
X56977Y51456
X55288Y50878
X8151Y50821
X3870Y50868
X3856Y52119
X2095Y52999
X2068Y51459
X2095Y54407
X3848Y53584
Y55098
X5494Y55124
X6876Y55071
X9426Y55109
X21090Y54132
X23424Y53813
X24995Y55332
X38079Y53920
X39319Y54073
X42810Y53660
X54246Y55141
X63051Y55261
X62971Y57333
X54246Y57372
X24170Y56342
X21759Y59471
X47280Y58869
X54047Y59165
X62932Y59125
X60780Y61237
X58748Y61277
X56796Y61397
X43478Y62626
X38775Y63000
X29034
X21301Y61535
X12676Y62333
T04
X25842Y3278
X28382
X30922
X36349Y3258
X38889
X41429
X46900Y3348
X49440
X51980
X57393Y3302
X59933
X62473
X44480Y9239
X47020
X49560
T00
M30
