; Version : LOCAL
; Job     : E:\2017\MAKAHIYA\PCB\PCB\PCB.pcb
; User    : WIN10:root
; Date    : Sun Dec 04 21:57:11 2016
; Format  : 3.3 / Absolute / MM / Leading
; Contents: Thru / Drill / Plated
M48
METRIC,TZ
FMAT,2
ICI,OFF
T05C0.3000
T01C1.0000
%
M71
G90
G93X0Y0
T05
X23315Y1579
X3125Y1026
X1056
X2969Y4735
X3047Y2783
X19158Y3981
X23544Y3798
X38722Y6471
X26027Y7175
X18433Y6461
X17617Y7458
X15584Y9637
X16044Y8697
X16719Y7725
X27625Y9043
X56301Y8868
X57607Y10705
X38601Y11117
X15817Y11278
X15670Y10542
X12026Y12310
X10855Y10318
X15501Y12973
X18312Y12817
X23013Y14404
X31044Y12810
X42982Y13286
X51911Y13421
X57423Y13706
X51972Y15299
X45584Y17648
X29064Y16665
X19015Y15784
X2656Y17268
X1095Y18869
X17469Y19617
X29080Y19179
X40084Y20062
X45535Y20083
X54729Y20308
X57080Y22548
X48443Y20401
X24045Y22341
X23262Y21196
X17950Y21986
X12229Y21924
X7771Y20391
X1134Y21680
X18889Y23951
X23418Y23966
X38518Y25259
X40423Y22915
X41630Y24743
X42796Y23218
X45519Y24626
X45544Y23208
X53013Y23641
X53083Y26979
X44181Y27688
X37561Y27643
X33187Y27733
X29550Y25633
X28291Y25450
X8462Y26098
X9099Y29243
X13459Y29074
X24405Y29807
X29310Y30298
X30464Y29324
X30576Y30299
X36463Y30363
X36756Y28148
X39197Y29347
X39236Y30416
X43552Y30094
X45015Y28653
X50158Y29994
X55678Y28306
X57177Y28752
X56787Y32803
X51037Y31922
X49522Y30693
X46269Y32804
X46174Y30749
X37634Y30502
X34241Y30719
X33805Y32878
X32720Y31531
X31501Y32551
X29264Y31841
X28718Y31316
X25492Y31577
X24060Y31747
X21329Y32736
X10365Y31054
X6836Y31393
X5529Y31385
X3987Y32810
X3971Y31393
X1965Y32035
X2036Y33647
Y34939
X4010Y34345
X22349Y34391
X30029Y35231
X33014Y35019
X35820Y34517
X35904Y35296
X36900Y33174
X38316Y33199
X40778Y35539
X40814Y33929
X42270Y34434
X43575Y35447
X43957Y33891
X49522Y33675
X59052Y33890
X62217Y33672
X54852Y36991
X52478Y36469
X47554Y35736
X46989Y37234
X46900Y36489
X43983Y37064
X43158Y36978
X37760Y37346
X32919Y37534
X31533Y37257
X29163Y36140
X29079Y37025
X27958Y37041
X24915Y36800
X22922Y37478
X8089Y36900
X8064Y35588
X4010Y35604
X3995Y36839
X2074Y37480
X2036Y36144
X3987Y38201
Y39429
X8089Y38201
X8115Y39529
X23841Y40010
X29747Y38427
X31306Y40130
X36087Y40020
X36401Y38369
X37581Y39202
X39038Y40413
X40620Y39421
X43134Y39650
X49353Y38245
X54122Y42696
X52366Y40834
X43123Y40947
X41415Y41058
X40113
X37717Y41381
X31374Y41258
X22315Y40671
X22084Y41385
X8115Y41999
X3993Y41961
X2257Y43205
X3963Y44521
X3998Y43258
X8142Y43221
Y44549
X18100Y44491
X34000Y45341
X34010Y44241
X35065Y45161
X35620Y43558
X37695Y44863
X43199Y44593
X60118Y44432
X63919Y43653
X64650Y45860
Y47690
X60959Y47774
X60199Y45813
X60105Y47584
X56773Y47522
X52786Y46740
X50388Y45996
X49517Y47036
X44989Y48019
X44970Y45997
X41240Y47426
X39552Y47463
X36435Y47442
X29721Y46471
X28453Y47561
X27535Y46263
X22962Y46881
X22955Y48067
X8142Y47073
X3904Y47041
X2068Y50290
X2095Y48962
X3882Y48306
Y49617
X8142Y48383
X8248Y49516
X28142Y50712
X35312Y49182
X48565Y48402
X56357Y48350
X56579Y49303
X60364Y49115
X60941Y50342
X64685Y49591
X62218Y50889
X60459Y51456
X58488Y51397
X56977Y51456
X55288Y50878
X8151Y50821
X3870Y50868
X3856Y52119
X2095Y52999
X2068Y51459
X2095Y54407
X3848Y53584
Y55098
X5494Y55124
X6876Y55071
X9426Y55109
X21090Y54132
X23650Y53639
X24995Y55332
X38964Y53886
X40882Y54230
X44606Y53582
X54246Y55141
X63051Y55261
X62971Y57333
X54246Y57372
X24170Y56342
X21759Y59471
X51745Y58824
X54047Y59165
X62932Y59125
X60780Y61237
X58748Y61277
X56796Y61397
X49400Y62374
X38775Y63000
X29034
X21301Y61535
X12676Y62333
T01
X25842Y3278
X28382
X30922
X36349Y3258
X38889
X41429
X46900Y3348
X49440
X51980
X57393Y3302
X59933
X62473
X44480Y9239
X47020
X49560
T00
M30
