*
G04 Job   : E:\2017\MAKAHIYA\PCB\PCB\PCB.pcb*
G04 User  : WIN10:root*
G04 Layer : EtchLayerBottom.gdo*
G04 Date  : Sat Dec 03 20:18:16 2016*
G04 Mentor Graphics Example Gerber Output Definition*
%ICAS*%
%MOIN*%
%FSLAX24Y24*%
%OFA0.0000B0.0000*%
G90*
G74*
%AMVB_RECTANGLE*
21,1,$1,$2,0,0,$3*
%
%ADD10C,0.00500*%
%ADD11C,0.00591*%
%ADD13C,0.00591*%
%ADD12C,0.01969*%
%ADD17C,0.02362*%
%ADD14C,0.03150*%
%ADD15C,0.03937*%
%ADD27C,0.05906*%
%ADD16C,0.07874*%
%ADD25O,0.19685X0.11811*%
%ADD24O,0.11811X0.19685*%
%ADD28VB_RECTANGLE,0.05906X0.05906X0.00000*%
%ADD20VB_RECTANGLE,0.03543X0.03150X180.00000*%
%ADD70VB_RECTANGLE,0.03543X0.03150X90.00000*%
%ADD23VB_RECTANGLE,0.03543X0.06299X270.00000*%
%ADD19VB_RECTANGLE,0.03937X0.02362X0.00000*%
%ADD18VB_RECTANGLE,0.03937X0.02362X90.00000*%
%ADD73VB_RECTANGLE,0.03937X0.11614X180.00000*%
%ADD26VB_RECTANGLE,0.04724X0.05118X270.00000*%
%ADD22VB_RECTANGLE,0.05906X0.14961X0.00000*%
%ADD21VB_RECTANGLE,0.05906X0.14961X270.00000*%
%ADD72VB_RECTANGLE,0.07874X0.03150X180.00000*%
%ADD29VB_RECTANGLE,0.07874X0.03150X270.00000*%
%ADD30VB_RECTANGLE,0.07874X0.07087X180.00000*%
%ADD71VB_RECTANGLE,0.20472X0.04331X90.00000*%
G01*
G36*
X157Y24892D02*
G02X187Y24921I30D01*
G01X1626*
Y915*
G03X1704Y837I78*
G01X2019*
G03X2077Y861J78*
G02X2098Y870I21J20*
X2120Y861J29*
G03X2177Y837I57J54*
G01X2492*
G03X2549Y861J78*
G02X2571Y870I22J20*
X2592Y861J29*
G03X2649Y837I57J54*
G01X2964*
G03X3021Y861J78*
G02X3043Y870I22J20*
X3064Y861J29*
G03X3122Y837I58J54*
G01X3143*
G02X3172Y811J30*
G03X3203Y750I107J16*
G01X3498Y455*
G03X3575Y423I77J76*
G01X7798*
G02X7827Y393J30*
G01Y334*
G03X7906Y256I79*
G01X8142*
G03X8221Y334J78*
G01Y728*
G03X8142Y807I79*
G01X7906*
G03X7827Y728J79*
G01Y669*
G02X7798Y640I29*
G01X3632*
G02X3611Y648J29*
G01X3462Y797*
G02X3454Y817I21J20*
X3471Y844I29*
G03X3494Y861I34J71*
G02X3515Y870I21J20*
X3537Y861J29*
G03X3594Y837I57J54*
G01X3909*
G03X3966Y861J78*
G02X3988Y870I22J20*
X4009Y861J29*
G03X4067Y837I58J54*
G01X4382*
G03X4439Y861J78*
G02X4460Y870I21J20*
X4482Y861J29*
G03X4539Y837I57J54*
G01X4854*
G03X4911Y861J78*
G02X4933Y870I22J20*
X4954Y861J29*
G03X5011Y837I57J54*
G01X5326*
G03X5384Y861J78*
G02X5405Y870I21J20*
X5427Y861J29*
G03X5484Y837I57J54*
G01X5799*
G03X5856Y861J78*
G02X5878Y870I22J20*
X5899Y861J29*
G03X5956Y837I57J54*
G01X6271*
G03X6329Y861J78*
G02X6350Y870I21J20*
X6372Y861J29*
G03X6429Y837I57J54*
G01X6744*
G03X6801Y861J78*
G02X6822Y870I21J20*
X6844Y861J29*
G03X6901Y837I57J54*
G01X7216*
G03X7295Y915J78*
G01Y1703*
G03X7216Y1781I79*
G01X7197*
G02X7167Y1811J30*
G01Y2346*
G02X7197Y2376I30*
X7205Y2374J30*
G03X7257Y2366I52J170*
X7434Y2544J178*
X7375Y2676I177*
G02X7365Y2698I20J22*
G01Y2849*
G02X7366Y2852I30*
G03Y2866I108J14*
G01Y3037*
G03X7335Y3114I108*
G01X6703Y3745*
G02X6695Y3766I21J21*
G01Y5846*
G02X6724Y5876I29*
G01X6744*
G03X6810Y5912J79*
G02X6835Y5926I25J16*
X6857Y5916J30*
G03X6901Y5896I44J39*
G01X7216*
G03X7275Y5955J59*
G01Y6742*
G03X7216Y6801I59*
G01X6901*
G03X6857Y6781J59*
G02X6835Y6771I22J20*
X6810Y6785J30*
G03X6744Y6821I66J43*
G01X6724*
G02X6695Y6850J29*
G01Y7375*
G02X6703Y7396I29*
G01X6845Y7538*
G02X6866Y7546I21J21*
G01X6868*
G03X6878I10J177*
X7055Y7723J177*
X7000Y7851I177*
G02X6991Y7872I21J21*
X7021Y7902I30*
G01X7571*
Y4380*
G03X7595Y4323I78*
G02X7604Y4301I20J22*
X7595Y4280I29*
G03X7571Y4222I54J58*
G01Y3907*
G03X7595Y3850I78*
G02X7604Y3829I20J21*
X7595Y3807I29*
G03X7571Y3750I54J57*
G01Y3435*
G03X7595Y3378I78*
G02X7604Y3356I20J22*
X7595Y3335I29*
G03X7571Y3277I54J58*
G01Y2057*
G03X7649Y1978I78*
G01X7797*
G02X7827Y1949J29*
Y1945I30*
G03X7826Y1939I58J6*
G01Y1230*
G03X7885Y1171I59*
G01X8378*
Y334*
G03X8457Y256I79*
G01X8693*
G03X8772Y334J78*
G01Y393*
G02X8802Y423I30*
G01X8882*
G03X8958Y455J108*
G01X9006Y503*
G02X9027Y511I21J21*
X9049Y502J29*
G03X9179Y445I130J120*
X9356Y622J177*
X9179Y799I177*
X9047Y740J177*
G02X9025Y730I22J20*
G01X8972*
G03X8896Y698J108*
G01X8846Y648*
G02X8825Y640I21J21*
G01X8802*
G02X8772Y669J29*
G01Y728*
G03X8693Y807I79*
G01X8457*
G03X8378Y728J79*
G01Y1171*
X8673*
G03X8732Y1230J59*
G01Y1939*
G03X8673Y1998I59*
G01X8541*
G02X8511Y2027J29*
X8512Y2036I30*
G03X8515Y2057I75J21*
G01Y2372*
G03X8500Y2418I78*
G02X8494Y2436I24J18*
X8495Y2441I30*
G03X8496Y2451I58J10*
G01Y2766*
G03X8437Y2825I59*
G01X7649*
G03X7590Y2766J59*
G01Y2451*
G03X7591Y2441I59*
G02Y2436I29J5*
X7586Y2418I29*
G03X7571Y2372I63J46*
G01Y2962*
G03X7649Y2884I78*
G01X8437*
G03X8508Y2929J78*
G02X8534Y2945I26J13*
X8555Y2937J29*
G01X8640Y2852*
G03X8717Y2820I77J76*
G01X8978*
G02X9007Y2790J30*
G01Y2731*
G03X9086Y2653I79*
G01X9322*
G03X9401Y2731J78*
G01Y3125*
G03X9322Y3204I79*
G01X9086*
G03X9007Y3125J79*
G01Y3066*
G02X8978Y3037I29*
G01X8774*
G02X8753Y3045J29*
G01X8602Y3197*
G03X8541Y3227I77J77*
G02X8515Y3256I4J29*
G01Y3277*
G03X8491Y3335I78*
G02X8481Y3356I20J21*
X8491Y3378I30*
G03X8515Y3435I54J57*
G01Y3750*
G03X8491Y3807I78*
G02X8481Y3829I20J22*
X8491Y3850I30*
G03X8515Y3907I54J57*
G01Y4222*
G03X8491Y4280I78*
G02X8481Y4301I20J21*
X8491Y4323I30*
G03X8515Y4380I54J57*
G01Y4695*
G03X8437Y4774I78*
G01X7649*
G03X7571Y4695J79*
G01Y5285*
G03X7586Y5239I78*
G02X7591Y5221I24J18*
Y5216I29*
G03X7590Y5207I58J9*
G01Y4892*
G03X7649Y4833I59*
G01X8437*
G03X8496Y4892J59*
G01Y5207*
G03X8495Y5216I59*
G02X8494Y5221I29J5*
X8500Y5239I30*
G03X8515Y5285I63J46*
G01Y5600*
G03X8512Y5622I78*
G02X8511Y5630I29J8*
X8541Y5659I30*
G01X8673*
G03X8732Y5718J59*
G01Y6427*
G03X8673Y6486I59*
G01X7885*
G03X7826Y6427J59*
G01Y5718*
G03X7827Y5712I59*
G02Y5709I30J3*
X7797Y5679I30*
G01X7649*
G03X7571Y5600J79*
G01Y7902*
X8872*
Y3423*
G03X8950Y3344I78*
G01X9384*
G03X9462Y3423J79*
G01Y5470*
G03X9384Y5549I78*
G01X9304*
G02X9275Y5576J30*
G03X9245Y5639I108J12*
G02X9237Y5659I22J20*
G01Y5661*
G03X9238Y5671I177J10*
X9060Y5848I178*
X8883Y5671J177*
X8912Y5574I177*
G02X8917Y5558I25J16*
X8904Y5534I30*
G03X8872Y5470I46J64*
G01Y7902*
X9116*
G03X9192Y7934J108*
G01X9559Y8300*
Y2731*
G03X9637Y2653I78*
G01X9800*
Y995*
G03X9879Y917I79*
G01X10469*
G03X10548Y995J78*
G01Y1586*
G03X10469Y1665I79*
G01X9879*
G03X9800Y1586J79*
G01Y2653*
X9874*
G03X9952Y2731J78*
G01Y2790*
G02X9982Y2820I30*
G01X10043*
G02X10072Y2795J30*
G03X10247Y2647I175J30*
X10424Y2825J178*
X10247Y3002I177*
X10237J177*
G01X10235Y3001*
G02X10215Y3009J30*
G03X10143Y3037I72J81*
G01X9982*
G02X9952Y3066J29*
G01Y3125*
G03X9874Y3204I78*
G01X9637*
G03X9559Y3125J79*
G01Y8300*
X9580Y8322*
Y3423*
G03X9659Y3344I79*
G01X10092*
G03X10171Y3423J79*
G01Y4232*
G02X10200Y4261I29*
X10221Y4252J29*
G01X10241Y4233*
G02X10249Y4212I21J21*
G01Y4078*
G03X10281Y4002I109*
G01X10690Y3592*
G02X10699Y3572I21J20*
G01Y3570*
G03Y3560I177J10*
X10876Y3383I177*
X11053Y3560J177*
X10876Y3737I177*
X10866J177*
G01X10864*
G02X10843Y3746J29*
G01X10474Y4115*
G02X10466Y4135I21J20*
G01Y4269*
G03X10434Y4346I108*
G01X10257Y4523*
G03X10196Y4554I77J76*
G02X10171Y4583I4J29*
G01Y5470*
G03X10092Y5549I79*
G01X9659*
G03X9580Y5470J79*
G01Y8322*
X10207Y8948*
G03X10238Y9025I77J77*
G01Y9463*
G02X10247Y9484I30*
G01X10547Y9784*
G02X10568Y9793I21J21*
X10589Y9784J30*
G01Y4140*
G03X10667Y4061I78*
G01X11258*
G03X11337Y4140J79*
G01Y4751*
G02X11362Y4781I29*
G03X11423Y4811I15J107*
G01X11585Y4973*
G02X11606Y4982I21J21*
G01X11761*
Y1291*
G03X12174Y877I413*
X12587Y1291J414*
X12174Y1704I413*
X11761Y1291J413*
G01Y4982*
X11842*
Y3512*
G03X12337Y3017I495*
X12832Y3512J495*
X12337Y4007I495*
X11842Y3512J495*
G01Y4982*
X12030*
G02X12039Y4980J30*
G03X12076Y4974I37J102*
G01X12128*
G02X12150Y4964J30*
G03X12282Y4905I132J118*
X12459Y5082J177*
X12282Y5259I177*
X12150Y5200J177*
G02X12128Y5190I22J20*
G01X12114*
G02X12104Y5192J30*
G03X12068Y5198I36J102*
G01X11549*
G03X11472Y5167J108*
G01X11387Y5082*
G02X11366Y5073I21J20*
X11337Y5102J29*
G01Y5636*
G03X11258Y5715I79*
G01X10667*
G03X10589Y5636J79*
G01Y9784*
G02X10591Y9782I21J21*
G01Y6203*
G03X10670Y6124I79*
G01X11260*
G03X11339Y6203J79*
G01Y6752*
G02X11368Y6781I29*
X11389Y6772J29*
G01X11997Y6165*
G02X12002Y6158I21J21*
G03X12021Y6131I96J50*
G01X12059Y6094*
G02X12067Y6073I21J21*
G01Y6072*
G03Y6062I177J10*
X12244Y5885I177*
X12421Y6062J177*
X12244Y6239I177*
X12234J177*
G01X12233*
G02X12212Y6247J29*
G01X12199Y6260*
G02X12194Y6267I21J21*
G03X12175Y6293I96J50*
G01X11441Y7027*
G03X11367Y7059I77J76*
G02X11339Y7088I1J29*
G01Y7699*
G03X11260Y7777I79*
G01X10670*
G03X10591Y7699J78*
G01Y9782*
G02X10597Y9763I23J19*
Y9760I29*
G03Y9752I79J8*
G01Y8256*
G03X10676Y8178I79*
G01X11266*
G03X11345Y8256J78*
G01Y8829*
G02X11374Y8858I29*
X11395Y8849J29*
G01X11961Y8284*
G02X11969Y8263I21J21*
G01Y7690*
G02X11959Y7668I29*
G03X11900Y7536I119J132*
X12078Y7359I178*
X12255Y7536J177*
X12196Y7668I177*
G02X12186Y7690I19J22*
G01Y8320*
G03X12154Y8397I108*
G01X11470Y9081*
G03X11393Y9113I77J77*
G01X11374*
G02X11345Y9142J29*
G01Y9600*
G02X11374Y9629I29*
X11395Y9620J29*
G01X12951Y8065*
Y4140*
G03X13030Y4061I79*
G01X13620*
G03X13699Y4140J79*
G01Y5062*
G02X13728Y5092I29*
G01X13937*
Y987*
G03X14015Y909I78*
G01X14606*
G03X14685Y987J78*
G01Y1578*
G03X14606Y1657I79*
G01X14015*
G03X13937Y1578J79*
G01Y5092*
X13989*
G02X14019Y5062J30*
G01Y5043*
G03X14098Y4964I79*
G01X14452*
G03X14531Y5043J79*
G01Y5358*
G03X14452Y5436I79*
G01X14098*
G03X14019Y5358J78*
G01Y5338*
G02X13989Y5308I30*
G01X13728*
G02X13699Y5338J30*
G01Y5636*
G03X13620Y5715I79*
G01X13030*
G03X12951Y5636J79*
G01Y8065*
X13149Y7866*
G03X13207Y7836I77J77*
G02X13232Y7807I5J29*
X13202Y7777I30*
G01X13032*
G03X12953Y7699J78*
G01Y6203*
G03X13032Y6124I79*
G01X13622*
G03X13701Y6203J79*
G01Y6636*
G02X13731Y6666I30*
G01X13981*
G02X14011Y6636J30*
G01Y6617*
G03X14089Y6538I78*
G01X14444*
G03X14522Y6617J79*
G01Y6932*
G03X14444Y7010I78*
G01X14089*
G03X14011Y6932J78*
G01Y6912*
G02X13981Y6882I30*
G01X13731*
G02X13701Y6912J30*
G01Y7699*
G03X13638Y7776I79*
G02X13614Y7805I5J29*
X13643Y7834I29*
G01X14182*
G02X14203Y7826J29*
G01X14789Y7240*
G02X14798Y7219I21J21*
G01Y6991*
G03X14818Y6938I79*
G01Y6243*
G03X14877Y6183I59*
G01X15231*
G03X15290Y6243J60*
G01Y6557*
G03X15231Y6617I59*
G01X14877*
G03X14818Y6557J60*
G01Y6938*
G03X14877Y6912I59J53*
G01X15231*
G03X15310Y6991J79*
G01Y7306*
G03X15231Y7384I79*
G01X14963*
G02X14942Y7393J30*
G01X14316Y8019*
G03X14258Y8049I76J76*
G02X14234Y8079I5J30*
X14263Y8108I29*
G01X14448*
G03X14526Y8187J79*
G01Y8502*
G03X14448Y8580I78*
G01X14093*
G03X14015Y8502J78*
G01Y8482*
G02X13985Y8453I30*
G01X13825*
G02X13804Y8461J29*
G01X13793Y8472*
G03X13732Y8503I76J76*
G02X13707Y8532I5J29*
G01Y9575*
G02X13737Y9604I30*
X13757Y9595J29*
G01X14711Y8642*
G03X14776Y8611I77J76*
G02X14802Y8581I4J30*
G01Y8561*
G03X14822Y8509I79*
G01Y7813*
G03X14881Y7754I59*
G01X15235*
G03X15294Y7813J59*
G01Y8128*
G03X15235Y8187I59*
G01X14881*
G03X14822Y8128J59*
G01Y8509*
G03X14881Y8482I59J52*
G01X15235*
G03X15314Y8561J79*
G01Y8876*
G03X15235Y8954I79*
G01X14881*
G03X14809Y8907J78*
G02X14782Y8890I27J12*
X14761Y8898J29*
G01X14030Y9629*
G02X14022Y9650I21J21*
X14043Y9678I29*
G03X14125Y9730I50J170*
G02X14147Y9740I22J20*
G01X14190*
G02X14192J30*
G03X14200Y9739I8J108*
G01X14418*
G03X14495Y9771J109*
G01X14547Y9823*
G02X14568Y9831I21J21*
G01X14875*
G03X14954Y9910J79*
G01Y10146*
G03X14875Y10225I79*
G01X14481*
G03X14402Y10146J79*
G01Y9997*
G02X14394Y9976I29*
G01X14382Y9965*
G02X14361Y9956I21J20*
G01X14209*
G02X14207J29*
G03X14200I7J108*
G01X14147*
G02X14125Y9966J30*
G03X14111Y9980I132J118*
G02X14101Y10002I20J22*
G01Y10414*
G02Y10416I30*
G03Y10423I108J7*
G01Y10774*
G02X14126Y10803I30*
G03X14190Y10880I15J77*
G01Y11225*
G02X14220Y11254I30*
G01X14402*
Y10461*
G03X14481Y10383I79*
G01X14875*
G03X14954Y10461J78*
G01Y10698*
G03X14875Y10776I79*
G01X14849*
G02X14820Y10806J30*
X14825Y10823I29*
G03X14856Y10924I146J101*
X14679Y11101I177*
X14502Y10924J177*
X14534Y10823I177*
G02X14539Y10806I24J17*
X14510Y10776I29*
G01X14481*
G03X14402Y10698J78*
G01Y11254*
X15130*
G02X15150Y11245J29*
G01X15227Y11169*
G02X15236Y11148I21J21*
X15206Y11119I30*
X15200J29*
G03X15167Y11122I33J174*
X14990Y10945J177*
X15167Y10768I177*
X15177J177*
G01X15178*
G02X15199Y10760J29*
G01X15763Y10195*
G03X15840Y10164I77J77*
G01X15916*
G02X15938Y10154J30*
G03X16071Y10095I133J118*
X16130Y10105J177*
G02X16139Y10107I9J28*
X16169Y10077J30*
G01Y6826*
G02X16160Y6806I30*
G01X15174Y5819*
G02X15153Y5810I21J21*
G01X14885*
G03X14806Y5732J78*
G01Y5417*
G03X14826Y5364I79*
G01Y4669*
G03X14885Y4609I59*
G01X15239*
G03X15299Y4669J60*
G01Y4984*
G03X15239Y5043I60*
G01X14885*
G03X14826Y4984J59*
G01Y5364*
G03X14885Y5338I59J53*
G01X15239*
G03X15318Y5417J79*
G01Y5645*
G02X15327Y5666I30*
G01X15442Y5781*
Y4610*
G03X15501Y4551I59*
G01X15738*
G03X15797Y4610J59*
G01Y5003*
G03X15738Y5063I59*
G01X15501*
G03X15442Y5003J60*
G01Y5781*
X15974Y6313*
Y4610*
G03X16053Y4531I79*
G01X16289*
G03X16368Y4610J79*
G01Y4669*
G02X16397Y4698I29*
G01X16498*
G03X16575Y4730J109*
G01X16890Y5045*
G02X16911Y5054I21J21*
G01X16912*
G03X16922I10J177*
X17099Y5231J177*
X16922Y5408I177*
X16745Y5231J177*
Y5221I177*
G01Y5219*
G02X16737Y5198I29*
G01X16462Y4924*
G02X16441Y4915I21J20*
G01X16397*
G02X16368Y4944J29*
G01Y5003*
G03X16289Y5082I79*
G01X16053*
G03X15974Y5003J79*
G01Y6313*
X16354Y6693*
G03X16386Y6769I77J76*
G01Y11021*
G03X16354Y11097I109*
G01X15635Y11816*
G02X15626Y11837I21J21*
X15656Y11867I30*
G01X15907*
G02X15928Y11858J30*
G01X16731Y11055*
G03X16807Y11023I76J77*
G01X17111*
G02X17133Y11014J29*
G03X17244Y10956I132J118*
G02X17269Y10927I4J29*
Y10920I29*
G03X17264Y10879I172J41*
X17441Y10702I177*
X17618Y10879J177*
Y10889I177*
G01Y10891*
G02X17627Y10912I30*
G01X17659Y10944*
G02X17662Y10947I21J21*
G03X17673Y10957I65J86*
G01X17725Y11008*
G02X17746Y11017I21J20*
G01X18016*
G02X18046Y10988J29*
X18037Y10967I30*
G01X17544Y10473*
G02X17523Y10465I21J21*
G01X17522*
G03X17512I10J177*
X17334Y10288J177*
G01Y4041*
G02X17305Y4012I29*
G01X17216*
G03X17138Y3933J79*
G01Y3342*
G03X17216Y3264I78*
G01X17677*
G02X17706Y3234J30*
X17697Y3213I29*
G01X17316Y2832*
G02X17295Y2823I21J21*
G01X15245*
G03X14969Y2548J275*
X15058Y2345I276*
G02X15068Y2323I20J22*
G01Y1877*
G03X15120Y1752I177*
G01X15125Y1747*
G02X15133Y1726I21J21*
G01Y1629*
G02X15119Y1604I29*
G03X14937Y1283I192J321*
X15119Y961I374*
G02X15133Y936I15J25*
G01Y791*
G02X15125Y770I29*
G01X15051Y696*
G02X15030Y688I21J21*
G01X12040*
G02X12019Y696J29*
G01X11544Y1171*
G02X11536Y1192I21J21*
X11537Y1199I29*
G03X11548Y1291I363J92*
X11174Y1665I374*
X10800Y1291J374*
X11174Y917I374*
X11266Y928J374*
G02X11273Y929I7J29*
X11294Y920J30*
G01X11829Y385*
G03X11954Y333I125J126*
G01X15116*
G03X15241Y385J178*
G01X15276Y420*
G02X15297Y429I21J21*
X15318Y420J30*
G01X15324Y413*
G03X15450Y361I126J126*
G01X19326*
G03X19435Y400J178*
G02X19454Y406I19J24*
X19475Y397J30*
G01X19479Y393*
G03X19604Y341I125J125*
G01X23403*
G03X23528Y393J177*
G01X23721Y586*
G03X23773Y711I125J125*
G01Y953*
G02X23787Y979I29*
G03X23970Y1300I191J321*
X23596Y1674I374*
X23222Y1300J374*
X23404Y979I374*
G02X23418Y953I15J26*
G01Y797*
G02X23410Y776I29*
G01X23338Y704*
G02X23317Y696I21J21*
G01X19690*
G02X19669Y704J29*
G01X19651Y722*
G02X19642Y743I20J21*
G01Y972*
G02X19656Y997I29*
G03X19839Y1318I191J321*
X19465Y1692I374*
X19091Y1318J374*
X19273Y997I374*
G02X19288Y972I15J25*
G01Y763*
G02X19279Y742I30*
G01X19261Y724*
G02X19240Y716I21J21*
G01X15535*
G02X15515Y724J29*
G01X15496Y742*
G02X15488Y763I21J21*
G01Y936*
G02X15502Y961I29*
G03X15685Y1283I191J322*
X15502Y1604I374*
G02X15488Y1629I15J25*
G01Y1811*
G03X15436Y1937I177*
G01X15431Y1942*
G02X15422Y1963I21J21*
G01Y2242*
G02X15452Y2272I30*
G01X15897*
Y1283*
G03X16311Y869I414*
X16724Y1283J414*
X16311Y1696I413*
X15897Y1283J413*
G01Y2272*
X17422*
G03X17617Y2353J276*
G01X18520Y3256*
G02X18539Y3264I21J21*
G03X18740Y3341I27J374*
G02X18758Y3347I18J23*
X18787Y3318J29*
G01Y2155*
G02X18777Y2133I29*
G03X18718Y2001I119J132*
G01Y1835*
G02X18710Y1814I29*
G01X18597Y1701*
G02X18576Y1692I21J21*
G01X18169*
G03X18091Y1614J78*
G01Y1023*
G03X18169Y944I78*
G01X18760*
G03X18839Y1023J79*
G01Y1429*
G02X18847Y1450I29*
G01X19021Y1624*
G03X19073Y1749I125J125*
G01Y2001*
G03X19014Y2133I177*
G02X19004Y2155I19J22*
G01Y5416*
G02X19033Y5445I29*
X19054Y5437J29*
G01X19098Y5392*
Y3638*
G03X19512Y3224I414*
X19925Y3638J414*
X19512Y4051I413*
X19098Y3638J413*
G01Y5392*
X19824Y4667*
G02X19832Y4646I21J21*
G01Y4328*
G03X19864Y4251I109*
G01X20051Y4064*
Y1318*
G03X20465Y905I414*
X20878Y1318J413*
X20465Y1732I413*
X20051Y1318J414*
G01Y4064*
X21635Y2480*
G02X21644Y2459I21J21*
X21643Y2452I30*
G03X21636Y2396I229J56*
X21872Y2160I236*
G01X22287*
G02X22308Y2151J30*
G01X22351Y2109*
G02X22359Y2088I21J21*
G01Y1703*
G02X22330Y1674I29*
G01X22300*
G03X22222Y1595J79*
G01Y1005*
G03X22300Y926I78*
G01X22891*
G03X22970Y1005J79*
G01Y1595*
G03X22891Y1674I79*
G01X22861*
G02X22832Y1703J29*
G01Y2198*
G03X22763Y2365I236*
G01X22565Y2563*
G03X22397Y2632I168J167*
G01X21872*
G03X21816Y2625J236*
G02X21809Y2624I7J29*
X21788Y2633J30*
G01X20058Y4364*
G02X20049Y4385I21J21*
G01Y4703*
G03X20017Y4780I108*
G01X18658Y6139*
G02X18649Y6160I21J21*
G01Y10210*
G02X18679Y10240I30*
G01X18866*
G03X18945Y10319J79*
G01Y10626*
G02X18953Y10647I29*
G01X19053Y10746*
G02X19073Y10754I20J21*
X19103Y10725J29*
Y10721I30*
G03X19102Y10712I78J9*
G01Y10319*
G03X19181Y10240I79*
G01X19417*
G03X19496Y10319J79*
G01Y10346*
G02X19525Y10376I29*
X19542Y10371J30*
G03X19640Y10341I98J147*
X19746Y10377J177*
G02X19764Y10383I18J24*
X19794Y10353J30*
G01Y10097*
G02X19785Y10077I30*
G01X19493Y9785*
G03X19462Y9708I77J77*
G01Y8561*
G03X19493Y8485I108*
G01X20608Y7371*
G03X20684Y7339I76J76*
G01X20693*
G02X20714Y7330J30*
G01X20726Y7319*
G02X20734Y7298I21J21*
G01Y7030*
G03X20735Y7023I79*
G02Y7020I30J3*
X20705Y6990I30*
G01X20468*
G02X20439Y7020J30*
Y7023I29*
G03Y7030I59J7*
G01Y7384*
G03X20380Y7443I59*
G01X20065*
G03X20006Y7384J59*
G01Y7030*
G03Y7023I59*
G02X20007Y7020I29J3*
X19977Y6990I30*
G01X19593*
G03X19317Y6715J275*
X19593Y6439I276*
G01X21539*
G02X21542J29*
G03X21569Y6438I27J274*
G01X21619*
G02X21646Y6421J30*
G03X22248Y6044I602J292*
G01X23035*
G03X23497Y6229J669*
G02X23518Y6237I21J21*
X23547Y6208J29*
G01Y5846*
G02X23531Y5819I29*
G03X23154Y5217I292J602*
G01Y4430*
G03X23823Y3761I669*
X24182Y3865J669*
G01Y1300*
G03X24596Y887I414*
X25009Y1300J413*
X24596Y1713I413*
X24182Y1300J413*
G01Y3865*
G03X24492Y4430I359J565*
G01Y5217*
G03X24115Y5819I669*
G02X24098Y5846I13J27*
G01Y6214*
G02X24125Y6243I30*
G03X24413Y6380I46J470*
G01X24964Y6931*
G03X25103Y7265I334J334*
G01Y10887*
G03X25045Y11113I473*
G02X25041Y11127I26J14*
G01Y11618*
G03X24788Y12036I472*
G02X24772Y12063I13J27*
X24801Y12092I29*
G01X25102*
G03X25181Y12171J79*
G01Y12407*
G03X25102Y12486I79*
G01X24795*
G02X24774Y12494J29*
G01X24675Y12594*
G02X24666Y12614I21J20*
X24696Y12644I30*
X24699J30*
G03X24709Y12643I10J78*
G01X25102*
G03X25181Y12722J79*
G01Y12958*
G03X25102Y13037I79*
G01X24795*
G02X24774Y13046J30*
G01X24763Y13057*
G02X24754Y13078I21J21*
G01Y13106*
G03X24722Y13182I108*
G01X24681Y13224*
G02X24672Y13245I20J21*
G01Y13247*
G03Y13257I177J10*
X24663Y13313I177*
G02X24661Y13323I28J10*
X24674Y13347I30*
G01X24684Y13354*
G02X24701Y13359I17J24*
X24712Y13357J29*
G03X24741Y13351I29J73*
G01X25331*
G03X25410Y13430J79*
G01Y14926*
G03X25331Y15005I79*
G01X24741*
G03X24662Y14926J79*
G01Y14534*
G02X24633Y14505I29*
G01X24303*
G03X24226Y14473J109*
G01X23281Y13528*
G02X23260Y13519I21J21*
G01X23259*
G03X23249Y13520I10J177*
X23103Y13443J178*
G02X23079Y13431I24J17*
X23070Y13432J29*
G01X23068*
G02X23048Y13461I10J29*
G01Y14926*
G03X22969Y15005I79*
G01X22810*
G02X22781Y15030J29*
G03X22751Y15091I107J15*
G01X21689Y16153*
G03X21613Y16185I76J77*
G01X20770*
G02X20748Y16194J29*
G03X20616Y16253I132J118*
X20439Y16076J177*
X20504Y15939I177*
G02X20515Y15916I18J23*
X20486Y15887I29*
G01X19957*
G03X19878Y15808J79*
G01Y12855*
G03X19957Y12776I79*
G01X21453*
G03X21532Y12855J79*
G01Y13446*
G03X21453Y13524I79*
G01X20843*
G02X20813Y13554J30*
G03X20781Y13629I108J2*
G01X20777Y13633*
G02X20769Y13654I21J21*
G01Y14204*
G02X20779Y14226I29*
G03X20838Y14358I118J132*
X20661Y14535I177*
X20483Y14358J177*
X20542Y14226I178*
G02X20552Y14204I19J22*
G01Y13597*
G03X20558Y13563I109*
G02X20559Y13554I28J9*
X20530Y13524I29*
G01X19957*
G03X19878Y13446J78*
G01Y15217*
G03X19957Y15139I79*
G01X21453*
G03X21456J78*
G01X21458*
G02X21487Y15109J30*
G01Y14717*
G02X21477Y14695I29*
G03X21418Y14563I118J132*
X21595Y14386I177*
X21773Y14563J177*
X21714Y14695I178*
G02X21704Y14717I19J22*
G01Y15459*
G03X21672Y15535I109*
G01X21618Y15589*
G03X21557Y15620I76J76*
G02X21532Y15649I4J29*
G01Y15808*
G03X21453Y15887I79*
G01X20747*
G02X20718Y15916J29*
X20729Y15939I29*
G03X20748Y15958I113J137*
G02X20770Y15968I22J20*
G01X21555*
G02X21576Y15959J30*
G01X22480Y15055*
G02X22489Y15034I21J21*
X22459Y15005I30*
G01X22379*
G03X22300Y14926J79*
G01Y13430*
G03X22379Y13351I79*
G01X22969*
G03X23021Y13371J79*
G02X23040Y13378I19J23*
X23049Y13376J30*
G01X23051*
G02X23072Y13348I9J28*
G01Y13347*
G03Y13342I177J5*
X23249Y13165I177*
X23426Y13342J177*
Y13352I177*
G01Y13354*
G02X23434Y13375I29*
G01X24339Y14279*
G02X24360Y14288I21J20*
G01X24633*
G02X24662Y14259J29*
G01Y13430*
G03Y13427I79*
G01Y13426*
G02X24650Y13402I29*
G01X24640Y13395*
G02X24623Y13390I17J24*
X24605Y13396J29*
G03X24495Y13434I110J139*
X24318Y13257J177*
X24495Y13080I177*
X24505J177*
G01X24507*
G02X24527Y13071J30*
G01X24529Y13070*
G02X24538Y13049I21J21*
G01Y13021*
G03X24569Y12944I108*
G01X24621Y12893*
G02X24630Y12872I21J21*
G01Y12722*
G03Y12713I79*
G02X24631Y12709I29J4*
X24601Y12680I30*
X24580Y12689J29*
G01X24241Y13028*
G03X24164Y13059I77J77*
G01X24047*
G02X24017Y13089J30*
G01Y13276*
G03X23938Y13355I79*
G01X23623*
G03X23545Y13276J79*
G01Y12922*
G03X23623Y12843I78*
G01X24107*
G02X24128Y12834J30*
G01X24345Y12617*
G02X24354Y12596I20J21*
X24325Y12567I29*
X24321J29*
G03X24312I9J78*
G01X23998*
G03X23919Y12489J78*
G01Y12484*
G02X23889Y12454I30*
X23868Y12463J30*
G01X23340Y12991*
G03X23264Y13023I76J76*
G01X22511*
G02X22489Y13033J29*
G03X22357Y13092I132J118*
X22180Y12915J177*
X22357Y12738I177*
X22489Y12797J177*
G02X22511Y12806I22J20*
G01X23207*
G02X23227Y12798J29*
G01X23427Y12598*
G02X23436Y12577I21J21*
X23406Y12548I30*
G01X23249*
G03X23190Y12489J59*
G01Y12134*
G03X23229Y12079I59*
G02X23248Y12051I10J28*
X23226Y12022I29*
G03X22847Y11541I117J481*
X22868Y11401I496*
G02X22869Y11392I29J9*
X22839Y11363I30*
X22819Y11372J29*
G01X22794Y11396*
G03X22717Y11428I77J76*
G01X22665*
G02X22643Y11438J29*
G03X22511Y11497I132J118*
X22333Y11320J177*
X22511Y11142I178*
X22641Y11200J178*
G02X22663Y11209I22J20*
X22683Y11200J29*
G01X23105Y10779*
G02X23113Y10758I21J21*
X23084Y10729I29*
G01X22563*
G03X22485Y10650J79*
G01Y10060*
G03X22563Y9981I78*
G01X24059*
G03X24110Y9999J79*
G02X24128Y10006I18J23*
X24158Y9976J30*
G01Y8371*
G02X24128Y8342I30*
X24110Y8349J29*
G03X24059Y8367I51J61*
G01X22610*
G02X22581Y8396J29*
G01Y8723*
G02X22590Y8745I29*
G03X22650Y8877I118J132*
X22472Y9054I178*
X22295Y8877J177*
X22354Y8745I177*
G02X22364Y8723I19J22*
G01Y7995*
G03X22396Y7919I108*
G01X22398Y7916*
G03X22459Y7885I77J77*
G02X22485Y7856I4J29*
G01Y7697*
G03X22563Y7619I78*
G01X24059*
G03X24110Y7637J78*
G02X24128Y7643I18J23*
X24158Y7614J29*
G01Y7473*
G02X24149Y7452I30*
G01X23892Y7194*
G02X23871Y7186I21J21*
G01X23522*
G02X23501Y7194J29*
G03X23035Y7383I466J481*
G01X22248*
G03X21646Y7006J670*
G02X21619Y6989I27J13*
G01X21597*
G02X21594J30*
G03X21567Y6990I27J274*
G01X21236*
G02X21206Y7020J30*
Y7023I30*
G03X21207Y7030I78J7*
G01Y7384*
G03X21128Y7463I79*
G01X20900*
G02X20879Y7472J30*
G01X20827Y7524*
G03X20750Y7555I77J77*
G01X20741*
G02X20720Y7564J30*
G01X20596Y7688*
G02X20587Y7709I21J21*
X20617Y7739I30*
G01X20754*
G03X20833Y7817J78*
G01Y7857*
G02X20862Y7886I29*
G01X21339*
G03X21350Y7887J109*
G02X21353I3J30*
G01X21393*
G02X21415Y7877J30*
G03X21547Y7818I132J118*
X21724Y7995J177*
X21547Y8172I177*
X21415Y8113J177*
G02X21393Y8104I22J20*
G01X21340*
G03X21330Y8103J109*
G02X21327I3J29*
G01X20862*
G02X20833Y8132J29*
G01Y8172*
G03X20754Y8251I79*
G01X20439*
G03X20360Y8172J79*
G01Y7995*
G02X20331Y7966I29*
X20310Y7974J29*
G01X19687Y8597*
G02X19678Y8618I21J21*
G01Y9651*
G02X19687Y9672I30*
G01X19979Y9964*
G03X20010Y10040I77J76*
G01Y10732*
G02X20040Y10762I30*
X20046Y10761J30*
G01Y8437*
G03X20125Y8358I79*
G01X21621*
G03X21700Y8437J79*
G01Y9027*
G03X21621Y9106I79*
G01X21011*
G02X20981Y9136J30*
G01Y9155*
G02X20991Y9177I30*
G03X21048Y9308I120J131*
X20871Y9485I177*
X20694Y9308J177*
X20755Y9174I177*
G02X20765Y9152I20J22*
G01Y9136*
G02X20735Y9106I30*
G01X20125*
G03X20046Y9027J79*
G01Y10761*
G02X20063Y10750I6J29*
G03X20125Y10720I62J49*
G01X21621*
G03X21700Y10799J79*
G01Y10957*
G02X21726Y10987I29*
G03X21776Y11006I12J107*
G02X21793Y11011I17J25*
X21811Y11005J30*
G03X21921Y10967I110J139*
X22098Y11144J177*
X21921Y11321I177*
X21788Y11262J177*
G02X21766Y11252I22J20*
G01X21764*
G03X21737Y11249J108*
G02X21729Y11248I8J28*
X21700Y11277J29*
G01Y11389*
G03X21621Y11468I79*
G01X20125*
G03X20046Y11389J79*
G01Y11177*
G02X20017Y11148I29*
X19992Y11161J29*
G03X19979Y11177I90J60*
G01X19306Y11850*
G02X19298Y11871I21J21*
G01Y14307*
G03X19266Y14383I109*
G01X18914Y14735*
G03X18837Y14767I77J76*
G01X18654*
G02X18632Y14777J30*
G03X18500Y14836I132J118*
X18323Y14659J177*
X18362Y14548I177*
G02X18368Y14530I23J18*
X18357Y14506I29*
G03X18287Y14366I107J140*
X18464Y14189I177*
X18533Y14202J177*
G02X18545Y14205I12J27*
X18574Y14175J30*
X18570Y14160I29*
G03X18545Y14069I152J91*
Y14060I177*
G01Y14058*
G02X18537Y14037I29*
G01X18470Y13970*
G03X18438Y13894I76J76*
G01Y13746*
G02X18409Y13717I29*
X18388Y13726J29*
G01X17598Y14516*
G02X17589Y14536I20J20*
G01Y14538*
G03Y14548I177J10*
X17412Y14725I177*
X17235Y14548J177*
X17412Y14371I177*
X17422J177*
G01X17424*
G02X17444Y14362J29*
G01X18306Y13501*
G02X18315Y13480I21J21*
G01Y13110*
G02X18285Y13080I30*
X18275Y13082J30*
G03X18216Y13092I59J167*
X18193Y13091J177*
G02X18189Y13090I4J29*
X18179Y13092J30*
G03X18140Y13099I39J101*
G01X18059*
G02X18030Y13124J30*
G03X17952Y13188I78J15*
G01X17559*
G03X17487Y13143J79*
G02X17461Y13126I26J13*
X17431Y13156J30*
G01Y13254*
G03X17400Y13330I108*
G01X17148Y13582*
G02X17139Y13603I20J21*
G01Y15022*
G02X17148Y15043I29*
G01X17480Y15376*
G03X17512Y15452I76J76*
G01Y16124*
G02X17521Y16145I30*
G01X17727Y16351*
G02X17748Y16360I21J21*
G01X17778*
G03X17855Y16391J108*
G01X17907Y16443*
G02X17928Y16452I21J21*
G01X18077*
G03X18156Y16531J79*
G01Y16924*
G03X18077Y17003I79*
G01X17841*
G03X17762Y16924J79*
G01Y16617*
G02X17754Y16596I29*
G01X17742Y16585*
G02X17721Y16576I21J21*
G01X17691*
G03X17631Y16558J108*
G02X17615Y16553I16J25*
X17585Y16583J30*
G01Y16924*
G03X17526Y16983I59*
G01X17290*
G03X17231Y16924J59*
G01Y16531*
G03X17290Y16472I59*
G01X17470*
G02X17500Y16442J30*
X17491Y16421I30*
G01X17308Y16238*
G02X17287Y16229I21J21*
G01X17131*
G02X17109Y16239J30*
G03X16977Y16298I132J118*
X16845Y16239J177*
G02X16823Y16229I22J20*
G01X15970*
G02X15949Y16238J30*
G01X14966Y17221*
G02X14957Y17242I20J21*
X14986Y17272I29*
G01X15259*
G02X15281Y17262J30*
G03X15413Y17203I132J118*
X15591Y17380J177*
X15413Y17557I178*
X15281Y17498J177*
G02X15259Y17488I22J20*
G01X14988*
G02X14958Y17518J30*
X14967Y17538I30*
G03X15018Y17663I127J125*
X14840Y17840I178*
X14708Y17781J177*
G02X14686Y17771I22J19*
G01X14011*
G02X13982Y17797J29*
G03X13923Y17912I177J17*
G02X13914Y17934I20J22*
G01Y20123*
G03X13882Y20200I109*
G01X12339Y21742*
G02X12330Y21763I21J21*
G01Y22621*
G02X12360Y22650I30*
G01X12380*
G03X12458Y22729J79*
G01Y23083*
G03X12380Y23162I78*
G01X12065*
G03X11986Y23083J79*
G01Y22729*
G03X12065Y22650I79*
G01X12084*
G02X12114Y22621J29*
G01Y21706*
G03X12146Y21630I108*
G01X12735Y21040*
G02X12743Y21020I21J20*
X12714Y20990I29*
G01X12301*
G03X12225Y20931J79*
G02X12196Y20909I29J7*
X12173Y20920J29*
G03X12166Y20928I84J68*
G01X11233Y21861*
G03X11157Y21893I76J77*
G01X9995*
G02X9973Y21903J29*
G03X9841Y21962I132J119*
X9680Y21860J178*
G02X9654Y21843I26J12*
X9624Y21872J29*
G01Y22028*
G02X9634Y22050I30*
G03X9693Y22182I118J132*
X9516Y22359I177*
X9339Y22182J177*
X9398Y22050I177*
G02X9407Y22028I20J22*
G01Y21599*
G03X9439Y21522I109*
G01X10279Y20682*
G02X10288Y20661I21J21*
G01Y19933*
G03X10320Y19857I108*
G01X11224Y18953*
G02X11233Y18932I21J21*
X11203Y18902I30*
G01X11202*
G03X11192J177*
G01X11191*
G02X11170Y18910J29*
G01X10218Y19862*
G02X10209Y19883I21J21*
G01Y20600*
G03X10177Y20676I108*
G01X9191Y21663*
G02X9182Y21684I21J21*
G01Y22040*
G03X9150Y22117I108*
G01X8683Y22584*
G02X8675Y22604I21J20*
G01Y23260*
G02X8685Y23282I29*
G03X8744Y23414I118J132*
X8567Y23591I177*
X8389Y23414J177*
X8448Y23282I178*
G02X8458Y23260I19J22*
G01Y22547*
G03X8490Y22471I109*
G01X8957Y22004*
G02X8966Y21983I21J21*
G01Y21627*
G03X8997Y21550I108*
G01X9154Y21393*
G02X9163Y21373I21J20*
X9146Y21346I30*
G03X9045Y21186I76J160*
X9092Y21066I177*
G02X9099Y21046I22J20*
X9070Y21017I29*
G01X8925*
G03X8846Y20938J79*
G01Y19442*
G03X8925Y19363I79*
G01X9515*
G03X9594Y19442J79*
G01Y20882*
G02X9624Y20911I30*
X9645Y20903J29*
G01X9984Y20563*
G02X9993Y20543I21J20*
G01Y19826*
G03X10024Y19750I108*
G01X11017Y18757*
G02X11025Y18736I21J21*
G01Y18735*
G03Y18725I177J10*
X11202Y18548I177*
X11379Y18725J177*
G01Y18726*
G02X11409Y18755I30*
X11430Y18747J29*
G01X12807Y17370*
G02X12816Y17349I21J21*
X12786Y17319I30*
G01X10388*
G02X10367Y17328J30*
G01X10102Y17593*
G03X10025Y17625I77J77*
G01X7280*
G02X7258Y17634J29*
G03X7126Y17693I132J118*
X6949Y17516J177*
X7126Y17339I177*
X7258Y17398J177*
G02X7280Y17408I22J20*
G01X9968*
G02X9989Y17399J30*
G01X10198Y17190*
G02X10207Y17169I21J21*
X10177Y17140I30*
X10159Y17146J29*
G03X10094Y17168I65J87*
G01X7274*
G03X7203Y17141J109*
G02X7183Y17134I20J22*
X7161Y17143J29*
G03X7031Y17200I130J120*
X6854Y17023J177*
X7031Y16846I177*
X7163Y16905J177*
G02X7185Y16915I22J20*
G01X7238*
G03X7311Y16943J108*
G02X7331Y16951I20J21*
G01X10037*
G02X10057Y16944J29*
G03X10129Y16916I72J81*
G01X12757*
G02X12787Y16887J29*
X12778Y16866I30*
G01X12697Y16784*
G02X12676Y16776I21J21*
G01X6791*
G02X6770Y16784J29*
G01X6691Y16863*
G02X6683Y16884I21J21*
G01Y21087*
G03X6651Y21164I109*
G01X6042Y21773*
G03X5965Y21805I77J76*
G01X3865*
G02X3843Y21815J29*
G03X3829Y21829I132J118*
G02X3819Y21851I20J22*
G01Y21894*
G02X3844Y21923I30*
G03X3908Y22000I15J77*
G01Y22394*
G03X3844Y22471I79*
G02X3820Y22500I5J29*
G01Y22540*
G02X3828Y22561I29*
G01X5377Y24110*
G02X5398Y24118I21J21*
G01X8232*
G02X8254Y24108J29*
G03X8386Y24049I132J119*
X8563Y24227J178*
X8386Y24404I177*
X8254Y24345J177*
G02X8232Y24335I22J19*
G01X5341*
G03X5264Y24303J108*
G01X3635Y22673*
G03X3603Y22597I76J76*
G01Y22500*
G02X3579Y22471I29*
G03X3514Y22394I14J77*
G01Y22000*
G03X3579Y21923I79*
G02X3603Y21894I6J29*
G01Y21851*
G02X3593Y21829I30*
G03X3534Y21697I118J132*
X3552Y21619I177*
G01Y12007*
G03X3631Y11928I79*
G01X3867*
G03X3946Y12007J79*
G01Y12048*
G02X3975Y12078I29*
X3990Y12074J30*
G03X4081Y12049I91J152*
X4213Y12108J177*
G02X4235Y12118I22J20*
G01X4287*
G03X4364Y12149J108*
G01X4436Y12221*
G02X4457Y12230I21J20*
G01X7005*
G02X7026Y12221J29*
G01X7038Y12210*
G02X7046Y12189I21J21*
G01Y12101*
G02X7017Y12072I29*
X6999Y12078J29*
G03X6895Y12112I104J143*
X6717Y11935J177*
X6895Y11758I178*
X7013Y11803J177*
G02X7033Y11810I20J22*
G01X7086*
G02X7097Y11808J29*
G03X7125Y11803I28J74*
G01X7361*
G03X7440Y11882J79*
G01Y12276*
G03X7361Y12354I79*
G01X7212*
G02X7191Y12363J30*
G01X7139Y12415*
G03X7062Y12447I77J77*
G01X4400*
G03X4323Y12415J109*
G01X4254Y12345*
G02X4233Y12336I21J21*
X4211Y12346J30*
G03X4081Y12403I130J120*
X3990Y12378J177*
G02X3975Y12374I15J25*
X3946Y12403J29*
G03X3867Y12479I79J3*
G01X3631*
G03X3552Y12400J79*
G01Y21619*
G03X3711Y21519I159J78*
X3843Y21578J178*
G02X3865Y21588I22J19*
G01X4971*
Y14302*
G03X5050Y14223I79*
G01X6241*
G03X6319Y14302J79*
G01Y19968*
G03X6241Y20046I78*
G01X5050*
G03X4971Y19968J78*
G01Y21588*
X5908*
G02X5929Y21580J29*
G01X6457Y21051*
G02X6466Y21030I20J21*
G01Y16827*
G03X6498Y16751I108*
G01X6657Y16591*
G03X6734Y16559I77J77*
G01X8736*
G02X8766Y16530J29*
X8757Y16509I30*
G01X8727Y16479*
G02X8706Y16470I21J21*
G01X8704*
G03X8694I10J177*
X8517Y16293J177*
X8615Y16135I177*
G02X8632Y16108I13J27*
X8628Y16095I30*
G03X8608Y16012I157J83*
X8785Y15835I177*
X8917Y15894J177*
G02X8939Y15904I22J20*
G01X9220*
G02X9250Y15874J30*
X9244Y15857I30*
G03X9209Y15752I142J105*
X9386Y15575I177*
X9518Y15634J177*
G02X9540Y15644I22J20*
G01X9593*
G03X9670Y15675J108*
G02X9690Y15684I20J21*
X9718Y15664J30*
G03X9734Y15637I75J25*
G01Y15138*
G03X9793Y15079I59*
G01X10187*
G03X10246Y15138J59*
G01Y15374*
G03X10187Y15433I59*
G01X9793*
G03X9734Y15374J59*
G01Y15637*
G03X9793Y15610I59J52*
G01X10187*
G03X10265Y15689J79*
G01Y15888*
G02X10295Y15917I30*
G01X10847*
G02X10876Y15888J29*
G01Y15670*
G03X10936Y15611I60*
G01X11329*
G03X11388Y15670J59*
G01Y15888*
G02X11418Y15917I30*
G01X12147*
Y13881*
G03X12324Y13704I177*
X12501Y13881J177*
Y13888I177*
G01Y13889*
G02X12531Y13919I30*
G01X12882*
G02X12903Y13910J30*
G01X12918Y13895*
G03X12994Y13864I76J77*
G01X14712*
G02X14734Y13854J30*
G03X14866Y13795I132J118*
X15043Y13972J177*
X14866Y14149I177*
X14734Y14090J177*
G02X14712Y14080I22J20*
G01X13051*
G02X13030Y14089J30*
G01X13015Y14104*
G03X12939Y14135I76J77*
G01X12470*
G03X12394Y14104J108*
G01X12357Y14066*
G02X12336Y14058I21J21*
G01X12334*
G03X12324I10J177*
X12147Y13881J177*
G01Y15917*
X14048*
G02X14078Y15888J29*
X14071Y15869I30*
G03X14030Y15756I137J113*
X14031Y15746I178*
G01Y15745*
G02X14022Y15724I30*
G01X13858Y15560*
G03X13827Y15484I77J76*
G01Y15442*
G02X13818Y15421I30*
G01X13109Y14712*
G02X13088Y14704I21J21*
G01X13086*
G03X13077I9J177*
X12899Y14527J177*
X13077Y14349I178*
X13254Y14527J178*
X13253Y14537I177*
G01Y14538*
G02X13262Y14559I30*
G01X14012Y15309*
G03X14043Y15385I77J76*
G01Y15426*
G02X14052Y15447I30*
G01X14175Y15571*
G02X14196Y15579I21J21*
G01X14198*
G03X14208I10J177*
X14259Y15587J177*
G02X14268Y15588I9J29*
X14297Y15558J30*
G01Y15557*
Y15321*
G03X14317Y15269I79*
G01Y14770*
G03X14376Y14711I59*
G01X14770*
G03X14829Y14770J59*
G01Y15006*
G03X14770Y15065I59*
G01X14376*
G03X14317Y15006J59*
G01Y15269*
G03X14376Y15242I59J52*
G01X14770*
G03X14847Y15306J79*
G02X14876Y15331I29J5*
G01X14896*
G03X14908J108*
G02X14911I3J29*
G01X14950*
G02X14972Y15322J29*
G03X15104Y15263I132J118*
X15281Y15440J177*
X15104Y15617I177*
X14972Y15558J177*
G02X14950Y15548I22J19*
G01X14897*
G03X14885Y15547J108*
G02X14882I3J30*
G01X14876*
G02X14847Y15571J30*
G03X14770Y15636I77J14*
G01X14393*
G02X14364Y15665J29*
X14367Y15678I29*
G03X14385Y15756I159J78*
X14344Y15869I177*
G02X14337Y15888I23J19*
X14367Y15917I30*
G01X14683*
G02X14704Y15908J29*
G01X14778Y15834*
G03X14855Y15802I77J77*
G01X15215*
G02X15237Y15793J29*
G03X15369Y15734I132J118*
X15547Y15911J177*
X15369Y16088I178*
X15237Y16029J177*
G02X15215Y16019I22J20*
G01X15012*
G02X14983Y16049J30*
X14991Y16069I29*
G03X15042Y16193I126J124*
X14865Y16370I177*
X14855J177*
G01X14853*
G02X14832Y16379J30*
G01X14659Y16552*
G03X14582Y16584I77J76*
G01X14132*
G02X14103Y16614J30*
X14115Y16638I29*
G03X14149Y16702I45J64*
G01Y16938*
G03X14137Y16980I79*
G02X14133Y16995I25J15*
X14142Y17017I29*
G03X14156Y17031I118J132*
G02X14178Y17040I22J20*
G01X14828*
G02X14849Y17032J29*
G01X15836Y16044*
G03X15913Y16013I77J77*
G01X16092*
Y15488*
G03X16111Y15436I79*
G01Y14937*
G03X16171Y14878I60*
G01X16564*
G03X16623Y14937J59*
G01Y15173*
G03X16564Y15232I59*
G01X16171*
G03X16111Y15173J59*
G01Y15436*
G03X16171Y15409I60J52*
G01X16564*
G03X16642Y15474J79*
G02X16671Y15498I29J5*
G01X16771*
G03X16798Y15501J108*
G02X16805Y15502I7J28*
G01X16828*
G02X16850Y15492J29*
G03X16982Y15433I132J118*
X17159Y15610J177*
X16982Y15788I177*
X16850Y15729J178*
G02X16828Y15719I22J19*
G01X16775*
G03X16749Y15715J109*
G02X16742I7J29*
G01X16671*
G02X16642Y15739J29*
G03X16564Y15803I78J15*
G01X16171*
G03X16092Y15724J79*
G01Y16013*
X16823*
G02X16845Y16003J30*
G03X16977Y15944I132J118*
X17109Y16003J177*
G02X17131Y16013I22J20*
G01X17266*
G02X17296Y15983J30*
G01Y15509*
G02X17287Y15489I30*
G01X16954Y15156*
G03X16922Y15079I77J77*
G01Y13694*
G02X16893Y13665I29*
G01X16796*
G02X16774Y13675J29*
G03X16642Y13734I132J118*
X16465Y13557J177*
X16581Y13390I177*
G01Y12879*
G03X16640Y12820I59*
G01X17034*
G03X17093Y12879J59*
G01Y13115*
G03X17034Y13174I59*
G01X16640*
G03X16581Y13115J59*
G01Y13390*
G03X16642Y13379I61J167*
X16774Y13438J178*
G02X16796Y13448I22J19*
G01X16963*
G02X16984Y13440J29*
G01X17206Y13218*
G02X17215Y13197I21J21*
G01Y13048*
G02X17206Y13027I30*
G01X17205Y13026*
G03X17173Y12949I76J77*
G01Y12612*
G02X17164Y12592I30*
G01X17155Y12583*
G02X17135Y12574I20J20*
X17107Y12593J29*
G03X17034Y12643I73J29*
G01X16640*
G03X16562Y12578J79*
G02X16537Y12553I29J5*
G01X16535*
G02X16531I4J29*
G01X16389*
G02X16360Y12577J29*
G03X16282Y12641I78J14*
G01X15888*
G03X15843Y12627J78*
G02X15826Y12622I17J24*
X15797Y12651J29*
G01Y12815*
G02X15826Y12844I29*
X15847Y12836J29*
G03X15888Y12819I41J42*
G01X16282*
G03X16341Y12878J59*
G01Y13114*
G03X16282Y13173I59*
G01X15888*
G03X15847Y13156J59*
G02X15826Y13147I21J21*
X15797Y13177J30*
G01Y13385*
G03X15765Y13461I109*
G01X15617Y13609*
G03X15540Y13641I77J76*
G01X14773*
G03X14696Y13609J108*
G01X14499Y13412*
G03X14467Y13336I77J76*
G01Y13167*
G02X14458Y13145I29*
G03X14444Y13131I118J132*
G02X14422Y13121I22J19*
G01X14269*
G03X14193Y13089J108*
G01X14029Y12926*
G02X14009Y12917I20J21*
G01X13701*
G03X13624Y12853J79*
G02X13595Y12829I29J5*
X13574Y12837J29*
G01X13537Y12875*
G03X13518Y12890I77J77*
G02X13513Y12894I15J25*
G01X13495Y12912*
G02X13486Y12933I20J21*
G01Y12934*
G03Y12944I177J10*
X13309Y13121I177*
X13177Y13062J177*
G02X13155Y13053I22J20*
G01X13111*
X13109*
G03X13102I7J108*
G01X11993*
G02X11973Y13061J29*
G01X11918Y13116*
G03X11913Y13121I76J77*
G02X11911Y13122I19J22*
G01X11881Y13153*
G02X11872Y13174I20J21*
G01Y13176*
G03Y13185I177J9*
X11813Y13317I177*
G02X11803Y13339I20J22*
G01Y13755*
G02X11809Y13772I30*
G03X11829Y13835I88J63*
G01Y14305*
G02X11839Y14327I29*
G03X11898Y14459I118J132*
X11771Y14629I177*
G02X11750Y14658I8J29*
X11765Y14683I29*
G03X11855Y14838I87J155*
X11678Y15015I177*
X11668J177*
G01X11666*
G02X11645Y15023J29*
G01X11536Y15133*
G03X11459Y15165I77J77*
G01X11449*
G02X11428Y15173J29*
G01X11417Y15185*
G02X11408Y15206I20J21*
G01Y15355*
G03X11329Y15434I79*
G01X10936*
G03X10857Y15355J79*
G01Y15119*
G03X10936Y15040I79*
G01X11243*
G02X11263Y15032J29*
G01X11315Y14980*
G03X11392Y14948I77J76*
G01X11402*
G02X11423Y14939J30*
G01X11492Y14870*
G02X11501Y14849I21J21*
G01Y14848*
G03Y14838I177J10*
X11628Y14668I177*
G02X11649Y14640I9J28*
X11634Y14614I30*
G03X11543Y14459I87J155*
X11603Y14327I178*
G02X11612Y14305I20J22*
G01Y13890*
G02X11607Y13872I29*
G03X11587Y13810I88J62*
G01Y13469*
G02X11557Y13440I30*
G01X11555*
G03X11549I6J108*
G01X10815*
G03X10738Y13408J108*
G01X10013Y12683*
G02X9992Y12674I21J21*
G01X9991*
G03X9981I10J177*
X9804Y12497J177*
Y12487I177*
G01Y12486*
G02X9795Y12465I30*
G01X6990Y9660*
G03X6958Y9583I77J77*
G01Y8810*
G02X6949Y8788I29*
G03X6890Y8656I118J132*
X6993Y8495I177*
G02X7011Y8468I12J27*
X7002Y8447I30*
G01X6970Y8415*
G02X6949Y8406I21J21*
G01X4881*
G02X4851Y8436J30*
X4871Y8464I30*
G03X4992Y8632I56J168*
X4933Y8764I177*
G02X4923Y8786I19J22*
G01Y8860*
G03X4919Y8889I108*
G02X4918Y8897I28J8*
X4947Y8926I29*
G01X4977*
G03X5056Y9005J79*
G01Y9241*
G03X4977Y9320I79*
G01X4583*
G03X4505Y9241J79*
G01Y9005*
G03X4583Y8926I78*
G01X4642*
G02X4672Y8897J29*
G01Y8895*
G03X4699Y8823I108*
G02X4706Y8804I22J19*
G01Y8786*
G02X4696Y8764I29*
G03X4637Y8632I119J132*
X4758Y8464I178*
G02X4778Y8436I9J28*
X4749Y8406I29*
G01X4274*
G03X4198Y8375J108*
G01X2730Y6907*
G03X2700Y6846I77J76*
G02X2670Y6821I30J4*
G01X2649*
G03X2592Y6796J79*
G02X2571Y6787I21J20*
X2549Y6796J29*
G03X2492Y6821I57J54*
G01X2177*
G03X2111Y6785J79*
G02X2086Y6771I25J16*
X2064Y6781J30*
G03X2019Y6801I45J39*
G01X1704*
G03X1645Y6742J59*
G01Y5955*
G03X1704Y5896I59*
G01X2019*
G03X2064Y5916J59*
G02X2086Y5926I22J20*
X2111Y5912J30*
G03X2177Y5876I66J43*
G01X2492*
G03X2549Y5901J79*
G02X2571Y5910I22J21*
X2592Y5901J30*
G03X2649Y5876I57J54*
G01X2964*
G03X3030Y5912J79*
G02X3055Y5926I25J16*
X3077Y5916J30*
G03X3122Y5896I45J39*
G01X3437*
G03X3481Y5916J59*
G02X3503Y5926I22J20*
X3528Y5912J30*
G03X3594Y5876I66J43*
G01X3909*
G03X3966Y5901J79*
G02X3988Y5910I22J21*
X4009Y5901J30*
G03X4067Y5876I58J54*
G01X4382*
G03X4439Y5901J79*
G02X4460Y5910I21J21*
X4482Y5901J30*
G03X4539Y5876I57J54*
G01X4854*
G03X4911Y5901J79*
G02X4933Y5910I22J21*
X4954Y5901J30*
G03X5011Y5876I57J54*
G01X5326*
G03X5384Y5901J79*
G02X5405Y5910I21J21*
X5427Y5901J30*
G03X5484Y5876I57J54*
G01X5799*
G03X5856Y5901J79*
G02X5878Y5910I22J21*
X5899Y5901J30*
G03X5956Y5876I57J54*
G01X6271*
G03X6329Y5901J79*
G02X6350Y5910I21J21*
X6372Y5901J30*
G03X6429Y5876I57J54*
G01X6448*
G02X6478Y5846J30*
G01Y3709*
G03X6510Y3632I108*
G01X6980Y3163*
G02X6988Y3142I21J21*
X6959Y3112I29*
X6955J30*
G03X6936Y3114I19J176*
X6807Y3058J178*
G02X6786Y3049I21J20*
X6757Y3073J29*
G03X6582Y3219I175J32*
X6405Y3041J178*
X6464Y2909I177*
G02X6474Y2887I19J22*
G01Y2315*
G03X6477Y2289I108*
G02X6478Y2282I29J7*
G01Y1811*
G02X6448Y1781I30*
G01X6429*
G03X6372Y1757J78*
G02X6350Y1747I22J20*
X6329Y1757J30*
G03X6271Y1781I58J54*
G01X6252*
G02X6222Y1811J30*
G01Y3164*
G02X6231Y3185I30*
G01X6284Y3239*
G02X6305Y3247I21J21*
G01X6307*
G03X6317I10J177*
X6494Y3424J177*
X6317Y3601I177*
X6287Y3599J177*
G02X6282Y3598I5J29*
X6256Y3615J30*
G01X6249Y3629*
G02X6246Y3642I27J13*
X6256Y3664I30*
G03X6313Y3794I121J130*
X6238Y3938I178*
G02X6226Y3962I17J24*
X6243Y3989I29*
G03X6347Y4151I74J162*
X6316Y4250I178*
G02X6311Y4267I24J17*
X6324Y4292I29*
G03X6404Y4440I97J148*
X6227Y4617I177*
X6095Y4558J177*
G02X6073Y4548I22J20*
G01X5456*
G03X5379Y4517J108*
G01X2730Y1868*
G03X2700Y1807I77J77*
G02X2670Y1781I30J4*
G01X2649*
G03X2592Y1757J78*
G02X2571Y1747I21J20*
X2549Y1757J30*
G03X2492Y1781I57J54*
G01X2177*
G03X2120Y1757J78*
G02X2098Y1747I22J20*
X2077Y1757J30*
G03X2019Y1781I58J54*
G01X1704*
G03X1626Y1703J78*
G01Y24921*
X2917*
Y9622*
G03X2996Y9543I79*
G01X3232*
G03X3311Y9622J79*
G01Y10016*
G03X3308Y10036I79*
G02X3307Y10043I29J7*
G01Y10068*
G02X3336Y10098I30*
G03X3464Y10157I4J177*
G02X3486Y10166I22J20*
G01X3488*
Y9622*
G03X3547Y9563I59*
G01X3783*
G03X3842Y9622J59*
G01Y10016*
G03X3783Y10075I59*
G01X3547*
G03X3488Y10016J59*
G01Y10166*
X4524*
Y9556*
G03X4583Y9497I59*
G01X4977*
G03X5036Y9556J59*
G01Y9793*
G03X4977Y9852I59*
G01X4583*
G03X4524Y9793J59*
G01Y10166*
X7048*
G03X7125Y10198J109*
G01X9714Y12787*
G03X9746Y12864I76J77*
G01Y13026*
G02X9756Y13048I30*
G03X9815Y13180I118J132*
X9709Y13343I177*
G02X9691Y13370I11J27*
X9700Y13391I29*
G01X10279Y13970*
G03X10311Y14047I76J77*
G01Y14334*
G02X10321Y14356I29*
G03X10380Y14488I118J132*
X10203Y14665I177*
X10025Y14488J177*
X10085Y14356I178*
G02X10094Y14334I20J22*
G01Y14104*
G02X10086Y14083I29*
G01X8022Y12019*
G02X8001Y12011I21J21*
X7972Y12040J29*
G01Y12276*
G03X7913Y12335I59*
G01X7676*
G03X7617Y12276J59*
G01Y11882*
G03X7676Y11823I59*
G01X7754*
G02X7784Y11793J30*
X7775Y11773I30*
G01X7359Y11357*
G02X7339Y11348I20J21*
G01X5494*
G02X5464Y11378J30*
X5466Y11388I30*
G03X5476Y11447I167J59*
X5299Y11624I177*
X5282Y11623J177*
G02X5279I3J29*
X5265Y11626J29*
G03X5215Y11639I50J96*
G01X5111*
G02X5082Y11663J29*
G03X5004Y11727I78J14*
G01X4611*
G03X4532Y11649J78*
G01Y11412*
G03X4536Y11387I79*
G02X4538Y11378I28J9*
X4508Y11348I30*
G01X4458*
G02X4437Y11357J30*
G01X4204Y11590*
G03X4128Y11621I76J77*
G01X3737*
G02X3715Y11631J30*
G03X3582Y11690I133J118*
X3405Y11513J177*
X3451Y11394I177*
G02X3459Y11374I21J20*
X3451Y11353I29*
G01X3413Y11316*
G02X3392Y11307I21J20*
G01X3243*
G03X3164Y11228J79*
G01Y10835*
G03X3243Y10756I79*
G01X3479*
G03X3558Y10835J79*
G01Y11142*
G02X3566Y11162I29*
G01X3659Y11255*
G03X3691Y11332I77J77*
G01Y11359*
G02X3701Y11381I29*
G03X3715Y11395I119J132*
G02X3735Y11405I22J20*
G01Y10835*
G03X3794Y10775I59*
G01X4030*
G03X4089Y10835J60*
G01Y11228*
G03X4030Y11287I59*
G01X3794*
G03X3735Y11228J59*
G01Y11405*
X3737*
X4071*
G02X4091Y11396J30*
G01X4324Y11163*
G03X4401Y11132I77J77*
G01X4522*
G02X4552Y11102J30*
G01Y11100*
G03Y11097I59J3*
G01Y10861*
G03X4611Y10802I59*
G01X5004*
G03X5063Y10861J59*
G01Y11097*
G03Y11101I59*
G01Y11102*
G02X5093Y11132I30*
G01X7396*
G03X7472Y11163J108*
G01X9427Y13119*
G02X9448Y13127I21J21*
X9475Y13109J29*
G03X9520Y13048I163J71*
G02X9530Y13026I20J22*
G01Y12921*
G02X9521Y12900I30*
G01X7012Y10392*
G02X6991Y10383I21J20*
G01X3486*
G02X3464Y10393J29*
G03X3332Y10452I132J118*
X3154Y10275J177*
X3155Y10265I178*
G01Y10263*
G02X3146Y10242I30*
G01X3122Y10219*
G03X3091Y10142I77J77*
G01Y10124*
G02X3061Y10095I30*
G01X2996*
G03X2917Y10016J79*
G01Y24921*
X2983*
Y22000*
G03X3020Y21945I59*
G01Y12007*
G03X3079Y11948I59*
G01X3316*
G03X3375Y12007J59*
G01Y12400*
G03X3316Y12460I59*
G01X3079*
G03X3020Y12400J60*
G01Y21945*
G03X3042Y21941I22J55*
G01X3278*
G03X3337Y22000J59*
G01Y22394*
G03X3278Y22453I59*
G01X3042*
G03X2983Y22394J59*
G01Y24921*
X8850*
Y23119*
G03X9345Y22624I495*
X9840Y23119J495*
X9345Y23615I495*
X8850Y23119J496*
G01Y24921*
X11244*
G02X11273Y24892J29*
X11270Y24879I29*
G03X11253Y24803I161J76*
X11258Y24765I178*
G01Y22729*
G03X11317Y22670I59*
G01X11632*
G03X11691Y22729J59*
G01Y23083*
G03X11632Y23142I59*
G01X11317*
G03X11258Y23083J59*
G01Y24765*
G03X11431Y24626I173J38*
X11440J177*
G01X11442*
G02X11462Y24618J29*
G03X11536Y24589I74J79*
G01X11545*
G02X11573Y24570J29*
G01Y24028*
G03X11615Y23958I78*
G02X11631Y23932I14J26*
X11626Y23915I30*
G03X11612Y23871I65J44*
G01Y23516*
G03X11691Y23438I79*
G01X12006*
G03X12084Y23516J78*
G01Y23871*
G03X12070Y23915I78*
G02X12065Y23932I25J17*
X12081Y23958I30*
G03X12124Y24028I36J70*
G01Y24264*
G03X12045Y24343I79*
G01X11651*
G03X11573Y24264J79*
G01Y24570*
G02X11574Y24565I28J10*
G03X11651Y24501I77J14*
G01X12045*
G03X12124Y24579J78*
G01Y24816*
G03X12101Y24871I79*
G02X12092Y24892I21J21*
X12122Y24921I30*
G01X12730*
Y23135*
G03X13225Y22640I495*
X13721Y23135J495*
X13225Y23630I496*
X12730Y23135J495*
G01Y24921*
X14585*
Y19415*
G03X14663Y19337I78*
G01X15254*
G03X15333Y19415J78*
G01Y20911*
G03X15254Y20990I79*
G01X15096*
G02X15067Y21020J30*
G01Y21050*
G02X15081Y21076I29*
G03X15169Y21228I89J152*
X14992Y21406I177*
X14814Y21228J178*
X14845Y21129I178*
G02X14850Y21112I24J17*
G01Y21020*
G02X14821Y20990I29*
G01X14663*
G03X14585Y20911J79*
G01Y24921*
X15079*
G02X15109Y24892J29*
X15106Y24879I30*
G03X15089Y24803I160J76*
X15137Y24681I177*
G01Y22640*
G03X15196Y22581I59*
G01X15303*
Y21289*
G03X15480Y21112I177*
X15579Y21142J177*
G01Y19448*
G03X15658Y19370I79*
G01X16248*
G03X16327Y19448J78*
G01Y20945*
G03X16320Y20976I79*
G02X16318Y20988I27J12*
X16347Y21018I29*
G01X16700*
G02X16722Y21008J30*
G03X16826Y20951I132J118*
G01Y17448*
G03X17003Y17271I177*
X17180Y17448J177*
Y17458I177*
G01Y17460*
G02X17189Y17480I30*
G01X19916Y20207*
G03X19947Y20284I77J77*
G01Y22133*
G02X19977Y22163I30*
G01X19997*
G03X20075Y22241J78*
G01Y22596*
G03X19997Y22674I78*
G01X19682*
G03X19603Y22596J78*
G01Y22241*
G03X19682Y22163I79*
G01X19701*
G02X19731Y22133J30*
G01Y20341*
G02X19722Y20320I30*
G01X18588Y19186*
G02X18567Y19177I21J20*
X18537Y19206J29*
X18538Y19212I30*
G03X18541Y19245I174J33*
X18521Y19327I177*
G02X18518Y19340I26J13*
X18547Y19370I29*
G01X18610*
G03X18689Y19448J78*
G01Y20945*
G03X18610Y21023I79*
G01X18020*
G03X17941Y20945J78*
G01Y19448*
G03X18020Y19370I79*
G01X18177*
G02X18207Y19340J30*
G01Y19334*
G02X18204Y19322I30*
G03X18187Y19245I160J77*
X18364Y19068I177*
X18397Y19071J177*
G02X18402I5J29*
X18432Y19042J29*
X18423Y19021I30*
G01X17036Y17634*
G02X17015Y17625I21J20*
G01X17013*
G03X17003I10J177*
X16826Y17448J177*
G01Y20951*
G03X16854Y20949I28J175*
X17032Y21126J177*
X16854Y21303I178*
X16722Y21244J177*
G02X16700Y21234I22J20*
G01X16046*
G03X15969Y21202J108*
G01X15876Y21110*
G03X15846Y21049I77J77*
G02X15817Y21023I29J4*
G01X15658*
G03X15579Y20945J78*
G01Y21142*
G03X15657Y21289I99J147*
Y21299I177*
G01Y21300*
G02X15665Y21321I29*
G01X16178Y21834*
G03X16210Y21911I76J77*
G01Y22531*
G02X16240Y22561I30*
G01X16259*
G03X16338Y22640J79*
G01Y22994*
G03X16259Y23073I79*
G01X15944*
G03X15866Y22994J79*
G01Y22640*
G03X15944Y22561I78*
G01X15964*
G02X15994Y22531J30*
G01Y21968*
G02X15985Y21947I30*
G01X15512Y21474*
G02X15491Y21466I21J21*
G01X15490*
G03X15480I10J177*
X15303Y21289J177*
G01Y22581*
X15511*
G03X15570Y22640J59*
G01Y22994*
G03X15511Y23053I59*
G01X15196*
G03X15137Y22994J59*
G01Y24681*
G03X15266Y24626I129J122*
X15385Y24672J177*
G02X15405Y24680I20J21*
X15426Y24672J29*
G01X15437Y24661*
G02X15446Y24640I21J21*
G01Y23939*
G03X15492Y23867I79*
G02X15509Y23840I12J27*
X15504Y23824I29*
G03X15492Y23781I66J43*
G01Y23427*
G03X15570Y23348I78*
G01X15885*
G03X15964Y23427J79*
G01Y23781*
G03X15949Y23828I79*
G02X15943Y23845I24J17*
X15958Y23871I30*
G03X15997Y23939I40J68*
G01Y24175*
G03X15918Y24254I79*
G01X15525*
G03X15446Y24175J79*
G01Y24490*
G03X15525Y24411I79*
G01X15918*
G03X15997Y24490J79*
G01Y24726*
G03X15918Y24805I79*
G01X15611*
G02X15590Y24814J30*
G01X15533Y24871*
G02X15525Y24892I21J21*
X15554Y24921I29*
G01X16680*
Y23165*
G03X17175Y22670I495*
X17670Y23165J495*
X17175Y23661I495*
X16680Y23165J496*
G01Y24921*
X16924*
G02X16953Y24892J29*
X16943Y24869I29*
G03X16842Y24656I174J213*
X17117Y24380I275*
G01X19165*
G02X19194Y24351J29*
X19188Y24333I29*
G03X19173Y24286I64J47*
G01Y24136*
G02X19164Y24116I30*
G01X18537Y23489*
G03X18506Y23412I77J77*
G01Y23331*
G02X18496Y23309I30*
G03X18437Y23177I118J132*
X18614Y22999I177*
X18791Y23177J178*
X18732Y23309I177*
G02X18722Y23331I20J22*
G01Y23355*
G02X18731Y23376I30*
G01X18875Y23520*
Y22241*
G03X18934Y22182I59*
G01X19249*
G03X19308Y22241J59*
G01Y22596*
G03X19249Y22655I59*
G01X18934*
G03X18875Y22596J59*
G01Y23520*
X19123Y23768*
G02X19144Y23777I21J21*
X19174Y23747J30*
X19173Y23744I30*
G03Y23735I79J9*
G01Y23499*
G03X19215Y23429I79*
G02X19231Y23403I14J26*
X19230Y23397I30*
G03X19229Y23383I78J14*
G01Y23029*
G03X19308Y22950I79*
G01X19623*
G03X19701Y23029J79*
G01Y23383*
G03X19696Y23412I78*
G02X19694Y23423I27J11*
X19702Y23444I29*
G03X19724Y23499I57J55*
G01Y23735*
G03X19645Y23814I79*
G01X19252*
G03X19243Y23813J79*
G02X19239I4J29*
X19210Y23842J29*
X19218Y23863I29*
G01X19317Y23962*
G02X19338Y23971I21J20*
G01X19645*
G03X19724Y24050J79*
G01Y24286*
G03X19709Y24333I79*
G02X19703Y24351I23J18*
X19732Y24380I29*
G01X19802*
G02X19823Y24371J29*
G01X20157Y24038*
G02X20166Y24017I21J21*
G01Y17546*
G03X20246Y17351I275*
G01X20887Y16710*
G03X21082Y16629I195J195*
X21358Y16905J276*
X21277Y17100I276*
G01X20912Y17465*
G02X20903Y17486I21J21*
X20933Y17515I30*
G01X21040*
G02X21070Y17490J29*
G03X21100Y17429I107J15*
G01X21616Y16913*
G02X21625Y16892I21J21*
X21616Y16871I30*
G01X21321Y16575*
G02X21300Y16567I21J21*
G01X18984*
G03X18908Y16535J109*
G01X18692Y16319*
G02X18671Y16310I21J21*
G01X18669*
G03X18659I10J177*
X18482Y16133J177*
X18659Y15956I177*
X18836Y16133J177*
Y16143I177*
G01Y16145*
G02X18845Y16166I30*
G01X19021Y16342*
G02X19041Y16350I20J21*
G01X21357*
G03X21433Y16382J108*
G01X21819Y16768*
G03X21851Y16844I76J76*
G01Y16940*
G03X21819Y17016I108*
G01X21371Y17465*
G02X21362Y17486I20J21*
X21391Y17515I29*
G01X21433*
G03X21512Y17594J79*
G01Y18066*
G03X21433Y18145I79*
G01X20921*
G03X20842Y18066J79*
G01Y17606*
G02X20813Y17576I29*
X20792Y17585J30*
G01X20726Y17651*
G02X20717Y17672I20J21*
G01Y24143*
G03X20636Y24338I276*
G01X20124Y24851*
G03X20103Y24869I195J195*
G02X20092Y24892I19J23*
X20122Y24921I30*
G01X21176*
Y19230*
G03X21255Y19152I79*
G01X21885*
G03X21963Y19230J78*
G01Y19270*
G02X21993Y19299I30*
G01X22124*
G02X22145Y19290J29*
G03X22175Y19264I130J120*
G02X22188Y19240I17J24*
X22162Y19211I30*
G03X22011Y19036I26J175*
X22014Y19001I177*
G02X22015Y18995I29J6*
X21985Y18966I30*
X21958Y18984J29*
G03X21885Y19033I73J29*
G01X21255*
G03X21176Y18955J78*
G01Y18600*
G03X21255Y18522I79*
G01X21885*
G03X21963Y18600J78*
G01Y18641*
G02X21989Y18670I30*
G03X22050Y18701I16J108*
G01X22131Y18782*
G02X22151Y18790I20J21*
X22181Y18761J29*
X22180Y18753I30*
G03X22174Y18709I172J44*
X22352Y18532I178*
X22487Y18595J177*
G02X22509Y18605I22J20*
G01X22517*
G02X22546Y18575J30*
G01Y18516*
G03X22611Y18439I79*
G02X22635Y18410I6J29*
G01Y18383*
G03X22636Y18366I108*
G02X22637Y18361I29J5*
G01Y18271*
G02X22613Y18242I30*
G03X22548Y18164I14J78*
G01Y18105*
G02X22521Y18075I29*
G03X22464Y18053I10J107*
G02X22446Y18046I18J23*
X22417Y18073J30*
G03X22338Y18145I79J7*
G01X21826*
G03X21748Y18066J79*
G01Y17594*
G03X21826Y17515I78*
G01X22338*
G03X22417Y17594J79*
G01Y17703*
G02X22435Y17730I30*
G03X22470Y17754I41J100*
G01X22498Y17782*
G02X22519Y17790I21J21*
X22549Y17763J29*
G03X22627Y17692I78J8*
G01X22850*
Y15519*
G03X23345Y15023I495*
X23840Y15519J496*
X23345Y16014I495*
X22850Y15519J495*
G01Y17692*
X22863*
G03X22942Y17771J79*
G01Y18164*
G03X22878Y18242I79*
G02X22853Y18271I5J29*
G01Y18382*
G03X22852Y18399I108*
G02X22851Y18404I29J5*
G01Y18410*
G02X22876Y18439I30*
G03X22940Y18516I15J77*
G01Y18910*
G03X22861Y18989I79*
G01X22625*
G03X22546Y18910J79*
G01Y18851*
G02X22517Y18822I29*
G01X22502*
G02X22481Y18831J29*
G03X22356Y18886I129J122*
G02X22327Y18916J30*
X22332Y18933I29*
G03X22365Y19036I144J103*
X22288Y19182I177*
G02X22275Y19206I17J24*
X22301Y19235I30*
G03X22452Y19410I26J175*
X22275Y19588I177*
X22141Y19526J178*
G02X22118Y19516I23J19*
G01X21993*
G02X21963Y19545J29*
G01Y19585*
G03X21885Y19663I78*
G01X21255*
G03X21176Y19585J78*
G01Y24921*
X21705*
Y22226*
G03X22160Y21770I455*
X22510Y21933J456*
G01Y19445*
G03X22569Y19386I59*
G01X22805*
G03X22865Y19445J59*
G01Y19838*
G03X22805Y19897I60*
G01X22569*
G03X22510Y19838J59*
G01Y21933*
G03X22616Y22226I350J293*
X22160Y22682I456*
X21705Y22226J456*
G01Y24921*
X23042*
Y19445*
G03X23117Y19366I78*
G01Y18516*
G03X23119Y18502I59*
G01Y17771*
G03X23178Y17712I59*
G01X23414*
G03X23473Y17767J59*
G01Y17054*
G03X23650Y16877I177*
X23775Y16928J177*
G02X23795Y16936I20J21*
X23811Y16932J29*
G03X23854Y16919I43J66*
G01X24091*
G03X24169Y16998J79*
G01Y17391*
G03X24091Y17470I78*
G01X23854*
G03X23776Y17391J79*
G01Y17331*
G02X23750Y17302I30*
G03X23689Y17271I16J107*
G01X23658Y17240*
G02X23639Y17231I21J21*
G03X23473Y17054I11J177*
G01Y17767*
G03Y17771I59J4*
G01Y18164*
G03X23414Y18223I59*
G01X23178*
G03X23119Y18164J59*
G01Y18502*
G03X23176Y18457I57J14*
G01X23413*
G03X23472Y18516J59*
G01Y18910*
G03X23413Y18969I59*
G01X23176*
G03X23117Y18910J59*
G01Y19366*
G03X23120I3J79*
G01X23270*
G02X23291Y19357J30*
G01X23388Y19260*
G03X23465Y19228I77J76*
G01X23611*
G02X23633Y19218J29*
G03X23766Y19159I133J118*
X23943Y19336J177*
X23766Y19514I177*
X23633Y19455J178*
G02X23611Y19445I22J19*
G01X23522*
G02X23501Y19453J29*
G01X23444Y19510*
G02X23435Y19531I21J21*
G01Y19838*
G03X23357Y19917I78*
G01X23120*
G03X23042Y19838J79*
G01Y24921*
X23673*
Y22226*
G03X23815Y21895I456*
G01Y19820*
G03X23992Y19642I177*
X24124Y19701J178*
G02X24147Y19711I23J19*
G01X24170*
G02X24191Y19703J29*
G01X24411Y19483*
G02X24420Y19462I21J21*
G01Y19384*
G02X24390Y19355I30*
G01X24213*
G03X24134Y19276J79*
G01Y18987*
G02X24105Y18957I29*
X24090Y18961J30*
G03X24000Y18986I90J152*
X23822Y18809J177*
X24000Y18631I178*
X24047Y18638J178*
G02X24055Y18639I8J29*
X24075Y18630J30*
G01X24125Y18580*
G02X24134Y18559I20J21*
G01Y18292*
G03X24213Y18213I79*
G01X24346*
Y16998*
G03X24406Y16939I60*
G01X24642*
G03X24701Y16998J59*
G01Y17391*
G03X24642Y17450I59*
G01X24406*
G03X24346Y17391J59*
G01Y18213*
X24843*
G03X24922Y18292J79*
G01Y18646*
G03X24843Y18725I79*
G01X24299*
G02X24279Y18733J29*
G01X24220Y18792*
G02X24211Y18813I20J21*
X24240Y18843I29*
G01X24843*
G03X24922Y18922J79*
G01Y19276*
G03X24843Y19355I79*
G01X24666*
G02X24636Y19384J29*
G01Y19519*
G03X24604Y19596I108*
G01X24304Y19896*
G03X24227Y19928I77J76*
G01X24147*
G02X24124Y19938J29*
G03X23992Y19997I132J118*
X23815Y19820J177*
G01Y21895*
G03X24129Y21770I314J331*
X24585Y22226J456*
X24129Y22682I456*
X23673Y22226J456*
G01Y24921*
X25719*
G02X25748Y24892J29*
G01Y148*
G02X25719Y118I29*
G01X187*
G02X157Y148J30*
G01Y839*
G02X187Y869I30*
X194Y868J30*
G03X208Y866I14J57*
G01X602*
G03X661Y925J59*
G01Y2087*
G03X602Y2146I59*
G01X208*
G03X194Y2144J59*
G02X187Y2143I7J28*
X157Y2172J29*
G01Y5485*
G02X187Y5514I30*
X194Y5513J29*
G03X208Y5512I14J58*
G01X602*
G03X661Y5571J59*
G01Y6732*
G03X602Y6791I59*
G01X208*
G03X194Y6789J59*
G02X187I7J29*
X157Y6818J29*
G01Y24892*
X7175Y9526D02*
G02X7184Y9547I30D01*
G01X7901Y10265*
Y9238*
G03X7960Y9179I59*
G01X8197*
G03X8256Y9238J59*
G01Y9632*
G03X8197Y9691I59*
G01X7960*
G03X7901Y9632J59*
G01Y10265*
X9948Y12312*
G02X9969Y12320I21J21*
G01X9971*
G03X9981I10J177*
X9991J177*
G01X9992*
G02X10013Y12312J29*
G01X10473Y11852*
G03X10550Y11820I77J76*
G01X11385*
G02X11407Y11810J30*
G03X11539Y11751I132J118*
X11671Y11810J177*
G02X11693Y11820I22J20*
G01X11830*
G03X11841J108*
G02X11844Y11821I3J29*
G01X11884*
G02X11906Y11811J30*
G03X12038Y11752I132J118*
X12123Y11774J177*
G02X12138Y11777I15J26*
X12167Y11748J29*
G01Y11699*
G02X12157Y11677I29*
G03X12098Y11545I119J132*
X12276Y11368I178*
X12453Y11545J177*
X12394Y11677I177*
G02X12384Y11699I19J22*
G01Y11983*
G03X12352Y12060I108*
G01X12229Y12183*
G02X12220Y12204I21J21*
X12250Y12233I30*
G01X12314*
G02X12335Y12225J29*
G01X12748Y11811*
G03X12825Y11779I77J76*
G01X13566*
G03X13643Y11811J108*
G01X13669Y11837*
G02X13690Y11845I21J21*
G01X14201*
G02X14223Y11836J29*
G03X14355Y11777I132J118*
X14533Y11954J177*
X14355Y12131I178*
X14223Y12072J177*
G02X14201Y12062I22J20*
G01X14184*
G02X14154Y12092J30*
G01Y12287*
G03X14153Y12300I59*
G02X14152Y12307I29J7*
X14182Y12336I30*
G01X14323*
G02X14344Y12328J29*
G01X14631Y12041*
G02X14640Y12020I21J21*
G01Y12019*
G03X14639Y12009I176J10*
X14816Y11831I177*
X14980Y11940J178*
G02X15007Y11958I27J12*
X15028Y11949J30*
G01X15281Y11696*
G02X15289Y11675I21J21*
X15260Y11646I29*
G01X12773*
G03X12696Y11614J109*
G01X11801Y10719*
G02X11780Y10710I21J21*
G01X10829*
G03X10753Y10678J108*
G01X9442Y9368*
G02X9421Y9359I21J20*
X9392Y9388J29*
Y9395I29*
G03X9397Y9436I172J41*
X9220Y9613I177*
X9088Y9554J177*
G02X9066Y9544I22J19*
G01X9013*
G03X9003Y9543J108*
G02X9000I3J30*
G01X8856*
G02X8827Y9573J30*
G01Y9632*
G03X8748Y9711I79*
G01X8512*
G03X8433Y9632J79*
G01Y9238*
G03X8479Y9167I79*
G02X8496Y9140I13J27*
X8466Y9110I30*
G01X7710*
G03X7634Y9079J108*
G01X7276Y8721*
G02X7255Y8712I21J21*
X7228Y8729J30*
G03X7185Y8788I161J73*
G02X7175Y8810I20J22*
G01Y9526*
X9533Y8592D02*
G03X9503Y8622I30D01*
X9498Y8621J30*
G02X9467Y8619I31J175*
X9335Y8678J177*
G03X9313Y8688I22J20*
G01X8799*
G03X8769Y8658J30*
X8791Y8630I30*
G02X8834Y8573I16J57*
G01Y8179*
G02X8830Y8158I59*
G03X8828Y8148I28J10*
X8858Y8118I30*
G01X9059*
G03X9080Y8127J30*
G01X9524Y8571*
G03X9533Y8592I21J21*
G01X12905Y16338D02*
G03X12875Y16367I30D01*
G01X8934*
G03X8913Y16359J29*
G01X8880Y16326*
G03X8871Y16305I21J21*
G01Y16303*
G02X8872Y16293I177J10*
X8851Y16211I178*
G03X8848Y16197I27J14*
X8864Y16171I30*
G02X8917Y16130I79J159*
G03X8939Y16121I22J20*
G01X9709*
G03X9722Y16123J29*
G02X9768Y16134I46J98*
G01X12875*
G03X12905Y16163J29*
G01Y16338*
X13617D02*
G03X13588Y16367I29D01*
G01X13446*
G03X13417Y16338J29*
G01Y16163*
G03X13446Y16134I29*
G01X13588*
G03X13617Y16163J29*
G01Y16338*
X13645Y12307D02*
G03X13615Y12336I30D01*
G01X13533*
G02X13456Y12368J109*
G01X13321Y12504*
G03X13300Y12512I21J21*
G01X12707*
G03X12687Y12504J29*
G01X12659Y12476*
G02X12582Y12444I77J77*
G01X12492*
G03X12463Y12415J29*
X12471Y12394I29*
G01X12861Y12004*
G03X12882Y11996I21J21*
G01X13509*
G03X13530Y12004J29*
G01X13556Y12030*
G02X13617Y12061I77J76*
G03X13642Y12090I4J29*
G01Y12287*
G02X13644Y12300I59*
G03X13645Y12307I29J7*
G01X13885Y10774D02*
G03X13861Y10803I30D01*
G02X13796Y10880I14J77*
G01Y11225*
G03X13767Y11254I29*
G01X13649*
G03X13619Y11225J29*
G01Y10880*
G02X13560Y10821I59*
G01X13324*
G02X13265Y10880J59*
G01Y11185*
G03X13235Y11215I30*
X13214Y11206J30*
G01X12125Y10117*
G02X12049Y10085I76J77*
G01X12029*
G03X12000Y10056J29*
X12008Y10036I29*
G02X12009Y10034I131J120*
G03X12031Y10024I22J19*
G01X13590*
G02X13667Y9992J108*
G01X13774Y9885*
G03X13795Y9877I21J21*
X13823Y9898J29*
G02X13875Y9980I170J50*
G03X13885Y10002I20J22*
G01Y10423*
G02Y10430I108*
G03Y10432I30J2*
G01Y10774*
X14173Y12588D02*
G03X14174Y12602I78J14D01*
G01Y12752*
G02X14183Y12773I29*
G01X14306Y12896*
G02X14326Y12904I20J21*
G01X14422*
G02X14444Y12895J29*
G03X14576Y12835I132J118*
X14753Y13013J178*
X14694Y13145I177*
G02X14684Y13167I19J22*
G01Y13279*
G02X14693Y13300I29*
G01X14809Y13416*
G02X14830Y13424I21J21*
G01X15483*
G02X15504Y13416J29*
G01X15571Y13349*
G02X15580Y13328I20J21*
G01Y12486*
G03X15612Y12410I108*
G01X15654Y12368*
G03X15730Y12336I76J77*
G01X15782*
G02X15811Y12312J29*
G03X15888Y12248I77J15*
G01X16282*
G03X16360Y12312J79*
G02X16389Y12336I29J5*
G01X16534*
G02X16563Y12313J29*
G03X16640Y12249I77J15*
G01X17034*
G03X17111Y12314J79*
G02X17140Y12338I29J6*
G01X17172*
G03X17249Y12370J108*
G01X17358Y12479*
G03X17390Y12555I77J76*
G01Y12853*
G02X17419Y12883I29*
G01X17452*
G02X17481Y12859J30*
G03X17499Y12821I78J14*
G01Y12322*
G03X17559Y12263I60*
G01X17600*
Y11647*
G03X17659Y11588I59*
G01X18053*
G03X18112Y11647J59*
G01Y11883*
G03X18053Y11942I59*
G01X17659*
G03X17600Y11883J59*
G01Y12263*
X17952*
G03X18011Y12322J59*
G01Y12558*
G03X17952Y12617I59*
G01X17559*
G03X17499Y12558J59*
G01Y12821*
G03X17559Y12794I60J52*
G01X17952*
G03X18015Y12826J79*
G02X18039Y12838I24J17*
X18064Y12824J29*
G03X18216Y12738I152J91*
X18275Y12748J177*
G02X18285Y12750I10J28*
X18315Y12720J30*
G01Y11256*
G02X18306Y11235I30*
G01X18182Y11111*
G02X18161Y11103I21J21*
X18132Y11132J29*
G01Y11332*
G03X18053Y11411I79*
G01X17659*
G03X17614Y11397J79*
G02X17597Y11391I17J24*
X17586Y11393J30*
G01X17571Y11400*
G02X17553Y11427I11J27*
Y11430I29*
G03X17554Y11447I177J17*
X17376Y11624I178*
X17367J177*
G01X17365*
G02X17344Y11632J29*
G01X17246Y11730*
G02X17237Y11751I21J21*
G01Y11754*
G02X17247Y11776I30*
G03X17306Y11908I118J132*
X17129Y12085I177*
X16952Y11908J177*
X17011Y11776I177*
G02X17021Y11754I20J22*
G01Y11694*
G03X17053Y11617I108*
G01X17191Y11479*
G02X17200Y11458I21J21*
G01Y11457*
G03X17199Y11447I176J10*
X17230Y11346I177*
G02X17236Y11330I24J16*
X17215Y11301I30*
G03X17133Y11250I50J169*
G02X17111Y11240I22J20*
G01X16864*
G02X16844Y11249J30*
G01X16808Y11285*
G02X16799Y11306I20J21*
X16816Y11332I29*
G03X16916Y11492I77J160*
X16857Y11624I177*
G02X16848Y11646I20J22*
G01Y11878*
G03X16844Y11905I109*
G02X16843Y11912I29J7*
X16844Y11917I30*
G03X16847Y11948I174J31*
X16670Y12125I177*
X16492Y11948J177*
X16611Y11781I178*
G02X16631Y11753I9J28*
G01Y11646*
G02X16621Y11624I29*
G03X16579Y11569I118J132*
G02X16553Y11552I26J12*
X16532Y11560J29*
G01X16041Y12051*
G03X15964Y12083I77J76*
G01X15601*
G02X15579Y12093J30*
G03X15447Y12152I132J118*
X15287Y12051J177*
G02X15261Y12034I26J13*
X15240Y12043J30*
G01X15202Y12081*
G02X15193Y12102I21J21*
G01Y12917*
G02X15203Y12939I30*
G03X15262Y13071I118J132*
X15085Y13248I177*
X14908Y13071J177*
X14967Y12939I177*
G02X14977Y12917I20J22*
G01Y12169*
G02X14947Y12139I30*
X14928Y12146J30*
G03X14816Y12186I112J137*
X14807J177*
G01X14805Y12185*
G02X14784Y12194J30*
G01X14457Y12521*
G03X14380Y12553I77J76*
G01X14202*
G02X14172Y12582J29*
X14173Y12588I30*
G01X18787Y5473D02*
G03X18779Y5493I29D01*
G01X18201Y6071*
G02X18169Y6148I76J77*
G01Y10721*
G03X18139Y10750I30*
X18119Y10742J29*
G01X17697Y10320*
G03X17688Y10299I21J21*
G01X17689Y10298*
G02Y10288I177J10*
G01Y4041*
G03X17718Y4012I29*
G01X17807*
G02X17886Y3933J79*
G01Y3473*
G03X17915Y3443I29*
X17936Y3452J30*
G01X18130Y3646*
G03X18139Y3664I21J21*
G02X18512Y4012I373J26*
X18740Y3934J374*
G03X18758Y3928I18J23*
X18787Y3957J29*
G01Y5473*
G37*
G54D10*
X0Y0D02*
X25866D01*
Y25039*
X0*
Y0*
G54D11*
X238Y955D02*
X212Y837D01*
X238Y2057D02*
X212Y2175D01*
X238Y5600D02*
X212Y5482D01*
X238Y6703D02*
X212Y6821D01*
X572Y955D02*
X665Y862D01*
X572Y2057D02*
X665Y2149D01*
X572Y5600D02*
X665Y5508D01*
X572Y6703D02*
X665Y6795D01*
X1734Y5984D02*
X1642Y5892D01*
X1734Y6712D02*
X1642Y6805D01*
X1990Y5984D02*
X2082Y5892D01*
X1990Y6712D02*
X2082Y6805D01*
X3072Y22197D02*
X2953D01*
X3109Y12204D02*
X2991D01*
X3151Y5984D02*
X3059Y5892D01*
X3160Y22030D02*
Y21912D01*
Y22364D02*
Y22483D01*
X3198Y12036D02*
Y11918D01*
Y12371D02*
Y12489D01*
X3249Y22197D02*
X3367D01*
X3286Y12204D02*
X3404D01*
X3407Y5984D02*
X3499Y5892D01*
X3576Y9819D02*
X3458D01*
X3665Y9652D02*
Y9534D01*
Y9986D02*
Y10104D01*
X3754Y9819D02*
X3872D01*
X3823Y11031D02*
X3705D01*
X3912Y10864D02*
Y10746D01*
Y11199D02*
Y11317D01*
X4001Y11031D02*
X4119D01*
X4613Y9674D02*
X4495D01*
X4640Y10891D02*
X4548Y10799D01*
X4640Y11068D02*
X4522Y11085D01*
X4780Y9586D02*
Y9468D01*
Y9763D02*
Y9881D01*
X4947Y9674D02*
X5066D01*
X4975Y10891D02*
X5067Y10799D01*
X4975Y11068D02*
X5093Y11085D01*
X5195Y14795D02*
Y14778D01*
Y14776*
X5197Y14773*
X5200Y14768*
X5202Y14766*
X5589Y14537*
X5592*
X5593Y14536*
X5594Y14535*
X5597*
X5889*
X5893Y14537*
X5898Y14540*
X5900Y14545*
X5901Y14549*
X5900Y14554*
X5898Y14559*
X5893Y14562*
X5889Y14564*
X5708*
Y15012*
X5889*
X5893Y15014*
X5898Y15016*
X5900Y15021*
X5901Y15027*
X5900Y15032*
X5898Y15037*
X5893Y15040*
X5889Y15041*
X5597*
X5594*
X5593*
X5592Y15040*
X5589Y15039*
X5202Y14807*
X5198Y14804*
X5197Y14800*
X5195Y14797*
Y14795*
Y17450D02*
Y17434D01*
Y17431*
X5197Y17429*
X5200Y17424*
X5202Y17422*
X5589Y17193*
X5592Y17192*
X5593Y17191*
X5594*
X5597*
X5889*
X5893Y17192*
X5898Y17195*
X5900Y17200*
X5901Y17205*
X5900Y17210*
X5898Y17215*
X5893Y17218*
X5889Y17219*
X5708*
Y17668*
X5889*
X5893Y17669*
X5898Y17672*
X5900Y17677*
X5901Y17682*
X5900Y17687*
X5898Y17692*
X5893Y17695*
X5889Y17697*
X5597*
X5594*
X5593Y17696*
X5592Y17695*
X5589*
X5202Y17463*
X5198Y17459*
X5197Y17455*
X5195Y17452*
Y17450*
Y18791D02*
Y18775D01*
Y18772*
X5197Y18770*
X5200Y18765*
X5202Y18762*
X5589Y18534*
X5592Y18533*
X5593Y18532*
X5594Y18531*
X5597*
X5889*
X5893Y18533*
X5898Y18536*
X5900Y18541*
X5901Y18546*
X5900Y18551*
X5898Y18556*
X5893Y18558*
X5889Y18560*
X5708*
Y19008*
X5889*
X5893Y19010*
X5898Y19013*
X5900Y19018*
X5901Y19023*
X5900Y19028*
X5898Y19033*
X5893Y19036*
X5889Y19037*
X5597*
X5594*
X5593*
X5592Y19036*
X5589Y19035*
X5202Y18804*
X5198Y18800*
X5197Y18796*
X5195Y18793*
Y18791*
X5217Y15207D02*
X5553Y15444D01*
X5889*
X5893Y15445*
X5898Y15448*
X5900Y15453*
X5901Y15458*
X5900Y15463*
X5898Y15468*
X5893Y15471*
X5889Y15472*
X5553*
X5217Y15708*
X5212Y15710*
X5207*
X5203Y15707*
X5199Y15703*
X5196Y15699*
X5195Y15694*
X5196Y15689*
X5200Y15685*
X5523Y15458*
X5200Y15230*
X5196Y15226*
X5195Y15222*
X5196Y15217*
X5199Y15212*
X5203Y15209*
X5207Y15206*
X5212Y15205*
X5217Y15207*
X5220Y17865D02*
X5216Y17862D01*
X5211*
X5205*
X5201Y17865*
X5198Y17869*
X5195Y17874*
Y17876*
Y17878*
Y17881*
X5197Y17883*
X5567Y18337*
X5208*
X5203Y18339*
X5199Y18342*
X5197Y18347*
X5196Y18353*
X5197Y18358*
X5199Y18362*
X5203Y18366*
X5208Y18367*
X5889*
X5894Y18366*
X5898Y18362*
X5900Y18358*
X5901Y18353*
X5900Y18347*
X5898Y18342*
X5894Y18339*
X5889Y18337*
X5604*
X5509Y18220*
X5898Y17884*
X5900Y17882*
X5901Y17880*
X5902Y17878*
Y17876*
X5900Y17871*
X5897Y17867*
X5893Y17863*
X5889Y17861*
X5884*
X5879Y17863*
X5490Y18198*
X5220Y17865*
X5223Y15977D02*
X5222Y15972D01*
X5219Y15968*
X5214Y15966*
X5209Y15965*
X5203Y15966*
X5198Y15968*
X5195Y15972*
X5194Y15977*
Y16254*
X5195Y16259*
X5198Y16262*
X5203Y16264*
X5209Y16265*
X5214Y16264*
X5219Y16262*
X5222Y16259*
X5223Y16254*
Y16130*
X5873*
Y16254*
X5874Y16259*
X5878Y16262*
X5883Y16264*
X5889Y16265*
X5893Y16264*
X5898Y16262*
X5901Y16259*
X5903Y16254*
Y15977*
X5901Y15972*
X5898Y15968*
X5893Y15966*
X5889Y15965*
X5883Y15966*
X5878Y15968*
X5874Y15972*
X5873Y15977*
Y16102*
X5223*
Y15977*
X5601Y15012D02*
X5679D01*
Y14564*
X5601*
X5225Y14788*
X5601Y15012*
Y17668D02*
X5679D01*
Y17219*
X5601*
X5225Y17443*
X5601Y17668*
Y19008D02*
X5679D01*
Y18560*
X5601*
X5225Y18784*
X5601Y19008*
X5889Y17026D02*
X5894Y17025D01*
X5898Y17021*
X5900Y17017*
X5901Y17012*
X5900Y17006*
X5898Y17001*
X5894Y16998*
X5889Y16996*
X5563*
Y16548*
X5889*
X5894Y16547*
X5898Y16544*
X5900Y16539*
X5901Y16534*
X5900Y16529*
X5898Y16525*
X5894Y16521*
X5889Y16520*
X5208*
X5203Y16521*
X5199Y16525*
X5197Y16529*
X5196Y16534*
X5197Y16539*
X5199Y16544*
X5203Y16547*
X5208Y16548*
X5534*
Y16996*
X5208*
X5203Y16998*
X5199Y17001*
X5197Y17006*
X5196Y17012*
X5197Y17017*
X5199Y17021*
X5203Y17025*
X5208Y17026*
X5889*
Y19229D02*
X5894D01*
X5898Y19225*
X5900Y19220*
X5901Y19215*
X5900Y19210*
X5898Y19206*
X5894Y19203*
X5889Y19201*
X5211*
X5209*
X5208*
X5203Y19202*
X5200Y19204*
X5198Y19208*
X5197Y19213*
X5196Y19218*
X5197Y19222*
X5198Y19225*
X5201Y19227*
X5569Y19454*
X5201Y19680*
X5198Y19683*
X5196Y19687*
Y19690*
X5197Y19694*
X5198Y19700*
X5200Y19704*
X5203Y19706*
X5208Y19708*
X5209*
X5211*
X5889*
X5894Y19706*
X5898Y19703*
X5900Y19699*
X5901Y19694*
X5900Y19688*
X5898Y19683*
X5894Y19679*
X5889Y19678*
X5260*
X5605Y19467*
X5608Y19464*
X5610Y19461*
X5611Y19458*
X5610Y19454*
X5611Y19451*
X5610Y19447*
X5608Y19444*
X5605Y19441*
X5260Y19229*
X5889*
X6931Y5984D02*
X6839Y5892D01*
X6931Y6712D02*
X6839Y6805D01*
X7187Y5984D02*
X7279Y5892D01*
X7187Y6712D02*
X7279Y6805D01*
X7679Y2608D02*
X7561D01*
X7679Y5049D02*
X7561D01*
X7706Y12079D02*
X7588D01*
X7730Y11912D02*
Y11793D01*
X7794Y12246D02*
Y12364D01*
X7883Y12079D02*
X8001D01*
X7915Y1585D02*
X7797D01*
X7915Y6073D02*
X7797D01*
X7990Y9435D02*
X7872D01*
X8043Y2736D02*
Y2854D01*
Y4921D02*
Y4803D01*
X8079Y9268D02*
Y9149D01*
Y9602D02*
Y9720D01*
X8167Y9435D02*
X8285D01*
X8279Y1260D02*
Y1142D01*
Y6398D02*
Y6516D01*
X8407Y2608D02*
X8525D01*
X8407Y5049D02*
X8525D01*
X8592Y5748D02*
Y5630D01*
Y1909D02*
Y2027D01*
X8643Y1585D02*
X8761D01*
X8643Y6073D02*
X8761D01*
X8745Y8209D02*
X8863Y8177D01*
X8745Y8543D02*
X8837Y8635D01*
X9822Y15256D02*
X9704D01*
X9990Y15167D02*
Y15049D01*
Y15345D02*
Y15463D01*
X10157Y15256D02*
X10275D01*
X10965Y15700D02*
X10873Y15607D01*
X10965Y15877D02*
X10847Y15882D01*
X11300Y15700D02*
X11392Y15607D01*
X11300Y15877D02*
X11418Y15882D01*
X11346Y22906D02*
X11228D01*
X11474Y22758D02*
Y22640D01*
Y23054D02*
Y23172D01*
X11602Y22906D02*
X11720D01*
X12993Y16259D02*
X12875D01*
X13328D02*
X13446D01*
X13353Y11077D02*
X13235D01*
X13442Y10910D02*
Y10791D01*
X13531Y11077D02*
X13649D01*
X13706Y16269D02*
X13588D01*
X13731Y12169D02*
X13613D01*
X14066D02*
X14184D01*
X14406Y14888D02*
X14288D01*
X14573Y14799D02*
Y14681D01*
Y14976D02*
Y15094D01*
X14740Y14888D02*
X14858D01*
X14906Y6400D02*
X14788D01*
X14910Y7970D02*
X14792D01*
X14915Y4826D02*
X14797D01*
X15054Y6272D02*
Y6154D01*
Y6528D02*
Y6646D01*
X15058Y7842D02*
Y7724D01*
Y8098D02*
Y8216D01*
X15062Y4698D02*
Y4580D01*
Y4954D02*
Y5072D01*
X15202Y6400D02*
X15320D01*
X15206Y7970D02*
X15324D01*
X15210Y4826D02*
X15328D01*
X15226Y22817D02*
X15108D01*
X15354Y22669D02*
Y22551D01*
Y22964D02*
Y23083D01*
X15482Y22817D02*
X15600D01*
X15531Y4807D02*
X15413D01*
X15620Y4639D02*
Y4521D01*
Y4974D02*
Y5092D01*
X15708Y4807D02*
X15826D01*
X15918Y12907D02*
X15861Y12793D01*
X15918Y13084D02*
X15861Y13198D01*
X16200Y15055D02*
X16082D01*
X16253Y12907D02*
X16345Y12815D01*
X16253Y13084D02*
X16345Y13177D01*
X16367Y14967D02*
Y14848D01*
Y15144D02*
Y15262D01*
X16535Y15055D02*
X16653D01*
X16669Y12997D02*
X16551D01*
X16837Y12909D02*
Y12791D01*
Y13086D02*
Y13204D01*
X17004Y12997D02*
X17122D01*
X17319Y16727D02*
X17201D01*
X17408Y16560D02*
Y16442D01*
Y16895D02*
Y17013D01*
X17497Y16727D02*
X17615D01*
X17588Y12440D02*
X17470D01*
X17689Y11765D02*
X17571D01*
X17755Y12351D02*
Y12233D01*
Y12529D02*
Y12647D01*
X17856Y11676D02*
Y11558D01*
Y11854D02*
Y11972D01*
X17923Y12440D02*
X18041D01*
X18023Y11765D02*
X18142D01*
X18963Y22418D02*
X18845D01*
X19091Y22271D02*
Y22153D01*
Y22566D02*
Y22684D01*
X19219Y22418D02*
X19337D01*
X20095Y7060D02*
X19976Y7040D01*
X20095Y7355D02*
X20002Y7447D01*
X20351Y7060D02*
X20469Y7040D01*
X20351Y7355D02*
X20443Y7447D01*
X22599Y19641D02*
X22481D01*
X22687Y19474D02*
Y19356D01*
Y19809D02*
Y19927D01*
X22776Y19641D02*
X22894D01*
X23206Y18713D02*
X23088D01*
X23208Y17968D02*
X23090D01*
X23279Y12311D02*
X23161D01*
X23294Y18546D02*
Y18428D01*
Y18881D02*
Y18999D01*
X23296Y17800D02*
Y17682D01*
Y18135D02*
Y18253D01*
X23343Y12459D02*
Y12577D01*
X23383Y18713D02*
X23501D01*
X23385Y17968D02*
X23503D01*
X24435Y17195D02*
X24317D01*
X24524Y17027D02*
Y16909D01*
Y17362D02*
Y17480D01*
X24612Y17195D02*
X24730D01*
G54D12*
X11174Y1291D02*
X11954Y511D01*
X15116*
X15283Y678*
X15311*
X12174Y1291D02*
Y1734D01*
Y1291D02*
Y848D01*
Y1291D02*
X12617D01*
X12174D02*
X11731D01*
X15311Y678D02*
Y1283D01*
Y678D02*
X15450Y539D01*
X19326*
X19445Y658*
X19465*
X15311Y1283D02*
Y1811D01*
X15245Y1877*
Y2548*
X16311Y1283D02*
X16624Y1596D01*
X16311Y1283D02*
X15997Y1596D01*
X16311Y1283D02*
X15997Y969D01*
X16311Y1283D02*
X16624Y969D01*
X17512Y3638D02*
Y10288D01*
X18896Y2001D02*
Y1749D01*
X18465Y1318*
X19465Y658D02*
Y1318D01*
X19512Y3638D02*
X19825Y3951D01*
X19512Y3638D02*
X19825Y3324D01*
X19512Y3638D02*
X19198Y3951D01*
X19512Y3638D02*
X19198Y3324D01*
X20465Y1318D02*
X20778Y1631D01*
X20465Y1318D02*
X20152Y1005D01*
X20465Y1318D02*
X20778Y1005D01*
X20465Y1318D02*
X20152Y1631D01*
X23596Y1300D02*
Y711D01*
X23403Y518*
X19604*
X19465Y658*
X24596Y1300D02*
X24909Y1613D01*
X24596Y1300D02*
X24282Y1613D01*
X24596Y1300D02*
X24909Y987D01*
X24596Y1300D02*
X24282Y987D01*
G54D13*
X2807Y1309D02*
Y1791D01*
X5456Y4440*
X6227*
X2807Y6348D02*
Y6831D01*
X4274Y8298*
X7006*
X7710Y9002*
X9230*
X10829Y10602*
X11837*
X12773Y11537*
X15449*
X3332Y10275D02*
X3199Y10142D01*
Y9819*
X3114*
X3582Y11513D02*
Y11332D01*
X3361Y11110*
Y11031*
X3711Y21697D02*
X5965D01*
X6574Y21087*
Y16827*
X6734Y16668*
X12733*
X12875Y16810*
X13161*
X3711Y22197D02*
Y22597D01*
X5341Y24227*
X8386*
X3711Y22197D02*
Y21908D01*
Y21907*
Y21697*
X3752Y6348D02*
Y6831D01*
X4931Y8010*
X9116*
X10130Y9025*
Y9520*
X10803Y10194*
X12049*
X13217Y11362*
X15187*
X15399Y11149*
X15856*
X4081Y12226D02*
X4058Y12204D01*
X3749*
X4081Y12226D02*
X4287D01*
X4400Y12338*
X7062*
X7243Y12158*
Y12079*
X4780Y9123D02*
Y8895D01*
X4815Y8860*
Y8632*
X5299Y11447D02*
X5215Y11530D01*
X4808*
X6135Y3794D02*
X5641Y3300D01*
Y1309*
X6169Y4151D02*
X5744D01*
X3752Y2158*
Y1309*
X6317Y3424D02*
X6114Y3221D01*
Y1309*
X6582Y3041D02*
Y2315D01*
X6586Y2311*
Y1309*
X6878Y7723D02*
X6586Y7432D01*
Y6348*
X6936Y2936D02*
Y2573D01*
X7059Y2450*
Y1309*
X7031Y17023D02*
X7238D01*
X7274Y17059*
X10094*
X10129Y17025*
X13607*
X13962Y17380*
X15413*
X7243Y12079D02*
Y11919D01*
X6911*
X6895Y11935*
X7257Y2544D02*
Y2865D01*
X7258Y2866*
Y3037*
X6586Y3709*
Y6348*
X7437Y9430D02*
X7867D01*
X7872Y9435*
X8079*
X8024Y531D02*
X3575D01*
X3279Y827*
Y1309*
X8043Y3120D02*
X8525D01*
X8717Y2928*
X9204*
X8567Y23414D02*
Y22547D01*
X9074Y22040*
Y21627*
X10101Y20600*
Y19826*
X11202Y18725*
X8575Y531D02*
X8882D01*
X8972Y622*
X9179*
X9060Y5671D02*
X9167Y5564D01*
Y4447*
X9220Y9436D02*
X9013D01*
X9012Y9435*
X8630*
X9222Y21186D02*
X9220Y21184D01*
Y20190*
X9386Y15752D02*
X9593D01*
X9648Y15807*
X9990*
X9467Y8796D02*
X8447D01*
X8105Y8455*
Y8376*
X9638Y13180D02*
Y12864D01*
X7048Y10275*
X3332*
X9755Y2928D02*
X10143D01*
X10247Y2825*
X9841Y21784D02*
X11157D01*
X12089Y20852*
Y18951*
X13235Y17805*
X9981Y12497D02*
X7067Y9583D01*
Y8656*
X10203Y14488D02*
Y14047D01*
X7396Y11240*
X4401*
X4128Y11513*
X3582*
X10876Y3560D02*
X10358Y4078D01*
Y4269*
X10180Y4447*
X9876*
X10963Y4888D02*
X11347D01*
X11549Y5090*
X12068*
X12076Y5082*
X12282*
X10965Y6951D02*
X11364D01*
X12098Y6217*
Y6208*
X12244Y6062*
X11301Y13016D02*
X11154Y12869D01*
Y12857*
X10797Y12500*
X11431Y24803D02*
X11536Y24697D01*
X11848*
X11459Y9935D02*
Y9710D01*
X13226Y7943*
X14240*
X15034Y7148*
X15054*
X11521Y12553D02*
X12582D01*
X12650Y12621*
X13357*
X13533Y12445*
X14380*
X14816Y12009*
X11539Y11928D02*
X10550D01*
X9981Y12497*
X11582Y20190D02*
Y19339D01*
X11433Y19189*
X11678Y14838D02*
X11459Y15056D01*
X11392*
X11211Y15237*
X11132*
X11695Y13185D02*
Y13810D01*
X11721Y13835*
Y14459*
X11695Y13185D02*
X11549Y13332D01*
X10815*
X9981Y12497*
X11848Y24146D02*
Y23694D01*
Y23693*
X11877Y9916D02*
X13590D01*
X14788Y8718*
X15058*
X12038Y11929D02*
X11831D01*
X11830Y11928*
X11539*
X12078Y7536D02*
Y8320D01*
X11393Y9004*
X10971*
X12276Y11545D02*
Y11983D01*
X12123Y12136*
X11677*
X11676Y12135*
X11162*
X10797Y12500*
X12352Y16243D02*
X12367Y16259D01*
X13161*
X13309Y12944D02*
X13455Y12798D01*
X13460*
X13538Y12720*
X13898*
X13309Y12944D02*
X13102D01*
Y12945*
X11936*
X11842Y13039*
X11841*
X11695Y13185*
X13322Y19423D02*
X12980Y19764D01*
X12596*
Y20163*
X13325Y4888D02*
Y5200D01*
X14275*
X13333Y9004D02*
Y8396D01*
X13717*
X13768Y8344*
X14270*
X13390Y17418D02*
X12912D01*
X10396Y19933*
Y20718*
X9516Y21599*
Y22182*
X13442Y11077D02*
X13224D01*
X13066Y10919*
X13805Y17780D02*
Y20123D01*
X12222Y21706*
Y22906*
X13873Y16820D02*
X13588D01*
X13578Y16810*
X13161*
X13993Y11077D02*
Y10423D01*
Y9848*
X14024Y17149D02*
X14004Y17129D01*
Y16951*
X13873Y16820*
X14024Y17149D02*
X14885D01*
X15913Y16121*
X16977*
X14208Y15756D02*
X13935Y15484D01*
Y15385*
X13077Y14527*
X14267Y6774D02*
X13327D01*
Y6951*
X14355Y11954D02*
X13633D01*
X13566Y11887*
X12825*
X12371Y12342*
X11315*
X14573Y15439D02*
X14896D01*
X14897Y15440*
X15104*
X14576Y13013D02*
X14269D01*
X13977Y12720*
X13898*
X14678Y10028D02*
X14599D01*
X14418Y9848*
X14200*
X13993*
X14679Y10924D02*
X14678Y10922D01*
Y10580*
X14840Y17663D02*
X13980D01*
X13528Y17211*
X10331*
X10025Y17516*
X7126*
X14865Y16193D02*
X14582Y16476D01*
X8877*
X8694Y16293*
X14866Y13972D02*
X12994D01*
X12939Y14027*
X12470*
X12324Y13881*
X14992Y21228D02*
X14959Y21195D01*
Y20163*
X15085Y13071D02*
Y12045D01*
X15374Y11756*
X15542*
X16277Y11021*
Y6769*
X15082Y5574*
X15062*
X15167Y10945D02*
X15840Y10272D01*
X16071*
X15369Y15911D02*
X14855D01*
X14740Y16025*
X9768*
X9755Y16012*
X8785*
X15480Y21289D02*
X16102Y21911D01*
Y22817*
X15721Y24057D02*
X15728Y24051D01*
Y23604*
X15721Y24608D02*
X15643D01*
X15448Y24803*
X15266*
X16085Y12445D02*
X16550D01*
X16551Y12446*
X16837*
X16085Y12445D02*
X15730D01*
X15688Y12486*
Y13385*
X15540Y13533*
X14773*
X14576Y13336*
Y13013*
X16642Y13557D02*
X17020D01*
X16739Y11492D02*
Y11878D01*
X16670Y11948*
X16837Y12446D02*
X17172D01*
X17281Y12555*
Y12949*
X17323Y12991*
X16837Y12997D02*
X16551D01*
X16550Y12996*
X16085*
X16854Y21126D02*
X16046D01*
X15953Y21033*
Y20196*
X16922Y5231D02*
X16498Y4807D01*
X16171*
X16977Y16121D02*
X17344D01*
X17403Y16180*
X16982Y15610D02*
X16775D01*
X16771Y15606*
X16367*
X17003Y17448D02*
X19839Y20284D01*
Y22418*
X17020Y13557D02*
X17323Y13254D01*
Y12991*
X17265Y11132D02*
X16807D01*
X15964Y11975*
X15447*
X17376Y11447D02*
X17129Y11694D01*
Y11908*
X17403Y16180D02*
X17404Y16179D01*
Y15452*
X17031Y15079*
Y13567*
X17020Y13557*
X17441Y10879D02*
X17595Y11033D01*
X17597*
X17777Y11214*
X17856*
X17512Y10288D02*
X18423Y11199D01*
Y13537*
X17412Y14548*
X17755Y12991D02*
X18140D01*
X18216Y12915*
X17755Y12991D02*
X17323D01*
X17959Y16727D02*
Y16649D01*
X17778Y16468*
X17691*
X17403Y16180*
X18364Y19245D02*
X18315Y19293D01*
Y20196*
X18464Y14366D02*
X18807D01*
X18990Y14182*
Y13822*
X18767Y13599*
Y11111*
X18541Y10884*
Y6103*
X19941Y4703*
Y4328*
X21872Y2396*
X18500Y14659D02*
X18837D01*
X19189Y14307*
Y11814*
X19902Y11101*
Y10040*
X19570Y9708*
Y8561*
X20684Y7447*
X20750*
X20971Y7227*
Y7207*
X18614Y23177D02*
Y23412D01*
X19370Y24168*
X19449*
X18659Y16133D02*
X18984Y16458D01*
X21357*
X21743Y16844*
Y16940*
X21177Y17505*
Y17830*
X18896Y2001D02*
Y5530D01*
X18277Y6148*
Y10787*
X18546Y11057*
Y13894*
X18722Y14069*
X19081Y11606D02*
Y10928D01*
X18748Y10594*
Y10515*
X19299D02*
X19637D01*
X19640Y10518*
X19449Y23617D02*
X19465Y23600D01*
Y23206*
X19497Y12084D02*
Y13258D01*
X20661Y14358D02*
Y13597D01*
X20705Y13552*
Y13150*
X20873Y8732D02*
Y9306D01*
X20871Y9308*
X21547Y7995D02*
X21340D01*
X21339*
X20597*
X21567Y6715D02*
X21569Y6713D01*
X21570Y18778D02*
X21973D01*
X22188Y18992*
Y19036*
X21570Y19407D02*
X22272D01*
X22275Y19410*
X21595Y14563D02*
Y15459D01*
X21542Y15513*
X20705*
X21921Y11144D02*
X21764D01*
X21714Y11094*
X20873*
X22352Y18709D02*
X22356Y18713D01*
X22743*
X22511Y11320D02*
X22717D01*
X23298Y10739*
X23311*
Y10355*
X22674Y14178D02*
Y15015D01*
X21613Y16076*
X20616*
X22743Y18713D02*
Y18383D01*
X22745Y18382*
Y17968*
X22531*
X22394Y17830*
X22082*
X23249Y13342D02*
X24303Y14396D01*
X25036*
Y14178*
X23311Y7993D02*
X22475D01*
X22472Y7995*
Y8877*
X23766Y19336D02*
X23465D01*
X23239Y19563*
Y19641*
X23781Y13099D02*
Y12951D01*
X24164*
X24827Y12289*
X24905*
X23972Y17195D02*
X23766D01*
X23650Y17079*
Y17054*
X24000Y18809D02*
X24050D01*
X24390Y18469*
X24528*
X24155Y12311D02*
X23867D01*
X23264Y12915*
X22357*
X24495Y13257D02*
X24646Y13106D01*
Y13021*
X24827Y12840*
X24905*
X24528Y19099D02*
Y19519D01*
X24227Y19820*
X23992*
G54D14*
X21872Y2396D02*
X22397D01*
X22596Y2198*
Y1300*
G54D15*
X15245Y2548D02*
X17422D01*
X18512Y3638*
X17117Y24656D02*
X19929D01*
X20441Y24143*
Y17546*
X21082Y16905*
X19593Y6715D02*
X21567D01*
X21569Y6713D02*
X22642D01*
X24079D02*
X23823Y6457D01*
Y4824*
G54D16*
X24079Y6713D02*
X22642D01*
X24569Y11618D02*
Y10948D01*
X24630Y10887*
Y7265*
X24079Y6713*
G54D17*
X416Y404D03*
X431Y7429D03*
X446Y8535D03*
X774Y12612D03*
X801Y13247D03*
Y13756D03*
Y14230D03*
X814Y19799D03*
Y20259D03*
X817Y14756D03*
X825Y19276D03*
Y20866D03*
Y21420D03*
X889Y17010D03*
X1046Y6798D03*
X1169Y1864D03*
X1199Y1096D03*
X1230Y404D03*
X1515Y21096D03*
Y21692D03*
X1518Y20519D03*
X1524Y20027D03*
X1528Y19018D03*
Y19534D03*
X1537Y18520D03*
X1560Y17528D03*
X1563Y12360D03*
X1570Y12917D03*
Y15040D03*
Y15523D03*
X1572Y16520D03*
X1573Y14504D03*
X1574Y17031D03*
X1579Y13521D03*
Y14017D03*
X2163Y21702D03*
X2177Y12356D03*
X2691Y12360D03*
X2707Y21681D03*
X3059Y8028D03*
X3175Y14011D03*
X3184Y14527D03*
Y15040D03*
X3195Y15563D03*
Y16535D03*
X3205Y17016D03*
Y17539D03*
Y18533D03*
Y19048D03*
X3209Y20008D03*
X3247Y19495D03*
X3332Y10275D03*
X3582Y11513D03*
X3711Y21697D03*
X4081Y12226D03*
X4274Y4062D03*
X4735Y4846D03*
X4815Y8632D03*
X4991Y24541D03*
X5299Y11447D03*
X6103Y5108D03*
X6135Y3794D03*
X6169Y4151D03*
X6227Y4440D03*
X6317Y3424D03*
X6582Y3041D03*
X6878Y7723D03*
X6895Y11935D03*
X6936Y2936D03*
X7031Y17023D03*
X7067Y8656D03*
X7126Y17516D03*
X7209Y5046D03*
X7257Y2544D03*
X7437Y9430D03*
X7486Y6214D03*
X7543Y1567D03*
X8303Y21312D03*
X8386Y24227D03*
X8397Y12888D03*
X8567Y23414D03*
X8694Y16293D03*
X8785Y16012D03*
X9025Y13547D03*
Y14755D03*
X9040Y18457D03*
X9060Y5671D03*
X9158Y8345D03*
X9179Y622D03*
X9220Y9436D03*
X9222Y21186D03*
X9269Y1495D03*
X9386Y15752D03*
X9467Y8796D03*
X9516Y22182D03*
X9608Y11735D03*
X9638Y13180D03*
X9841Y21784D03*
X9981Y12497D03*
X10203Y14488D03*
X10247Y2825D03*
X10797Y12500D03*
X10876Y3560D03*
X11202Y18725D03*
X11301Y13016D03*
X11315Y12342D03*
X11431Y24803D03*
X11433Y19189D03*
X11459Y9935D03*
X11521Y12553D03*
X11539Y11928D03*
X11678Y14838D03*
X11695Y13185D03*
X11721Y14459D03*
X11877Y9916D03*
X12038Y11929D03*
X12078Y7536D03*
X12244Y6062D03*
X12276Y11545D03*
X12282Y5082D03*
X12324Y13881D03*
X12352Y16243D03*
X12415Y14668D03*
X12882Y12414D03*
X12889Y13784D03*
X13066Y10919D03*
X13077Y14527D03*
X13235Y17805D03*
X13309Y12944D03*
X13322Y19423D03*
X13390Y17418D03*
X13481Y12094D03*
X13805Y17780D03*
X13993Y9848D03*
X14024Y17149D03*
X14208Y15756D03*
X14355Y11954D03*
X14576Y13013D03*
X14679Y10924D03*
X14816Y12009D03*
X14840Y17663D03*
X14865Y16193D03*
X14866Y13972D03*
X14992Y21228D03*
X15085Y13071D03*
X15104Y15440D03*
X15167Y10945D03*
X15197Y4377D03*
X15245Y2548D03*
X15266Y24803D03*
X15369Y15911D03*
X15413Y17380D03*
X15441Y13246D03*
X15447Y11975D03*
X15449Y11537D03*
X15480Y21289D03*
X15514Y13873D03*
X15757Y9283D03*
X15781Y7898D03*
X15856Y11149D03*
X16071Y10272D03*
X16141Y13891D03*
X16642Y13557D03*
X16670Y11948D03*
X16739Y11492D03*
X16813Y9441D03*
X16838Y7146D03*
X16854Y21126D03*
X16922Y5231D03*
X16977Y16121D03*
X16982Y15610D03*
X17003Y17448D03*
X17117Y24656D03*
X17129Y11908D03*
X17265Y11132D03*
X17376Y11447D03*
X17412Y14548D03*
X17441Y10879D03*
X17921Y9695D03*
X17927Y7907D03*
X17931Y9137D03*
X17947Y6948D03*
X18179Y12106D03*
X18216Y12915D03*
X18364Y19245D03*
X18464Y14366D03*
X18500Y14659D03*
X18614Y23177D03*
X18659Y16133D03*
X18722Y14069D03*
X19072Y8032D03*
X19081Y11606D03*
X19430Y15057D03*
X19497Y12084D03*
Y13258D03*
X19593Y6715D03*
X19640Y10518D03*
X20437Y5284D03*
X20461Y6023D03*
X20616Y16076D03*
X20661Y14358D03*
X20871Y9308D03*
X20899Y10622D03*
X21082Y16905D03*
X21278Y23293D03*
X21357Y21709D03*
Y22588D03*
X21547Y7995D03*
X21595Y14563D03*
X21767Y20031D03*
X21921Y11144D03*
X22166Y3491D03*
X22188Y19036D03*
X22275Y19410D03*
X22352Y18709D03*
X22357Y12915D03*
X22361Y24172D03*
X22432Y20258D03*
X22472Y8877D03*
X22511Y11320D03*
X22608Y5396D03*
X22680Y4215D03*
X23027Y20235D03*
X23129Y24125D03*
X23249Y13342D03*
X23650Y17054D03*
X23663Y18734D03*
X23701Y18037D03*
X23766Y19336D03*
X23803Y20258D03*
X23929Y24109D03*
X23992Y19820D03*
X24000Y18809D03*
X24495Y13257D03*
Y20035D03*
X24569Y11618D03*
X24776Y23278D03*
X24792Y22572D03*
X24823Y21756D03*
X25165Y17186D03*
X25453Y18055D03*
Y18776D03*
X25467Y19524D03*
G54D18*
X3114Y9819D03*
X3160Y22197D03*
X3198Y12204D03*
X3361Y11031D03*
X3665Y9819D03*
X3711Y22197D03*
X3749Y12204D03*
X3912Y11031D03*
X7243Y12079D03*
X7794D03*
X8024Y531D03*
X8079Y9435D03*
X8105Y8376D03*
X8575Y531D03*
X8630Y9435D03*
X8656Y8376D03*
X9204Y2928D03*
X9755D03*
X13442Y11077D03*
X13993D03*
X15620Y4807D03*
X16171D03*
X17408Y16727D03*
X17959D03*
X18748Y10515D03*
X19299D03*
X22687Y19641D03*
X22743Y18713D03*
X22745Y17968D03*
X23239Y19641D03*
X23294Y18713D03*
X23296Y17968D03*
X23972Y17195D03*
X24524D03*
G54D19*
X4780Y9123D03*
Y9674D03*
X4808Y10979D03*
Y11530D03*
X9990Y15256D03*
Y15807D03*
X11132Y15237D03*
Y15788D03*
X11848Y24146D03*
Y24697D03*
X13161Y16259D03*
Y16810D03*
X13873Y16269D03*
Y16820D03*
X13898Y12169D03*
Y12720D03*
X14573Y14888D03*
Y15439D03*
X14678Y10028D03*
Y10580D03*
X15721Y24057D03*
Y24608D03*
X16085Y12445D03*
Y12996D03*
X16367Y15055D03*
Y15606D03*
X16837Y12446D03*
Y12997D03*
X17755Y12440D03*
Y12991D03*
X17856Y11214D03*
Y11765D03*
X19449Y23617D03*
Y24168D03*
X24905Y12289D03*
Y12840D03*
G54D20*
X14267Y6774D03*
X14270Y8344D03*
X14275Y5200D03*
X15054Y6400D03*
Y7148D03*
X15058Y7970D03*
Y8718D03*
X15062Y4826D03*
Y5574D03*
G54D21*
X20705Y13150D03*
Y15513D03*
X20873Y8732D03*
Y11094D03*
X23311Y7993D03*
Y10355D03*
G54D22*
X9220Y20190D03*
X10963Y4888D03*
X10965Y6951D03*
X10971Y9004D03*
X11582Y20190D03*
X12596Y20163D03*
X13325Y4888D03*
X13327Y6951D03*
X13333Y9004D03*
X14959Y20163D03*
X15953Y20196D03*
X18315D03*
X22674Y14178D03*
X25036D03*
G54D23*
X21570Y18778D03*
Y19407D03*
X24528Y18469D03*
Y19099D03*
G54D24*
X21421Y4824D03*
X23823D03*
G54D25*
X22642Y6713D03*
G54D26*
X21177Y17830D03*
X22082D03*
G54D27*
X11174Y1291D03*
X12174D03*
X15311Y1283D03*
X16311D03*
X18512Y3638D03*
X19465Y1318D03*
X19512Y3638D03*
X20465Y1318D03*
X23596Y1300D03*
X24596D03*
G54D28*
X10174Y1291D03*
X14311Y1283D03*
X17512Y3638D03*
X18465Y1318D03*
X22596Y1300D03*
G54D29*
X1862Y1309D03*
Y6348D03*
X2334Y1309D03*
Y6348D03*
X2807Y1309D03*
Y6348D03*
X3279Y1309D03*
Y6348D03*
X3752Y1309D03*
Y6348D03*
X4224Y1309D03*
Y6348D03*
X4697Y1309D03*
Y6348D03*
X5169Y1309D03*
Y6348D03*
X5641Y1309D03*
Y6348D03*
X6114Y1309D03*
Y6348D03*
X6586Y1309D03*
Y6348D03*
X7059Y1309D03*
Y6348D03*
G54D30*
X8279Y1585D03*
Y6073D03*
G54D70*
X11474Y22906D03*
X11848Y23693D03*
X12222Y22906D03*
X15354Y22817D03*
X15728Y23604D03*
X16102Y22817D03*
X19091Y22418D03*
X19465Y23206D03*
X19839Y22418D03*
X20223Y7207D03*
X20597Y7995D03*
X20971Y7207D03*
X23407Y12311D03*
X23781Y13099D03*
X24155Y12311D03*
G54D71*
X9167Y4447D03*
X9876D03*
G54D72*
X8043Y2214D03*
Y2608D03*
Y3120D03*
Y3592D03*
Y4065D03*
Y4537D03*
Y5049D03*
Y5443D03*
G54D73*
X405Y1506D03*
Y6151D03*
M02*
