*
G04 Job   : E:\2017\MAKAHIYA\PCB\PCB\PCB.pcb*
G04 User  : WIN10:root*
G04 Layer : EtchLayerTop.gdo*
G04 Date  : Sun Dec 04 21:57:20 2016*
G04 Mentor Graphics Example Gerber Output Definition*
%ICAS*%
%MOIN*%
%FSLAX24Y24*%
%OFA0.0000B0.0000*%
G90*
G74*
%AMVB_RECTANGLE*
21,1,$1,$2,0,0,$3*
%
%ADD10C,0.00500*%
%ADD11C,0.00591*%
%ADD13C,0.00591*%
%ADD14C,0.01575*%
%ADD12C,0.01969*%
%ADD18C,0.02362*%
%ADD15C,0.03150*%
%ADD17C,0.03937*%
%ADD16C,0.05906*%
%ADD32O,0.10969X0.03000*%
%ADD33O,0.03000X0.10969*%
%ADD44O,0.19685X0.11811*%
%ADD43O,0.11811X0.19685*%
%ADD72VB_RECTANGLE,0.05906X0.05906X0.00000*%
%ADD21VB_RECTANGLE,0.10236X0.10236X0.00000*%
%ADD24VB_RECTANGLE,0.01181X0.06299X0.00000*%
%ADD39VB_RECTANGLE,0.01181X0.07874X0.00000*%
%ADD23VB_RECTANGLE,0.02362X0.00984X180.00000*%
%ADD22VB_RECTANGLE,0.02362X0.00984X90.00000*%
%ADD45VB_RECTANGLE,0.03150X0.12205X180.00000*%
%ADD26VB_RECTANGLE,0.03543X0.03150X0.00000*%
%ADD27VB_RECTANGLE,0.03543X0.03150X90.00000*%
%ADD70VB_RECTANGLE,0.03937X0.02362X0.00000*%
%ADD20VB_RECTANGLE,0.03937X0.02362X90.00000*%
%ADD30VB_RECTANGLE,0.03937X0.06299X0.00000*%
%ADD71VB_RECTANGLE,0.03937X0.06299X270.00000*%
%ADD42VB_RECTANGLE,0.03937X0.07087X90.00000*%
%ADD35VB_RECTANGLE,0.04134X0.03937X270.00000*%
%ADD73VB_RECTANGLE,0.04528X0.12598X180.00000*%
%ADD37VB_RECTANGLE,0.04724X0.06299X0.00000*%
%ADD28VB_RECTANGLE,0.05906X0.12205X0.00000*%
%ADD29VB_RECTANGLE,0.05906X0.12205X270.00000*%
%ADD31VB_RECTANGLE,0.05906X0.14961X180.00000*%
%ADD40VB_RECTANGLE,0.05906X0.18898X90.00000*%
%ADD25VB_RECTANGLE,0.06299X0.01181X0.00000*%
%ADD38VB_RECTANGLE,0.06299X0.13780X90.00000*%
%ADD36VB_RECTANGLE,0.07874X0.11811X0.00000*%
%ADD19VB_RECTANGLE,0.07874X0.11811X270.00000*%
%ADD34VB_RECTANGLE,0.08661X0.04134X0.00000*%
%ADD41VB_RECTANGLE,0.08661X0.06693X90.00000*%
G01*
G36*
X157Y24892D02*
G02X187Y24921I30D01*
G01X416*
Y18391*
G03X475Y18332I59*
G01X1237*
G02X1267Y18302J30*
X1257Y18281I30*
G03X1233Y18224I54J57*
G01Y17810*
G03X1257Y17753I78*
G02X1267Y17732I20J21*
X1237Y17702I30*
G01X475*
G03X416Y17643J59*
G01Y17230*
G03X430Y17191I59*
G01Y16395*
G03X489Y16336I59*
G01X1251*
G02X1281Y16306J30*
X1272Y16285I30*
G03X1247Y16227I54J58*
G01Y15814*
G03X1272Y15757I79*
G02X1281Y15735I21J22*
X1251Y15706I30*
G01X489*
G03X430Y15647J59*
G01Y15233*
G03X489Y15174I59*
G01X1355*
G03X1414Y15233J59*
G01Y15647*
G03X1399Y15686I59*
G02X1392Y15706I22J20*
X1421Y15735I29*
G01X1719*
G03X1743Y15739J79*
G01Y13371*
G03X1802Y13312I59*
G01X2460*
G02X2490Y13283J29*
G01Y12624*
G03X2549Y12565I59*
G01X2849*
G03X2908Y12624J59*
G01Y13671*
G03X2849Y13730I59*
G01X1802*
G03X1743Y13671J59*
G01Y15739*
G03X1745I24J75*
G01Y14009*
G03X1954Y13800I209*
G01X2751*
G03X2960Y14009J209*
X2751Y14219I209*
G01X1954*
G03X1745Y14009J210*
G01Y14521*
G03X1954Y14312I209*
G01X2751*
G03X2960Y14521J209*
X2751Y14730I209*
G01X1954*
G03X1745Y14521J209*
G01Y15021*
G03X1954Y14812I209*
G01X2751*
G03X2960Y15021J209*
X2751Y15230I209*
G01X1954*
G03X1745Y15021J209*
G01Y15521*
G03X1954Y15312I209*
G01X2751*
G03X2960Y15521J209*
X2751Y15730I209*
G01X1954*
G03X1745Y15521J209*
G01Y15739*
G03X1797Y15801I26J75*
G02X1826Y15826I29J4*
X1841Y15822J29*
G03X1954Y15793I113J199*
G01X2751*
G03X2979Y16021J228*
X2751Y16250I228*
G01X1954*
G03X1841Y16220J229*
G02X1826Y16216I15J26*
X1797Y16241J30*
G03X1719Y16306I78J14*
G01X1421*
G02X1392Y16336J30*
X1399Y16355I29*
G03X1414Y16395I44J40*
G01Y16808*
G03X1355Y16867I59*
G01X489*
G03X430Y16808J59*
G01Y17191*
G03X475Y17171I45J39*
G01X1341*
G03X1400Y17230J59*
G01Y17643*
G03X1385Y17682I59*
G02X1377Y17702I22J20*
X1407Y17732I30*
G01X1705*
G03X1745Y17742J78*
G01Y16521*
G03X1954Y16312I209*
G01X2751*
G03X2960Y16521J209*
X2751Y16730I209*
G01X1954*
G03X1745Y16521J209*
G01Y17021*
G03X1954Y16812I209*
G01X2751*
G03X2960Y17021J209*
X2751Y17230I209*
G01X1954*
G03X1745Y17021J209*
G01Y17521*
G03X1954Y17312I209*
G01X2751*
G03X2960Y17521J209*
X2751Y17730I209*
G01X1954*
G03X1745Y17521J209*
G01Y17742*
G03X1784Y17806I40J68*
G02X1813Y17834I29J1*
X1829Y17829J29*
G03X1954Y17793I125J192*
G01X2751*
G03X2979Y18021J228*
X2751Y18250I228*
G01X1954*
G03X1829Y18213J229*
G02X1813Y18208I16J25*
X1783Y18234J30*
G03X1705Y18302I78J10*
G01X1407*
G02X1377Y18332J30*
X1385Y18352I30*
G03X1400Y18391I44J39*
G01Y18804*
G03X1341Y18863I59*
G01X475*
G03X416Y18804J59*
G01Y24921*
X1743*
Y20371*
G03X1745Y20356I59*
G01Y18521*
G03X1954Y18312I209*
G01X2751*
G03X2960Y18521J209*
X2751Y18730I209*
G01X1954*
G03X1745Y18521J209*
G01Y19021*
G03X1954Y18812I209*
G01X2751*
G03X2960Y19021J209*
X2751Y19230I209*
G01X1954*
G03X1745Y19021J209*
G01Y19521*
G03X1954Y19312I209*
G01X2751*
G03X2960Y19521J209*
X2751Y19730I209*
G01X1954*
G03X1745Y19521J209*
G01Y20021*
G03X1954Y19812I209*
G01X2751*
G03X2960Y20021J209*
X2751Y20230I209*
G01X1954*
G03X1745Y20021J209*
G01Y20356*
G03X1802Y20312I57J15*
G01X2849*
G03X2908Y20371J59*
G01Y21418*
G03X2849Y21477I59*
G01X2549*
G03X2490Y21418J59*
G01Y20760*
G02X2460Y20730I30*
G01X1802*
G03X1743Y20671J59*
G01Y24921*
X2983*
Y22001*
G03X2990Y21973I59*
G01Y12774*
G03X3199Y12565I209*
X3408Y12774J209*
G01Y13570*
G03X3199Y13780I209*
X2990Y13570J210*
G01Y20472*
G03X3199Y20263I209*
X3408Y20472J209*
G01Y21269*
G03X3199Y21478I209*
X2990Y21269J209*
G01Y21973*
G03X3042Y21942I52J28*
G01X3278*
G03X3337Y22001J59*
G01Y22395*
G03X3278Y22454I59*
G01X3042*
G03X2983Y22395J59*
G01Y24921*
X5632*
G02X5662Y24892J29*
X5654Y24872I30*
G03X5640Y24833I45J39*
G01Y23613*
G03X5699Y23554I59*
G01X6014*
G03X6068Y23591J59*
G02X6096Y23609I28J12*
X6124Y23589J30*
G03X6199Y23534I75J24*
G01X6514*
G03X6589Y23589J79*
G02X6617Y23609I28J10*
X6644Y23591J30*
G03X6699Y23554I55J22*
G01X7014*
G03X7073Y23613J59*
G01Y24833*
G03X7058Y24872I59*
G02X7051Y24892I22J20*
X7080Y24921I29*
G01X7132*
G02X7162Y24892J29*
X7154Y24872I30*
G03X7140Y24833I45J39*
G01Y23613*
G03X7199Y23554I59*
G01X7364*
G02X7394Y23524J30*
X7382Y23501I30*
G03X7370Y23490I64J87*
G01X7280Y23400*
G03X7249Y23339I76J77*
G02X7220Y23314I29J4*
G01X7199*
G03X7131Y23276J79*
G02X7106Y23262I25J15*
X7081Y23276J29*
G03X7014Y23314I67J41*
G01X6699*
G03X6631Y23276J79*
G02X6606Y23262I25J15*
X6581Y23276J29*
G03X6514Y23314I67J41*
G01X6199*
G03X6131Y23276J79*
G02X6106Y23262I25J15*
X6081Y23276J29*
G03X6014Y23314I67J41*
G01X5699*
G03X5620Y23235J79*
G01Y22014*
G03X5657Y21947I79*
G02X5671Y21922I15J25*
X5642Y21893I29*
G01X4475*
G03X4399Y21861J109*
G01X4122Y21584*
G03X4090Y21507I77J77*
G01Y21487*
G02X4077Y21462I29*
G03X3977Y21326I122J193*
G02X3949Y21304I28J8*
X3920Y21326J30*
G03X3821Y21462I221J57*
G02X3807Y21487I15J25*
G01Y21532*
G02X3818Y21556I29*
G03X3888Y21697I107J141*
X3829Y21829I177*
G02X3819Y21851I20J22*
G01Y21895*
G02X3843Y21924I30*
G03X3908Y22001I14J77*
G01Y22395*
G03X3829Y22473I79*
G01X3593*
G03X3514Y22395J78*
G01Y22001*
G03X3579Y21924I79*
G02X3603Y21895I6J29*
G01Y21851*
G02X3593Y21829I30*
G03X3534Y21697I118J132*
X3582Y21575I177*
G02X3590Y21555I21J20*
G01Y21487*
G02X3577Y21462I29*
G03X3470Y21269I122J193*
G01Y20472*
G03X3699Y20243I229*
X3920Y20415J229*
G02X3949Y20437I29J8*
X3977Y20415J30*
G03X4199Y20243I222J57*
X4420Y20415J229*
G02X4449Y20437I29J8*
X4477Y20415J30*
G03X4699Y20243I222J57*
X4920Y20415J229*
G02X4949Y20437I29J8*
X4977Y20415J30*
G03X5199Y20243I222J57*
X5420Y20415J229*
G02X5449Y20437I29J8*
X5477Y20415J30*
G03X5699Y20243I222J57*
X5920Y20415J229*
G02X5949Y20437I29J8*
X5977Y20415J30*
G03X6199Y20243I222J57*
X6420Y20415J229*
G02X6449Y20437I29J8*
X6477Y20415J30*
G03X6699Y20243I222J57*
X6920Y20415J229*
G02X6949Y20437I29J8*
X6977Y20415J30*
G03X7199Y20243I222J57*
X7427Y20472J229*
G01Y21269*
G03X7199Y21498I228*
X6977Y21326J229*
G02X6949Y21304I28J8*
X6920Y21326J30*
G03X6699Y21498I221J57*
X6477Y21326J229*
G02X6449Y21304I28J8*
X6420Y21326J30*
G03X6199Y21498I221J57*
X5977Y21326J229*
G02X5949Y21304I28J8*
X5920Y21326J30*
G03X5699Y21498I221J57*
X5477Y21326J229*
G02X5449Y21304I28J8*
X5420Y21326J30*
G03X5199Y21498I221J57*
X4977Y21326J229*
G02X4949Y21304I28J8*
X4920Y21326J30*
G03X4699Y21498I221J57*
X4477Y21326J229*
G02X4449Y21304I28J8*
X4420Y21326J30*
G03X4340Y21449I221J57*
G02X4328Y21472I18J23*
X4337Y21493I30*
G01X4512Y21668*
G02X4533Y21676I21J21*
G01X7490*
Y20371*
G03X7549Y20312I59*
G01X8595*
G03X8654Y20371J59*
G01Y20671*
G03X8595Y20730I59*
G01X7937*
G02X7908Y20760J30*
G01Y21418*
G03X7849Y21477I59*
G01X7549*
G03X7490Y21418J59*
G01Y21676*
X9687*
G02X9709Y21666J29*
G03X9841Y21607I132J118*
X9972Y21666J177*
G02X9994Y21676I22J20*
X10024Y21646J30*
G01Y21604*
G03X10103Y21525I79*
G01X10183*
G02X10213Y21495J30*
X10204Y21475I30*
G01X9964Y21235*
G02X9944Y21226I20J21*
G01X9465*
G02X9443Y21236J30*
G03X9311Y21295I132J118*
X9134Y21118J177*
X9169Y21012I177*
G02X9175Y20994I24J18*
X9145Y20964I30*
G01X9007*
G03X8928Y20886J78*
G01Y19390*
G03X9007Y19311I79*
G01X9598*
G03X9676Y19390J79*
G01Y19923*
G02X9706Y19953I30*
X9727Y19944J30*
G01X9940Y19731*
G02X9948Y19710I21J21*
G01Y19297*
G02X9919Y19268I29*
G01X9899*
G03X9820Y19189J79*
G01Y18835*
G03X9845Y18777I79*
G02X9854Y18756I20J21*
X9825Y18726I29*
G01X9503*
G03X9427Y18695J108*
G01X8721Y17989*
G02X8700Y17980I21J21*
X8671Y18010J30*
G01Y18011*
G03Y18021I229J10*
X8500Y18243I229*
G02X8478Y18271I7J28*
X8500Y18300I29*
G03X8671Y18521I58J221*
X8500Y18743I229*
G02X8478Y18771I7J28*
X8500Y18800I29*
G03X8671Y19021I58J221*
X8500Y19243I229*
G02X8478Y19271I7J28*
X8500Y19300I29*
G03X8671Y19521I58J221*
X8500Y19743I229*
G02X8478Y19771I7J28*
X8500Y19800I29*
G03X8671Y20021I58J221*
X8442Y20250I229*
G01X7645*
G03X7417Y20021J229*
X7588Y19800I228*
G02X7610Y19771I7J29*
X7588Y19743I29*
G03X7417Y19521I57J222*
X7588Y19300I228*
G02X7610Y19271I7J29*
X7588Y19243I29*
G03X7417Y19021I57J222*
X7588Y18800I228*
G02X7610Y18771I7J29*
X7588Y18743I29*
G03X7417Y18521I57J222*
X7588Y18300I228*
G02X7610Y18271I7J29*
X7588Y18243I29*
G03X7417Y18021I57J222*
X7588Y17800I228*
G02X7610Y17771I7J29*
X7588Y17743I29*
G03X7452Y17643I57J222*
G02X7427Y17630I25J16*
G01X7372*
G03X7343Y17626J109*
G02X7335Y17625I8J28*
G01X7280*
G02X7258Y17634J29*
G03X7126Y17693I132J118*
X6949Y17516J177*
X7126Y17339I177*
X7258Y17398J177*
G02X7280Y17408I22J20*
G01X7367*
G03X7396Y17412J108*
G02X7404Y17413I8J29*
G01X7427*
G02X7452Y17399J30*
G03X7588Y17300I193J122*
G02X7610Y17271I7J29*
X7588Y17243I29*
G03X7417Y17021I57J222*
X7588Y16800I228*
G02X7610Y16771I7J29*
X7588Y16743I29*
G03X7417Y16521I57J222*
X7588Y16300I228*
G02X7610Y16271I7J29*
X7588Y16243I29*
G03X7417Y16021I57J222*
X7588Y15800I228*
G02X7610Y15771I7J29*
X7588Y15743I29*
G03X7417Y15521I57J222*
X7588Y15300I228*
G02X7610Y15271I7J29*
X7588Y15243I29*
G03X7417Y15021I57J222*
X7588Y14800I228*
G02X7610Y14771I7J29*
X7588Y14743I29*
G03X7417Y14521I57J222*
X7588Y14300I228*
G02X7610Y14271I7J29*
X7588Y14243I29*
G03X7417Y14021I57J222*
X7426Y13955I228*
G02X7428Y13947I28J8*
X7398Y13917I30*
G01X6600*
G03X6523Y13886J108*
G01X6385Y13748*
G02X6364Y13739I21J21*
X6345Y13746J30*
G03X6199Y13799I146J176*
X5977Y13628J229*
G02X5949Y13606I28J7*
X5920Y13628J29*
G03X5699Y13799I221J58*
X5477Y13628J229*
G02X5449Y13606I28J7*
X5420Y13628J29*
G03X5199Y13799I221J58*
X4977Y13628J229*
G02X4949Y13606I28J7*
X4920Y13628J29*
G03X4699Y13799I221J58*
X4477Y13628J229*
G02X4449Y13606I28J7*
X4420Y13628J29*
G03X4199Y13799I221J58*
X3977Y13628J229*
G02X3949Y13606I28J7*
X3920Y13628J29*
G03X3699Y13799I221J58*
X3470Y13570J229*
G01Y12774*
G03X3577Y12580I229*
G02X3590Y12555I16J25*
G01Y12535*
G03X3622Y12458I109*
G01X3785Y12295*
G03X3862Y12264I77J77*
G01X3874*
G02X3904Y12234J30*
G01Y12233*
G03Y12226I177J7*
X4081Y12049I177*
X4258Y12226J177*
X4081Y12403I177*
X4071J177*
G01X4069*
G02X4048Y12411J29*
G01X4011Y12449*
G03X3935Y12480I76J77*
G01X3919*
G02X3898Y12489J30*
G01X3837Y12550*
G02X3828Y12570I21J20*
X3840Y12594I30*
G03X3920Y12716I141J180*
G02X3949Y12738I29J7*
X3977Y12716J29*
G03X4199Y12545I222J58*
X4420Y12716J229*
G02X4449Y12738I29J7*
X4477Y12716J29*
G03X4699Y12545I222J58*
X4780Y12560J229*
G02X4790Y12562I10J28*
X4820Y12532J30*
X4811Y12511I30*
G01X4205Y11905*
G03X4173Y11829I76J76*
G01Y11409*
G02X4144Y11379I29*
X4120Y11392J30*
G03X4071Y11417I49J34*
G01X3778*
G02X3749Y11446J29*
X3750Y11456I29*
G03X3760Y11513I168J57*
X3582Y11690I178*
X3405Y11513J177*
X3464Y11381I177*
G02X3474Y11359I19J22*
G01Y11329*
G02X3466Y11308I29*
G01X3393Y11236*
G02X3372Y11228I21J21*
X3343Y11257J29*
G01Y11358*
G03X3264Y11436I79*
G01X2871*
G03X2792Y11358J78*
G01Y11180*
G02X2762Y11151I30*
G01X2729*
G03X2652Y11119J108*
G01X2581Y11048*
G02X2560Y11039I21J21*
X2531Y11069J30*
G01Y11301*
G03X2452Y11380I79*
G01X1271*
G03X1192Y11301J79*
G01Y10514*
G03X1271Y10435I79*
G01X2452*
G03X2531Y10514J79*
G01Y10770*
G02X2560Y10799I29*
G01X2594*
G03X2670Y10831J108*
G01X2741Y10902*
G02X2762Y10911I21J21*
X2792Y10881J30*
G01Y10728*
G03X2871Y10649I79*
G01X3264*
G03X3343Y10728J79*
G01Y10906*
G02X3368Y10935I29*
G03X3429Y10966I15J108*
G01X3568Y11105*
G02X3589Y11113I21J21*
X3619Y11084J29*
G01Y10728*
G03X3678Y10669I59*
G01X3913*
G02X3943Y10639J30*
X3934Y10618I30*
G01X3707Y10392*
G02X3687Y10383I20J20*
G01X3486*
G02X3464Y10393J29*
G03X3332Y10452I132J118*
X3196Y10388J177*
G02X3181Y10379I23J19*
G03X3134Y10351I30J104*
G01X3009Y10227*
G03X2979Y10165I77J77*
G02X2950Y10140I29J5*
G01X2889*
G03X2810Y10061J79*
G01Y9883*
G02X2785Y9854I29*
G03X2724Y9823I15J108*
G01X2562Y9661*
G02X2541Y9652I21J21*
X2511Y9682J30*
G01Y10162*
G03X2452Y10221I59*
G01X1271*
G03X1212Y10162J59*
G01Y9375*
G03X1271Y9316I59*
G01X1855*
G02X1885Y9286J30*
X1876Y9265I30*
G01X1785Y9174*
G03X1754Y9113I77J76*
G02X1725Y9088I29J4*
G01X1271*
G03X1192Y9009J79*
G01Y8222*
G03X1212Y8170I79*
G01Y7111*
G03X1271Y7052I59*
G01X2452*
G03X2511Y7111J59*
G01Y7898*
G03X2452Y7957I59*
G01X1271*
G03X1212Y7898J59*
G01Y8170*
G03X1271Y8143I59J52*
G01X2452*
G03X2531Y8222J79*
G01Y9009*
G03X2452Y9088I79*
G01X2076*
G02X2047Y9117J29*
X2055Y9138I29*
G01X2086Y9169*
G02X2107Y9178I21J21*
G01X2489*
G03X2565Y9210J108*
G01X2617Y9262*
G03X2649Y9338I76J76*
G01Y9430*
G02X2658Y9451I29*
G01X2760Y9553*
G02X2781Y9561I21J21*
X2810Y9532J29*
G01Y9432*
G03X2889Y9353I79*
G01X3283*
G03X3361Y9432J79*
G01Y10061*
G03Y10072I78*
G02X3360Y10076I29J4*
X3382Y10105I30*
G03X3464Y10157I50J170*
G02X3486Y10166I22J20*
G01X3650*
G02X3679Y10137J29*
X3665Y10112I29*
G03X3637Y10061I31J51*
G01Y9432*
G03X3696Y9372I59*
G01X4090*
G03X4149Y9432J60*
G01Y10061*
G03X4090Y10120I59*
G01X3802*
G02X3773Y10150J30*
X3790Y10177I29*
G03X3820Y10198I46J98*
G01X4358Y10736*
G03X4377Y10762I77J77*
G02X4403Y10777I26J14*
X4433Y10748J29*
G01Y10713*
G03X4441Y10683I59*
G01Y9684*
G03X4500Y9625I59*
G01X5130*
G03X5189Y9684J59*
G01Y10078*
G03X5130Y10137I59*
G01X4500*
G03X4441Y10078J59*
G01Y10683*
G03X4492Y10654I51J30*
G01X5122*
G03X5181Y10713J59*
G01Y11106*
G03X5122Y11165I59*
G01X4492*
G03X4443Y11140J59*
G02X4419Y11128I24J18*
X4390Y11158J30*
G01Y11439*
G02X4419Y11469I29*
X4439Y11461J30*
G03X4492Y11441I53J59*
G01X5095*
G02X5124Y11417J29*
G03X5299Y11269I175J30*
X5476Y11447J178*
X5469Y11497I177*
G02X5467Y11505I28J8*
X5477Y11527I30*
G01Y9392*
G03X5536Y9333I59*
G01X6717*
G03X6776Y9392J59*
G01Y10179*
G03X6717Y10238I59*
G01X5536*
G03X5477Y10179J59*
G01Y10466*
G03X5536Y10407I59*
G01X6717*
G03X6776Y10466J59*
G01Y11254*
G03X6717Y11313I59*
G01X5536*
G03X5477Y11254J59*
G01Y11527*
G02X5497Y11535I20J22*
X5508Y11533J30*
G03X5536Y11527I28J73*
G01X5990*
G02X6020Y11502J29*
G03X6050Y11441I107J16*
G01X6082Y11409*
G03X6159Y11377I77J77*
G01X6924*
Y10132*
G03X6983Y10073I59*
G01X8164*
G03X8223Y10132J59*
G01Y10920*
G03X8164Y10979I59*
G01X6983*
G03X6924Y10920J59*
G01Y11377*
X9768*
G02X9798Y11348J29*
Y11345I30*
G03X9797Y11338I58J7*
G01Y11240*
G03X9801Y11220I59*
G02X9802Y11210I28J10*
X9796Y11191I29*
G03X9778Y11141I60J50*
G01Y11043*
G03X9780Y11022I78*
G02X9781Y11015I28J7*
X9774Y10995I29*
G01X9765Y10986*
G02X9743Y10976I22J19*
X9739J29*
G03X9727Y10977I12J78*
G01X8546*
G03X8467Y10898J79*
G01Y10111*
G03X8546Y10032I79*
G01X8731*
G02X8761Y10003J29*
X8752Y9982I30*
G01X8680Y9910*
G03X8650Y9849I77J77*
G02X8620Y9823I30J4*
G01X8560*
G03X8481Y9745J78*
G01Y9115*
G03X8486Y9087I79*
G02X8488Y9076I27J11*
X8459Y9047I29*
G01X8226*
G02X8197Y9076J29*
X8200Y9089I29*
G03X8206Y9115I53J26*
G01Y9745*
G03X8147Y9804I59*
G01X7753*
G03X7694Y9745J59*
G01Y9115*
G03X7700Y9089I59*
G02X7703Y9076I27J13*
X7673Y9047I30*
G01X7057*
G03X6980Y9015J109*
G01X6847Y8881*
G02X6826Y8873I21J21*
X6796Y8902J29*
G01Y9077*
G03X6717Y9155I79*
G01X5536*
G03X5458Y9077J78*
G01Y9059*
G02X5428Y9029I30*
X5407Y9038J30*
G01X5295Y9150*
G03X5234Y9181I77J76*
G02X5209Y9210I4J29*
G01Y9271*
G03X5130Y9349I79*
G01X4500*
G03X4421Y9271J78*
G01Y8877*
G03X4500Y8798I79*
G01X4660*
G02X4689Y8769J29*
X4682Y8749I29*
G03X4637Y8632I133J117*
X4815Y8454I178*
X4992Y8632J178*
X4947Y8749I177*
G02X4940Y8769I22J20*
X4969Y8798I29*
G01X5130*
G03X5208Y8865J79*
G02X5237Y8890I29J5*
X5258Y8881J30*
G01X5331Y8808*
G02X5339Y8787I21J21*
G01Y8683*
G03X5432Y8576I109*
G02X5458Y8547I4J29*
G01Y8289*
G03X5536Y8211I78*
G01X6691*
G02X6720Y8181J30*
G01Y7811*
G02X6717Y7799I29*
G03X6701Y7723I161J76*
X6878Y7546I177*
X7055Y7723J177*
X7038Y7799I177*
G02X7035Y7811I27J12*
G01Y8389*
G02X7044Y8410I30*
G01X7116Y8482*
G02X7127Y8489I21J21*
G03X7244Y8656I60J167*
X7193Y8780I177*
G02X7185Y8800I21J20*
X7214Y8830I29*
G01X7709*
G02X7738Y8800J30*
X7718Y8772I29*
G03X7663Y8697I24J75*
G01Y8067*
G03X7730Y7990I79*
G02X7755Y7960I5J30*
X7746Y7940I30*
G01X7713Y7906*
G03X7681Y7830I77J76*
G01Y7796*
G02X7652Y7766I29*
G01X7199*
G03X7120Y7687J79*
G01Y6900*
G03X7199Y6821I79*
G01X8380*
G03X8459Y6900J79*
G01Y7687*
G03X8380Y7766I79*
G01X7950*
G02X7921Y7796J30*
X7930Y7817I29*
G01X8015Y7902*
G03X8046Y7963I76J77*
G02X8075Y7989I29J4*
G01X8136*
G03X8214Y8067J78*
G01Y8246*
G02X8240Y8275I30*
G03X8301Y8306I16J107*
G01X8440Y8445*
G02X8460Y8453I20J21*
X8490Y8424J29*
G01Y8067*
G03X8549Y8008I59*
G01X8943*
G03X9002Y8067J59*
G01Y8658*
G02X9031Y8688I29*
G01X9313*
G02X9335Y8678J30*
G03X9467Y8619I132J118*
X9644Y8796J177*
Y8806I177*
G01Y8807*
G02X9652Y8828I29*
G01X10918Y10094*
G02X10938Y10102I20J21*
X10968Y10073J29*
X10967Y10065I30*
G03X10961Y10020I171J45*
X11138Y9843I177*
X11315Y10020J177*
Y10030I177*
G01Y10031*
G02X11324Y10052I30*
G01X11408Y10136*
G02X11428Y10145I20J21*
X11458Y10115J30*
Y10112I30*
G03X11457Y10092I176J20*
X11584Y9922I177*
G02X11605Y9893I8J29*
X11596Y9872I29*
G01X9936Y8212*
G03X9904Y8135I76J77*
G01Y7771*
G02X9874Y7741I30*
G01X8718*
G03X8659Y7682J59*
G01Y6895*
G03X8718Y6836I59*
G01X8910*
G02X8940Y6806J30*
X8939Y6803I30*
G03Y6795I59J8*
G01Y6441*
G03X8998Y6382I59*
G01X9313*
G03X9372Y6441J59*
G01Y6795*
G03Y6803I59*
G02X9371Y6806I29J3*
X9401Y6836I30*
G01X9638*
G02X9668Y6806J30*
Y6803I30*
G03X9667Y6795I78J8*
G01Y6441*
G03X9746Y6362I79*
G01X9931*
G02X9960Y6333J29*
X9952Y6312I29*
G01X9948Y6308*
G02X9927Y6300I21J21*
G01X8915*
G03X8838Y6268J108*
G01X8481Y5911*
G03X8450Y5834I77J77*
G01Y5159*
G02X8441Y5138I30*
G01X7859Y4557*
G02X7839Y4548I20J21*
G01X6381*
G02X6359Y4558J30*
G03X6227Y4617I132J118*
X6050Y4440J177*
X6081Y4340I177*
G02X6086Y4324I24J16*
X6073Y4299I29*
G03X5992Y4151I96J148*
X6067Y4006I177*
G02X6079Y3982I17J24*
X6062Y3955I29*
G03X5958Y3794I73J161*
X6135Y3617I177*
X6165Y3619J177*
G02X6170Y3620I5J29*
X6196Y3603J30*
G01X6203Y3589*
G02X6206Y3576I27J13*
X6196Y3554I30*
G03X6139Y3424I121J130*
X6317Y3247I178*
X6449Y3306J177*
G02X6471Y3316I22J20*
G01X6611*
G03X6629Y3317J108*
G02X6634Y3318I5J29*
X6664Y3288J30*
X6655Y3267I30*
G01X6615Y3227*
G02X6594Y3218I21J21*
G01X6592*
G03X6582Y3219I10J177*
X6405Y3041J178*
X6582Y2864I177*
X6711Y2920J177*
G02X6732Y2929I21J21*
X6761Y2905J30*
G03X6936Y2759I175J31*
X7068Y2818J177*
G02X7090Y2828I22J19*
G01X8404*
G03X8424Y2830J108*
G02X8430I6J29*
X8459Y2801J29*
X8451Y2780I29*
G01X7889Y2218*
G02X7868Y2210I21J21*
G01X7826*
G02X7805Y2218J29*
G01X7431Y2593*
G02X7424Y2604I21J21*
G03X7257Y2721I167J60*
X7080Y2544J177*
X7197Y2377I177*
G02X7208Y2370I10J28*
G01X7637Y1941*
G03X7748Y1895I111J111*
G01X7758*
G02X7788Y1865J30*
G01Y1024*
G02X7758Y994I30*
G01X7749*
G03X7670Y916J78*
G01Y286*
G03X7749Y207I79*
G01X8142*
G03X8221Y286J79*
G01Y916*
G03X8142Y994I79*
G01X8132*
G02X8103Y1024J30*
G01Y1975*
G02X8112Y1996I29*
G01X8477Y2361*
Y286*
G03X8556Y207I79*
G01X8949*
G03X9028Y286J79*
G01Y454*
G02X9058Y484I30*
X9075Y478J30*
G03X9179Y445I104J144*
X9356Y622J177*
X9179Y799I177*
X9075Y765J177*
G02X9058Y760I17J24*
X9028Y789J29*
G01Y916*
G03X8949Y994I79*
G01X8556*
G03X8477Y916J78*
G01Y2361*
X8691Y2575*
G02X8712Y2584I21J20*
X8742Y2555J29*
G01Y2524*
Y2523*
G03X8820Y2445I78J1*
G01X8830*
G02X8860Y2415J30*
G01Y2389*
G03X8906Y2278I157*
G01X9013Y2171*
G03X9125Y2124I112J111*
G01X10686*
G02X10716Y2095J29*
X10706Y2073I30*
G03X10699Y2066I119J132*
G01X10306Y1673*
G02X10285Y1665I21J21*
G01X9879*
G03X9800Y1586J79*
G01Y995*
G03X9879Y917I79*
G01X10469*
G03X10548Y995J78*
G01Y1402*
G02X10557Y1423I30*
G01X10800Y1666*
Y1291*
G03X11174Y917I374*
X11548Y1291J374*
X11174Y1665I374*
X10800Y1291J374*
G01Y1666*
X10950Y1816*
G03X11002Y1937I125J125*
G02X11031Y1965I29J1*
G01X11761*
Y1291*
G03X12174Y877I413*
X12587Y1291J414*
X12174Y1704I413*
X11761Y1291J413*
G01Y1965*
X14079*
G02X14108Y1936J29*
X14105Y1921I29*
G03X14074Y1806I206J115*
G01Y1686*
G02X14045Y1657I29*
G01X14015*
G03X13937Y1578J79*
G01Y987*
G03X14015Y909I78*
G01X14606*
G03X14685Y987J78*
G01Y1578*
G03X14606Y1657I79*
G01X14576*
G02X14547Y1686J29*
G01Y1806*
G03Y1816I236*
G01Y1818*
G02X14576Y1847I29*
G01X14937*
Y1283*
G03X15311Y909I374*
X15685Y1283J374*
X15311Y1657I374*
X14937Y1283J374*
G01Y1847*
X15897*
Y1283*
G03X16311Y869I414*
X16724Y1283J414*
X16311Y1696I413*
X15897Y1283J413*
G01Y1847*
X18091*
Y1023*
G03X18169Y944I78*
G01X18760*
G03X18839Y1023J79*
G01Y1614*
G03X18760Y1692I79*
G01X18169*
G03X18091Y1614J78*
G01Y1847*
X18866*
G03X18942Y1879J109*
G01X19091Y2027*
Y1318*
G03X19465Y944I374*
X19839Y1318J374*
X19804Y1477I374*
G02X19801Y1489I26J12*
X19809Y1510I29*
G01X20051Y1752*
Y1318*
G03X20465Y905I414*
X20878Y1318J413*
X20465Y1732I413*
X20051Y1318J414*
G01Y1752*
X22132Y3833*
G02X22153Y3841I21J21*
G01X22222*
Y1005*
G03X22300Y926I78*
G01X22891*
G03X22970Y1005J79*
G01Y1595*
G03X22891Y1674I79*
G01X22300*
G03X22222Y1595J79*
G01Y3841*
X23222*
Y1300*
G03X23596Y926I374*
X23970Y1300J374*
X23596Y1674I374*
X23222Y1300J374*
G01Y3841*
X23343*
G03X23416Y3870J109*
G02X23436Y3878I20J22*
X23452Y3873J30*
G03X23823Y3761I371J557*
X24182Y3865J669*
G01Y1300*
G03X24596Y887I414*
X25009Y1300J413*
X24596Y1713I413*
X24182Y1300J413*
G01Y3865*
G03X24492Y4430I359J565*
G01Y5217*
G03X23823Y5887I669*
X23154Y5217J670*
G01Y4430*
G03X23239Y4102I669*
G02X23243Y4088I25J14*
X23214Y4058I29*
G01X22096*
G03X22020Y4026J108*
G01X19656Y1663*
G02X19635Y1654I21J21*
X19623Y1657J30*
G03X19465Y1692I158J339*
X19091Y1318J374*
G01Y2027*
X20208Y3145*
G03X20240Y3222I76J77*
G01Y11220*
G02X20270Y11250I30*
G01X20271*
G03X20274I3J59*
G01X20628*
G03X20687Y11309J59*
G01Y11624*
G03X20628Y11683I59*
G01X20274*
G03X20271J59*
G01X20270*
G02X20240Y11712J29*
G01Y11949*
G02X20270Y11978I30*
G01X20271*
G03X20274I3J79*
G01X20628*
G03X20694Y12013J79*
G01Y9308*
G03X20871Y9130I177*
X21048Y9308J178*
Y9317I177*
G01Y9319*
G02X21057Y9340I29*
G01X21315Y9599*
G03X21347Y9675I76J76*
G01Y11575*
G02X21370Y11603I29*
G01Y7995*
G03X21547Y7818I177*
X21679Y7877J177*
G02X21701Y7887I22J20*
G01X21741*
G02X21762Y7878J30*
G01X21852Y7788*
G03X21929Y7756I77J76*
G01X21954*
G02X21983Y7727J29*
G01Y7668*
G03X22062Y7589I79*
G01X22298*
G03X22377Y7668J79*
G01Y8061*
G03X22298Y8140I79*
G01X22062*
G03X21983Y8061J79*
G01Y8034*
G02X21954Y8005I29*
X21933Y8013J29*
G01X21875Y8072*
G03X21798Y8104I77J77*
G01X21701*
G02X21679Y8113J29*
G03X21547Y8172I132J118*
X21370Y7995J177*
G01Y11603*
G02X21376Y11604I6J28*
G01X21416*
G03X21495Y11683J79*
G01Y11998*
G03X21416Y12077I79*
G01X21061*
G03X20983Y11998J79*
G01Y11683*
G03X21061Y11604I78*
G01X21101*
G02X21130Y11575J29*
G01Y9732*
G02X21122Y9711I29*
G01X20903Y9493*
G02X20883Y9484I20J21*
G01X20881*
G03X20871Y9485I10J176*
X20694Y9308J177*
G01Y12013*
G03X20707Y12057I66J44*
G01Y12372*
G03X20628Y12451I79*
G01X20589*
G02X20560Y12480J29*
G01Y12957*
G03X20528Y13033I109*
G01X20052Y13509*
G03X20043Y13517I76J77*
G02X20032Y13540I18J23*
X20061Y13570I29*
G01X20067*
G03X20146Y13649J79*
G01Y13964*
G03X20067Y14042I79*
G01X19799*
G02X19779Y14051J30*
G01X19759Y14070*
G02X19750Y14091I21J21*
X19780Y14121I30*
G01X20362*
G02X20382Y14112J30*
G01X20776Y13719*
G02X20785Y13698I21J21*
X20755Y13668I30*
G01X20500*
G03X20422Y13590J78*
G01Y13275*
G03X20500Y13196I78*
G01X20855*
G03X20926Y13241J79*
G02X20952Y13258I26J13*
X20973Y13249J30*
G01X21743Y12479*
Y11144*
G03X21921Y10967I178*
X22053Y11026J177*
G02X22075Y11036I22J20*
G01X22108*
G02X22129Y11027J30*
G01X22244Y10912*
G02X22252Y10892I21J20*
X22223Y10862I29*
G01X21827*
G03X21748Y10783J79*
G01Y10193*
G03X21827Y10114I79*
G01X23047*
G03X23126Y10193J79*
G01Y10783*
G03X23047Y10862I79*
G01X22574*
G02X22544Y10887J30*
G03X22514Y10948I107J15*
G01X22242Y11220*
G03X22165Y11252I77J76*
G01X22075*
G02X22053Y11262J30*
G03X21921Y11321I132J118*
X21743Y11144J177*
G01Y12479*
X22394Y11828*
G02X22402Y11807I21J21*
G01Y11474*
G02X22393Y11452I29*
G03X22333Y11320I118J132*
X22511Y11142I178*
X22688Y11320J178*
X22629Y11452I177*
G02X22619Y11474I19J22*
G01Y11865*
G03X22587Y11941I108*
G01X21772Y12756*
G02X21764Y12777I21J21*
X21793Y12806I29*
G01X22203*
G02X22225Y12797J29*
G03X22357Y12738I132J118*
X22534Y12915J177*
X22481Y13041I177*
G02X22472Y13062I21J21*
X22502Y13092I30*
G01X23050*
G03X23128Y13161J78*
G02X23157Y13187I29J4*
X23170Y13184J30*
G03X23249Y13165I79J158*
X23426Y13342J177*
X23249Y13520I177*
G02X23229Y13528I1J29*
G01X23215Y13542*
G03X23154Y13573I77J76*
G02X23128Y13602I4J29*
G01Y13761*
G03X23050Y13840I78*
G01X21829*
G03X21750Y13761J79*
G01Y13170*
G03X21829Y13092I79*
G01X22212*
G02X22242Y13062J30*
X22233Y13041I30*
G03X22225Y13033I124J126*
G02X22203Y13023I22J19*
G01X21790*
G02X21769Y13032J29*
G01X20669Y14132*
G02X20660Y14153I20J21*
X20685Y14182I29*
G03X20838Y14358I24J176*
X20779Y14490I177*
G02X20769Y14512I19J22*
G01Y14761*
G02X20798Y14790I29*
G01X20838*
G03X20917Y14869J79*
G01Y15184*
G03X20838Y15263I79*
G01X20484*
G03X20405Y15184J79*
G01Y14869*
G03X20484Y14790I79*
G01X20523*
G02X20552Y14761J29*
G01Y14512*
G02X20542Y14490I29*
G03X20483Y14362I119J132*
G02X20454Y14333I29*
X20446Y14334J29*
G03X20419Y14337I27J105*
G01X19745*
G02X19724Y14346J30*
G01X19685Y14385*
G02X19676Y14406I21J21*
X19706Y14436I30*
G01X20051*
G03X20110Y14495J59*
G01Y14810*
G03X20051Y14869I59*
G01X19696*
G03X19637Y14810J59*
G01Y14504*
G02X19608Y14475I29*
X19587Y14483J29*
G01X18671Y15399*
G02X18663Y15420I21J21*
X18692Y15450I29*
G01X18820*
G02X18841Y15441J30*
G01X18958Y15324*
G03X19034Y15292I76J76*
G01X19588*
G02X19618Y15262J30*
G01Y15243*
G03X19696Y15164I78*
G01X20051*
G03X20130Y15243J79*
G01Y15558*
G03X20051Y15637I79*
G01X19696*
G03X19618Y15558J79*
G01Y15538*
G02X19588Y15509I30*
G01X19091*
G02X19070Y15517J29*
G01X18953Y15634*
G03X18877Y15666I76J76*
G01X18839*
G02X18809Y15696J30*
X18818Y15716I30*
G01X19615Y16514*
Y15978*
G03X19675Y15919I60*
G01X20029*
G03X20088Y15978J59*
G01Y16293*
G03X20029Y16352I59*
G01X19675*
G03X19615Y16293J59*
G01Y16514*
X19740Y16639*
G02X19761Y16647I21J21*
G01X20029*
G03X20108Y16726J79*
G01Y17041*
G03X20107Y17051I79*
G02Y17055I29J4*
X20136Y17084I29*
G01X20383*
Y16352*
G03X20462Y16273I79*
G01X20495*
G02X20525Y16244J29*
X20513Y16220I30*
G03X20439Y16076I103J144*
X20616Y15899I177*
X20794Y16076J177*
X20754Y16188I178*
G02X20747Y16207I23J19*
G01Y16244*
G02X20777Y16273I30*
G01X20816*
G03X20895Y16352J79*
G01Y16667*
G03X20816Y16746I79*
G01X20462*
G03X20383Y16667J79*
G01Y17084*
X21205*
G02X21234Y17055J29*
X21216Y17027I29*
G03X21071Y16809I92J218*
X21141Y16642I237*
G01X21418Y16365*
Y14563*
G03X21595Y14386I177*
X21606Y14387J177*
G01X21608*
G02X21626Y14380J30*
G03X21693Y14357I67J86*
G01X21721*
G02X21750Y14328J29*
G01Y14170*
G03X21829Y14092I79*
G01X23050*
G03X23128Y14170J78*
G01Y14761*
G03X23050Y14840I78*
G01X21829*
G03X21750Y14761J79*
G01Y14728*
G02X21721Y14698I29*
X21703Y14704J30*
G03X21595Y14741I108J141*
X21418Y14563J178*
G01Y16365*
X21793Y15990*
G03X21960Y15921I167J167*
G01X22975*
G02X23005Y15891J30*
X22996Y15870I30*
G03X22850Y15519I349J351*
X23345Y15023I495*
X23670Y15145J496*
G02X23689Y15152I19J22*
X23719Y15123J29*
G01Y14670*
G03X23798Y14592I79*
G01X24811*
G02X24841Y14562J30*
G01Y14369*
G02X24811Y14340I30*
G01X23640*
G03X23561Y14261J79*
G01Y13670*
G03X23640Y13592I79*
G01X24113*
G02X24142Y13562J30*
G01Y13501*
G03X24174Y13425I108*
G01X24310Y13289*
G02X24318Y13268I21J21*
G01Y13267*
G03Y13257I177J10*
X24419Y13097I177*
G02X24435Y13070I13J27*
X24427Y13049I29*
G01X24304Y12927*
G03X24195Y12662I265J265*
G01Y11687*
G03X24314Y11413I374*
G02X24324Y11392I20J21*
X24294Y11362I30*
G01X23846*
G02X23816Y11392J30*
X23817Y11400I30*
G03X23838Y11541I474J141*
X23343Y12036I495*
X22847Y11541J495*
X23343Y11046I496*
X23668Y11168J495*
G02X23687Y11175I19J23*
X23717Y11145J30*
G01Y10693*
G03X23795Y10614I78*
G01X24772*
G02X24793Y10605J30*
G01X24830Y10568*
G02X24839Y10547I21J21*
G01Y10392*
G02X24809Y10362I30*
G01X23638*
G03X23559Y10283J79*
G01Y10124*
G02X23534Y10095I29*
G03X23473Y10065I15J107*
G01X23178Y9769*
X23177Y9768*
G02X23156Y9759I21J21*
X23126Y9787J30*
G03X23047Y9862I79J4*
G01X21827*
G03X21748Y9783J79*
G01Y9193*
G03X21827Y9114I79*
G01X22299*
G02X22329Y9084J30*
G01Y8990*
G02X22324Y8974I30*
G03X22295Y8877I148J97*
X22472Y8700I177*
X22650Y8877J177*
X22560Y9031I178*
G02X22545Y9057I15J26*
G01Y9084*
G02X22575Y9114I30*
G01X23047*
G03X23098Y9132J79*
G02X23116Y9139I18J23*
X23146Y9109J30*
G01Y8523*
G02X23137Y8502I30*
G01X22784Y8149*
G02X22763Y8140I21J20*
G01X22613*
G03X22535Y8061J79*
G01Y7668*
G03X22613Y7589I78*
G01X22850*
G03X22928Y7668J79*
G01Y7975*
G02X22937Y7995I30*
G01X23331Y8389*
G03X23362Y8466I77J77*
G01Y9636*
G02X23371Y9657I30*
G01X23509Y9794*
G02X23530Y9803I21J21*
X23559Y9773J30*
G01Y9693*
G03X23638Y9614I79*
G01X24809*
G02X24839Y9584J30*
G01Y8682*
G02X24830Y8661I30*
G01X23443Y7274*
G02X23422Y7266I21J21*
X23406Y7271J29*
G03X23035Y7383I371J558*
G01X22248*
G03X21579Y6713J670*
X22248Y6044I669*
G01X23035*
G03X23705Y6713J669*
X23593Y7084I670*
G02X23588Y7100I24J16*
X23596Y7121I29*
G01X25024Y8548*
G03X25055Y8625I77J77*
G01Y10604*
G03X25024Y10681I108*
G01X24946Y10758*
G02X24937Y10779I21J21*
G01Y11283*
G03X24858Y11362I79*
G01X24844*
G02X24814Y11392J30*
X24823Y11413I30*
G03X24943Y11687I254J274*
G01Y12495*
G02X24951Y12516I29*
G01X25479Y13044*
G03X25589Y13308I264J264*
G01Y14743*
G03X25479Y15007I374*
G01X24665Y15822*
G03X24400Y15932I265J264*
X24375Y15931J374*
G01X24373*
G02X24353Y15939J29*
G01X23968Y16324*
G03X23801Y16393I167J167*
G01X22070*
G02X22049Y16402J30*
G01X21475Y16977*
G03X21399Y17027I167J168*
G02X21381Y17055I12J28*
X21411Y17084I30*
G01X21522*
G02X21543Y17075J29*
G01X22068Y16550*
G03X22145Y16518I77J76*
G01X23072*
G03X23148Y16550J108*
G01X23290Y16691*
G03X23321Y16768I77J77*
G01Y17005*
G02X23351Y17034I30*
G01X23469*
G03X23548Y17113J79*
G01Y17185*
G02X23577Y17214I29*
X23598Y17206J29*
G01X23686Y17117*
G03X23747Y17087I77J77*
G02X23773Y17058I4J29*
G01Y16997*
G03X23851Y16918I78*
G01X24088*
G03X24166Y16997J79*
G01Y17391*
G03X24088Y17470I78*
G01X23875*
G02X23846Y17498J29*
G03X23668Y17670I178J5*
X23590Y17652J177*
G02X23577Y17649I13J26*
X23548Y17678J29*
G01Y17900*
G03X23469Y17979I79*
G01X23351*
G03X23322Y17974J79*
G02X23312Y17972I10J27*
X23301Y17974J29*
G03X23272Y17979I29J74*
G01X23154*
G03X23125Y17974J79*
G02X23115Y17972I10J27*
X23104Y17974J29*
G03X23075Y17979I29J74*
G01X22957*
G03X22929Y17974J79*
G02X22918Y17972I11J27*
X22907Y17974J29*
G03X22878Y17979I29J74*
G01X22760*
G03X22732Y17974J79*
G02X22721Y17972I11J27*
X22710Y17974J29*
G03X22682Y17979I28J74*
G01X22563*
G03X22485Y17900J79*
G01Y17675*
G02X22455Y17645I30*
X22434Y17654J30*
G01X22371Y17717*
G03X22295Y17749I76J77*
G01X21984*
G02X21954Y17778J29*
X21967Y17802I30*
G03X22001Y17867I44J65*
G01Y18261*
G03X21937Y18339I78*
G02X21913Y18368I5J29*
G01Y18504*
G02Y18509I29*
G03X21914Y18512I107J17*
G02X21938Y18537I29J4*
G03X22003Y18614I14J77*
G01Y18675*
G02X22029Y18704I30*
G03X22090Y18735I16J107*
G01X22113Y18758*
G02X22134Y18767I21J21*
X22145Y18764J30*
G01X22158Y18759*
G02X22176Y18732I12J27*
Y18729I30*
G03X22174Y18709I176J20*
X22352Y18532I178*
X22484Y18591J177*
G02X22506Y18601I22J19*
G01X22575*
G03X22652Y18633J108*
G01X22896Y18877*
G03X22928Y18953I77J76*
G02X22957Y18983I29*
G01X23075*
G03X23085Y18984J59*
G02X23090I5J29*
X23108Y18978J29*
G03X23154Y18963I46J64*
G01X23272*
G03X23301Y18969J79*
G02X23312Y18971I11J28*
X23322Y18969J30*
G03X23351Y18963I29J73*
G01X23469*
G03X23548Y19042J79*
G01Y19251*
G02X23577Y19281I29*
X23604Y19263J30*
G03X23766Y19159I162J73*
X23822Y19169J177*
G01Y18809*
G03X24000Y18631I178*
X24132Y18690J178*
G02X24154Y18700I22J19*
G01X24223*
G02X24226J29*
G03X24240Y18699I14J108*
G01X24253*
G02X24282Y18670J29*
G01Y18611*
G03X24347Y18533I79*
G02X24372Y18508I5J29*
G03Y18504I107J14*
G02X24373Y18499I29J5*
G01Y18377*
G02X24348Y18348I30*
G03X24284Y18270I15J78*
G01Y17876*
G03X24344Y17800I79*
G01Y16997*
G03X24403Y16938I59*
G01X24639*
G03X24698Y16997J59*
G01Y17391*
G03X24639Y17450I59*
G01X24403*
G03X24344Y17391J59*
G01Y17800*
G03X24363Y17798I19J76*
G01X24599*
G03X24678Y17876J78*
G01Y18270*
G03X24613Y18348I79*
G02X24589Y18377I6J29*
G01Y18505*
G02X24613Y18534I30*
G03X24676Y18611I16J77*
G01Y19004*
G03X24597Y19083I79*
G01X24361*
G03X24282Y19004J79*
G01Y18946*
G02X24253Y18916I29*
X24250J30*
G03X24239Y18917I11J107*
G01X24154*
G02X24132Y18927J29*
G03X24000Y18986I132J118*
X23822Y18809J177*
G01Y19169*
G03X23943Y19336I56J167*
X23766Y19514I177*
X23755Y19513J178*
G01X23753*
G02X23734Y19520J30*
G03X23666Y19544I68J84*
G01X23577*
G02X23548Y19574J30*
G01Y19684*
G02X23577Y19714I29*
X23583Y19713J30*
G03X23604Y19711I21J107*
G01X23838*
G02X23860Y19701J29*
G03X23992Y19642I132J119*
X24170Y19820J178*
X23992Y19997I178*
X23860Y19938J177*
G02X23838Y19928I22J19*
G01X23661*
G02X23640Y19936J29*
G01X23582Y19995*
G03X23506Y20026I76J77*
G01X23213*
G03X23105Y19918J108*
G02X23075Y19888I30*
G01X22957*
G03X22947J59*
G02X22942Y19887I5J29*
X22925Y19893J30*
G03X22878Y19908I47J64*
G01X22760*
G03X22732Y19903J79*
G02X22721Y19901I11J27*
X22710Y19903J29*
G03X22682Y19908I28J74*
G01X22563*
G03X22485Y19829J79*
G01Y19574*
G02X22455Y19544I30*
G01X22402*
G02X22384Y19550J30*
G03X22275Y19588I109J140*
X22098Y19410J178*
X22175Y19264I177*
G02X22188Y19240I17J24*
X22162Y19211I30*
G03X22018Y19086I26J175*
G02X21990Y19065I28J8*
X21972Y19071J29*
G03X21924Y19087I48J63*
G01X21688*
G03X21609Y19008J79*
G01Y18614*
G03X21673Y18537I79*
G02X21696Y18508I6J29*
G01Y18368*
G02X21672Y18339I29*
G03X21608Y18261I14J78*
G01Y17867*
G03X21642Y17802I78*
G02X21655Y17778I17J24*
X21625Y17749I30*
G01X19888*
G02X19867Y17757J29*
G01X19784Y17840*
G03X19707Y17872I77J76*
G01X19238*
G02X19209Y17901J29*
X19211Y17913I29*
G03X19216Y17936I54J23*
G01Y18291*
G03X19157Y18350I59*
G01X18842*
G03X18783Y18291J59*
G01Y17936*
G03X18788Y17913I59*
G02X18790Y17901I27J12*
X18761Y17872I29*
G01X18511*
G02X18482Y17901J29*
X18483Y17911I29*
G03X18488Y17936I74J25*
G01Y18291*
G03X18409Y18370I79*
G01X18389*
G02X18360Y18398J29*
G03X18328Y18471I109J4*
G01X18185Y18614*
G03X18108Y18646I77J76*
G01X17040*
G02X17011Y18676J30*
X17015Y18691I29*
G03X17026Y18732I67J41*
G01Y19086*
G03X16948Y19165I78*
G01X16928*
G02X16898Y19194J29*
G01Y19216*
G03X16867Y19292I108*
G01X16856Y19303*
G02X16847Y19324I21J21*
X16877Y19354I30*
G01X16957*
G03X17036Y19432J78*
G01Y20928*
G03X16957Y21007I79*
G01X16367*
G03X16288Y20928J79*
G01Y19432*
G03X16367Y19354I79*
G01X16526*
G02X16555Y19328J30*
G03X16586Y19267I107J16*
G01X16638Y19214*
G02X16647Y19193I20J21*
X16622Y19164I29*
G03X16554Y19086I11J78*
G01Y18732*
G03X16633Y18653I79*
G01X16850*
G02X16879Y18624J29*
X16871Y18603I29*
G01X16714Y18446*
G03X16682Y18372I76J77*
G02X16652Y18344I30J1*
X16631Y18353J29*
G03X16574Y18378I57J54*
G01X16259*
G03X16180Y18299J79*
G01Y17944*
G03X16225Y17873I79*
G02X16242Y17847I13J26*
X16233Y17826I30*
G01X16009Y17602*
G02X15988Y17594I21J21*
X15959Y17623J29*
G01Y21049*
G02X15968Y21070I29*
G01X16063Y21165*
G02X16084Y21173I21J21*
G01X16085*
G03X16095I10J177*
X16272Y21350J177*
X16095Y21527I177*
X15918Y21350J177*
Y21340I177*
G01Y21339*
G02X15910Y21318I29*
G01X15774Y21182*
G03X15742Y21106I77J76*
G01Y20931*
G02X15713Y20902I29*
X15685Y20922J29*
G03X15611Y20974I74J26*
G01X15020*
G03X14941Y20896J78*
G01Y19400*
G03X14960Y19349I79*
G02X14967Y19330I23J19*
X14937Y19300I30*
G01X14806*
G03X14727Y19222J78*
G01Y18867*
G03X14806Y18789I79*
G01X15121*
G03X15200Y18867J78*
G01Y18908*
G02X15225Y18937I29*
G03X15286Y18968I16J108*
G01X15392Y19074*
G03X15424Y19150I77J76*
G01Y19291*
G02X15453Y19321I29*
G01X15611*
G03X15685Y19374J79*
G02X15713Y19393I28J10*
X15742Y19364J29*
G01Y17575*
G02X15713Y17545I29*
X15692Y17554J30*
G01X15275Y17970*
G02X15267Y17991I21J21*
X15296Y18021I29*
G01X15495*
G03X15554Y18080J59*
G01Y18434*
G03X15495Y18493I59*
G01X15180*
G03X15121Y18434J59*
G01Y18196*
G02X15091Y18167I30*
X15070Y18175J29*
G01X14912Y18334*
G03X14851Y18364I77J77*
G02X14826Y18394I4J30*
G01Y18434*
G03X14747Y18513I79*
G01X14432*
G03X14353Y18434J79*
G01Y18409*
G02X14324Y18379I29*
X14296Y18397J30*
G03X14273Y18433I100J41*
G01X13882Y18823*
G03X13806Y18855I76J76*
G01X13581*
G02X13552Y18884J29*
G01Y18887*
G02X13577Y18916I29*
G03X13639Y18947I14J108*
G01X13870Y19178*
G02X13891Y19186I21J21*
G01X13893*
G03X13902I9J177*
X14080Y19363J177*
X13902Y19540I178*
X13725Y19363J177*
X13726Y19353I177*
G01Y19352*
G02X13717Y19331I30*
G01X13597Y19211*
G02X13576Y19203I21J21*
X13548Y19224J29*
G03X13473Y19279I75J23*
G01X13308*
G02X13278Y19309J30*
X13292Y19334I30*
G03X13327Y19400I44J66*
G01Y20896*
G03X13248Y20974I79*
G01X13091*
G02X13061Y21004J30*
G01Y21231*
G02X13070Y21252I30*
G01X13854Y22036*
G02X13875Y22044I21J21*
X13904Y22015J29*
G01Y21619*
G03X13983Y21540I79*
G01X14574*
G03X14652Y21619J79*
G01Y22840*
G03X14650Y22859I78*
G02X14649Y22866I29J7*
X14679Y22895I30*
G01X14878*
G02X14908Y22866J29*
X14907Y22859I30*
G03X14904Y22840I76J19*
G01Y21619*
G03X14983Y21540I79*
G01X15142*
G02X15171Y21515J29*
G03X15202Y21454I107J16*
G01X15223Y21433*
G02X15232Y21412I21J21*
G01Y21369*
G02X15222Y21347I30*
G03X15163Y21215I118J132*
X15340Y21038I177*
X15517Y21215J177*
X15458Y21347I177*
G02X15448Y21369I20J22*
G01Y21469*
G03X15443Y21502I108*
G02X15442Y21511I28J9*
X15471Y21540I29*
G01X15574*
G03X15652Y21619J79*
G01Y22840*
G03X15650Y22859I78*
G02X15649Y22866I29J7*
X15679Y22895I30*
G01X15720*
G03X15887Y22964J236*
G01X16781Y23858*
G02X16802Y23867I21J21*
G01X17325*
G02X17354Y23837J30*
G01Y23668*
G02X17325Y23639I29*
X17316Y23640J29*
G03X17175Y23661I141J475*
X16680Y23165J496*
X17175Y22670I495*
X17655Y23042J495*
G02X17683Y23065I28J7*
X17704Y23056J30*
G01X17765Y22995*
G03X17845Y22943I167J167*
G02X17864Y22915I10J28*
X17861Y22903I29*
G03X17854Y22870I72J33*
G01Y21650*
G03X17933Y21571I79*
G01X18014*
G02X18043Y21541J30*
X18034Y21520I29*
G01X17872Y21358*
G02X17851Y21350I21J21*
G01X17707*
G03X17631Y21318J109*
G01X17594Y21281*
G02X17573Y21272I21J21*
G01X17571*
G03X17561I10J177*
X17384Y21095J177*
X17561Y20918I177*
X17738Y21095J177*
Y21102I177*
G01Y21103*
Y21104*
G02X17768Y21133I30*
G01X17909*
G03X17985Y21165J108*
G01X18305Y21484*
G03X18335Y21545I77J77*
G02X18365Y21571I30J4*
G01X18389*
Y18724*
G03X18468Y18645I79*
G01X18783*
G03X18862Y18724J79*
G01Y18763*
G02X18891Y18793I29*
G01X18965*
G03X19042Y18825J108*
G01X19088Y18871*
G02X19108Y18879I20J21*
G01X19110*
G03X19120I10J177*
X19297Y19056J177*
X19120Y19233I177*
X18943Y19056J177*
Y19046I177*
G01Y19045*
G02X18934Y19024I29*
G01X18929Y19018*
G02X18908Y19009I21J21*
G01X18891*
G02X18862Y19039J30*
G01Y19078*
G03X18783Y19157I79*
G01X18468*
G03X18389Y19078J79*
G01Y21571*
X18523*
G03X18602Y21650J79*
G01Y22870*
G03X18600Y22889I79*
G02X18599Y22897I28J8*
X18628Y22926I29*
G01X18828*
G02X18857Y22897J29*
Y22889I29*
G03X18854Y22870I76J19*
G01Y21650*
G03X18933Y21571I79*
G01X19014*
G02X19043Y21541J30*
X19034Y21520I29*
G01X18948Y21434*
G03X18916Y21357I76J77*
G01Y21037*
G02X18887Y21007I29*
G01X18729*
G03X18650Y20928J79*
G01Y19432*
G03X18729Y19354I79*
G01X19320*
G03X19398Y19432J78*
G01Y20928*
G03X19320Y21007I78*
G01X19162*
G02X19133Y21037J30*
G01Y21300*
G02X19141Y21321I29*
G01X19305Y21484*
G03X19335Y21545I77J77*
G02X19365Y21571I30J4*
G01X19523*
G03X19602Y21650J79*
G01Y22870*
G03X19600Y22889I79*
G02X19599Y22897I28J8*
X19628Y22926I29*
G01X19661*
Y18109*
G03X19838Y17932I177*
X20015Y18109J177*
Y18119I177*
G01Y18120*
G02X20023Y18141I29*
G01X20167Y18284*
G02X20188Y18293I21J20*
G01X20628*
G02X20650Y18283J29*
G03X20782Y18224I132J118*
X20959Y18401J177*
X20782Y18579I177*
X20650Y18519J178*
G02X20628Y18510I22J20*
G01X20130*
G03X20054Y18478J109*
G01X19870Y18294*
G02X19849Y18286I21J21*
G01X19848*
G03X19838I10J177*
X19661Y18109J177*
G01Y22926*
X19994*
G02X19999J29*
G03X20037Y22923I38J233*
G01X20372*
G03X20608Y23159J236*
X20372Y23395I236*
G01X20077*
G02X20072J30*
G03X20034Y23399I38J233*
G01X19127*
G02X19097Y23428J29*
X19099Y23437I30*
G03X19102Y23461I76J24*
G01Y23934*
G02X19127Y23964I30*
G03X19189Y23994I15J107*
G01X19379Y24185*
G03X19411Y24262I76J77*
G01Y24350*
G02X19441Y24380I30*
G01X19442*
G03X19449Y24379I7J177*
X19626Y24557J178*
X19449Y24734I177*
X19272Y24557J177*
Y24547I177*
G01Y24545*
G02X19263Y24524I29*
G01X19226Y24487*
G03X19195Y24410I77J77*
G01Y24319*
G02X19186Y24298I30*
G01X19153Y24264*
G02X19132Y24256I21J21*
X19102Y24285J29*
G01Y24681*
G03X19023Y24760I79*
G01X18433*
G03X18354Y24681J79*
G01Y23461*
G03X18358Y23437I79*
G02X18359Y23428I28J9*
X18330Y23399I29*
G01X18042*
G02X18021Y23407J29*
G01X18011Y23417*
G02X18003Y23438I21J21*
G01Y23510*
G02X18030Y23540I29*
G03X18102Y23618I7J78*
G01Y24681*
G03X18023Y24760I79*
G01X17433*
G03X17354Y24681J79*
G01Y24369*
G02X17325Y24339I29*
G01X16692*
G03X16525Y24270J236*
G01X15631Y23376*
G02X15610Y23368I21J21*
G01X15177*
G02X15147Y23397J29*
X15149Y23406I30*
G03X15152Y23430I75J24*
G01Y24614*
G02X15182Y24644I30*
X15194Y24641J30*
G03X15266Y24626I72J162*
X15443Y24803J177*
X15426Y24879I177*
G02X15423Y24892I27J13*
X15453Y24921I30*
G01X21053*
Y19371*
G03X21119Y19294I79*
G02X21143Y19269I5J29*
G03X21146Y19254I107J14*
G02X21147Y19246I29J8*
G01Y19115*
G02X21123Y19086I30*
G03X21058Y19008I14J78*
G01Y18614*
G03X21076Y18564I79*
G01Y17867*
G03X21135Y17808I59*
G01X21372*
G03X21431Y17867J59*
G01Y18261*
G03X21372Y18320I59*
G01X21135*
G03X21076Y18261J59*
G01Y18564*
G03X21137Y18536I61J50*
G01X21373*
G03X21452Y18614J78*
G01Y19008*
G03X21388Y19086I79*
G02X21363Y19115I5J29*
G01Y19266*
G02X21386Y19295I30*
G03X21447Y19371I18J76*
G01Y19765*
G03X21404Y19835I79*
G02X21389Y19861I14J26*
X21397Y19882I29*
G01X21624Y20109*
Y19371*
G03X21683Y19312I59*
G01X21920*
G03X21979Y19371J59*
G01Y19765*
G03X21920Y19824I59*
G01X21683*
G03X21624Y19765J59*
G01Y20109*
X21627Y20112*
G03X21657Y20173I77J76*
G02X21687Y20198I30J4*
G01X21885*
G03X21964Y20277J79*
G01Y21143*
G03X21885Y21222I79*
G01X21216*
G03X21137Y21143J79*
G01Y20277*
G03X21216Y20198I79*
G01X21336*
G02X21365Y20169J29*
X21357Y20148I29*
G01X21174Y19965*
G03X21142Y19888I76J77*
G01Y19871*
G02X21118Y19842I30*
G03X21053Y19765I14J77*
G01Y24921*
X21157*
Y23761*
G03X21216Y23702I59*
G01X21705*
Y22226*
G03X22160Y21770I455*
X22616Y22226J456*
X22160Y22682I456*
X21705Y22226J456*
G01Y23702*
X21885*
G03X21944Y23761J59*
G01Y24627*
G03X21885Y24686I59*
G01X21216*
G03X21157Y24627J59*
G01Y24921*
X23673*
Y22226*
G03X24129Y21770I456*
X24303Y21804J456*
G01Y19341*
G03X24362Y19282I59*
G01X24598*
G03X24657Y19341J59*
G01Y19735*
G03X24598Y19794I59*
G01X24362*
G03X24303Y19735J59*
G01Y21804*
G03X24326Y21814I174J422*
G01Y20277*
G03X24405Y20198I79*
G01X24603*
G02X24632Y20173J29*
G03X24663Y20112I107J15*
G01X24912Y19862*
G02X24921Y19841I21J21*
X24897Y19812I30*
G03X24834Y19735I16J77*
G01Y19341*
G03X24898Y19264I79*
G02X24922Y19235I6J29*
G01Y19111*
G02X24898Y19082I30*
G03X24833Y19004I14J78*
G01Y18611*
G03X24855Y18556I79*
G01Y17876*
G03X24914Y17817I59*
G01X25150*
G03X25209Y17876J59*
G01Y18270*
G03X25150Y18329I59*
G01X24914*
G03X24855Y18270J59*
G01Y18556*
G03X24912Y18532I57J55*
G01X25148*
G03X25227Y18611J79*
G01Y19004*
G03X25163Y19082I79*
G02X25138Y19111I5J29*
G01Y19235*
G02X25163Y19264I30*
G03X25228Y19341I14J77*
G01Y19735*
G03X25164Y19812I79*
G02X25139Y19841I5J29*
G01Y19896*
G03X25108Y19973I108*
G01X24933Y20148*
G02X24924Y20169I21J21*
X24954Y20198I30*
G01X25074*
G03X25153Y20277J79*
G01Y21143*
G03X25074Y21222I79*
G01X24405*
G03X24326Y21143J79*
G01Y21814*
G03X24585Y22226I197J412*
X24129Y22682I456*
X23673Y22226J456*
G01Y24921*
X24346*
Y23761*
G03X24405Y23702I59*
G01X25074*
G03X25133Y23761J59*
G01Y24627*
G03X25074Y24686I59*
G01X24405*
G03X24346Y24627J59*
G01Y24921*
X25719*
G02X25748Y24892J29*
G01Y148*
G02X25719Y118I29*
G01X187*
G02X157Y148J30*
G01Y5263*
G02X187Y5293I30*
X209Y5283J30*
G03X269Y5256I60J51*
G01X611*
Y2263*
G03X690Y2185I79*
G01X3539*
G03X3617Y2263J78*
G01Y3422*
G03X3539Y3501I78*
G01X690*
G03X611Y3422J79*
G01Y5256*
X650*
Y3720*
G03X729Y3641I79*
G01X3603*
G03X3682Y3720J79*
G01Y4879*
G03X3603Y4958I79*
G01X729*
G03X650Y4879J79*
G01Y5256*
X5934*
G03X6013Y5334J78*
G01Y6493*
G03X5934Y6572I79*
G01X269*
G03X209Y6545J79*
G02X187Y6535I22J19*
X157Y6564J29*
G01Y24892*
X1802Y20371D02*
X2849D01*
Y21418*
X2549*
Y20671*
X1802*
Y20371*
X2849Y12624D02*
Y13671D01*
X1802*
Y13371*
X2549*
Y12624*
X2849*
X7549Y21418D02*
Y20371D01*
X8595*
Y20671*
X7849*
Y21418*
X7549*
X8595Y13671D02*
X7549D01*
Y12624*
X7849*
Y13371*
X8595*
Y13671*
X9369Y13668D02*
G03X9339Y13697I30D01*
G02X9231Y13805J108*
G01Y14088*
G02X9262Y14165I108*
G01X9269Y14172*
G03X9278Y14193I20J21*
G01Y15598*
G03X9268Y15620I29*
G02X9209Y15752I118J132*
X9210Y15762I177*
G01Y15763*
G03X9201Y15784I30*
G01X9160Y15825*
G02X9128Y15901I77J76*
G01Y16315*
G03X9099Y16344I29*
G01X8900*
G03X8871Y16315J29*
Y16312I29*
G02X8872Y16293I177J19*
X8851Y16211I178*
G03X8848Y16197I27J14*
X8864Y16171I30*
G02X8963Y16012I79J159*
X8785Y15835I178*
X8665Y15882J177*
G03X8645Y15890I20J21*
X8622Y15879J29*
G02X8500Y15800I180J142*
G03X8478Y15771I7J29*
X8500Y15743I29*
G02X8671Y15521I58J222*
X8500Y15300I229*
G03X8478Y15271I7J29*
X8500Y15243I29*
G02X8671Y15021I58J222*
X8500Y14800I229*
G03X8478Y14771I7J29*
X8500Y14743I29*
G02X8671Y14521I58J222*
X8500Y14300I229*
G03X8478Y14271I7J29*
X8500Y14243I29*
G02X8671Y14021I58J222*
X8648Y13922I229*
G03X8645Y13909I27J13*
X8675Y13880I30*
G01X8859*
G02X8936Y13848J109*
G01X9255Y13529*
G03X9276Y13520I21J21*
G01X9339*
G03X9369Y13550J30*
Y13553I30*
G02X9368Y13559I58J6*
G01Y13658*
G02X9369Y13664I59*
G03Y13668I30J4*
G01X9603Y23572D02*
X10193D01*
Y24635*
X9603*
Y23572*
X9935Y13107D02*
G03X9905Y13136I30D01*
G01X9821*
G02X9762Y13195J59*
G01Y13279*
G03X9733Y13309I29*
X9714Y13302J30*
G02X9664Y13284I50J61*
G01X9427*
G02X9382Y13298J79*
G03X9365Y13304I17J24*
G01X9219*
G02X9142Y13335J108*
G01X8823Y13654*
G03X8802Y13663I21J21*
G01X8684*
G03X8654Y13633J30*
G01Y13371*
G02X8595Y13312I59*
G01X7937*
G03X7908Y13283J29*
G01Y12625*
G03X7937Y12596I29*
G01X9128*
G03X9149Y12605J29*
G01X9154Y12610*
G02X9266Y12656I112J111*
G01X9384*
G03X9397Y12659J30*
G02X9472Y12676I75J160*
X9649Y12499J177*
Y12489I177*
G01Y12487*
G03X9658Y12467I30*
G01X9782Y12342*
G03X9803Y12333I21J21*
G01X9841*
G03X9871Y12363J30*
X9869Y12373I30*
G02X9859Y12432I167J59*
X9918Y12564I177*
G03X9928Y12586I19J22*
G01Y12712*
G02X9929Y12727I108*
G03Y12731I29J4*
G01Y12739*
G03X9924Y12756I29*
G02X9910Y12802I65J46*
G01Y13038*
G02X9928Y13088I79*
G03X9935Y13107I23J19*
G01X10391Y11988D02*
G03X10380Y12011I29D01*
G02X10358Y12056I37J45*
G01Y12186*
G03X10329Y12215I29*
X10308Y12207J29*
G01X10250Y12149*
G02X10173Y12117I77J76*
G01X9746*
G02X9669Y12149J108*
G01X9505Y12313*
G03X9484Y12322I21J20*
G01X9482*
G02X9472I10J177*
X9397Y12339J177*
G03X9384Y12341I13J27*
G01X9343*
G03X9322Y12333J29*
G01X9316Y12327*
G02X9205Y12281I111J111*
G01X7996*
G03X7966Y12251J30*
G01Y11885*
G02X7907Y11826I59*
G01X7671*
G02X7612Y11885J59*
G01Y12251*
G03X7583Y12281I29*
G01X7464*
G03X7435Y12251J30*
G01Y11885*
G02X7356Y11806I79*
G01X7120*
G02X7041Y11885J79*
G01Y12278*
G02X7070Y12339I79*
G03X7081Y12362I19J23*
G01Y12367*
G02X7086Y12408I157*
G03X7087Y12416I28J8*
X7080Y12435I29*
G02X7041Y12538I119J103*
G01Y12596*
G03X7033Y12616I29*
G02X6977Y12716I166J158*
G03X6949Y12738I28J7*
X6920Y12716J29*
G02X6699Y12545I221J58*
X6552Y12598J229*
G03X6533Y12605I19J22*
X6512Y12596J29*
G01X6438Y12523*
G03X6429Y12502I21J21*
X6459Y12472I30*
G01X6717*
G02X6796Y12394J78*
G01Y11623*
G03X6826Y11594I30*
G01X9768*
G03X9798Y11623J29*
Y11627I30*
G02X9797Y11633I58J6*
G01Y11732*
G02X9856Y11791I59*
G01X10093*
G02X10139Y11769J59*
G03X10161Y11758I22J18*
X10191Y11787J29*
G01Y11899*
G02X10250Y11958I59*
G01X10362*
G03X10391Y11988J30*
G01X10498Y10393D02*
G03X10469Y10423I29D01*
G01X10417*
G02X10358Y10482J59*
G01Y10718*
G02X10380Y10764I59*
G03X10391Y10787I18J23*
X10362Y10816I29*
G01X10250*
G02X10191Y10875J59*
G01Y10959*
G03X10161Y10989I30*
X10143Y10982J30*
G02X10107Y10965I50J61*
G03X10083Y10936I5J29*
G01Y10190*
G02X10051Y10114I109*
G01X9405Y9468*
G03X9397Y9447I21J21*
G01Y9445*
G02Y9436I177J9*
X9376Y9351I177*
G03X9372Y9337I26J14*
X9381Y9316I30*
G01X9386Y9311*
G03X9407Y9302I21J21*
X9428Y9311J30*
G01X10489Y10372*
G03X10498Y10393I20J21*
G01X10821Y3766D02*
X11884D01*
Y4356*
X10821*
Y3766*
X11251Y18510D02*
G03X11243Y18531I29D01*
G01X11234Y18539*
G03X11214Y18548I20J20*
G01X11212*
G02X11202I10J177*
X11025Y18725J177*
X11035Y18784I177*
G03X11037Y18794I28J10*
X11007Y18823I30*
G01X10834*
G03X10813Y18815J29*
G01X10539Y18541*
G02X10503Y18517I76J77*
G03X10484Y18490I11J27*
X10514Y18460I30*
G01X10588*
G02X10647Y18401J59*
G01Y18047*
G02X10626Y18002I59*
G03X10615Y17979I19J23*
X10645Y17949I30*
G01X11084*
G03X11114Y17979J30*
X11107Y17998I30*
G02X11089Y18048I61J50*
G01Y18402*
G02X11168Y18481I79*
G01X11222*
G03X11251Y18510J29*
G01X11349Y12880D02*
G03X11340Y12901I30D01*
G01X11339Y12902*
X11044Y13197*
G02X11013Y13260I76J77*
G03X10989Y13285I29J4*
G02X10952Y13302I13J78*
G03X10933Y13309I19J23*
X10904Y13279J30*
G01Y13195*
G02X10845Y13136I59*
G01X10733*
G03X10704Y13107J29*
X10715Y13084I29*
G02X10737Y13038I38J46*
G01Y12826*
G03X10766Y12796I29*
X10787Y12805J30*
G01X10801Y12819*
G02X10878Y12851I77J77*
G01X11319*
G03X11349Y12880J29*
G01X11603Y15991D02*
G03X11594Y16012I29D01*
G01X11555Y16051*
G03X11534Y16060I21J20*
X11504Y16031J29*
G01Y15699*
G02X11445Y15640I59*
G01X10815*
G02X10756Y15699J59*
G01Y16093*
G02X10815Y16152I59*
G01X11445*
G02X11477Y16143J59*
G03X11492Y16139I15J25*
X11522Y16168J29*
G01Y16360*
G03X11492Y16389I30*
G01X10872*
G02X10793Y16468J79*
G01Y17649*
G02X10804Y17688I79*
G03X10808Y17703I26J15*
X10778Y17733I30*
G01X10654*
G03X10625Y17703J30*
X10641Y17677I29*
G02X10675Y17624I25J53*
G01Y16443*
G02X10616Y16383I59*
G01X9828*
G02X9769Y16443J60*
G01Y17624*
G02X9803Y17677I59*
G03X9819Y17703I13J26*
X9790Y17733I29*
G01X9773*
G02X9696Y17765J108*
G01X9606Y17855*
G02X9574Y17931I77J76*
G01Y17939*
G03X9545Y17968I29*
G01X9525*
G02X9446Y18047J79*
G01Y18337*
G03X9417Y18366I29*
X9396Y18358J29*
G01X8824Y17786*
G03X8816Y17765I21J21*
G01Y17712*
G03X8845Y17683I29*
G01X9630*
G02X9709Y17604J79*
G01Y16423*
G02X9630Y16344I79*
G01X9375*
G03X9345Y16315J29*
G01Y15959*
G03X9354Y15938I30*
G01Y15937*
G03X9375Y15929I21J21*
G01X9377*
G02X9386I9J177*
X9396J177*
G01X9398*
G03X9419Y15937J29*
G01X9454Y15973*
G02X9531Y16004I77J77*
G01X9572*
G03X9601Y16034J30*
G01Y16093*
G02X9680Y16172I79*
G01X10310*
G02X10388Y16093J79*
G01Y15699*
G02X10310Y15621I78*
G01X9680*
G02X9604Y15677J78*
G03X9576Y15699I28J8*
X9549Y15681J30*
G02X9505Y15620I163J71*
G03X9495Y15598I19J22*
G01Y14140*
G03X9524Y14111I29*
G01X9664*
G02X9710Y14089J59*
G03X9733Y14078I23J18*
X9762Y14107J29*
G01Y14219*
G02X9783Y14264I59*
G03X9793Y14286I19J22*
X9770Y14315I29*
G02X9632Y14488I39J173*
X9809Y14665I177*
X9886Y14648J177*
G03X9899Y14645I13J26*
X9924Y14657J29*
G02X9989Y14691I65J44*
G01X10087*
G02X10137Y14673J78*
G03X10156Y14667I19J23*
X10166Y14668J29*
G02X10185Y14672I19J55*
G01X10284*
G02X10290Y14671J59*
G03X10294I4J30*
X10323Y14701J30*
G01Y14794*
G02Y14802I108*
G03X10324Y14804I29J2*
X10294Y14833I30*
G01X9680*
G02X9621Y14892J59*
G01Y15286*
G02X9680Y15345I59*
G01X10310*
G02X10369Y15286J59*
G01Y14955*
G03X10398Y14926I29*
X10419Y14935J29*
G01X10650Y15166*
G02X10711Y15196I77J77*
G03X10737Y15225I4J29*
G01Y15286*
G02X10815Y15365I78*
G01X11445*
G02X11524Y15286J79*
G01Y15262*
G03X11554Y15233I30*
X11576Y15243J29*
G02X11593Y15261I135J114*
G03X11603Y15283I19J22*
G01Y15991*
X11866Y18441D02*
G03X11836Y18471I30D01*
G01X11584*
G03X11554Y18441J30*
X11556Y18430I30*
G02X11562Y18402I73J28*
G01Y18215*
G03X11591Y18186I29*
G01X11634*
G02X11711Y18154J109*
G01X11789Y18076*
G03X11810Y18068I21J21*
G01X11827*
G03X11857Y18097J29*
G01Y18402*
G02X11863Y18428I59*
G03X11866Y18441I27J13*
G01X11954Y14955D02*
G03X11930Y14985I30D01*
G02X11886Y15009I14J77*
G03X11864Y15019I22J20*
X11842Y15009J30*
G02X11711Y14952I131J120*
X11620Y14977J177*
G03X11605Y14981I15J26*
G01X11554*
G03X11524Y14951J30*
G01Y14892*
G02X11445Y14814I79*
G01X10815*
G02X10738Y14880J78*
G03X10708Y14905I30J4*
X10688Y14897J29*
G01X10548Y14757*
G03X10540Y14737I21J20*
G01Y14701*
G03X10569Y14671I29*
X10573J30*
G02X10579Y14672I6J58*
G01X10677*
G02X10737Y14613J59*
G01Y14376*
G02X10715Y14330I60*
G03X10704Y14307I18J23*
X10733Y14278I29*
G01X10845*
G02X10904Y14219J59*
G01Y14107*
G03X10933Y14078I29*
X10956Y14089J29*
G02X11002Y14111I46J37*
G01X11239*
G02X11298Y14052J59*
G01Y14000*
G03X11327Y13971I29*
X11348Y13979J29*
G01X11364Y13996*
G03X11373Y14017I20J21*
G01Y14074*
G03X11363Y14096I29*
G02X11304Y14228I118J132*
X11481Y14406I177*
X11613Y14347J178*
G03X11635Y14337I22J19*
G01X11755*
X11756*
G02X11760I4J108*
G01X11812*
G03X11841Y14366J29*
G01Y14425*
G02X11906Y14503I79*
G03X11930Y14532I6J29*
G01Y14777*
G02X11949Y14838I108*
G03X11954Y14854I25J16*
G01Y14955*
X12709Y18443D02*
G03X12680Y18472I29D01*
X12675J29*
G02X12657Y18471I18J107*
G01X12311*
G03X12281Y18441J30*
X12284Y18428I30*
G02X12290Y18402I53J26*
G01Y18097*
G03X12319Y18068I29*
G01X12676*
G03X12705Y18097J29*
G01Y18413*
G02X12708Y18435I79*
G03X12709Y18443I28J8*
G01X12922Y14972D02*
G03X12913Y14993I30D01*
G01X12839Y15067*
G03X12818Y15075I21J21*
X12789Y15051J29*
G02X12731Y15003I58J11*
G01X12495*
G02X12436Y15062J59*
G01Y15456*
G02X12495Y15515I59*
G01X12719*
G03X12748Y15544J29*
G01Y16341*
G03X12719Y16370I29*
X12708Y16368J29*
G02X12685Y16363I23J54*
G01X11898*
G02X11838Y16422J59*
G01Y17604*
G02X11898Y17663I60*
G01X12593*
G03X12623Y17692J29*
X12614Y17713I30*
G01X12603Y17724*
G03X12582Y17733I21J21*
G01X11753*
G03X11724Y17703J30*
X11728Y17688I29*
G02X11738Y17649I69J39*
G01Y16187*
G03X11747Y16166I30*
G01X11788Y16125*
G02X11820Y16048I77J77*
G01Y15508*
G03X11849Y15478I29*
X11875Y15494J30*
G02X11944Y15534I69J38*
G01X12180*
G02X12259Y15456J78*
G01Y15062*
G02X12194Y14985I79*
G03X12170Y14955I6J30*
G01Y14801*
G02X12152Y14740I108*
G03X12146Y14723I24J17*
G01Y14532*
G03X12171Y14503I30*
G02X12235Y14425I15J78*
G01Y14032*
G02X12171Y13954I79*
G03X12146Y13925I5J29*
G01Y13752*
G03X12176Y13722I30*
X12197Y13732J30*
G02X12200Y13734I79J75*
G01X12330Y13864*
G02X12407Y13896I77J76*
G01X12532*
G03X12553Y13905J30*
G01X12570Y13922*
G03X12579Y13943I21J21*
X12549Y13973I30*
G01X12471*
G02X12412Y14032J59*
G01Y14425*
G02X12471Y14484I59*
G01X12707*
G02X12766Y14425J59*
G01Y14190*
G03X12796Y14160I30*
X12817Y14169J30*
G01X12843Y14196*
G03X12852Y14216I20J20*
G01Y14623*
G03X12842Y14645I29*
G02X12783Y14777I118J132*
X12902Y14944I177*
G03X12922Y14972I10J28*
G01X13214Y14057D02*
G03X13208Y14074I29D01*
G02X13193Y14121I64J47*
G01Y14239*
G02X13199Y14268I79*
G03X13201Y14278I28J10*
X13199Y14289I30*
G02X13193Y14318I73J29*
G01Y14436*
G02X13194Y14443I79*
X13199Y14464I78J7*
G03X13201Y14475I28J11*
X13199Y14486I30*
G02X13193Y14514I73J28*
G01Y14633*
G02X13199Y14661I79*
G03X13201Y14672I28J11*
X13199Y14683I30*
G02X13193Y14711I73J28*
G01Y14718*
G03X13164Y14748I29*
G01X13158*
G03X13130Y14727J30*
G02X13079Y14645I170J50*
G03X13069Y14623I19J22*
G01Y14159*
G02X13037Y14083I109*
G01X12665Y13711*
G02X12589Y13680I76J77*
G01X12464*
G03X12443Y13671J30*
G01X12425Y13653*
G03X12417Y13632I21J21*
X12446Y13603I29*
G01X12670*
G02X12729Y13544J59*
G01Y13223*
G03X12758Y13193I29*
X12779Y13202J30*
G01X12817Y13240*
G03X12826Y13260I21J20*
G01Y13340*
G02X12857Y13416I108*
G01X13107Y13666*
G02X13168Y13696I76J77*
G03X13193Y13726I4J30*
G01Y13727*
Y13845*
G02X13208Y13892I79*
G03X13214Y13909I23J17*
Y13914I29*
G02X13213Y13924I58J10*
G01Y14042*
G02X13214Y14052I59*
G03Y14057I29J5*
G01X13419Y7158D02*
G02X13449Y7187I30D01*
G01X13853*
G03X13931Y7266J79*
G01Y7856*
G03X13887Y7927I78*
G02X13870Y7954I13J27*
X13900Y7983I30*
G01X14866*
G03X14942Y8015J109*
G01X15676Y8749*
G03X15708Y8826I76J77*
G01Y8968*
G02X15717Y8989I30*
G01X15722Y8995*
Y5640*
G03X15781Y5581I59*
G01X16254*
G03X16313Y5640J59*
G01Y6270*
G03X16254Y6329I59*
G01X15781*
G03X15722Y6270J59*
G01Y8995*
X16136Y9408*
G03X16167Y9485I77J77*
G01Y9667*
G02X16197Y9696I30*
X16224Y9677J29*
G03X16390Y9564I166J64*
X16522Y9623J177*
G02X16544Y9633I22J20*
G01X16999*
G03X17075Y9665J108*
G01X17295Y9885*
G03X17326Y9946I76J76*
G02X17355Y9971I29J4*
G01X18164*
G03X18243Y10050J79*
G01Y10641*
G03X18164Y10719I79*
G01X17534*
G02X17505Y10749J30*
X17514Y10771I29*
G03X17526Y10783I120J130*
G02X17548Y10793I22J20*
G01X18369*
G02X18390Y10784J30*
G01X18918Y10255*
G02X18927Y10234I20J21*
X18898Y10205I29*
G01X18758*
G03X18679Y10126J79*
G01Y9732*
G03X18758Y9654I79*
G01X18951*
G02X18980Y9624J30*
G01Y9623*
G03Y9620I108J3*
G01Y9507*
G02X18950Y9478I30*
G01X18891*
G03X18813Y9399J79*
G01Y9163*
G03X18891Y9084I78*
G01X19285*
G03X19364Y9163J79*
G01Y9399*
G03X19285Y9478I79*
G01X19226*
G02X19197Y9507J29*
G01Y9566*
G02X19202Y9583I29*
G03X19219Y9628I90J61*
G02X19248Y9654I29J4*
G01X19466*
G03X19509Y9666J78*
G02X19526Y9671I17J24*
X19555Y9642J29*
G01Y9146*
G02X19546Y9125I29*
G01X19348Y8927*
G02X19327Y8918I21J21*
X19316Y8920J30*
G03X19285Y8927I31J72*
G01X18891*
G03X18831Y8898J79*
G02X18808Y8887I23J19*
G01X18684*
G03X18572Y8841J157*
G01X18254Y8523*
G02X18233Y8514I21J21*
G01X17720*
G02X17691Y8544J30*
G01Y8672*
G03X17612Y8751I79*
G01X16234*
G03X16155Y8672J79*
G01Y8042*
G03X16234Y7963I79*
G01X16736*
G02X16765Y7934J29*
G01Y6378*
G02X16736Y6349I29*
G01X16687*
G03X16608Y6270J79*
G01Y5640*
G03X16687Y5562I79*
G01X16735*
G02X16765Y5532J30*
G01Y5319*
G02X16762Y5306I30*
G03X16745Y5231I160J75*
X16762Y5155I177*
G02X16765Y5143I27J12*
G01Y3317*
G02X16756Y3296I30*
G01X15908Y2448*
G02X15887Y2439I21J21*
G01X15654*
G02X15624Y2469J30*
X15633Y2490I30*
G01X15868Y2725*
G03X15913Y2820I111J111*
G02X15943Y2846I30J3*
G01X15983*
G03X16062Y2925J79*
G01Y4185*
G03X15983Y4264I79*
G01X15530*
G03X15452Y4185J79*
G01Y2925*
G03X15496Y2854I78*
G02X15513Y2827I13J27*
X15504Y2807I30*
G01X15411Y2714*
G02X15391Y2705I20J21*
G01X15333*
G02X15320Y2708J30*
G03X15245Y2725I75J160*
G01X15244*
X15243*
X14708*
G02X14687Y2733J29*
G01X14605Y2816*
G02X14596Y2836I21J20*
X14626Y2866I30*
G01X14920*
G03X14979Y2925J59*
G01Y4185*
G03X14920Y4244I59*
G01X14467*
G03X14408Y4185J59*
G01Y3083*
G02X14379Y3054I29*
X14358Y3062J29*
G01X13428Y3992*
G02X13419Y4013I21J21*
G01Y4158*
G02X13449Y4187I30*
G01X13853*
G03X13931Y4266J79*
G01Y4856*
G03X13853Y4935I78*
G01X13449*
G02X13419Y4965J30*
G01Y5158*
G02X13449Y5187I30*
G01X13853*
G03X13931Y5266J79*
G01Y5856*
G03X13853Y5935I78*
G01X13449*
G02X13419Y5965J30*
G01Y6158*
G02X13449Y6187I30*
G01X13853*
G03X13931Y6266J79*
G01Y6856*
G03X13853Y6935I78*
G01X13449*
G02X13419Y6965J30*
G01Y7158*
X13483Y23588D02*
X14074D01*
Y24651*
X13483*
Y23588*
X13506Y18482D02*
G03X13476Y18512I30D01*
G01X13182*
G03X13153Y18482J30*
X13160Y18463I29*
G02X13178Y18413I61J50*
G01Y18059*
G02X13119Y17983I79*
G03X13097Y17954I8J29*
X13106Y17933I30*
G01X13163Y17876*
G03X13184Y17867I21J21*
X13213Y17890J30*
G02X13386Y18028I173J39*
X13436Y18021J177*
G03X13444Y18020I8J28*
X13473Y18049J29*
Y18052I29*
G02Y18059I59J7*
G01Y18413*
G02X13495Y18459I59*
G03X13506Y18482I19J23*
G01X13533Y12808D02*
G03X13504Y12838I29D01*
X13499Y12837J30*
G02X13483Y12836I16J107*
G01X13463*
G03X13441Y12826J30*
G02X13309Y12767I132J118*
X13132Y12944J177*
X13191Y13076I177*
G03X13200Y13098I20J22*
X13198Y13108I29*
G02X13193Y13137I74J29*
G01Y13255*
G02X13208Y13301I79*
G03X13214Y13319I23J18*
Y13324I29*
G02X13213Y13333I58J9*
G01Y13394*
G03X13183Y13424I30*
X13162Y13415J30*
G01X13051Y13304*
G03X13042Y13283I21J21*
G01Y13203*
G02X13010Y13127I108*
G01X12849Y12965*
G02X12772Y12934I77J77*
G01X12589*
G03X12559Y12904J30*
X12562Y12891I30*
G02X12579Y12815I160J76*
X12549Y12716I177*
G03X12543Y12699I24J17*
X12573Y12670I30*
G01X12700*
G02X12759Y12611J59*
G01Y12223*
G03X12789Y12194I30*
X12809Y12202J29*
G01X13240Y12632*
G02X13316Y12664I76J76*
G01X13389*
G03X13410Y12673J30*
G01X13525Y12787*
G03X13533Y12808I21J21*
G01X14955Y11833D02*
G03X14925Y11863I30D01*
X14910Y11858J30*
G02X14816Y11831I94J151*
X14639Y12009J178*
X14651Y12073I177*
G03X14653Y12083I27J10*
X14624Y12113I29*
G01X14611*
G03X14581Y12083J30*
G01Y12071*
G02X14549Y11995I108*
G01X14541Y11986*
G03X14532Y11965I21J21*
G01Y11964*
G02X14533Y11954I177J10*
X14355Y11777I178*
X14178Y11954J177*
X14219Y12067I177*
G03X14226Y12085I23J18*
X14202Y12114I30*
G02X14138Y12192I15J78*
G01Y12676*
G03X14109Y12705I29*
X14088Y12696J29*
G01X13634Y12243*
G02X13558Y12211I76J77*
G01X13471*
G03X13450Y12203J29*
G01X13215Y11967*
G03X13206Y11947I21J20*
G01Y11436*
G02X13175Y11360I108*
G01X12585Y10770*
G03X12576Y10749I21J21*
X12606Y10719I30*
G01X13457*
G03X13487Y10745J30*
G02X13517Y10806I107J16*
G01X13870Y11159*
G02X13947Y11190I77J77*
G01X14317*
G03X14339Y11200J30*
G02X14471Y11259I132J118*
X14481J177*
G01X14482*
G03X14503Y11267J29*
G01X14946Y11711*
G03X14955Y11732I21J21*
G01Y11833*
X16137Y2232D02*
X17033Y3128D01*
G03X17080Y3240I111J112*
G01Y3328*
G02X17109Y3357I29*
X17138Y3332J29*
G03X17216Y3264I78J10*
G01X17807*
G03X17886Y3342J78*
G01Y3933*
G03X17807Y4012I79*
G01X17216*
G03X17138Y3943J79*
G02X17109Y3918I29J4*
X17080Y3947J29*
G01Y5143*
G02X17082Y5155I29*
G03X17099Y5231I160J76*
X17082Y5306I177*
G02X17080Y5319I27J13*
G01Y5532*
G02X17109Y5562I29*
G01X17159*
G03X17238Y5640J78*
G01Y6270*
G03X17159Y6349I79*
G01X17110*
G02X17080Y6378J29*
G01Y7934*
G02X17110Y7963I30*
G01X17514*
Y5640*
G03X17592Y5562I78*
G01X18065*
G03X18128Y5593J78*
G02X18151Y5605I23J18*
X18172Y5596J30*
G01X18225Y5543*
G02X18234Y5522I20J21*
G01Y4191*
G03X18236Y4159I276*
G02Y4156I29J3*
G01Y3902*
G02X18229Y3882I29*
G03X18138Y3638I283J244*
X18512Y3264I374*
X18886Y3638J374*
X18794Y3882I374*
G02X18787Y3902I23J20*
G01Y4189*
G03X18785Y4220I275*
G02Y4223I30J3*
G01Y5648*
G03X18705Y5843I275*
G01X18397Y6150*
G03X18203Y6231I194J195*
G01X18173*
G02X18143Y6260J29*
G01Y6270*
G03X18065Y6349I78*
G01X17592*
G03X17514Y6270J79*
G01Y7963*
X17612*
G03X17691Y8042J79*
G01Y8170*
G02X17720Y8199I29*
G01X18311*
G03X18422Y8245J158*
G01X18740Y8564*
G02X18761Y8572I21J21*
G01X18808*
G02X18831Y8562J29*
G03X18891Y8533I60J50*
G01X19285*
G03X19346Y8562J79*
G02X19369Y8572I23J19*
G01X19374*
G03X19485Y8618J158*
G01X19814Y8947*
G02X19835Y8956I21J21*
X19864Y8926J30*
G01Y3941*
G02X19835Y3911I29*
X19813Y3920J30*
G03X19512Y4051I301J282*
X19098Y3638J413*
X19431Y3232I414*
G02X19455Y3203I6J29*
X19446Y3182I30*
G01X18454Y2191*
G02X18434Y2182I20J20*
G01X16158*
G02X16129Y2211J29*
X16137Y2232I29*
G01X17433Y23618D02*
X18023D01*
Y24681*
X17433*
Y23618*
X17531Y15656D02*
G03X17529Y15667I29D01*
G02X17524Y15696I74J29*
G01Y15814*
G03X17494Y15843I30*
G01X17380*
G03X17359Y15835J29*
G01X17168Y15643*
G03X17159Y15622I20J21*
G01Y15620*
G02Y15610I177J10*
X16982Y15433I177*
X16805Y15610J177*
X16982Y15788I177*
X16992Y15787J178*
G01X16994*
G03X17014Y15796J30*
G01X17181Y15962*
G03X17189Y15983I21J21*
X17160Y16013I29*
G01X17131*
G03X17109Y16003J30*
G02X16977Y15944I132J118*
X16800Y16121J177*
X16819Y16200I177*
G03X16822Y16213I27J13*
X16792Y16242I30*
G01X16525*
G02X16448Y16274J108*
G01X16365Y16357*
G02X16334Y16418I76J77*
G03X16305Y16444I29J4*
G01X16304*
X16303*
X16185*
G02X16157Y16449J78*
G03X16146Y16451I11J28*
X16135Y16449J30*
G02X16107Y16444I28J73*
G01X15988*
G02X15960Y16449J78*
G03X15949Y16451I11J28*
X15938Y16449J30*
G02X15910Y16444I28J73*
G01X15792*
G02X15763Y16449J78*
G03X15752Y16451I11J28*
X15742Y16449J30*
G02X15713Y16444I29J73*
G01X15595*
G02X15566Y16449J78*
G03X15555Y16451I11J28*
X15545Y16449J30*
G02X15516Y16444I29J73*
G01X15398*
G02X15369Y16449J78*
G03X15359Y16451I10J28*
X15348Y16449J30*
G02X15319Y16444I29J73*
G01X15201*
G03X15172Y16414J30*
G01Y16344*
G03X15180Y16323I29*
G01X15300Y16204*
G02X15332Y16127I77J77*
G01Y16117*
G03X15361Y16088I29*
G01X15362*
G02X15369I7J177*
X15547Y15911J177*
X15369Y15734I178*
X15192Y15911J177*
X15193Y15921I177*
G01Y15922*
G03X15184Y15943I30*
G01X15147Y15980*
G02X15115Y16057I76J77*
G01Y16070*
G03X15106Y16091I30*
G01X15023Y16174*
G03X15002Y16183I21J21*
X14981Y16173J30*
G02X14870Y16116I132J119*
G03X14844Y16087I4J29*
X14853Y16066I30*
G01X15282Y15637*
G03X15303Y15628I21J21*
G01X15838*
G03X15860Y15638J30*
G02X15992Y15697I132J118*
X16169Y15520J177*
X15992Y15343I177*
X15860Y15402J177*
G03X15838Y15412I22J20*
G01X15246*
G02X15169Y15444J108*
G01X14573Y16040*
G03X14552Y16048I21J21*
X14522Y16019J29*
G01Y15670*
G02X14491Y15594I108*
G01X14181Y15284*
G02X14105Y15253I76J77*
G01X14010*
G03X13981Y15223J30*
G01Y15105*
G02X13975Y15076I79*
G03X13973Y15066I28J10*
X13975Y15055I30*
G02X13981Y15026I73J29*
G01Y14908*
G03X14010Y14879I29*
G01X14375*
G03X14396Y14887J29*
G01X14559Y15050*
G02X14636Y15082I77J76*
G01X15008*
G02X15085Y15050J108*
G01X15162Y14974*
G02X15193Y14897I77J77*
G01Y13225*
G03X15203Y13203I30*
G02X15262Y13071I118J132*
X15215Y12950I177*
G03X15207Y12930I21J20*
X15236Y12900I29*
G01X15319*
G02X15348Y12895J78*
G03X15359Y12893I11J27*
X15369Y12895J29*
G02X15398Y12900I29J73*
G01X15516*
G02X15545Y12895J78*
G03X15555Y12893I10J27*
X15566Y12895J29*
G02X15595Y12900I29J73*
G01X15713*
G02X15742Y12895J78*
G03X15752Y12893I10J27*
X15763Y12895J29*
G02X15792Y12900I29J73*
G01X15910*
G02X15938Y12895J78*
G03X15949Y12893I11J27*
X15960Y12895J29*
G02X15988Y12900I28J73*
G01X16107*
G02X16135Y12895J78*
G03X16146Y12893I11J27*
X16157Y12895J29*
G02X16185Y12900I28J73*
G01X16303*
G02X16350Y12885J78*
G03X16367Y12879I17J24*
X16372Y12880J30*
G02X16382Y12881I10J58*
G01X16500*
G03X16530Y12910J29*
G01Y13346*
G02X16533Y13371I108*
G03X16534Y13378I29J7*
G01Y13402*
G03X16524Y13424I30*
G02X16465Y13557I118J133*
X16642Y13734I177*
X16774Y13675J177*
G03X16796Y13665I22J19*
G01X17109*
G03X17128Y13672J29*
G02X17198Y13698I70J83*
G01X17494*
G03X17524Y13727J29*
G01Y13845*
G02X17529Y13874I79*
G03X17531Y13885I27J11*
X17529Y13895I29*
G02X17524Y13924I74J29*
G01Y14042*
G02X17529Y14071I79*
G03X17531Y14081I27J10*
X17529Y14092I29*
G02X17524Y14121I74J29*
G01Y14239*
G02X17529Y14268I79*
G03X17531Y14278I27J10*
X17529Y14289I29*
G02X17524Y14318I74J29*
G01Y14436*
G03X17494Y14465I30*
G01X17451*
G03X17432Y14458J29*
G02X17316Y14415I116J134*
X17139Y14592J177*
X17316Y14769I177*
X17461Y14694J177*
G03X17485Y14682I24J17*
G01X17494*
G03X17524Y14711J29*
G01Y14829*
G02X17529Y14858I79*
G03X17531Y14869I27J11*
X17529Y14880I29*
G02X17524Y14908I74J28*
G01Y15026*
G02X17529Y15055I79*
G03X17531Y15066I27J11*
X17529Y15076I29*
G02X17524Y15105I74J29*
G01Y15223*
G02X17529Y15252I79*
G03X17531Y15263I27J11*
X17529Y15273I29*
G02X17524Y15302I74J29*
G01Y15420*
G02X17529Y15449I79*
G03X17531Y15459I27J10*
X17529Y15470I29*
G02X17524Y15499I74J29*
G01Y15617*
G02X17529Y15645I79*
G03X17531Y15656I27J11*
G01X17545Y13319D02*
G03X17544Y13324I30D01*
G02Y13333I59J9*
G01Y13451*
G03X17514Y13481I30*
G01X17254*
G03X17235Y13474J30*
G02X17165Y13448I70J83*
G01X16796*
G03X16774Y13438J29*
G02X16760Y13424I132J119*
G03X16750Y13402I20J22*
G01Y13350*
G02X16747Y13325I108*
G03X16746Y13318I29J7*
G01Y13183*
G03X16776Y13154I30*
X16797Y13162J29*
G01X16800Y13166*
G02X16877Y13198I77J77*
G01X17379*
G02X17455Y13166J109*
G01X17474Y13147*
G03X17494Y13139I20J21*
X17524Y13168J29*
G01Y13255*
G02X17539Y13301I79*
G03X17545Y13319I24J18*
G01X18087Y18393D02*
G03X18079Y18414I29D01*
G01X18072Y18421*
G03X18051Y18430I21J21*
G01X17016*
G03X16995Y18421J30*
G01X16982Y18408*
G03X16974Y18387I21J21*
X17003Y18358I29*
G01X17004*
G02X17007I3J59*
G01X17322*
G02X17381Y18299J59*
G01Y17944*
G02X17373Y17916I59*
G03X17370Y17901I26J15*
X17399Y17872I29*
G01X17991*
G03X18021Y17901J29*
X18019Y17911I30*
G02X18015Y17936I75J25*
G01Y18291*
G02X18068Y18365I79*
G03X18087Y18393I10J28*
G01X19555Y10926D02*
G03X19526Y10956I29D01*
X19506Y10948J30*
G02X19466Y10933I40J44*
G01X18758*
G02X18699Y10992J59*
G01Y11386*
G02X18758Y11445I59*
G01X18948*
G03X18978Y11474J29*
X18969Y11495I30*
G01X18105Y12359*
G02X18081Y12390I111J112*
G03X18055Y12405I26J15*
X18026Y12375J30*
G01Y12056*
G02X17994Y11979I108*
G01X17454Y11439*
G03X17445Y11418I21J21*
X17475Y11389I30*
G01X17568*
G03X17590Y11399J29*
G02X17722Y11458I132J118*
X17900Y11281J177*
X17722Y11103I178*
X17590Y11162J178*
G03X17568Y11172I22J19*
G01X17417*
G03X17396Y11164J29*
G01X17360Y11128*
G03X17352Y11107I21J21*
X17381Y11078I29*
G01X17383*
G02X17394I11J177*
X17526Y11019J177*
G03X17548Y11009I22J20*
G01X18426*
G02X18502Y10977J108*
G01X19189Y10291*
G02X19219Y10230I77J76*
G03X19248Y10205I29J4*
G01X19466*
G02X19509Y10192J79*
G03X19526Y10187I17J25*
X19555Y10217J30*
G01Y10926*
X19703Y13295D02*
G03X19677Y13324I29D01*
G02X19612Y13355I12J108*
G01X18940Y14028*
G03X18919Y14036I21J21*
X18891Y14016J29*
G02X18722Y13892I169J53*
X18685Y13896J177*
G03X18679Y13897I6J29*
X18650Y13867J30*
X18658Y13846I29*
G01X19603Y12901*
G03X19624Y12893I21J21*
X19654Y12922J29*
G01Y13215*
G02X19687Y13269I59*
G03X19703Y13295I13J26*
G01X19864Y12087D02*
G03X19856Y12108I29D01*
G01X18362Y13602*
G03X18341Y13611I21J21*
X18311Y13581J30*
G01Y13530*
G02X18296Y13484I78*
G03X18290Y13466I24J18*
X18291Y13461I30*
G02X18292Y13451I58J10*
G01Y13333*
G02X18291Y13324I59*
G03X18290Y13319I29J5*
X18296Y13301I30*
G02X18311Y13255I63J46*
G01Y13137*
G02X18303Y13101I78*
G03X18300Y13088I26J13*
X18313Y13063I29*
G02X18393Y12915I97J148*
X18377Y12840I177*
G03X18374Y12827I26J13*
G01Y12548*
G03X18382Y12527I29*
G01X19138Y11772*
G03X19159Y11763I21J21*
G01X19523*
G02X19634Y11717J157*
G01X19814Y11537*
G03X19835Y11529I21J21*
X19864Y11558J29*
G01Y12087*
X20343Y12900D02*
G03X20334Y12920I30D01*
G01X20177Y13078*
G03X20156Y13087I21J21*
X20126Y13057J30*
G01Y12901*
G02X20067Y12841I59*
G01X19735*
G03X19705Y12812J29*
X19714Y12791I30*
G01X20145Y12360*
G03X20166Y12351I21J20*
X20196Y12378J29*
G02X20274Y12451I78J6*
G01X20313*
G03X20343Y12480J29*
G01Y12900*
X23795Y10693D02*
X24858D01*
Y11283*
X23795*
Y10693*
X23798Y14670D02*
X24861D01*
Y15261*
X23798*
Y14670*
G37*
G54D10*
X0Y0D02*
X25866D01*
Y25039*
X0*
Y0*
G54D11*
X504Y17436D02*
X386D01*
X504Y18598D02*
X386D01*
X519Y15440D02*
X400D01*
X519Y16601D02*
X400D01*
X908Y17259D02*
Y17141D01*
Y17613D02*
Y17732D01*
Y18421D02*
Y18302D01*
Y18775D02*
Y18893D01*
X922Y15263D02*
Y15145D01*
Y15617D02*
Y15735D01*
Y16424D02*
Y16306D01*
Y16779D02*
Y16897D01*
X951Y4723D02*
X1290D01*
X1401Y4633*
Y4502*
X1290Y4412*
X951*
Y4723*
X1006Y5671D02*
X1007Y5666D01*
X1010Y5662*
X1015Y5660*
X1020Y5659*
X1025Y5660*
X1029Y5662*
X1033Y5666*
X1034Y5671*
Y6349*
Y6351*
Y6352*
Y6357*
X1032Y6360*
X1027Y6362*
X1022Y6363*
X1017Y6364*
X1014Y6363*
X1010Y6362*
X1008Y6359*
X781Y5991*
X555Y6359*
X552Y6362*
X549Y6364*
X545*
X541Y6363*
X535Y6362*
X531Y6360*
X529Y6357*
X528Y6352*
Y6351*
Y6349*
Y5671*
X529Y5666*
X533Y5662*
X537Y5660*
X542Y5659*
X548Y5660*
X552Y5662*
X556Y5666*
X557Y5671*
Y6300*
X769Y5955*
X771Y5952*
X774Y5950*
X778Y5949*
X781Y5950*
X785Y5949*
X788Y5950*
X791Y5952*
X794Y5955*
X1006Y6300*
Y5671*
X1227Y5958D02*
Y5881D01*
X1676*
Y5958*
X1452Y6335*
X1227Y5958*
X1265Y3292D02*
X1384Y3195D01*
X1386Y3192*
X1387Y3189*
X1388Y3187*
X1389Y3184*
Y3087*
X1388Y3084*
X1387Y3080*
X1386Y3076*
X1384Y3075*
X912Y2691*
Y2615*
X1375*
X1379Y2614*
X1384Y2611*
X1386Y2606*
X1387Y2601*
X1386Y2596*
X1384Y2591*
X1379Y2588*
X1375Y2586*
X897*
X891Y2588*
X888Y2591*
X884Y2595*
X883Y2601*
Y2698*
Y2700*
X885Y2705*
X886Y2707*
X888Y2708*
X889Y2710*
X1360Y3094*
Y3177*
X1250Y3266*
X1021*
X905Y3172*
X900Y3170*
X895Y3171*
X891Y3173*
X888Y3177*
X886Y3182*
X885Y3187*
Y3189*
X886Y3192*
X889Y3195*
X1008Y3292*
X1011Y3293*
X1013Y3294*
X1014*
X1017Y3295*
X1255*
X1258Y3294*
X1259*
X1260*
X1262Y3293*
X1265Y3292*
X1301Y7504D02*
X1182D01*
X1301Y9769D02*
X1182D01*
X1311Y17436D02*
X1430D01*
X1311Y18598D02*
X1430D01*
X1326Y15440D02*
X1444D01*
X1326Y16601D02*
X1444D01*
X1424Y4482D02*
X1426Y4484D01*
X1427Y4487*
X1429Y4491*
Y4494*
Y4640*
Y4644*
X1427Y4646*
Y4648*
X1426Y4649*
Y4650*
X1424Y4651*
X1304Y4749*
X1300Y4750*
X1297Y4751*
X1294Y4752*
X937*
X931Y4750*
X927Y4747*
X923Y4743*
X922Y4738*
Y4057*
X923Y4052*
X927Y4048*
X931Y4046*
X936Y4045*
X942Y4046*
X947Y4048*
X950Y4052*
X951Y4057*
Y4383*
X1285*
X1401Y4053*
X1404Y4048*
X1409Y4045*
X1414Y4044*
X1419Y4046*
X1423Y4048*
X1426Y4052*
X1428Y4057*
X1427Y4062*
X1311Y4392*
X1424Y4482*
X1445Y6365D02*
X1461D01*
X1464Y6364*
X1466Y6363*
X1471Y6360*
X1473Y6358*
X1702Y5971*
X1703Y5968*
Y5967*
X1704Y5966*
Y5965*
Y5963*
Y5671*
X1703Y5666*
X1700Y5662*
X1695Y5660*
X1690Y5659*
X1685Y5660*
X1680Y5662*
X1677Y5666*
X1676Y5671*
Y5852*
X1227*
Y5671*
X1226Y5666*
X1223Y5662*
X1218Y5660*
X1212Y5659*
X1207Y5660*
X1202Y5662*
X1199Y5666*
X1198Y5671*
Y5963*
Y5965*
Y5966*
X1199Y5967*
Y5968*
X1200Y5971*
X1432Y6358*
X1435Y6362*
X1440Y6363*
X1443Y6364*
X1445Y6365*
X1559Y3195D02*
X1678Y3292D01*
X1681Y3293*
X1683Y3294*
X1684*
X1686Y3295*
X1925*
X1928Y3294*
X1929*
X1932Y3293*
X1934Y3292*
X2053Y3195*
X2056Y3192*
Y3189*
X2058Y3187*
Y3184*
Y2698*
Y2696*
X2056Y2691*
Y2689*
X2053Y2686*
X1934Y2589*
X1932*
X1930Y2588*
X1929Y2587*
X1927Y2586*
X1925*
X1686*
X1684Y2587*
X1681Y2588*
X1678Y2589*
X1559Y2686*
X1557Y2688*
X1556*
X1555Y2691*
X1553Y2696*
X1552Y2698*
Y3184*
X1553Y3187*
X1555Y3189*
X1556Y3192*
X1559Y3195*
X1578Y9404D02*
Y9286D01*
X1581Y3177D02*
Y2705D01*
X1623Y2669*
X1966Y3228*
X1919Y3266*
X1691*
X1581Y3177*
X1621Y4633D02*
Y4161D01*
X1730Y4072*
X1959*
X2070Y4161*
Y4633*
X1959Y4723*
X1730*
X1621Y4633*
X1646Y2651D02*
X1691Y2615D01*
X1919*
X2030Y2705*
Y3177*
X1988Y3210*
X1646Y2651*
X1802Y13521D02*
X1713D01*
X1802Y20521D02*
X1713D01*
X1862Y7140D02*
Y7022D01*
Y7869D02*
Y7987D01*
Y10133D02*
Y10251D01*
X1954Y14009D02*
X1715D01*
X1954Y14521D02*
X1715D01*
X1954Y15021D02*
X1715D01*
X1954Y15521D02*
X1715D01*
X1954Y16521D02*
X1715D01*
X1954Y17021D02*
X1715D01*
X1954Y17521D02*
X1715D01*
X1954Y18521D02*
X1715D01*
X1954Y19021D02*
X1715D01*
X1954Y19521D02*
X1715D01*
X1954Y20021D02*
X1715D01*
X2098Y4640D02*
Y4154D01*
X2097Y4151*
X2096Y4148*
X2095Y4145*
X2093Y4143*
X1974Y4046*
X1971Y4044*
X1970*
X1968*
X1967Y4043*
X1966*
X1965*
X1726*
X1723Y4044*
X1720*
X1718Y4046*
X1599Y4143*
X1596Y4145*
X1594Y4148*
X1593Y4151*
X1592Y4154*
Y4640*
X1593Y4644*
X1594Y4647*
X1596Y4648*
X1597Y4650*
X1599Y4652*
X1718Y4749*
X1720Y4750*
X1723*
Y4751*
X1726Y4752*
X1965*
X1968Y4751*
X1969Y4750*
X1971*
X1974Y4749*
X2093Y4652*
X2094Y4650*
X2095Y4649*
X2096Y4648*
Y4647*
X2097Y4644*
X2098Y4640*
X2324Y2615D02*
X2318Y2614D01*
X2316Y2611*
X2314Y2606*
X2313Y2601*
X2314Y2596*
X2316Y2591*
X2318Y2587*
X2324Y2586*
X2601*
X2605Y2587*
X2610Y2591*
X2612Y2596*
X2613Y2601*
X2612Y2606*
X2610Y2611*
X2605Y2614*
X2601Y2615*
X2476*
Y3281*
X2475Y3286*
X2473Y3289*
X2469Y3291*
X2464Y3292*
X2461Y3293*
X2457*
X2455Y3291*
X2452Y3289*
X2314Y3094*
X2311Y3090*
Y3085*
X2314Y3080*
X2317Y3077*
X2321Y3074*
X2326Y3073*
X2329*
X2331*
X2335Y3077*
X2448Y3236*
Y2615*
X2324*
X2352Y14009D02*
Y14248D01*
Y14009D02*
Y13771D01*
Y14521D02*
Y14760D01*
Y14521D02*
Y14283D01*
Y15021D02*
Y15260D01*
Y15021D02*
Y14783D01*
Y15521D02*
Y15760D01*
Y15521D02*
Y15283D01*
Y16521D02*
Y16760D01*
Y16521D02*
Y16283D01*
Y17021D02*
Y17260D01*
Y17021D02*
Y16783D01*
Y17521D02*
Y17760D01*
Y17521D02*
Y17283D01*
Y18521D02*
Y18760D01*
Y18521D02*
Y18283D01*
Y19021D02*
Y19260D01*
Y19021D02*
Y18783D01*
Y19521D02*
Y19760D01*
Y19521D02*
Y19283D01*
Y20021D02*
Y19783D01*
Y20021D02*
Y20260D01*
X2370Y6340D02*
X2373Y6344D01*
X2374Y6349*
X2373Y6355*
X2370Y6359*
X2367Y6362*
X2362Y6364*
X2360Y6365*
X2357*
X2355Y6364*
X2352Y6363*
X1898Y5993*
Y6352*
X1897Y6357*
X1893Y6361*
X1888Y6363*
X1883Y6364*
X1878Y6363*
X1873Y6361*
X1870Y6357*
X1868Y6352*
Y5671*
X1870Y5666*
X1873Y5662*
X1878Y5660*
X1883Y5659*
X1888Y5660*
X1893Y5662*
X1897Y5666*
X1898Y5671*
Y5956*
X2016Y6051*
X2351Y5662*
X2353Y5660*
X2355Y5659*
X2357Y5658*
X2360*
X2365Y5660*
X2369Y5663*
X2372Y5666*
X2374Y5671*
Y5676*
Y5679*
X2372Y5681*
X2037Y6070*
X2370Y6340*
X2423Y7504D02*
X2541D01*
X2423Y9769D02*
X2541D01*
X2568Y5958D02*
Y5881D01*
X3016*
Y5958*
X2793Y6335*
X2568Y5958*
X2643Y4409D02*
X2763Y4312D01*
X2765Y4310*
X2766Y4306*
Y4304*
X2767Y4302*
X2768Y4300*
Y4154*
X2767Y4152*
X2766Y4147*
X2765Y4146*
X2763Y4143*
X2644Y4046*
X2640Y4044*
X2638*
X2637Y4043*
X2636*
X2635*
X2396*
X2393Y4044*
X2390*
X2387Y4046*
X2268Y4143*
X2265Y4147*
X2264Y4149*
Y4151*
X2265Y4156*
X2267Y4161*
X2270Y4164*
X2275Y4167*
X2280Y4168*
X2284Y4166*
X2400Y4072*
X2629*
X2739Y4161*
Y4293*
X2629Y4383*
X2396*
X2393*
X2389Y4384*
X2387Y4385*
X2268Y4482*
X2267Y4483*
X2265Y4485*
X2264Y4487*
X2263Y4492*
X2262Y4494*
Y4640*
X2263Y4644*
X2264Y4647*
X2265Y4648*
X2267Y4650*
X2268Y4652*
X2387Y4749*
X2390Y4750*
X2392*
X2393Y4751*
X2396Y4752*
X2635*
X2637Y4751*
X2639Y4750*
X2641*
X2643Y4749*
X2732Y4676*
X2736Y4672*
X2737Y4668*
Y4663*
X2734Y4658*
X2731Y4655*
X2726Y4652*
X2720Y4651*
X2715Y4653*
X2630Y4723*
X2400*
X2291Y4633*
Y4502*
X2400Y4412*
X2635*
X2637Y4411*
X2640Y4410*
X2643Y4409*
X2699Y12624D02*
Y12536D01*
Y21418D02*
Y21507D01*
X2751Y14009D02*
X2989D01*
X2751Y14521D02*
X2989D01*
X2751Y15021D02*
X2989D01*
X2751Y15521D02*
X2989D01*
X2751Y16521D02*
X2989D01*
X2751Y17021D02*
X2989D01*
X2751Y17521D02*
X2989D01*
X2751Y18521D02*
X2989D01*
X2751Y19021D02*
X2989D01*
X2751Y19521D02*
X2989D01*
X2751Y20021D02*
X2989D01*
X2785Y6365D02*
X2802D01*
X2805Y6364*
X2807Y6363*
X2812Y6360*
X2814Y6358*
X3043Y5971*
Y5968*
X3044Y5967*
X3045Y5966*
Y5965*
Y5963*
Y5671*
X3043Y5666*
X3041Y5662*
X3036Y5660*
X3031Y5659*
X3026Y5660*
X3021Y5662*
X3018Y5666*
X3016Y5671*
Y5852*
X2568*
Y5671*
X2566Y5666*
X2564Y5662*
X2559Y5660*
X2553Y5659*
X2548Y5660*
X2543Y5662*
X2540Y5666*
X2539Y5671*
Y5963*
Y5965*
Y5966*
X2540Y5967*
Y5968*
X2541Y5971*
X2773Y6358*
X2776Y6362*
X2781Y6363*
X2783Y6364*
X2785Y6365*
X2819Y13642D02*
X2911Y13734D01*
X2819Y13642D02*
X2911Y13734D01*
X2819Y20401D02*
X2911Y20309D01*
X2819Y20401D02*
X2911Y20309D01*
X2965Y2608D02*
X2963Y2603D01*
X2964Y2598*
X2968Y2593*
X2971Y2591*
X2976Y2589*
X2981*
X2985Y2590*
X2989Y2594*
X3371Y3274*
X3372Y3277*
Y3280*
Y3283*
X3371Y3286*
X3369Y3290*
X3366Y3293*
X3362Y3294*
X3359Y3295*
X2880*
X2875Y3294*
X2872Y3290*
X2869Y3286*
X2868Y3280*
X2869Y3275*
X2872Y3270*
X2875Y3267*
X2880Y3266*
X3335*
X2965Y2608*
X3071Y22198D02*
X2953D01*
X3160Y22031D02*
Y21912D01*
Y22365D02*
Y22483D01*
X3199Y12774D02*
Y12535D01*
Y13172D02*
X3437D01*
X3199D02*
X2960D01*
X3199Y13570D02*
Y13809D01*
Y20472D02*
Y20233D01*
Y20870D02*
X2960D01*
X3199D02*
X3437D01*
X3199Y21269D02*
Y21507D01*
X3209Y5671D02*
X3211Y5666D01*
X3214Y5662*
X3218Y5660*
X3223Y5659*
X3229Y5660*
X3234Y5662*
X3238Y5666*
X3239Y5671*
Y5997*
X3688*
Y5671*
Y5666*
X3692Y5662*
X3697Y5660*
X3702Y5659*
X3707Y5660*
X3711Y5662*
X3715Y5666*
X3716Y5671*
Y6352*
X3715Y6357*
X3711Y6361*
X3707Y6363*
X3702Y6364*
X3697Y6363*
X3692Y6361*
X3688Y6357*
Y6352*
Y6026*
X3239*
Y6352*
X3238Y6357*
X3234Y6361*
X3229Y6363*
X3223Y6364*
X3218Y6363*
X3214Y6361*
X3211Y6357*
X3209Y6352*
Y5671*
X3248Y22198D02*
X3366D01*
X3423Y4723D02*
X3428Y4724D01*
X3433Y4727*
X3435Y4732*
Y4737*
Y4743*
X3433Y4747*
X3428Y4750*
X3423Y4752*
X2945*
X2940Y4750*
X2936Y4747*
X2932Y4743*
X2931Y4738*
Y4057*
X2932Y4052*
X2936Y4048*
X2940Y4044*
X2945Y4043*
X3423*
X3428Y4044*
X3433Y4047*
X3435Y4052*
Y4057*
Y4063*
X3433Y4068*
X3428Y4071*
X3423Y4073*
X2961*
Y4383*
X3282*
X3287Y4385*
X3291Y4388*
X3293Y4392*
X3294Y4397*
X3293Y4402*
X3291Y4407*
X3287Y4411*
X3282Y4412*
X2961*
Y4723*
X3423*
X3707Y11043D02*
X3589D01*
X3726Y9746D02*
X3608D01*
X3874Y10757D02*
Y10639D01*
Y11328D02*
Y11446D01*
X3893Y9461D02*
Y9343D01*
Y10032D02*
Y10150D01*
X4060Y9746D02*
X4178D01*
X4258Y6337D02*
X4263Y6338D01*
X4267Y6341*
X4269Y6346*
X4270Y6351*
X4269Y6357*
X4267Y6362*
X4263Y6365*
X4258Y6366*
X3982*
X3976Y6365*
X3973Y6362*
X3971Y6357*
X3970Y6351*
X3971Y6346*
X3973Y6341*
X3976Y6338*
X3982Y6337*
X4106*
Y5687*
X3982*
X3976Y5686*
X3973Y5682*
X3971Y5677*
X3970Y5671*
X3971Y5666*
X3973Y5661*
X3976Y5659*
X3982Y5657*
X4258*
X4263Y5659*
X4267Y5661*
X4269Y5666*
X4270Y5671*
X4269Y5677*
X4267Y5682*
X4263Y5686*
X4258Y5687*
X4133*
Y6337*
X4258*
X4521Y10745D02*
X4403D01*
X4529Y9881D02*
X4411D01*
X4807Y10742D02*
Y10624D01*
Y11077D02*
Y11195D01*
X4815Y9714D02*
Y9595D01*
Y10048D02*
Y10166D01*
X5028Y6343D02*
X4792Y6007D01*
Y5671*
X4790Y5666*
X4787Y5662*
X4782Y5660*
X4778Y5659*
X4773Y5660*
X4768Y5662*
X4765Y5666*
X4763Y5671*
Y6007*
X4527Y6343*
X4525Y6347*
X4526Y6352*
X4528Y6357*
X4532Y6361*
X4537Y6364*
X4542*
X4546*
X4551Y6360*
X4778Y6037*
X5006Y6360*
X5009Y6364*
X5014*
X5018*
X5023Y6361*
X5027Y6357*
X5030Y6352*
X5031Y6347*
X5028Y6343*
X5092Y10910D02*
X5210D01*
X5100Y9881D02*
X5218D01*
X5223Y5958D02*
Y5881D01*
X5672*
Y5958*
X5448Y6335*
X5223Y5958*
X5441Y6365D02*
X5457D01*
X5460Y6364*
X5462Y6363*
X5467Y6360*
X5469Y6358*
X5698Y5971*
X5699Y5968*
Y5967*
X5700Y5966*
Y5965*
Y5963*
Y5671*
X5699Y5666*
X5696Y5662*
X5691Y5660*
X5686Y5659*
X5681Y5660*
X5676Y5662*
X5673Y5666*
X5672Y5671*
Y5852*
X5223*
Y5671*
X5222Y5666*
X5219Y5662*
X5214Y5660*
X5208Y5659*
X5203Y5660*
X5198Y5662*
X5196Y5666*
X5194Y5671*
Y5963*
Y5965*
Y5966*
X5195Y5967*
X5196Y5968*
Y5971*
X5428Y6358*
X5432Y6362*
X5436Y6363*
X5439Y6364*
X5441Y6365*
X5566Y9786D02*
X5448D01*
X5566Y10860D02*
X5448D01*
X5728Y23642D02*
X5636Y23550D01*
X5728Y24804D02*
X5613Y24856D01*
X5984Y23642D02*
X6076Y23550D01*
X6127Y9422D02*
Y9303D01*
Y10150D02*
Y10268D01*
Y10496D02*
Y10378D01*
Y11224D02*
Y11342D01*
X6688Y9786D02*
X6806D01*
X6688Y10860D02*
X6806D01*
X6728Y23642D02*
X6636Y23550D01*
X6984Y23642D02*
X7076Y23550D01*
X6984Y24804D02*
X7099Y24856D01*
X7012Y10526D02*
X6894D01*
X7228Y24223D02*
X7110D01*
X7356Y23642D02*
Y23524D01*
X7573Y10162D02*
Y10044D01*
Y10890D02*
Y11008D01*
X7578Y20401D02*
X7486Y20309D01*
X7578Y20401D02*
X7486Y20309D01*
X7699Y21418D02*
Y21507D01*
X7701Y11914D02*
X7608Y11822D01*
X7701Y12249D02*
X7583Y12250D01*
X7782Y9144D02*
X7665Y9107D01*
X7782Y9715D02*
X7690Y9807D01*
X7849Y12779D02*
X7937D01*
X7878Y11914D02*
X7970Y11822D01*
X7878Y12249D02*
X7996Y12250D01*
X8117Y9144D02*
X8235Y9107D01*
X8117Y9715D02*
X8209Y9807D01*
X8134Y10526D02*
X8252D01*
X8579Y8382D02*
X8460D01*
X8595Y13583D02*
X8684D01*
X8595Y20521D02*
X8684D01*
X8746Y8097D02*
Y7979D01*
X8748Y7288D02*
X8630D01*
X8829Y6924D02*
Y6806D01*
X8913Y8382D02*
X9031D01*
X9028Y6471D02*
X8935Y6378D01*
X9028Y6766D02*
X8910Y6786D01*
X9284Y6471D02*
X9376Y6378D01*
X9284Y6766D02*
X9402Y6786D01*
X9309Y7653D02*
Y7771D01*
X9457Y13589D02*
X9339Y13569D01*
X9457Y13628D02*
X9339Y13648D01*
X9520Y6924D02*
Y6806D01*
X9546Y14022D02*
Y14140D01*
X9709Y15089D02*
X9591D01*
X9851Y14148D02*
X9733D01*
X9858Y16472D02*
X9766Y16380D01*
X9858Y17594D02*
X9766Y17686D01*
X9886Y11269D02*
X9768Y11246D01*
X9886Y11308D02*
X9768Y11328D01*
X9886Y11663D02*
X9768Y11643D01*
X9886Y11702D02*
X9794Y11794D01*
X9995Y14922D02*
Y14804D01*
Y15256D02*
Y15375D01*
X10063Y11702D02*
X10155Y11794D01*
X10215Y14583D02*
X10192Y14701D01*
X10254Y14583D02*
X10274Y14701D01*
X10280Y10932D02*
X10161D01*
X10280Y11828D02*
X10161D01*
X10280Y15089D02*
X10398D01*
X10321Y10905D02*
Y10787D01*
Y11869D02*
Y11988D01*
X10447Y10600D02*
X10329D01*
X10447Y12175D02*
X10329D01*
X10467Y10511D02*
Y10393D01*
X10536Y18372D02*
Y18490D01*
X10559Y18224D02*
X10677D01*
X10586Y16472D02*
X10678Y16380D01*
X10586Y17594D02*
X10678Y17686D01*
X10609Y14583D02*
X10589Y14701D01*
X10648Y12831D02*
X10766Y12828D01*
X10648Y13008D02*
X10740Y13100D01*
X10648Y14406D02*
X10740Y14314D01*
X10648Y14583D02*
X10740Y14675D01*
X10774Y13225D02*
Y13107D01*
Y14189D02*
Y14307D01*
X10815Y14148D02*
X10933D01*
X10845Y15896D02*
X10727D01*
X11120Y14022D02*
Y14140D01*
X11130Y15729D02*
Y15611D01*
Y16064D02*
Y16182D01*
X11209Y14002D02*
X11327D01*
X11416Y15896D02*
X11534D01*
X11927Y17013D02*
X11809D01*
X11945Y18225D02*
X11827D01*
X12201D02*
X12319D01*
X12291Y16452D02*
Y16334D01*
Y17574D02*
Y17692D01*
X12501Y14229D02*
X12383D01*
X12525Y15091D02*
X12433Y14999D01*
X12525Y15426D02*
X12433Y15518D01*
X12525Y14061D02*
Y13943D01*
X12552Y13514D02*
Y13632D01*
X12582Y12581D02*
Y12699D01*
X12589Y14396D02*
Y14514D01*
X12640Y13347D02*
X12758D01*
X12670Y12414D02*
X12789D01*
X12678Y14229D02*
X12796D01*
X12702Y15091D02*
X12794Y14999D01*
X12702Y15426D02*
X12710Y15544D01*
X13301Y13392D02*
X13183D01*
X13301Y13983D02*
X13183D01*
X13561Y18088D02*
X13443Y18069D01*
X13561Y18384D02*
X13469Y18476D01*
X14497Y3555D02*
X14379D01*
X14694Y2954D02*
Y2836D01*
Y4155D02*
Y4273D01*
X14891Y3555D02*
X15009D01*
X15209Y18257D02*
X15091D01*
X15337Y18109D02*
Y17991D01*
Y18405D02*
Y18523D01*
X15465Y18257D02*
X15583D01*
X15811Y5955D02*
X15693D01*
X16017Y5670D02*
Y5552D01*
Y6241D02*
Y6359D01*
X16224Y5955D02*
X16342D01*
X16441Y12792D02*
Y12910D01*
X17036Y18269D02*
X17020Y18387D01*
X17292Y17974D02*
X17410Y17934D01*
X17292Y18269D02*
X17384Y18361D01*
X17632Y13392D02*
X17514D01*
X18203D02*
X18321D01*
X18787Y11189D02*
X18669D01*
X18868Y11356D02*
Y11474D01*
X18871Y17966D02*
X18753Y17932D01*
X18871Y18261D02*
X18779Y18353D01*
X19112Y11022D02*
Y10904D01*
X19127Y17966D02*
X19245Y17932D01*
X19127Y18261D02*
X19219Y18353D01*
X19704Y16135D02*
X19586D01*
X19726Y14652D02*
X19608D01*
X19742Y13058D02*
X19624D01*
X19852Y16008D02*
Y15889D01*
Y16263D02*
Y16382D01*
X19874Y14524D02*
Y14406D01*
Y14780D02*
Y14898D01*
X19890Y12930D02*
Y12812D01*
X19999Y16135D02*
X20117D01*
X20021Y14652D02*
X20139D01*
X20038Y12994D02*
X20156D01*
X20304Y11338D02*
X20287Y11220D01*
X20304Y11594D02*
X20287Y11712D01*
X20599Y11338D02*
X20691Y11246D01*
X20599Y11594D02*
X20691Y11686D01*
X21165Y18064D02*
X21047D01*
X21245Y24194D02*
X21127D01*
X21253Y17897D02*
Y17779D01*
Y18232D02*
Y18350D01*
X21342Y18064D02*
X21460D01*
X21550Y23791D02*
Y23673D01*
Y24598D02*
Y24716D01*
X21713Y19568D02*
X21595D01*
X21801Y19401D02*
Y19283D01*
Y19736D02*
Y19854D01*
X21855Y24194D02*
X21973D01*
X21890Y19568D02*
X22008D01*
X23016Y19072D02*
Y18953D01*
Y19800D02*
Y19918D01*
X24391Y19538D02*
X24273D01*
X24432Y17194D02*
X24314D01*
X24434Y24194D02*
X24316D01*
X24480Y19371D02*
Y19253D01*
Y19705D02*
Y19824D01*
X24521Y17027D02*
Y16909D01*
Y17361D02*
Y17479D01*
X24569Y19538D02*
X24687D01*
X24609Y17194D02*
X24727D01*
X24739Y23791D02*
Y23673D01*
Y24598D02*
Y24716D01*
X24943Y18073D02*
X24825D01*
X25032Y17906D02*
Y17788D01*
Y18241D02*
Y18359D01*
X25044Y24194D02*
X25162D01*
X25121Y18073D02*
X25239D01*
G54D12*
X9898Y24045D02*
X9940Y24003D01*
Y23457*
X10234Y23162*
X11859*
X12727Y24030*
X13778*
Y24060*
X10825Y1941D02*
X10174Y1291D01*
X12174D02*
X11861Y977D01*
X12174Y1291D02*
X12487Y977D01*
X12174Y1291D02*
X11861Y1604D01*
X12174Y1291D02*
X12487Y1604D01*
X13242Y4561D02*
Y5561D01*
Y4561D02*
Y3927D01*
X14622Y2548*
X15245*
X13242Y5561D02*
Y6561D01*
Y7561*
X13778Y24060D02*
X13818Y24020D01*
X16311Y1283D02*
X16624Y969D01*
X16311Y1283D02*
X15997Y969D01*
X16311Y1283D02*
X15997Y1596D01*
X16311Y1283D02*
X16624Y1596D01*
X17728Y24103D02*
Y24090D01*
X19512Y3638D02*
X19119Y3843D01*
X19512Y3638D02*
X19695Y4041D01*
X19512Y3638D02*
X19284Y3257D01*
X20465Y1318D02*
X20152Y1631D01*
X20465Y1318D02*
X20778Y1005D01*
X20465Y1318D02*
X20778Y1631D01*
X20465Y1318D02*
X20152Y1005D01*
X24270Y14966D02*
Y15032D01*
X24400Y15162*
Y15558*
X24569Y11687D02*
Y11185D01*
X24465*
X24268Y10988*
X24596Y1300D02*
X24909Y987D01*
X24596Y1300D02*
X24282Y987D01*
X24596Y1300D02*
X24282Y1613D01*
X24596Y1300D02*
X24909Y1613D01*
G54D13*
X1508Y18017D02*
X1513Y18021D01*
X2352*
X1523Y16021D02*
X2352D01*
X1862Y10907D02*
X2594D01*
X2729Y11043*
X3067*
X3086Y9746D02*
X2800D01*
X2541Y9487*
Y9338*
X2489Y9286*
X2050*
X1862Y9098*
Y8616*
X3332Y10275D02*
X3211D01*
X3086Y10150*
Y9746*
X3582Y11513D02*
Y11272D01*
X3353Y11043*
X3067*
X3699Y20870D02*
Y21684D01*
X3711Y21697*
Y22198*
X4081Y12226D02*
X3935Y12372D01*
X3862*
X3699Y12535*
Y13172*
X4815Y9074D02*
Y8632D01*
X5210Y11717D02*
X4807D01*
X5299Y11447D02*
Y11628D01*
X5210Y11717*
X6127Y8683D02*
X5448D01*
Y8844*
X5218Y9074*
X4815*
X6127Y8683D02*
X6806D01*
X6860Y8737*
Y8742*
X7057Y8938*
X9209*
X10663Y10393*
Y10600*
X6127Y12000D02*
X5448D01*
X5210Y11762*
Y11717*
X6127Y12000D02*
Y11518D01*
X6159Y11486*
X9974*
X6135Y3794D02*
X8287D01*
X10514Y6022*
Y7627*
X11792Y8905*
X14599*
X14758Y9063*
Y9162*
X15565Y9970*
Y10738*
X16393Y11566*
X16495*
X17032Y12103*
Y12507*
X6169Y4151D02*
X8341D01*
X10358Y6167*
Y7830*
X11669Y9141*
X14424*
X14640Y9357*
Y9717*
X15157Y10234*
Y10726*
X16048Y11617*
Y12507*
X6227Y4440D02*
X7896D01*
X8558Y5102*
Y5834*
X8915Y6192*
X9984*
X10191Y6399*
Y7987*
X11592Y9388*
X14321*
X14426Y9493*
Y9742*
X14995Y10310*
Y10824*
X15851Y11680*
Y12507*
X6582Y3041D02*
X6797Y3257D01*
X8449*
X9014Y3821*
X9107*
X10890Y5604*
X12232*
X12294Y5666*
Y8078*
X12602Y8386*
X14793*
X15128Y8721*
Y8949*
X15876Y9697*
Y10638*
X16359Y11121*
X16983*
X17918Y12056*
Y13196*
X6936Y2936D02*
X8404D01*
X8975Y3508*
X9471*
X10504Y4541*
X12226*
X12497Y4813*
Y7847*
X12742Y8092*
X14866*
X15600Y8826*
Y9026*
X16059Y9485*
Y10618*
X16383Y10942*
X17021*
X17360Y11281*
X17722*
X7437Y9430D02*
X7950D01*
X7790Y7294D02*
Y7830D01*
X7939Y7979*
Y8382*
X7856Y24223D02*
X8139D01*
X8143Y24227*
X8386*
X8044Y16521D02*
X8681D01*
X8694Y16508*
Y16293*
X8044Y17021D02*
X8666D01*
X8707Y17063*
Y17822*
X9503Y18618*
X10463*
X10777Y18932*
X11304*
X11489Y18747*
X13806*
X14196Y18356*
Y18191*
X14456Y17930*
X14865*
X15457Y17338*
Y16837*
X8044Y17521D02*
X7372D01*
X7367Y17516*
X7126*
X8567Y23414D02*
X7446D01*
X7356Y23323*
Y22625*
X8753Y601D02*
X9158D01*
X9179Y622*
X8757Y9430D02*
X9214D01*
X9220Y9436*
X8785Y16012D02*
X8776Y16021D01*
X8044*
X9136Y10505D02*
Y10022D01*
X8946*
X8757Y9833*
Y9430*
X9220Y9436D02*
X9974Y10190D01*
Y11092*
X9237Y17014D02*
Y15901D01*
X9386Y15752*
X9311Y21118D02*
X10001D01*
X10398Y21515*
Y22214*
X9386Y15752D02*
X9531Y15896D01*
X9995*
X9467Y8796D02*
X11057Y10386D01*
Y10600*
X9467Y8796D02*
X8522D01*
X8460Y8734*
Y8619*
X8224Y8382*
X7939*
X9472Y12499D02*
X9746Y12225D01*
X10173*
X10410Y12462*
X10582*
X10663Y12381*
Y12175*
X9516Y22182D02*
X9073Y22625D01*
X7856*
X9530Y5831D02*
X9220D01*
X9060Y5671*
X9546Y13412D02*
X9219D01*
X8859Y13771*
X7447*
X7409Y13809*
X6600*
X6449Y13658*
Y12686*
X6271Y12509*
X4961*
X4281Y11829*
Y10813*
X3744Y10275*
X3332*
X9546Y13609D02*
X10235D01*
X9546Y13805D02*
X9339D01*
Y14088*
X9386Y14136*
Y15752*
X9641Y14009D02*
X9634Y14002D01*
X9546*
X9683Y18224D02*
Y17931D01*
X9773Y17841*
X12639*
X12857Y17624*
Y15202*
X13092Y14967*
X13587*
X9809Y14488D02*
X9815Y14494D01*
X10038*
X9841Y21784D02*
X4475D01*
X4199Y21507*
Y20870*
X10038Y12920D02*
Y12713D01*
X10036Y12712*
Y12432*
X10057Y19012D02*
Y19767D01*
X9686Y20138*
X9302*
X10235Y12920D02*
Y12668D01*
X10276Y12626*
X10762*
X10878Y12742*
X11672*
X11733Y12682*
X11756*
X10235Y13609D02*
X10333Y13707D01*
X10235Y14158D02*
Y14494D01*
X10247Y2825D02*
X10233Y2839D01*
X9824*
X10333Y13707D02*
X10628Y14002D01*
X10333Y13707D02*
Y13904D01*
Y14009D02*
X9641D01*
X10333D02*
Y14059D01*
X10235Y14158*
X10333Y14009D02*
Y13904D01*
X10381Y11289D02*
X9974D01*
X10431Y12920D02*
X10628D01*
X10431Y14494D02*
Y14794D01*
X10727Y15089*
X11130*
X10467Y12175D02*
X10479Y12162D01*
Y11387D02*
X10762D01*
X10479D02*
X10381Y11289D01*
X10479Y12162D02*
Y11387D01*
X10628Y12920D02*
Y13412D01*
X10333Y13707*
X10628Y14002D02*
X10924D01*
X10628Y14200D02*
X10333Y13904D01*
X10628Y14494D02*
Y14200D01*
X10762Y11387D02*
X10468Y11093D01*
Y10878*
X10467Y10877*
Y10600*
X10825Y1941D02*
X10957Y2074D01*
X18491*
X19972Y3555*
Y12144*
X18331Y13786*
X17918*
X10860Y10600D02*
Y11289D01*
X10762Y11387*
X10860Y11486D02*
X10762Y11387D01*
X10860Y12175D02*
Y12381D01*
X11015Y12536*
X11521*
X10921Y14006D02*
X10924Y14002D01*
X11120*
X11080Y19965D02*
Y19386D01*
X11453Y19012*
X11699*
X11120Y13412D02*
Y13274D01*
X11416Y12979*
X12099*
X12276Y13156*
Y13657*
X12407Y13788*
X12589*
X12960Y14159*
Y14777*
X11120Y13609D02*
X11341D01*
X11602Y13870*
X11822*
X11130Y15089D02*
X11672D01*
X11711Y15129*
X11138Y10020D02*
X11459Y10341D01*
Y10477*
X12706Y11724*
Y11945*
X13316Y12556*
X13447*
X14085Y13194*
Y13244*
X14342Y13502*
Y13982*
X14144Y14180*
X13587*
X11306Y12329D02*
Y12286D01*
X11195Y12175*
X11057*
X11325Y18225D02*
Y18077D01*
X11634*
X11752Y17959*
X12719*
X12991Y17688*
Y15357*
X13183Y15164*
X13587*
X11398Y22214D02*
Y21515D01*
X11664Y21249*
Y20138*
X11412Y4061D02*
X11146Y3795D01*
X10876*
Y3560*
X11431Y24803D02*
X10977D01*
X10898Y24724*
Y24025*
X11431Y5061D02*
X12204D01*
X12222Y5043*
X11431Y6061D02*
Y6550D01*
X11442Y6561*
X11431Y7061D02*
Y7533D01*
X11449Y7551*
X11481Y14228D02*
X11760D01*
Y14229*
X12038*
X11481Y14228D02*
Y13960D01*
X11327Y13805*
X11120*
X11539Y11928D02*
X11549Y11918D01*
Y11682*
Y11289D02*
X11756D01*
Y12682*
X11549Y11486D02*
X10860D01*
X11634Y10092D02*
X11877Y10335D01*
Y10477*
X12830Y11429*
Y11902*
X13365Y12438*
X13495*
X14203Y13145*
Y13195*
X14460Y13453*
Y14031*
X14114Y14377*
X13587*
X11711Y15129D02*
Y16048D01*
X11630Y16129*
Y17058*
X11266*
X11994Y11545D02*
Y11329D01*
X11756Y11092*
X11549*
X11994Y11545D02*
X12256Y11807D01*
Y12669*
X12402Y12815*
X12001Y13347D02*
Y13632D01*
X12038Y13670*
Y14229*
Y11929D02*
X12031Y11936D01*
Y12414*
X12062Y15259D02*
Y14801D01*
X12038Y14777*
Y14229*
X12291Y17013D02*
Y16304D01*
X12352Y16243*
X12582Y12414D02*
X12882D01*
X12953Y20148D02*
Y21288D01*
X13895Y22229*
X14278*
X13309Y12944D02*
X13483D01*
X13587Y13048*
Y13196*
X13315Y19024D02*
X13563D01*
X13902Y19363*
X13386Y17851D02*
X13626Y17610D01*
Y16650*
X13990Y16286*
Y15951*
X13587*
X13481Y12094D02*
X13312Y11925D01*
Y11164*
X13220Y11071*
X13219*
X13066Y10919*
X13518Y10345D02*
X13594D01*
Y10729*
X13947Y11082*
X14471*
X13587Y13392D02*
X13183D01*
X13052Y13261*
Y12584*
X12882Y12414*
X13587Y13589D02*
X13183D01*
X12934Y13340*
Y13203*
X12772Y13042*
X12333*
X12152Y12861*
X12147*
X12052Y12765*
X11840*
X11756Y12682*
X13587Y14574D02*
X14279D01*
X14627Y14226*
Y13452*
X14321Y13146*
Y13093*
X14187Y12959*
Y12949*
X13558Y12320*
X13414*
X13098Y12004*
Y11436*
X12284Y10623*
Y10407*
X10012Y8135*
Y6618*
X9904*
X13587Y15361D02*
X14105D01*
X14414Y15670*
Y16029*
X13805Y16638*
Y17780*
X13587Y15558D02*
X13183D01*
X13111Y15630*
Y17775*
X12941Y17945*
Y18236*
X13587Y15755D02*
X13995D01*
X13996Y15756*
X14208*
X13587Y16148D02*
Y16522D01*
X13390Y16719*
Y17418*
X13689Y18236D02*
X13401D01*
X13136Y18502*
X12747*
X12470Y18225*
X12073*
X14024Y17149D02*
Y16942D01*
X14128Y16837*
X14276*
X14102Y13589D02*
X13587D01*
X14136Y13896D02*
X14117D01*
X14007Y13786*
X13587*
X14311Y1806D02*
X14460Y1956D01*
X18866*
X20132Y3222*
Y12220*
X18369Y13983*
X17918*
X14355Y11954D02*
X14473Y12071D01*
Y12507*
Y16837D02*
Y16293D01*
X15246Y15520*
X15992*
X14528Y13061D02*
X14382Y12914D01*
X14310*
X14305Y12910*
Y12507*
X14276*
X14670Y16837D02*
Y17541D01*
X14007Y18204*
Y18379*
X13765Y18620*
X12698*
X12657Y18579*
X11348*
X11202Y18725*
X14778Y24040D02*
Y24739D01*
X14842Y24803*
X15266*
X14816Y12009D02*
X14866Y12059D01*
Y12507*
X14840Y17663D02*
X15260Y17243D01*
Y16837*
X14866Y14703D02*
Y13107D01*
X14670Y12910*
Y12507*
X14866Y16837D02*
Y16309D01*
X14849Y16292*
X14963Y19045D02*
X15209D01*
X15315Y19150*
Y20148*
X15063Y12507D02*
Y11674D01*
X14471Y11082*
X15063Y16837D02*
Y16287D01*
X15223Y16127*
Y16057*
X15369Y15911*
X15085Y13071D02*
Y14897D01*
X15008Y14974*
X14636*
X14432Y14770*
X13587*
X15165Y9944D02*
X15362Y10141D01*
Y10732*
X16244Y11615*
Y12507*
X15260D02*
Y12080D01*
X15203Y12023*
Y11561*
X15167Y11524*
Y11257*
X14998Y11088*
X14997*
X14995Y11086*
X14991*
X14788Y10883*
X15340Y21215D02*
Y21469D01*
X15278Y21531*
Y22229*
X15432Y11554D02*
X15654Y11776D01*
Y12507*
X15457D02*
Y11985D01*
X15447Y11975*
X15654Y16837D02*
Y17439D01*
X14835Y18257*
X14589*
X16048Y16837D02*
Y17487D01*
X16416Y17856*
Y18122*
X16095Y21350D02*
X15851Y21106D01*
Y16837*
X16390Y9741D02*
X16999D01*
X17219Y9961*
Y10345*
X16441Y12507D02*
Y13251D01*
X16326Y13367*
X16305*
X16296Y13358*
X16069*
X16441Y16837D02*
Y16434D01*
X16525Y16350*
X18471*
X19313Y17192*
X21579*
X22145Y16626*
X23072*
X23213Y16768*
Y17507*
X16638Y12507D02*
Y13346D01*
X16642Y13350*
Y13557*
X16638Y16837D02*
Y17511D01*
X16891Y17764*
X19672*
X19707*
X19831Y17640*
X22295*
X22428Y17507*
X22623*
X16642Y13557D02*
X17165D01*
X17198Y13589*
X17918*
X16790Y18909D02*
Y19216D01*
X16662Y19344*
Y20180*
X16835Y12507D02*
Y13047D01*
X16877Y13089*
X17379*
X17420Y13047*
Y11810*
X16921Y11311*
X16339*
X15728Y10699*
Y9870*
X14906Y9049*
Y8837*
X14695Y8627*
X11836*
X10690Y7480*
Y5928*
X9698Y4936*
Y4766*
X8487Y3555*
X6743*
X6611Y3424*
X6317*
X16982Y15610D02*
X17323Y15951D01*
X17918*
X17008Y17556D02*
X16835Y17384D01*
Y16837*
X17032D02*
Y17270D01*
X17111Y17350*
X18849*
X18954Y17455*
X21939*
X22455Y16939*
X22750*
X22819Y17009*
Y17507*
X17164Y18122D02*
X17448D01*
X17461Y18109*
X17705*
X17229Y12507D02*
Y11930D01*
X17147Y11848*
X17229Y16837D02*
X18662D01*
X19149Y17324*
X21789*
X22321Y16792*
X22944*
X23016Y16864*
Y17507*
X17561Y21095D02*
X17707Y21241D01*
X17909*
X18228Y21561*
Y22260*
X17766Y24052D02*
X17728Y24090D01*
X17918Y14180D02*
X18358D01*
X18468Y14069*
X18722*
X17918Y14377D02*
X18454D01*
X18464Y14366*
X17918Y14574D02*
X17335D01*
X17316Y14592*
X17918Y14770D02*
X18388D01*
X18500Y14659*
X17918Y14967D02*
X18484D01*
X18769Y14682*
Y14351*
X19689Y13432*
X19976*
X20451Y12957*
Y12214*
X17918Y15164D02*
X18512D01*
X19870Y13806*
X19890*
X17918Y15755D02*
X18703D01*
X19832Y16884*
X19852*
X17918Y16148D02*
X17363D01*
X17335Y16121*
X16977*
X18251Y18114D02*
Y18394D01*
X18108Y18538*
X16959*
X16790Y18369*
Y17945*
X16244Y17400*
Y16837*
X18728Y24071D02*
X19112D01*
X19303Y24262*
Y24410*
X19449Y24557*
X19088Y9281D02*
Y9620D01*
X19112Y9644*
Y9929*
Y10215*
X18426Y10901*
X17394*
X19112Y11189D02*
X18669D01*
X18179Y11680*
Y12106*
X19120Y19056D02*
X18965Y18901D01*
X18625*
X19228Y22260D02*
Y21561D01*
X19024Y21357*
Y20180*
X19497Y12084D02*
X19351Y12230D01*
Y12363*
X18321Y13392*
X17918*
X19838Y18109D02*
X20130Y18401D01*
X20782*
X19874Y14652D02*
X19608D01*
X19430Y14830*
Y15057*
X19874Y15400D02*
X19034D01*
X18877Y15558*
X17918*
X20639Y16509D02*
Y16099D01*
X20616Y16076*
X20661Y14358D02*
Y14780D01*
Y15026*
X20677Y13432D02*
X20943D01*
X22511Y11865*
Y11320*
X20871Y9308D02*
X21239Y9675D01*
Y11840*
X21250Y19568D02*
Y19283D01*
X21255Y19278*
Y18811*
X21547Y7995D02*
X21798D01*
X21929Y7864*
X22180*
X21550Y20710D02*
Y20188D01*
X21250Y19888*
Y19568*
X21806Y18811D02*
Y18526D01*
X21805Y18524*
Y18064*
X22188Y19036D02*
X22042Y18889D01*
Y18840*
X22013Y18811*
X21806*
X22352Y18709D02*
X22575D01*
X22819Y18953*
Y19436*
X22357Y12915D02*
X21733D01*
X20419Y14229*
X19688*
X18556Y15361*
X17918*
X22437Y10488D02*
Y10872D01*
X22165Y11144*
X21921*
X22439Y13466D02*
X23138D01*
X23249Y13355*
Y13342*
X22439Y14466D02*
X21693D01*
X21595Y14563*
X22472Y8877D02*
X22437Y8912D01*
Y9488*
X22623Y19436D02*
X22300D01*
X22275Y19410*
X22642Y6713D02*
X23035D01*
X24947Y8625*
Y10604*
X24563Y10988*
X24268*
X23668Y17493D02*
X23655Y17507D01*
X23410*
X23766Y19336D02*
X23666Y19436D01*
X23410*
X23823Y4824D02*
Y4430D01*
X23343Y3950*
X22096*
X19465Y1318*
X23970Y17194D02*
X23763D01*
X23668Y17288*
Y17493*
X23992Y19820D02*
X23604D01*
X23506Y19918*
X23213*
Y19436*
X24000Y18809D02*
X24239D01*
X24240Y18808*
X24479*
X24248Y9988D02*
X23549D01*
X23254Y9693*
Y8466*
X22731Y7943*
Y7864*
X24479Y18808D02*
Y18522D01*
X24481Y18520*
Y18073*
X24495Y13257D02*
X24250Y13501D01*
Y13966*
X25031Y19538D02*
Y19253D01*
X25030Y19252*
Y18808*
X25031Y19538D02*
Y19896D01*
X24739Y20188*
Y20710*
G54D14*
X7067Y8656D02*
X6878Y8467D01*
Y7723*
X7299Y12438D02*
Y12427D01*
X7238Y12367*
Y12081*
X7299Y12438D02*
X7199Y12538D01*
Y13172*
X7299Y12438D02*
X9205D01*
X9266Y12499*
X9472*
X7945Y2052D02*
Y601D01*
Y2052D02*
X7748D01*
X7257Y2544*
X7945Y2052D02*
X8732Y2839D01*
X9017*
Y2389*
X9125Y2282*
X15964*
X16922Y3240*
Y5231*
X15245Y2548D02*
X15468D01*
X15757Y2836*
Y3555*
X16922Y5231D02*
Y5551D01*
X16923Y5552*
Y5955*
Y6663*
Y8357*
X18216Y12471D02*
Y12915D01*
X19088Y8730D02*
X19374D01*
X19713Y9069*
Y11416*
X19523Y11606*
X19081*
X18216Y12471*
X19088Y8730D02*
X18684D01*
X18311Y8357*
X16923*
G54D15*
X13818Y24020D02*
Y23427D01*
X14114Y23131*
X15720*
X16692Y24103*
X17728*
X14311Y1283D02*
Y1806D01*
X20372Y23159D02*
X20037D01*
X20034Y23162*
X17932*
X17766Y23328*
Y24052*
X24400Y15558D02*
X23801Y16157D01*
X21960*
X21308Y16809*
G54D16*
X11174Y1291D03*
X12174D03*
X15311Y1283D03*
X16311D03*
X18512Y3638D03*
X19465Y1318D03*
X19512Y3638D03*
X20465Y1318D03*
X23596Y1300D03*
X24569Y11687D02*
Y12662D01*
X25215Y13308*
Y14743*
X24400Y15558*
X24596Y1300D03*
G54D17*
X18512Y3638D02*
Y4189D01*
X18510Y4191*
Y5648*
X18203Y5955*
X17828*
G54D18*
X416Y404D03*
X431Y7429D03*
X446Y8535D03*
X774Y12612D03*
X801Y13247D03*
Y13756D03*
Y14230D03*
X814Y19799D03*
Y20259D03*
X817Y14756D03*
X825Y19276D03*
Y20866D03*
Y21420D03*
X889Y17010D03*
X1046Y6798D03*
X1169Y1864D03*
X1199Y1096D03*
X1230Y404D03*
X1515Y21096D03*
Y21692D03*
X1518Y20519D03*
X1524Y20027D03*
X1528Y19018D03*
Y19534D03*
X1537Y18520D03*
X1560Y17528D03*
X1563Y12360D03*
X1570Y12917D03*
Y15040D03*
Y15523D03*
X1572Y16520D03*
X1573Y14504D03*
X1574Y17031D03*
X1579Y13521D03*
Y14017D03*
X2163Y21702D03*
X2177Y12356D03*
X2691Y12360D03*
X2707Y21681D03*
X3059Y8028D03*
X3175Y14011D03*
X3184Y14527D03*
Y15040D03*
X3195Y15563D03*
Y16535D03*
X3205Y17016D03*
Y17539D03*
Y18533D03*
Y19048D03*
X3209Y20008D03*
X3247Y19495D03*
X3332Y10275D03*
X3582Y11513D03*
X3711Y21697D03*
X4081Y12226D03*
X4274Y4062D03*
X4735Y4846D03*
X4815Y8632D03*
X4991Y24541D03*
X5299Y11447D03*
X6103Y5108D03*
X6135Y3794D03*
X6169Y4151D03*
X6227Y4440D03*
X6317Y3424D03*
X6582Y3041D03*
X6878Y7723D03*
X6936Y2936D03*
X7067Y8656D03*
X7126Y17516D03*
X7209Y5046D03*
X7257Y2544D03*
X7437Y9430D03*
X7486Y6214D03*
X7543Y1567D03*
X8303Y21312D03*
X8386Y24227D03*
X8397Y12888D03*
X8567Y23414D03*
X8694Y16293D03*
X8785Y16012D03*
X8799Y13540D03*
X9025Y14755D03*
X9038Y18924D03*
X9040Y18457D03*
X9060Y5671D03*
X9158Y8345D03*
X9179Y622D03*
X9220Y9436D03*
X9269Y1495D03*
X9311Y21118D03*
X9386Y15752D03*
X9467Y8796D03*
X9472Y12499D03*
X9516Y22182D03*
X9608Y11735D03*
X9809Y14488D03*
X9841Y21784D03*
X10036Y12432D03*
X10247Y2825D03*
X10841Y18214D03*
X10876Y3560D03*
X11007Y14583D03*
X11080Y19965D03*
X11138Y10020D03*
X11202Y18725D03*
X11306Y12329D03*
X11431Y24803D03*
X11442Y6561D03*
X11448Y14577D03*
X11449Y7551D03*
X11481Y14228D03*
X11521Y12536D03*
X11539Y11928D03*
X11634Y10092D03*
X11701Y18296D03*
X11711Y15129D03*
X11822Y13870D03*
X11994Y11545D03*
X12038Y11929D03*
X12222Y5043D03*
X12325Y15799D03*
X12352Y16243D03*
X12402Y12815D03*
X12415Y14668D03*
X12882Y12414D03*
X12960Y14777D03*
X12997Y13787D03*
X13066Y10919D03*
X13309Y12944D03*
X13386Y17851D03*
X13390Y17418D03*
X13481Y12094D03*
X13805Y17780D03*
X13902Y19363D03*
X14024Y17149D03*
X14102Y13589D03*
X14136Y13896D03*
X14208Y15756D03*
X14331Y15106D03*
X14345Y18678D03*
X14355Y11954D03*
X14471Y11082D03*
X14528Y13061D03*
X14788Y10883D03*
X14795Y15434D03*
X14816Y12009D03*
X14840Y17663D03*
X14849Y16292D03*
X14866Y14703D03*
X15085Y13071D03*
X15165Y9944D03*
X15197Y4377D03*
X15245Y2548D03*
X15266Y24803D03*
X15340Y21215D03*
X15369Y15911D03*
X15432Y11554D03*
X15447Y11975D03*
X15572Y18686D03*
X15781Y7898D03*
X15793Y16165D03*
X15915Y9022D03*
X15992Y15520D03*
X16054Y13992D03*
X16069Y13358D03*
X16095Y21350D03*
X16236Y18671D03*
X16305Y16165D03*
X16390Y9741D03*
X16642Y13557D03*
X16849Y9141D03*
X16922Y5231D03*
X16977Y16121D03*
X16982Y15610D03*
X16991Y14558D03*
X17008Y17556D03*
X17147Y11848D03*
X17156Y13956D03*
X17306Y13343D03*
X17316Y14592D03*
X17394Y10901D03*
X17561Y21095D03*
X17705Y18109D03*
X17712Y18905D03*
X17722Y11281D03*
X17921Y9695D03*
X17927Y7907D03*
X17931Y9137D03*
X17947Y6948D03*
X18179Y12106D03*
X18216Y12915D03*
X18464Y14366D03*
X18500Y14659D03*
X18722Y14069D03*
X19072Y8032D03*
X19120Y19056D03*
X19430Y15057D03*
X19449Y24557D03*
X19495Y18518D03*
X19497Y12084D03*
Y13258D03*
X19747Y11809D03*
X19838Y18109D03*
X20093Y12568D03*
X20372Y23159D03*
X20437Y5284D03*
X20461Y6023D03*
X20616Y16076D03*
X20661Y14358D03*
X20782Y18401D03*
X20871Y9308D03*
X20899Y10622D03*
X21278Y23293D03*
X21308Y16809D03*
X21357Y21709D03*
Y22588D03*
X21547Y7995D03*
X21595Y14563D03*
X21767Y20031D03*
X21921Y11144D03*
X22166Y3491D03*
X22188Y19036D03*
X22275Y19410D03*
X22352Y18709D03*
X22357Y12915D03*
X22361Y24172D03*
X22432Y20258D03*
X22472Y8877D03*
X22511Y11320D03*
X22608Y5396D03*
X22680Y4215D03*
X23027Y20235D03*
X23129Y24125D03*
X23249Y13342D03*
X23663Y18734D03*
X23668Y17493D03*
X23701Y18037D03*
X23766Y19336D03*
X23803Y20258D03*
X23929Y24109D03*
X23992Y19820D03*
X24000Y18809D03*
X24495Y13257D03*
Y20035D03*
X24776Y23278D03*
X24792Y22572D03*
X24823Y21756D03*
X25165Y17186D03*
X25453Y18055D03*
Y18776D03*
X25467Y19524D03*
G54D19*
X1862Y7504D03*
Y8616D03*
Y9769D03*
Y10907D03*
X6127Y8683D03*
Y9786D03*
Y10860D03*
Y12000D03*
X7573Y10526D03*
X7790Y7294D03*
X9136Y10505D03*
X9309Y7288D03*
G54D20*
X3160Y22198D03*
X3711D03*
X7238Y12081D03*
X7789D03*
X12001Y13347D03*
X12031Y12414D03*
X12038Y14229D03*
X12062Y15259D03*
X12552Y13347D03*
X12582Y12414D03*
X12589Y14229D03*
X12613Y15259D03*
X21250Y19568D03*
X21253Y18064D03*
X21255Y18811D03*
X21801Y19568D03*
X21805Y18064D03*
X21806Y18811D03*
X22180Y7864D03*
X22731D03*
X23970Y17194D03*
X24479Y18808D03*
X24480Y19538D03*
X24481Y18073D03*
X24521Y17194D03*
X25030Y18808D03*
X25031Y19538D03*
X25032Y18073D03*
G54D21*
X10333Y13707D03*
X10762Y11387D03*
G54D22*
X10038Y12920D03*
Y14494D03*
X10235Y12920D03*
Y14494D03*
X10431Y12920D03*
Y14494D03*
X10467Y10600D03*
Y12175D03*
X10628Y12920D03*
Y14494D03*
X10663Y10600D03*
Y12175D03*
X10860Y10600D03*
Y12175D03*
X11057Y10600D03*
Y12175D03*
G54D23*
X9546Y13412D03*
Y13609D03*
Y13805D03*
Y14002D03*
X9974Y11092D03*
Y11289D03*
Y11486D03*
Y11682D03*
X11120Y13412D03*
Y13609D03*
Y13805D03*
Y14002D03*
X11549Y11092D03*
Y11289D03*
Y11486D03*
Y11682D03*
G54D24*
X14276Y12507D03*
Y16837D03*
X14473Y12507D03*
Y16837D03*
X14670Y12507D03*
Y16837D03*
X14866Y12507D03*
Y16837D03*
X15063Y12507D03*
Y16837D03*
X15260Y12507D03*
Y16837D03*
X15457Y12507D03*
Y16837D03*
X15654Y12507D03*
Y16837D03*
X15851Y12507D03*
Y16837D03*
X16048Y12507D03*
Y16837D03*
X16244Y12507D03*
Y16837D03*
X16441Y12507D03*
Y16837D03*
X16638Y12507D03*
Y16837D03*
X16835Y12507D03*
Y16837D03*
X17032Y12507D03*
Y16837D03*
X17229Y12507D03*
Y16837D03*
G54D25*
X13587Y13196D03*
Y13392D03*
Y13589D03*
Y13786D03*
Y13983D03*
Y14180D03*
Y14377D03*
Y14574D03*
Y14770D03*
Y14967D03*
Y15164D03*
Y15361D03*
Y15558D03*
Y15755D03*
Y15951D03*
Y16148D03*
X17918Y13196D03*
Y13392D03*
Y13589D03*
Y13786D03*
Y13983D03*
Y14180D03*
Y14377D03*
Y14574D03*
Y14770D03*
Y14967D03*
Y15164D03*
Y15361D03*
Y15558D03*
Y15755D03*
Y15951D03*
Y16148D03*
G54D26*
X19852Y16135D03*
Y16884D03*
X19874Y14652D03*
Y15400D03*
X19890Y13058D03*
Y13806D03*
X20451Y11466D03*
Y12214D03*
X20639Y16509D03*
X20661Y15026D03*
X20677Y13432D03*
X21239Y11840D03*
G54D27*
X9156Y6618D03*
X9530Y5831D03*
X9683Y18224D03*
X9904Y6618D03*
X10057Y19012D03*
X10431Y18224D03*
X11325Y18225D03*
X11699Y19012D03*
X12073Y18225D03*
X12941Y18236D03*
X13315Y19024D03*
X13689Y18236D03*
X14589Y18257D03*
X14963Y19045D03*
X15337Y18257D03*
X16416Y18122D03*
X16790Y18909D03*
X17164Y18122D03*
X18251Y18114D03*
X18625Y18901D03*
X18999Y18114D03*
G54D28*
X10398Y22214D03*
X10898Y24025D03*
X11398Y22214D03*
X14278Y22229D03*
X14778Y24040D03*
X15278Y22229D03*
X18228Y22260D03*
X18728Y24071D03*
X19228Y22260D03*
G54D29*
X11431Y5061D03*
Y6061D03*
Y7061D03*
X13242Y4561D03*
Y5561D03*
Y6561D03*
Y7561D03*
X22437Y9488D03*
Y10488D03*
X22439Y13466D03*
Y14466D03*
X24248Y9988D03*
X24250Y13966D03*
G54D30*
X3067Y11043D03*
X3086Y9746D03*
X3874Y11043D03*
X3893Y9746D03*
X7939Y8382D03*
X7945Y601D03*
X7950Y9430D03*
X8746Y8382D03*
X8753Y601D03*
X8757Y9430D03*
X9017Y2839D03*
X9824D03*
G54D31*
X9302Y20138D03*
X11664D03*
X12953Y20148D03*
X15315D03*
X16662Y20180D03*
X19024D03*
G54D32*
X2352Y14009D03*
Y14521D03*
Y15021D03*
Y15521D03*
Y16021D03*
Y16521D03*
Y17021D03*
Y17521D03*
Y18021D03*
Y18521D03*
Y19021D03*
Y19521D03*
Y20021D03*
X8044Y14021D03*
Y14521D03*
Y15021D03*
Y15521D03*
Y16021D03*
Y16521D03*
Y17021D03*
Y17521D03*
Y18021D03*
Y18521D03*
Y19021D03*
Y19521D03*
Y20021D03*
G54D33*
X3199Y13172D03*
Y20870D03*
X3699Y13172D03*
Y20870D03*
X4199Y13172D03*
Y20870D03*
X4699Y13172D03*
Y20870D03*
X5199Y13172D03*
Y20870D03*
X5699Y13172D03*
Y20870D03*
X6199Y13172D03*
Y20870D03*
X6699Y13172D03*
Y20870D03*
X7199Y13172D03*
Y20870D03*
G54D34*
X908Y17436D03*
Y18598D03*
X922Y15440D03*
Y16601D03*
G54D35*
X1508Y18017D03*
X1523Y16021D03*
G54D36*
X9237Y17014D03*
X10222Y17033D03*
X11266Y17058D03*
X12291Y17013D03*
G54D37*
X16017Y5955D03*
X16923D03*
X17828D03*
G54D38*
X16923Y8357D03*
G54D39*
X22623Y17507D03*
Y19436D03*
X22819Y17507D03*
Y19436D03*
X23016Y17507D03*
Y19436D03*
X23213Y17507D03*
Y19436D03*
X23410Y17507D03*
Y19436D03*
G54D40*
X13518Y10345D03*
X17219D03*
G54D41*
X21550Y20710D03*
Y24194D03*
X24739Y20710D03*
Y24194D03*
G54D42*
X19112Y9929D03*
Y11189D03*
G54D43*
X21421Y4824D03*
X23823D03*
G54D44*
X22642Y6713D03*
G54D45*
X5856Y22625D03*
Y24223D03*
X6356Y22625D03*
Y24223D03*
X6856Y22625D03*
Y24223D03*
X7356Y22625D03*
Y24223D03*
X7856Y22625D03*
Y24223D03*
G54D70*
X19088Y8730D03*
Y9281D03*
G54D71*
X4807Y10910D03*
Y11717D03*
X4815Y9074D03*
Y9881D03*
X9995Y15089D03*
Y15896D03*
X11130Y15089D03*
Y15896D03*
G54D72*
X10174Y1291D03*
X14311Y1283D03*
X17512Y3638D03*
X18465Y1318D03*
X22596Y1300D03*
G54D73*
X14694Y3555D03*
X15757D03*
M02*
