*
G04 Job   : E:\2017\MAKAHIYA\PCB\PCB\PCB.pcb*
G04 User  : WIN10:root*
G04 Layer : SolderPasteTop.gdo*
G04 Date  : Sun Dec 04 21:57:20 2016*
G04 Mentor Graphics Example Gerber Output Definition*
%ICAS*%
%MOIN*%
%FSLAX24Y24*%
%OFA0.0000B0.0000*%
G90*
G74*
%AMVB_RECTANGLE*
21,1,$1,$2,0,0,$3*
%
%ADD24O,0.10969X0.03000*%
%ADD25O,0.03000X0.10969*%
%ADD14VB_RECTANGLE,0.07874X0.07874X0.00000*%
%ADD17VB_RECTANGLE,0.01181X0.06299X0.00000*%
%ADD73VB_RECTANGLE,0.01181X0.07874X0.00000*%
%ADD16VB_RECTANGLE,0.02362X0.00984X180.00000*%
%ADD15VB_RECTANGLE,0.02362X0.00984X90.00000*%
%ADD33VB_RECTANGLE,0.03150X0.12205X180.00000*%
%ADD19VB_RECTANGLE,0.03543X0.03150X0.00000*%
%ADD70VB_RECTANGLE,0.03543X0.03150X90.00000*%
%ADD11VB_RECTANGLE,0.03937X0.02362X0.00000*%
%ADD13VB_RECTANGLE,0.03937X0.02362X90.00000*%
%ADD22VB_RECTANGLE,0.03937X0.06299X0.00000*%
%ADD12VB_RECTANGLE,0.03937X0.06299X270.00000*%
%ADD32VB_RECTANGLE,0.03937X0.07087X90.00000*%
%ADD27VB_RECTANGLE,0.04134X0.03937X270.00000*%
%ADD21VB_RECTANGLE,0.04528X0.12598X180.00000*%
%ADD29VB_RECTANGLE,0.04724X0.06299X0.00000*%
%ADD71VB_RECTANGLE,0.05906X0.12205X0.00000*%
%ADD20VB_RECTANGLE,0.05906X0.12205X270.00000*%
%ADD23VB_RECTANGLE,0.05906X0.14961X180.00000*%
%ADD30VB_RECTANGLE,0.05906X0.18898X90.00000*%
%ADD18VB_RECTANGLE,0.06299X0.01181X0.00000*%
%ADD72VB_RECTANGLE,0.06299X0.13780X90.00000*%
%ADD28VB_RECTANGLE,0.07874X0.11811X0.00000*%
%ADD10VB_RECTANGLE,0.07874X0.11811X270.00000*%
%ADD26VB_RECTANGLE,0.08661X0.04134X0.00000*%
%ADD31VB_RECTANGLE,0.08661X0.06693X90.00000*%
G01*
G36*
X1802Y20371D02*
X2849D01*
Y21418*
X2549*
Y20671*
X1802*
Y20371*
X2849Y12624D02*
Y13671D01*
X1802*
Y13371*
X2549*
Y12624*
X2849*
X7549Y21418D02*
Y20371D01*
X8595*
Y20671*
X7849*
Y21418*
X7549*
X8595Y13671D02*
X7549D01*
Y12624*
X7849*
Y13371*
X8595*
Y13671*
X9603Y23572D02*
X10193D01*
Y24635*
X9603*
Y23572*
X10821Y3766D02*
X11884D01*
Y4356*
X10821*
Y3766*
X13483Y23588D02*
X14074D01*
Y24651*
X13483*
Y23588*
X17433Y23618D02*
X18023D01*
Y24681*
X17433*
Y23618*
X23795Y10693D02*
X24858D01*
Y11283*
X23795*
Y10693*
X23798Y14670D02*
X24861D01*
Y15261*
X23798*
Y14670*
G37*
G54D10*
X1862Y7504D03*
Y8616D03*
Y9769D03*
Y10907D03*
X6127Y8683D03*
Y9786D03*
Y10860D03*
Y12000D03*
X7573Y10526D03*
X7790Y7294D03*
X9136Y10505D03*
X9309Y7288D03*
G54D11*
X19088Y8730D03*
Y9281D03*
G54D12*
X4807Y10910D03*
Y11717D03*
X4815Y9074D03*
Y9881D03*
X9995Y15089D03*
Y15896D03*
X11130Y15089D03*
Y15896D03*
G54D13*
X3160Y22198D03*
X3711D03*
X7238Y12081D03*
X7789D03*
X12001Y13347D03*
X12031Y12414D03*
X12038Y14229D03*
X12062Y15259D03*
X12552Y13347D03*
X12582Y12414D03*
X12589Y14229D03*
X12613Y15259D03*
X21250Y19568D03*
X21253Y18064D03*
X21255Y18811D03*
X21801Y19568D03*
X21805Y18064D03*
X21806Y18811D03*
X22180Y7864D03*
X22731D03*
X23970Y17194D03*
X24479Y18808D03*
X24480Y19538D03*
X24481Y18073D03*
X24521Y17194D03*
X25030Y18808D03*
X25031Y19538D03*
X25032Y18073D03*
G54D14*
X10333Y13707D03*
X10762Y11387D03*
G54D15*
X10038Y12920D03*
Y14494D03*
X10235Y12920D03*
Y14494D03*
X10431Y12920D03*
Y14494D03*
X10467Y10600D03*
Y12175D03*
X10628Y12920D03*
Y14494D03*
X10663Y10600D03*
Y12175D03*
X10860Y10600D03*
Y12175D03*
X11057Y10600D03*
Y12175D03*
G54D16*
X9546Y13412D03*
Y13609D03*
Y13805D03*
Y14002D03*
X9974Y11092D03*
Y11289D03*
Y11486D03*
Y11682D03*
X11120Y13412D03*
Y13609D03*
Y13805D03*
Y14002D03*
X11549Y11092D03*
Y11289D03*
Y11486D03*
Y11682D03*
G54D17*
X14276Y12507D03*
Y16837D03*
X14473Y12507D03*
Y16837D03*
X14670Y12507D03*
Y16837D03*
X14866Y12507D03*
Y16837D03*
X15063Y12507D03*
Y16837D03*
X15260Y12507D03*
Y16837D03*
X15457Y12507D03*
Y16837D03*
X15654Y12507D03*
Y16837D03*
X15851Y12507D03*
Y16837D03*
X16048Y12507D03*
Y16837D03*
X16244Y12507D03*
Y16837D03*
X16441Y12507D03*
Y16837D03*
X16638Y12507D03*
Y16837D03*
X16835Y12507D03*
Y16837D03*
X17032Y12507D03*
Y16837D03*
X17229Y12507D03*
Y16837D03*
G54D18*
X13587Y13196D03*
Y13392D03*
Y13589D03*
Y13786D03*
Y13983D03*
Y14180D03*
Y14377D03*
Y14574D03*
Y14770D03*
Y14967D03*
Y15164D03*
Y15361D03*
Y15558D03*
Y15755D03*
Y15951D03*
Y16148D03*
X17918Y13196D03*
Y13392D03*
Y13589D03*
Y13786D03*
Y13983D03*
Y14180D03*
Y14377D03*
Y14574D03*
Y14770D03*
Y14967D03*
Y15164D03*
Y15361D03*
Y15558D03*
Y15755D03*
Y15951D03*
Y16148D03*
G54D19*
X19852Y16135D03*
Y16884D03*
X19874Y14652D03*
Y15400D03*
X19890Y13058D03*
Y13806D03*
X20451Y11466D03*
Y12214D03*
X20639Y16509D03*
X20661Y15026D03*
X20677Y13432D03*
X21239Y11840D03*
G54D20*
X11431Y5061D03*
Y6061D03*
Y7061D03*
X13242Y4561D03*
Y5561D03*
Y6561D03*
Y7561D03*
X22437Y9488D03*
Y10488D03*
X22439Y13466D03*
Y14466D03*
X24248Y9988D03*
X24250Y13966D03*
G54D21*
X14694Y3555D03*
X15757D03*
G54D22*
X3067Y11043D03*
X3086Y9746D03*
X3874Y11043D03*
X3893Y9746D03*
X7939Y8382D03*
X7945Y601D03*
X7950Y9430D03*
X8746Y8382D03*
X8753Y601D03*
X8757Y9430D03*
X9017Y2839D03*
X9824D03*
G54D23*
X9302Y20138D03*
X11664D03*
X12953Y20148D03*
X15315D03*
X16662Y20180D03*
X19024D03*
G54D24*
X2352Y14009D03*
Y14521D03*
Y15021D03*
Y15521D03*
Y16021D03*
Y16521D03*
Y17021D03*
Y17521D03*
Y18021D03*
Y18521D03*
Y19021D03*
Y19521D03*
Y20021D03*
X8044Y14021D03*
Y14521D03*
Y15021D03*
Y15521D03*
Y16021D03*
Y16521D03*
Y17021D03*
Y17521D03*
Y18021D03*
Y18521D03*
Y19021D03*
Y19521D03*
Y20021D03*
G54D25*
X3199Y13172D03*
Y20870D03*
X3699Y13172D03*
Y20870D03*
X4199Y13172D03*
Y20870D03*
X4699Y13172D03*
Y20870D03*
X5199Y13172D03*
Y20870D03*
X5699Y13172D03*
Y20870D03*
X6199Y13172D03*
Y20870D03*
X6699Y13172D03*
Y20870D03*
X7199Y13172D03*
Y20870D03*
G54D26*
X908Y17436D03*
Y18598D03*
X922Y15440D03*
Y16601D03*
G54D27*
X1508Y18017D03*
X1523Y16021D03*
G54D28*
X9237Y17014D03*
X10222Y17033D03*
X11266Y17058D03*
X12291Y17013D03*
G54D29*
X16017Y5955D03*
X16923D03*
X17828D03*
G54D30*
X13518Y10345D03*
X17219D03*
G54D31*
X21550Y20710D03*
Y24194D03*
X24739Y20710D03*
Y24194D03*
G54D32*
X19112Y9929D03*
Y11189D03*
G54D33*
X5856Y22625D03*
Y24223D03*
X6356Y22625D03*
Y24223D03*
X6856Y22625D03*
Y24223D03*
X7356Y22625D03*
Y24223D03*
X7856Y22625D03*
Y24223D03*
G54D70*
X9156Y6618D03*
X9530Y5831D03*
X9683Y18224D03*
X9904Y6618D03*
X10057Y19012D03*
X10431Y18224D03*
X11325Y18225D03*
X11699Y19012D03*
X12073Y18225D03*
X12941Y18236D03*
X13315Y19024D03*
X13689Y18236D03*
X14589Y18257D03*
X14963Y19045D03*
X15337Y18257D03*
X16416Y18122D03*
X16790Y18909D03*
X17164Y18122D03*
X18251Y18114D03*
X18625Y18901D03*
X18999Y18114D03*
G54D71*
X10398Y22214D03*
X10898Y24025D03*
X11398Y22214D03*
X14278Y22229D03*
X14778Y24040D03*
X15278Y22229D03*
X18228Y22260D03*
X18728Y24071D03*
X19228Y22260D03*
G54D72*
X16923Y8357D03*
G54D73*
X22623Y17507D03*
Y19436D03*
X22819Y17507D03*
Y19436D03*
X23016Y17507D03*
Y19436D03*
X23213Y17507D03*
Y19436D03*
X23410Y17507D03*
Y19436D03*
M02*
