*
G04 Job   : E:\2017\MAKAHIYA\PCB\PCB\PCB.pcb*
G04 User  : WIN10:root*
G04 Layer : SolderPasteBottom.gdo*
G04 Date  : Sat Dec 03 20:18:16 2016*
G04 Mentor Graphics Example Gerber Output Definition*
%ICAS*%
%MOIN*%
%FSLAX24Y24*%
%OFA0.0000B0.0000*%
G90*
G74*
%AMVB_RECTANGLE*
21,1,$1,$2,0,0,$3*
%
%ADD14VB_RECTANGLE,0.03543X0.03150X180.00000*%
%ADD12VB_RECTANGLE,0.03543X0.03150X90.00000*%
%ADD17VB_RECTANGLE,0.03543X0.06299X270.00000*%
%ADD11VB_RECTANGLE,0.03937X0.02362X0.00000*%
%ADD10VB_RECTANGLE,0.03937X0.02362X90.00000*%
%ADD71VB_RECTANGLE,0.03937X0.11614X180.00000*%
%ADD18VB_RECTANGLE,0.04724X0.05118X270.00000*%
%ADD16VB_RECTANGLE,0.05906X0.14961X0.00000*%
%ADD15VB_RECTANGLE,0.05906X0.14961X270.00000*%
%ADD70VB_RECTANGLE,0.07874X0.03150X180.00000*%
%ADD19VB_RECTANGLE,0.07874X0.03150X270.00000*%
%ADD20VB_RECTANGLE,0.07874X0.07087X180.00000*%
%ADD13VB_RECTANGLE,0.20472X0.04331X90.00000*%
G01*
G54D10*
X3114Y9819D03*
X3160Y22197D03*
X3198Y12204D03*
X3361Y11031D03*
X3665Y9819D03*
X3711Y22197D03*
X3749Y12204D03*
X3912Y11031D03*
X7243Y12079D03*
X7794D03*
X8024Y531D03*
X8079Y9435D03*
X8105Y8376D03*
X8575Y531D03*
X8630Y9435D03*
X8656Y8376D03*
X9204Y2928D03*
X9755D03*
X13442Y11077D03*
X13993D03*
X15620Y4807D03*
X16171D03*
X17408Y16727D03*
X17959D03*
X18748Y10515D03*
X19299D03*
X22687Y19641D03*
X22743Y18713D03*
X22745Y17968D03*
X23239Y19641D03*
X23294Y18713D03*
X23296Y17968D03*
X23972Y17195D03*
X24524D03*
G54D11*
X4780Y9123D03*
Y9674D03*
X4808Y10979D03*
Y11530D03*
X9990Y15256D03*
Y15807D03*
X11132Y15237D03*
Y15788D03*
X11848Y24146D03*
Y24697D03*
X13161Y16259D03*
Y16810D03*
X13873Y16269D03*
Y16820D03*
X13898Y12169D03*
Y12720D03*
X14573Y14888D03*
Y15439D03*
X14678Y10028D03*
Y10580D03*
X15721Y24057D03*
Y24608D03*
X16085Y12445D03*
Y12996D03*
X16367Y15055D03*
Y15606D03*
X16837Y12446D03*
Y12997D03*
X17755Y12440D03*
Y12991D03*
X17856Y11214D03*
Y11765D03*
X19449Y23617D03*
Y24168D03*
X24905Y12289D03*
Y12840D03*
G54D12*
X11474Y22906D03*
X11848Y23693D03*
X12222Y22906D03*
X15354Y22817D03*
X15728Y23604D03*
X16102Y22817D03*
X19091Y22418D03*
X19465Y23206D03*
X19839Y22418D03*
X20223Y7207D03*
X20597Y7995D03*
X20971Y7207D03*
X23407Y12311D03*
X23781Y13099D03*
X24155Y12311D03*
G54D13*
X9167Y4447D03*
X9876D03*
G54D14*
X14267Y6774D03*
X14270Y8344D03*
X14275Y5200D03*
X15054Y6400D03*
Y7148D03*
X15058Y7970D03*
Y8718D03*
X15062Y4826D03*
Y5574D03*
G54D15*
X20705Y13150D03*
Y15513D03*
X20873Y8732D03*
Y11094D03*
X23311Y7993D03*
Y10355D03*
G54D16*
X9220Y20190D03*
X10963Y4888D03*
X10965Y6951D03*
X10971Y9004D03*
X11582Y20190D03*
X12596Y20163D03*
X13325Y4888D03*
X13327Y6951D03*
X13333Y9004D03*
X14959Y20163D03*
X15953Y20196D03*
X18315D03*
X22674Y14178D03*
X25036D03*
G54D17*
X21570Y18778D03*
Y19407D03*
X24528Y18469D03*
Y19099D03*
G54D18*
X21177Y17830D03*
X22082D03*
G54D19*
X1862Y1309D03*
Y6348D03*
X2334Y1309D03*
Y6348D03*
X2807Y1309D03*
Y6348D03*
X3279Y1309D03*
Y6348D03*
X3752Y1309D03*
Y6348D03*
X4224Y1309D03*
Y6348D03*
X4697Y1309D03*
Y6348D03*
X5169Y1309D03*
Y6348D03*
X5641Y1309D03*
Y6348D03*
X6114Y1309D03*
Y6348D03*
X6586Y1309D03*
Y6348D03*
X7059Y1309D03*
Y6348D03*
G54D20*
X8279Y1585D03*
Y6073D03*
G54D70*
X8043Y2214D03*
Y2608D03*
Y3120D03*
Y3592D03*
Y4065D03*
Y4537D03*
Y5049D03*
Y5443D03*
G54D71*
X405Y1506D03*
Y6151D03*
M02*
